<svg version="1.2" baseProfile="tiny-ps" xmlns="http://www.w3.org/2000/svg" viewBox="0 0 512 512" width="512" height="512">
<title>Fundi Finance</title>
<path d="M0,0 L512,0 L512,512 L0,512 Z " fill="#FEFEFE" transform="translate(0,0)"/>
<path d="M0,0 L4,0 L2,11 L-4,20 L-12,27 L-33,37 L-41,41 L-50,49 L-50,61 L-46,67 L-46,69 L-42,71 L-34,77 L-22,81 L-11,87 L0,94 L8,103 L14,115 L19,135 L27,155 L36,169 L36,179 L32,186 L18,194 L13,195 L3,195 L-5,188 L-12,181 L-27,176 L-39,173 L-47,168 L-54,169 L-64,179 L-75,195 L-79,200 L-69,199 L-46,199 L-33,203 L-27,208 L-24,212 L-23,216 L-23,224 L-27,234 L-32,242 L-41,252 L-51,262 L-66,272 L-85,280 L-96,281 L-95,270 L-91,257 L-86,249 L-81,248 L-70,248 L-65,246 L-63,242 L-59,234 L-60,229 L-74,229 L-88,233 L-109,241 L-123,246 L-137,251 L-152,255 L-168,260 L-179,262 L-204,262 L-222,258 L-239,251 L-250,244 L-261,235 L-270,224 L-278,210 L-282,200 L-284,191 L-285,182 L-285,160 L-282,146 L-274,127 L-266,114 L-257,102 L-248,92 L-231,75 L-220,66 L-210,57 L-208,57 L-210,52 L-222,39 L-222,36 L-194,31 L-163,26 L-144,22 L-138,22 L-139,27 L-145,43 L-149,55 L-160,84 L-165,99 L-169,99 L-181,86 L-185,84 L-198,94 L-202,98 L-204,98 L-204,100 L-212,107 L-225,120 L-237,136 L-245,153 L-248,165 L-248,182 L-243,196 L-237,206 L-229,215 L-213,224 L-204,227 L-198,228 L-178,228 L-162,225 L-153,221 L-138,213 L-126,204 L-116,195 L-103,179 L-90,158 L-82,142 L-72,127 L-60,116 L-51,112 L-45,110 L-59,102 L-70,92 L-76,83 L-82,70 L-83,57 L-81,47 L-74,35 L-67,28 L-53,20 L-42,17 L-23,14 L-7,6 Z " fill="#1E3A6F" transform="translate(392,91)"/>
<path d="M0,0 L6,0 L5,5 L-1,21 L-5,33 L-16,62 L-21,77 L-25,77 L-37,64 L-41,62 L-54,72 L-58,76 L-60,76 L-60,78 L-68,85 L-81,98 L-93,114 L-101,131 L-104,143 L-104,160 L-99,174 L-93,184 L-85,193 L-69,202 L-60,205 L-54,206 L-34,206 L-18,203 L-9,199 L6,191 L18,182 L28,173 L41,157 L54,136 L62,120 L64,118 L64,129 L60,156 L54,174 L46,188 L40,196 L29,209 L18,219 L5,227 L1,229 L-2,229 L-2,231 L-20,237 L-35,240 L-60,240 L-78,236 L-95,229 L-106,222 L-117,213 L-126,202 L-134,188 L-138,178 L-140,169 L-141,160 L-141,138 L-138,124 L-130,105 L-122,92 L-113,80 L-104,70 L-87,53 L-76,44 L-66,35 L-64,35 L-66,30 L-78,17 L-78,14 L-50,9 L-19,4 Z " fill="#148B86" transform="translate(248,113)"/>
<path d="M0,0 L1,0 L1,11 L-3,38 L-7,46 L-17,60 L-28,72 L-35,78 L-48,88 L-64,96 L-76,101 L-89,104 L-112,104 L-120,102 L-131,98 L-140,93 L-140,91 L-145,89 L-149,85 L-149,83 L-151,83 L-155,77 L-155,69 L-157,69 L-158,71 L-158,69 L-160,69 L-163,61 L-163,56 L-160,60 L-152,71 L-145,77 L-129,85 L-117,88 L-97,88 L-81,85 L-72,81 L-57,73 L-45,64 L-35,55 L-22,39 L-9,18 L-1,2 Z " fill="#36A29A" transform="translate(311,231)"/>
<path d="M0,0 L2,0 L2,9 L-1,32 L-3,36 L-12,29 L-16,31 L-27,43 L-36,54 L-44,62 L-53,73 L-57,76 L-73,64 L-78,60 L-82,62 L-91,73 L-103,86 L-112,97 L-122,108 L-126,106 L-130,101 L-129,96 L-119,85 L-110,74 L-99,62 L-92,54 L-82,42 L-78,43 L-65,53 L-59,57 L-55,55 L-45,44 L-38,36 L-29,26 L-25,21 L-26,17 L-32,13 L-32,11 L-14,5 L-5,2 Z " fill="#C8A863" transform="translate(290,191)"/>
<path d="M0,0 L4,1 L12,9 L25,18 L37,24 L40,25 L40,27 L29,29 L16,34 L6,40 L-4,49 L-11,60 L-14,68 L-43,68 L-40,59 L-30,38 L-22,26 L-11,13 L-8,9 L-6,9 L-4,5 Z " fill="#192E5E" transform="translate(120,328)"/>
<path d="M0,0 L4,1 L-1,7 L-4,13 L-6,20 L-7,45 L-11,58 L-15,66 L-23,76 L-33,83 L-41,87 L-44,88 L-52,88 L-58,76 L-64,68 L-69,63 L-70,60 L-52,60 L-44,58 L-34,52 L-28,44 L-24,36 L-19,19 L-14,11 L-9,5 L-3,1 Z " fill="#C4A057" transform="translate(465,118)"/>
<path d="M0,0 L2,0 L2,9 L-1,32 L-3,36 L-12,29 L-16,31 L-27,43 L-36,54 L-44,62 L-53,73 L-55,70 L-52,70 L-51,63 L-52,60 L-57,62 L-57,60 L-60,61 L-62,59 L-61,56 L-57,57 L-45,44 L-38,36 L-29,26 L-25,21 L-26,17 L-32,13 L-32,11 L-14,5 L-5,2 Z M-51,57 L-50,59 L-49,57 Z M-52,59 Z " fill="#DDC279" transform="translate(290,191)"/>
<path d="M0,0 L5,0 L7,7 L12,20 L16,26 L16,28 L9,27 L3,25 L-15,25 L-29,28 L-48,39 L-61,49 L-65,51 L-63,46 L-52,32 L-48,27 L-42,23 L-38,18 L-25,9 L-13,3 Z " fill="#26958E" transform="translate(297,156)"/>
<path d="M0,0 L4,2 L4,39 L-1,47 L-10,57 L-17,63 L-20,63 L-20,22 L-5,6 Z " fill="#CCAA5F" transform="translate(277,228)"/>
<path d="M0,0 L4,0 L2,11 L-4,20 L-12,27 L-33,37 L-41,41 L-50,49 L-50,67 L-47,68 L-49,69 L-56,63 L-56,61 L-58,61 L-61,54 L-61,44 L-55,34 L-44,28 L-18,19 L-8,13 L-2,6 Z " fill="#182E5F" transform="translate(392,91)"/>
<path d="M0,0 L2,0 L2,36 L-12,43 L-18,45 L-22,45 L-22,4 L-17,6 L-12,10 L-7,9 Z " fill="#BA944B" transform="translate(244,264)"/>
<path d="M0,0 L2,1 L-5,10 L4,9 L4,11 L2,11 L2,16 L-8,27 L-17,38 L-27,49 L-31,47 L-35,42 L-34,37 L-24,26 L-15,15 L-3,2 Z " fill="#AC8845" transform="translate(195,250)"/>
<path d="M0,0 L2,0 L2,9 L-1,32 L-3,36 L-11,30 L-12,27 L-18,25 L-22,22 L-23,18 L-26,10 L-21,7 L-10,3 Z M-19,25 Z " fill="#C4A35D" transform="translate(290,191)"/>
<path d="M0,0 L24,0 L24,24 L9,24 L0,21 Z " fill="#BB974D" transform="translate(187,288)"/>
<path d="M0,0 L1,2 L-2,12 L-4,17 L-7,26 L-12,42 L-16,47 L-17,49 L-19,49 L-19,54 L-21,54 L-21,59 L-24,64 L-25,62 L-21,35 L-20,23 L-12,11 Z " fill="#0C666F" transform="translate(332,207)"/>
<path d="M0,0 L4,1 L-1,7 L-4,13 L-6,20 L-7,45 L-8,45 L-9,19 L-8,15 L-6,15 L-8,10 L-8,9 L-12,13 L-13,17 L-17,22 L-16,26 L-18,26 L-19,33 L-21,37 L-18,37 L-19,39 L-24,40 L-25,49 L-26,53 L-30,55 L-34,55 L-39,57 L-39,59 L-44,59 L-40,56 L-32,50 L-26,40 L-23,31 L-17,15 L-9,5 L-3,1 Z M-19,24 Z " fill="#DFCA8D" transform="translate(465,118)"/>
<path d="M0,0 L3,0 L3,2 L6,3 L6,6 L9,6 L10,9 L15,10 L15,17 L13,17 L13,15 L8,19 L6,24 L1,24 L-1,30 L-6,31 L-10,36 L-10,38 L-17,40 L-18,42 L-23,47 L-22,49 L-27,51 L-28,54 L-32,55 L-31,58 L-33,58 L-34,60 L-39,65 L-38,69 L-42,69 L-47,76 L-50,77 L-48,72 L-39,60 L-30,50 L-13,33 L-2,24 L8,15 L10,15 L8,10 L0,1 Z " fill="#49A79E" transform="translate(174,133)"/>
<path d="M0,0 L2,3 L0,3 L-1,11 L-4,11 L-4,15 L-6,15 L-7,20 L-14,31 L-19,37 L-21,39 L-26,44 L-30,49 L-27,49 L-26,51 L-24,52 L-37,58 L-54,63 L-58,62 L-44,55 L-35,48 L-25,39 L-14,26 L-5,10 Z " fill="#0B385C" transform="translate(304,280)"/>
<path d="M0,0 L2,0 L2,36 L-2,38 L-4,28 L-7,26 L-7,12 L-11,13 L-11,11 L-6,8 Z " fill="#DDC077" transform="translate(244,264)"/>
<path d="M0,0 L1,4 L-7,13 L-21,20 L-33,24 L-36,23 L-31,21 L-33,19 L-37,17 L-41,18 L-45,16 L-21,12 L-5,4 Z M-30,18 L-29,20 L-28,18 Z M-43,18 L-41,18 L-42,20 Z " fill="#2B4F83" transform="translate(390,93)"/>
<path d="M0,0 L22,0 L22,24 L7,24 L7,23 L17,23 L17,19 L13,18 L13,2 L8,3 L7,5 L6,2 L0,1 Z " fill="#D7BB75" transform="translate(189,288)"/>
<path d="M0,0 L3,1 L2,6 L8,6 L4,10 L-7,17 L-19,26 L-19,23 L-11,12 L-3,2 Z " fill="#13807C" transform="translate(252,181)"/>
<path d="M0,0 L6,2 L11,6 L18,16 L20,18 L20,21 L15,19 L4,13 L0,8 Z " fill="#F0F1F4" transform="translate(372,212)"/>
<path d="M0,0 L4,2 L4,39 L2,41 L1,40 L2,29 L2,16 L1,13 L3,4 L-2,6 L-8,13 L-7,17 L-9,19 L-14,17 L-11,12 Z " fill="#DEC583" transform="translate(277,228)"/>
<path d="M0,0 Z M-2,1 L3,3 L5,2 L5,4 L7,5 L-6,11 L-23,16 L-27,15 L-13,8 L-6,5 Z " fill="#1A345B" transform="translate(273,327)"/>
<path d="M0,0 L4,1 L-3,4 L-14,5 L-18,7 L-21,6 L-22,8 L-27,7 L-28,9 L-28,7 L-36,7 L-37,10 L-47,11 L-49,15 L-53,10 L-47,8 L-13,2 Z " fill="#5FB0A6" transform="translate(222,118)"/>
<path d="M0,0 L2,1 L-5,10 L-15,17 L-23,21 L-26,22 L-34,22 L-35,17 L-23,18 L-19,16 L-14,12 L-8,9 L-6,5 L-6,3 L-1,3 Z " fill="#AE8F54" transform="translate(447,184)"/>
<path d="M0,0 L1,2 L-3,12 L-10,25 L-16,33 L-17,30 L-13,24 L-11,21 L-11,18 L-12,20 L-14,20 L-12,16 L-3,4 Z " fill="#117A7E" transform="translate(304,276)"/>
<path d="M0,0 L3,4 L2,9 L2,23 L3,27 L5,27 L7,32 L3,37 L0,37 Z " fill="#A9853D" transform="translate(258,253)"/>
<path d="M0,0 L5,2 L11,7 L7,9 L5,8 L3,11 L2,10 L1,41 L0,41 Z " fill="#BB9F62" transform="translate(222,268)"/>
<path d="M0,0 L2,0 L3,5 L2,12 L2,19 L10,19 L16,21 L16,23 L5,23 L0,21 Z " fill="#A98A4B" transform="translate(187,288)"/>
<path d="M0,0 L4,5 L7,10 L7,20 L6,20 L5,14 L-1,14 L-5,11 L-2,10 L0,6 L-1,1 Z " fill="#365C8C" transform="translate(421,250)"/>
<path d="M0,0 L22,1 L22,2 L17,2 L16,4 L6,2 L6,6 L10,8 L11,11 L15,12 L16,15 L15,17 L11,15 L7,9 L2,4 Z " fill="#AB8D55" transform="translate(395,178)"/>
<path d="M0,0 L1,2 L-5,11 L-8,12 L-11,15 L-11,13 L-17,16 L-22,16 L-18,13 L-6,5 Z " fill="#4DAAA0" transform="translate(267,294)"/>
<path d="M0,0 L4,1 L6,0 L7,4 L5,8 L2,6 L1,40 L3,41 L0,41 Z " fill="#B69960" transform="translate(257,250)"/>
<path d="M0,0 L2,0 L3,8 L-2,11 L-6,11 L-11,13 L-11,15 L-16,15 L-12,12 L-4,6 Z " fill="#D4B979" transform="translate(437,162)"/>
<path d="M0,0 L3,4 L11,15 L18,21 L18,22 L13,22 L12,19 L8,17 L8,13 L6,13 L5,15 L5,13 L3,13 L0,5 Z " fill="#3A9991" transform="translate(148,287)"/>
<path d="M0,0 L2,0 L4,4 L-8,13 L-12,15 L-10,10 L-5,4 Z " fill="#217F79" transform="translate(244,192)"/>
</svg>
