<svg xmlns="http://www.w3.org/2000/svg" viewBox="149.90 -86.13 1143.49 405.16" width="1143" height="405">
    <g id="n-wordmark"><path d="M 353.41 9.17 C 353.53 9.17 353.53 9.17 354.17 9.17 C 359.19 9.18 363.99 9.62 368.92 10.57 C 370.01 10.75 371.09 10.85 372.19 10.94 C 374.79 11.21 377.21 11.82 379.72 12.55 C 380.16 12.67 380.59 12.79 381.05 12.92 C 384.06 13.78 387.04 14.70 390.00 15.75 C 390.34 15.86 390.69 15.98 391.04 16.09 C 394.22 17.15 397.23 18.56 400.25 20.00 C 400.68 20.20 401.11 20.41 401.55 20.62 C 405.53 22.56 409.33 24.78 413.00 27.25 C 413.24 27.40 413.48 27.56 413.73 27.72 C 415.99 29.19 418.13 30.83 420.25 32.50 C 420.36 32.58 420.36 32.58 420.89 33.00 C 422.69 34.44 424.31 36.01 425.92 37.66 C 427.49 39.25 429.06 40.79 430.75 42.25 C 433.93 45.41 436.46 49.06 439.02 52.72 C 439.70 53.68 440.40 54.62 441.11 55.56 C 450.74 68.64 456.35 84.53 458.75 100.50 C 458.82 100.92 458.88 101.34 458.95 101.78 C 459.50 105.29 459.79 108.71 459.81 112.27 C 459.81 112.62 459.81 112.98 459.82 113.35 C 459.82 114.10 459.82 114.85 459.82 115.60 C 459.83 116.36 459.83 117.12 459.84 117.87 C 459.89 122.85 459.60 127.59 458.75 132.50 C 458.65 133.16 458.55 133.81 458.45 134.47 C 457.52 140.06 455.98 145.44 454.00 150.75 C 453.88 151.10 453.75 151.46 453.62 151.82 C 451.24 158.56 448.15 165.01 444.25 171.00 C 444.00 171.38 443.76 171.75 443.50 172.14 C 441.44 175.28 439.22 178.24 436.89 181.19 C 436.38 181.84 435.88 182.49 435.38 183.14 C 433.61 185.38 431.78 187.50 429.75 189.50 C 429.50 189.79 429.25 190.09 429.00 190.39 C 428.15 191.37 427.24 192.16 426.25 193.00 C 426.00 193.21 425.75 193.42 425.50 193.64 C 423.76 195.12 422.02 196.57 420.25 198.00 C 420.07 198.15 419.89 198.30 419.71 198.45 C 418.22 199.67 416.68 200.71 415.05 201.72 C 413.18 202.88 411.41 204.09 409.68 205.46 C 408.66 206.27 407.59 207.02 406.50 207.75 C 406.39 207.82 406.39 207.82 405.83 208.20 C 397.15 213.77 386.76 217.22 376.75 219.50 C 376.29 219.61 375.84 219.71 375.37 219.83 C 357.55 223.74 337.63 223.24 320.25 217.50 C 319.95 217.40 319.65 217.30 319.34 217.20 C 317.50 216.59 315.67 215.95 313.84 215.30 C 313.06 215.02 312.28 214.75 311.51 214.48 C 305.29 212.30 299.45 209.32 294.14 205.40 C 292.66 204.32 291.13 203.30 289.61 202.27 C 288.55 201.54 287.53 200.78 286.50 200.00 C 286.25 199.81 285.99 199.63 285.73 199.44 C 284.32 198.41 283.03 197.36 281.83 196.08 C 281.35 195.60 280.84 195.14 280.32 194.70 C 278.96 193.50 277.70 192.21 276.43 190.92 C 275.24 189.72 274.02 188.60 272.75 187.50 C 269.39 184.22 266.87 180.12 264.25 176.25 C 264.04 175.95 263.83 175.64 263.62 175.33 C 261.11 171.64 258.92 167.78 257.00 163.75 C 256.88 163.51 256.76 163.26 256.64 163.01 C 252.66 154.76 249.53 146.25 247.75 137.25 C 247.69 136.93 247.62 136.62 247.56 136.29 C 246.63 131.53 245.97 126.84 245.75 122.00 C 245.74 121.74 245.73 121.48 245.71 121.21 C 245.66 120.04 245.61 118.88 245.56 117.71 C 245.50 116.75 245.50 116.75 245.25 116.25 C 245.19 113.87 245.19 113.87 245.50 113.25 C 245.56 112.65 245.61 112.05 245.65 111.45 C 245.68 111.08 245.71 110.71 245.74 110.32 C 245.77 109.92 245.80 109.52 245.83 109.11 C 246.58 99.67 248.28 90.25 252.00 81.50 C 252.16 81.12 252.31 80.74 252.48 80.35 C 255.22 73.74 258.01 67.12 261.75 61.00 C 261.99 60.58 262.23 60.16 262.48 59.73 C 264.14 57.06 265.96 54.50 267.90 52.02 C 268.50 51.25 269.07 50.47 269.64 49.69 C 270.49 48.55 271.39 47.55 272.42 46.58 C 273.00 46.00 273.00 46.00 273.73 45.15 C 275.14 43.52 276.70 42.01 278.23 40.48 C 278.54 40.17 278.85 39.86 279.17 39.54 C 280.66 38.06 282.15 36.61 283.75 35.25 C 284.16 34.86 284.57 34.47 284.98 34.08 C 286.77 32.45 288.75 31.10 290.75 29.75 C 291.08 29.52 291.41 29.30 291.76 29.06 C 295.80 26.37 300.14 24.14 304.50 22.00 C 304.79 21.85 305.09 21.70 305.39 21.55 C 310.52 18.94 315.76 16.50 321.25 14.75 C 321.45 14.68 321.45 14.68 322.44 14.35 C 327.43 12.71 332.46 11.53 337.65 10.72 C 338.76 10.54 339.84 10.33 340.94 10.09 C 345.05 9.25 349.22 9.16 353.41 9.17 Z M 349.67 52.52 C 346.56 52.64 343.55 53.15 340.50 53.75 C 340.37 53.77 340.37 53.77 339.69 53.90 C 337.34 54.35 335.17 55.11 332.94 55.98 C 332.57 56.13 332.20 56.27 331.81 56.42 C 326.48 58.52 321.59 60.81 316.87 64.08 C 316.26 64.49 315.65 64.89 315.04 65.30 C 314.23 65.85 313.51 66.38 312.80 67.05 C 312.69 67.14 312.69 67.14 312.17 67.63 C 311.95 67.83 311.73 68.04 311.50 68.25 C 311.25 68.47 311.01 68.70 310.75 68.93 C 303.24 75.74 297.74 84.84 294.00 94.25 C 293.89 94.52 293.78 94.80 293.66 95.08 C 292.90 97.13 292.47 99.22 292.08 101.36 C 292.03 101.63 291.98 101.90 291.92 102.17 C 291.11 106.87 290.92 111.62 290.93 116.37 C 290.94 117.14 290.93 117.91 290.93 118.68 C 290.92 131.39 294.08 144.04 302.10 154.15 C 302.82 155.09 303.48 156.05 304.14 157.03 C 307.06 161.30 310.62 165.12 314.75 168.25 C 314.86 168.34 314.86 168.34 315.44 168.79 C 316.20 169.37 316.98 169.93 317.75 170.50 C 318.02 170.70 318.29 170.91 318.57 171.12 C 320.75 172.70 323.04 173.98 325.42 175.22 C 325.72 175.38 326.03 175.53 326.34 175.70 C 330.59 177.86 334.89 179.21 339.58 180.05 C 339.92 180.11 340.27 180.18 340.62 180.24 C 344.84 181.00 349.03 181.05 353.29 181.05 C 354.14 181.05 354.99 181.05 355.83 181.06 C 359.93 181.07 363.73 180.71 367.70 179.69 C 368.01 179.61 368.31 179.53 368.62 179.45 C 373.73 178.13 378.95 176.47 383.50 173.75 C 383.64 173.67 383.64 173.67 384.34 173.27 C 386.93 171.77 389.34 170.04 391.75 168.25 C 391.86 168.17 391.86 168.17 392.45 167.75 C 394.41 166.32 396.16 164.74 397.88 163.02 C 398.15 162.74 398.42 162.47 398.71 162.18 C 400.82 160.03 402.43 157.83 404.00 155.25 C 404.43 154.65 404.86 154.06 405.30 153.47 C 415.46 139.31 416.94 121.80 415.00 105.00 C 414.95 104.55 414.90 104.10 414.85 103.64 C 414.43 100.36 413.37 97.34 412.25 94.25 C 412.13 93.92 412.02 93.60 411.90 93.26 C 411.12 91.17 410.13 89.18 409.14 87.19 C 409.01 86.91 408.87 86.64 408.73 86.36 C 407.84 84.58 406.84 82.91 405.75 81.25 C 405.56 80.95 405.37 80.65 405.17 80.34 C 401.26 74.17 396.84 68.88 390.75 64.75 C 390.49 64.56 390.22 64.37 389.95 64.18 C 386.28 61.56 382.40 59.72 378.25 58.00 C 377.65 57.73 377.05 57.47 376.45 57.20 C 367.94 53.56 358.86 52.33 349.67 52.52 Z" fill="#083088"/><path d="M 1102.58 10.64 C 1103.39 10.77 1104.19 10.80 1105.02 10.83 C 1110.50 11.15 1115.73 12.82 1120.92 14.51 C 1122.52 15.03 1124.13 15.49 1125.77 15.89 C 1129.60 16.88 1133.05 18.75 1136.57 20.53 C 1137.38 20.94 1138.20 21.34 1139.02 21.74 C 1144.05 24.15 1148.87 27.14 1153.50 30.25 C 1153.78 30.43 1154.06 30.61 1154.36 30.80 C 1156.21 32.03 1157.80 33.43 1159.41 34.96 C 1160.16 35.66 1160.92 36.31 1161.72 36.95 C 1163.59 38.46 1165.19 40.17 1166.75 42.00 C 1166.86 42.13 1166.86 42.13 1167.41 42.77 C 1168.45 43.98 1169.47 45.20 1170.44 46.47 C 1171.25 47.50 1171.25 47.50 1172.11 48.36 C 1175.05 51.30 1177.49 54.87 1179.50 58.50 C 1179.80 59.02 1180.10 59.54 1180.41 60.06 C 1181.49 61.96 1182.53 63.89 1183.56 65.82 C 1184.19 66.99 1184.83 68.14 1185.52 69.27 C 1187.80 73.10 1189.41 77.20 1190.91 81.39 C 1191.42 82.79 1191.97 84.17 1192.55 85.55 C 1193.57 88.08 1194.33 90.66 1195.05 93.29 C 1195.23 93.94 1195.43 94.59 1195.62 95.23 C 1196.38 97.87 1196.71 100.43 1196.89 103.16 C 1197.17 106.51 1197.17 106.51 1198.00 107.75 C 1198.07 108.50 1198.07 108.50 1198.07 109.44 C 1198.07 109.79 1198.07 110.14 1198.08 110.50 C 1198.08 110.87 1198.08 111.25 1198.08 111.64 C 1198.08 111.84 1198.08 111.84 1198.08 112.82 C 1198.08 113.65 1198.08 114.47 1198.08 115.29 C 1198.08 116.55 1198.08 117.81 1198.09 119.07 C 1198.09 119.87 1198.09 120.67 1198.09 121.47 C 1198.09 121.85 1198.10 122.23 1198.10 122.61 C 1198.10 122.79 1198.10 122.79 1198.09 123.68 C 1198.09 123.99 1198.09 124.30 1198.09 124.62 C 1197.99 125.62 1197.67 126.35 1197.25 127.25 C 1197.09 127.99 1197.09 127.99 1196.99 128.73 C 1196.96 129.00 1196.92 129.27 1196.88 129.55 C 1196.80 130.12 1196.73 130.68 1196.66 131.24 C 1196.42 132.95 1196.04 134.54 1195.51 136.19 C 1195.17 137.26 1194.91 138.33 1194.64 139.42 C 1193.83 142.73 1192.77 145.83 1191.50 149.00 C 1191.20 149.80 1190.90 150.60 1190.61 151.41 C 1190.47 151.79 1190.33 152.18 1190.18 152.58 C 1189.89 153.37 1189.60 154.16 1189.32 154.96 C 1188.39 157.59 1187.30 160.03 1186.00 162.50 C 1185.75 163.00 1185.49 163.50 1185.24 164.00 C 1183.70 167.01 1182.10 169.92 1180.25 172.75 C 1180.02 173.11 1179.80 173.47 1179.56 173.84 C 1178.24 175.93 1176.86 177.88 1175.25 179.75 C 1175.04 180.02 1174.83 180.29 1174.61 180.56 C 1174.00 181.25 1174.00 181.25 1173.09 182.03 C 1171.70 183.26 1170.49 184.62 1169.25 186.00 C 1168.77 186.52 1168.29 187.04 1167.81 187.56 C 1166.59 188.90 1165.38 190.25 1164.21 191.64 C 1162.83 193.22 1161.35 194.51 1159.68 195.78 C 1158.71 196.53 1157.80 197.32 1156.89 198.12 C 1154.00 200.65 1150.99 202.70 1147.65 204.59 C 1145.80 205.65 1144.03 206.81 1142.27 207.99 C 1138.68 210.29 1134.74 212.02 1130.75 213.50 C 1130.59 213.58 1130.59 213.58 1129.78 213.98 C 1124.37 216.69 1118.30 217.98 1112.41 219.22 C 1111.49 219.44 1110.62 219.70 1109.72 219.99 C 1107.94 220.54 1106.16 220.87 1104.33 221.16 C 1103.99 221.21 1103.65 221.26 1103.31 221.32 C 1096.10 222.41 1089.01 222.50 1081.75 221.75 C 1081.39 221.71 1081.03 221.68 1080.66 221.64 C 1079.46 221.52 1078.26 221.39 1077.06 221.26 C 1076.68 221.23 1076.30 221.19 1075.91 221.15 C 1073.79 220.91 1071.80 220.57 1069.75 220.00 C 1068.22 219.59 1066.71 219.23 1065.14 219.01 C 1063.76 218.82 1062.48 218.46 1061.15 218.03 C 1060.24 217.75 1059.33 217.52 1058.41 217.30 C 1056.25 216.77 1054.16 216.10 1052.06 215.37 C 1051.69 215.24 1051.31 215.11 1050.92 214.98 C 1044.42 212.70 1038.44 210.02 1032.86 205.95 C 1031.39 204.88 1029.91 203.84 1028.41 202.81 C 1027.01 201.86 1025.65 200.87 1024.30 199.84 C 1023.00 198.88 1021.67 197.97 1020.34 197.05 C 1017.56 195.02 1015.14 192.72 1012.72 190.28 C 1012.39 189.96 1012.07 189.63 1011.73 189.30 C 1010.14 187.70 1008.61 186.09 1007.21 184.32 C 1006.63 183.60 1006.00 182.92 1005.36 182.25 C 1004.12 180.91 1003.04 179.50 1002.00 178.00 C 1001.82 177.75 1001.65 177.50 1001.47 177.25 C 1000.23 175.49 999.07 173.68 997.94 171.85 C 997.55 171.23 997.16 170.61 996.75 170.00 C 995.22 167.68 993.94 165.27 992.70 162.78 C 992.51 162.40 992.32 162.02 992.12 161.63 C 991.06 159.50 990.13 157.36 989.32 155.12 C 988.93 154.04 988.48 152.99 988.03 151.94 C 983.71 141.16 983.41 130.17 983.42 118.72 C 983.42 117.65 983.42 116.57 983.42 115.49 C 983.34 96.90 983.34 96.90 986.17 89.69 C 986.59 88.50 986.87 87.29 987.17 86.06 C 988.53 80.67 990.76 75.77 993.40 70.90 C 993.84 70.09 994.24 69.26 994.64 68.42 C 996.15 65.38 997.94 62.41 999.99 59.70 C 1000.65 58.80 1001.24 57.86 1001.84 56.92 C 1004.24 53.19 1006.81 49.74 1009.82 46.50 C 1010.43 45.83 1010.99 45.15 1011.55 44.44 C 1013.78 41.67 1016.38 39.10 1019.25 37.00 C 1019.55 36.78 1019.85 36.55 1020.17 36.32 C 1021.11 35.63 1022.05 34.94 1023.00 34.25 C 1024.48 33.17 1025.88 32.03 1027.27 30.84 C 1027.99 30.26 1028.73 29.76 1029.50 29.25 C 1029.84 28.96 1030.18 28.67 1030.53 28.37 C 1032.52 26.76 1034.79 25.54 1037.00 24.25 C 1037.31 24.06 1037.62 23.88 1037.94 23.68 C 1039.91 22.51 1041.94 21.62 1044.07 20.75 C 1045.84 20.00 1047.54 19.12 1049.25 18.25 C 1052.41 16.64 1055.60 15.50 1059.00 14.50 C 1059.26 14.42 1059.51 14.34 1059.78 14.27 C 1062.78 13.37 1065.73 12.58 1068.84 12.17 C 1069.80 12.03 1070.72 11.84 1071.67 11.63 C 1073.45 11.24 1075.23 11.03 1077.05 10.87 C 1077.71 10.81 1078.37 10.75 1079.03 10.69 C 1079.36 10.66 1079.69 10.63 1080.03 10.60 C 1080.94 10.51 1081.83 10.40 1082.73 10.29 C 1089.38 9.44 1095.97 9.49 1102.58 10.64 Z M 1065.25 58.00 C 1064.98 58.11 1064.71 58.23 1064.43 58.34 C 1059.45 60.44 1054.89 63.11 1050.50 66.25 C 1050.20 66.46 1049.89 66.67 1049.58 66.88 C 1046.81 68.80 1044.37 70.91 1042.28 73.57 C 1041.94 74.01 1041.59 74.43 1041.22 74.85 C 1039.57 76.72 1038.40 78.83 1037.20 81.00 C 1036.67 81.94 1036.14 82.86 1035.58 83.78 C 1031.51 90.76 1028.90 98.29 1027.75 106.25 C 1027.73 106.38 1027.73 106.38 1027.64 107.01 C 1026.22 116.51 1025.71 129.07 1029.77 137.94 C 1030.15 138.79 1030.52 139.64 1030.87 140.50 C 1033.91 147.87 1037.59 154.60 1043.00 160.50 C 1043.22 160.74 1043.44 160.99 1043.67 161.24 C 1046.73 164.60 1049.85 167.78 1053.50 170.50 C 1053.82 170.75 1054.13 171.00 1054.45 171.26 C 1057.79 173.61 1061.36 175.46 1065.19 176.85 C 1066.23 177.24 1067.22 177.69 1068.23 178.14 C 1075.19 181.00 1083.24 181.07 1090.64 181.06 C 1090.89 181.06 1091.15 181.06 1091.41 181.06 C 1095.54 181.05 1099.41 180.92 1103.44 179.98 C 1103.77 179.91 1104.11 179.83 1104.45 179.75 C 1107.69 178.99 1110.85 178.05 1114.00 177.00 C 1114.44 176.86 1114.88 176.71 1115.33 176.56 C 1123.52 173.72 1129.78 167.29 1135.75 161.25 C 1135.97 161.03 1136.18 160.82 1136.40 160.60 C 1138.66 158.34 1140.45 155.88 1142.25 153.25 C 1142.51 152.88 1142.78 152.51 1143.05 152.14 C 1147.18 146.18 1149.23 139.39 1151.01 132.43 C 1151.22 131.63 1151.44 130.84 1151.68 130.05 C 1152.03 128.61 1152.20 127.21 1152.30 125.73 C 1152.32 125.45 1152.34 125.17 1152.36 124.88 C 1152.55 121.83 1152.56 118.80 1152.50 115.75 C 1152.50 115.58 1152.50 115.58 1152.49 114.72 C 1152.47 113.64 1152.45 112.55 1152.42 111.47 C 1152.42 111.13 1152.41 110.80 1152.41 110.45 C 1152.31 107.02 1151.66 103.85 1150.60 100.60 C 1150.20 99.33 1149.87 98.05 1149.53 96.76 C 1148.87 94.32 1148.01 92.06 1147.00 89.75 C 1146.83 89.34 1146.67 88.94 1146.50 88.52 C 1145.63 86.39 1144.72 84.44 1143.50 82.50 C 1143.29 82.03 1143.07 81.55 1142.86 81.08 C 1141.85 79.02 1140.29 77.43 1138.75 75.75 C 1138.53 75.50 1138.31 75.26 1138.09 75.00 C 1135.21 71.79 1132.18 68.63 1128.75 66.00 C 1128.32 65.65 1127.90 65.30 1127.47 64.95 C 1120.02 59.03 1110.35 55.44 1101.14 53.41 C 1101.00 53.37 1101.00 53.37 1100.29 53.22 C 1088.33 50.71 1076.30 53.40 1065.25 58.00 Z" fill="#083088"/><path d="M 511.36 13.75 C 514.86 14.05 518.35 14.07 521.86 14.06 C 522.56 14.06 523.25 14.06 523.95 14.06 C 525.85 14.06 527.74 14.06 529.64 14.05 C 531.69 14.05 533.74 14.05 535.79 14.05 C 539.34 14.05 542.89 14.04 546.44 14.04 C 551.57 14.03 556.71 14.03 561.84 14.03 C 570.18 14.02 578.51 14.02 586.85 14.01 C 586.97 14.01 586.97 14.01 587.60 14.01 C 591.39 14.01 595.18 14.00 598.97 14.00 C 603.01 14.00 607.06 13.99 611.11 13.99 C 611.23 13.99 611.23 13.99 611.86 13.99 C 620.42 13.98 628.99 13.98 637.55 13.97 C 642.67 13.97 647.79 13.97 652.92 13.96 C 656.42 13.96 659.93 13.95 663.44 13.95 C 665.46 13.95 667.48 13.95 669.51 13.95 C 671.36 13.94 673.21 13.94 675.06 13.94 C 675.73 13.94 676.40 13.94 677.07 13.94 C 677.98 13.94 678.89 13.94 679.80 13.94 C 680.06 13.94 680.33 13.94 680.59 13.94 C 684.85 13.95 684.85 13.95 686.39 15.25 C 687.62 17.27 687.57 19.53 687.56 21.83 C 687.56 21.98 687.56 21.98 687.57 22.74 C 687.57 23.71 687.57 24.69 687.57 25.67 C 687.57 26.36 687.57 27.04 687.57 27.72 C 687.57 29.16 687.57 30.59 687.56 32.02 C 687.56 33.85 687.56 35.68 687.57 37.51 C 687.57 38.92 687.57 40.33 687.57 41.75 C 687.57 42.42 687.57 43.09 687.57 43.77 C 687.57 44.71 687.57 45.66 687.56 46.60 C 687.56 46.88 687.57 47.15 687.57 47.44 C 687.55 50.20 687.45 53.26 685.42 55.34 C 683.29 56.63 680.64 56.53 678.23 56.53 C 677.98 56.53 677.74 56.53 677.48 56.53 C 676.67 56.53 675.86 56.52 675.04 56.52 C 674.46 56.52 673.87 56.52 673.29 56.52 C 672.03 56.52 670.77 56.51 669.51 56.51 C 667.52 56.51 665.53 56.51 663.55 56.50 C 657.89 56.50 652.23 56.49 646.57 56.48 C 643.45 56.47 640.32 56.47 637.19 56.46 C 635.22 56.46 633.24 56.46 631.26 56.45 C 630.03 56.45 628.80 56.45 627.57 56.45 C 627.00 56.45 626.43 56.45 625.86 56.44 C 625.08 56.44 624.30 56.44 623.52 56.44 C 623.09 56.44 622.65 56.44 622.20 56.44 C 620.65 56.52 619.25 56.61 618.00 57.58 C 616.60 59.46 617.22 62.72 617.37 64.93 C 617.55 68.14 617.59 71.35 617.64 74.56 C 617.64 74.91 617.65 75.27 617.65 75.63 C 617.80 86.13 617.79 96.63 617.78 107.13 C 617.78 109.23 617.78 111.33 617.78 113.43 C 617.78 113.73 617.78 114.03 617.78 114.35 C 617.78 114.96 617.78 115.58 617.78 116.20 C 617.78 121.93 617.78 127.66 617.78 133.39 C 617.78 138.27 617.78 143.15 617.78 148.03 C 617.78 153.74 617.78 159.46 617.78 165.18 C 617.78 165.80 617.78 166.41 617.78 167.02 C 617.78 167.33 617.78 167.63 617.78 167.94 C 617.78 170.03 617.78 172.12 617.78 174.20 C 617.79 195.57 617.79 195.57 617.65 204.96 C 617.65 205.27 617.65 205.57 617.64 205.89 C 617.53 214.81 617.53 214.81 616.00 216.75 C 614.14 218.14 612.21 218.07 609.96 218.03 C 609.67 218.03 609.37 218.03 609.07 218.03 C 608.44 218.02 607.82 218.02 607.19 218.01 C 605.98 218.00 604.78 218.00 603.57 217.99 C 600.27 217.98 596.96 217.96 593.66 217.94 C 591.86 217.93 590.06 217.92 588.25 217.91 C 586.49 217.91 584.73 217.90 582.97 217.89 C 582.30 217.88 581.64 217.88 580.97 217.88 C 580.04 217.87 579.11 217.87 578.19 217.86 C 577.91 217.86 577.64 217.86 577.36 217.86 C 575.49 217.84 574.17 217.64 572.80 216.33 C 571.71 214.69 571.69 212.97 571.69 211.05 C 571.68 210.81 571.68 210.57 571.68 210.32 C 571.68 209.52 571.68 208.71 571.68 207.91 C 571.68 207.32 571.68 206.74 571.68 206.16 C 571.68 204.55 571.68 202.95 571.68 201.34 C 571.68 199.61 571.68 197.88 571.68 196.15 C 571.67 192.76 571.67 189.37 571.67 185.98 C 571.67 183.22 571.67 180.46 571.67 177.70 C 571.67 177.30 571.67 176.91 571.67 176.51 C 571.67 175.71 571.67 174.91 571.67 174.11 C 571.67 166.62 571.67 159.13 571.67 151.64 C 571.67 144.80 571.67 137.96 571.66 131.12 C 571.66 124.09 571.66 117.06 571.66 110.03 C 571.66 106.09 571.66 102.15 571.65 98.20 C 571.65 94.84 571.65 91.48 571.65 88.12 C 571.66 86.41 571.66 84.70 571.65 82.98 C 571.63 70.47 571.63 70.47 572.34 64.33 C 572.59 62.05 572.75 59.89 571.75 57.75 C 570.26 56.71 568.60 56.72 566.84 56.70 C 566.39 56.69 565.95 56.69 565.49 56.68 C 565.00 56.68 564.51 56.68 564.00 56.67 C 563.49 56.67 562.97 56.66 562.45 56.66 C 561.04 56.64 559.63 56.63 558.23 56.62 C 557.34 56.61 556.46 56.60 555.57 56.59 C 547.21 56.52 538.85 56.49 530.48 56.50 C 516.32 56.52 516.32 56.52 509.83 56.44 C 509.17 56.43 508.51 56.42 507.86 56.41 C 506.98 56.41 506.10 56.39 505.21 56.38 C 504.73 56.37 504.25 56.37 503.76 56.36 C 502.13 56.22 500.95 55.95 499.78 54.78 C 495.08 47.87 497.67 30.26 498.19 22.03 C 498.20 21.76 498.22 21.49 498.23 21.22 C 498.42 18.81 498.81 16.51 500.45 14.70 C 503.54 12.63 507.83 13.42 511.36 13.75 Z" fill="#083088"/><path d="M 887.72 13.61 C 892.19 13.77 896.65 13.79 901.11 13.78 C 902.44 13.78 903.76 13.78 905.08 13.78 C 905.94 13.78 906.79 13.78 907.64 13.78 C 908.03 13.78 908.42 13.78 908.83 13.78 C 910.98 13.78 913.10 13.69 915.25 13.50 C 919.88 13.30 919.88 13.30 921.75 14.25 C 922.90 15.54 922.87 16.64 922.87 18.33 C 922.88 18.59 922.88 18.85 922.88 19.12 C 922.88 20.00 922.88 20.88 922.87 21.76 C 922.87 22.40 922.88 23.03 922.88 23.67 C 922.88 25.42 922.88 27.17 922.87 28.92 C 922.87 30.81 922.87 32.70 922.87 34.59 C 922.88 38.30 922.87 42.02 922.87 45.73 C 922.86 50.09 922.86 54.44 922.86 58.80 C 922.86 66.62 922.86 74.45 922.85 82.27 C 922.85 89.77 922.84 97.28 922.84 104.79 C 922.84 105.24 922.84 105.70 922.84 106.17 C 922.84 106.63 922.84 107.08 922.84 107.55 C 922.84 116.17 922.84 124.79 922.84 133.41 C 922.83 135.99 922.83 138.57 922.83 141.15 C 922.83 159.35 922.77 177.55 922.54 195.75 C 922.53 197.00 922.51 198.25 922.50 199.50 C 922.47 201.44 922.45 203.39 922.42 205.33 C 922.41 206.04 922.40 206.75 922.39 207.47 C 922.38 208.44 922.37 209.41 922.35 210.39 C 922.35 210.53 922.35 210.53 922.34 211.24 C 922.27 215.26 922.27 215.26 921.22 216.75 C 919.63 217.85 917.85 217.81 915.98 217.79 C 915.48 217.79 914.99 217.78 914.48 217.78 C 914.22 217.78 913.96 217.77 913.69 217.77 C 912.30 217.76 910.91 217.75 909.52 217.75 C 909.24 217.75 908.97 217.75 908.68 217.75 C 906.19 217.74 903.72 217.80 901.23 217.87 C 897.70 217.98 894.17 218.03 890.63 218.04 C 890.10 218.04 889.58 218.05 889.05 218.05 C 881.24 218.10 881.24 218.10 879.50 216.50 C 878.78 215.06 878.88 213.63 878.84 212.05 C 878.83 211.68 878.82 211.30 878.81 210.92 C 878.78 209.63 878.75 208.35 878.72 207.06 C 878.71 206.84 878.71 206.84 878.69 205.69 C 878.46 195.32 878.44 184.95 878.44 174.57 C 878.44 173.26 878.44 171.95 878.43 170.64 C 878.42 160.81 878.50 151.00 878.96 141.18 C 879.03 139.28 879.05 137.59 878.50 135.75 C 876.13 133.97 872.45 134.69 869.63 134.87 C 867.43 135.00 865.25 135.00 863.06 134.99 C 858.69 134.98 854.33 135.08 849.96 135.21 C 843.53 135.40 837.09 135.54 830.66 135.51 C 823.77 135.49 816.88 135.51 809.99 135.56 C 808.79 135.57 807.58 135.58 806.37 135.59 C 804.93 135.59 803.50 135.60 802.06 135.61 C 801.53 135.62 801.00 135.62 800.46 135.62 C 793.91 135.64 793.91 135.64 792.22 137.23 C 791.04 139.16 791.49 141.60 791.62 143.77 C 791.77 146.34 791.79 148.91 791.80 151.48 C 791.80 151.99 791.81 152.50 791.81 153.00 C 791.82 154.37 791.82 155.74 791.83 157.11 C 791.83 158.57 791.84 160.02 791.84 161.47 C 791.86 163.92 791.87 166.36 791.88 168.81 C 791.89 171.91 791.90 175.00 791.92 178.10 C 791.93 180.80 791.94 183.51 791.95 186.22 C 791.95 187.06 791.96 187.91 791.96 188.75 C 791.98 193.16 791.98 193.16 791.99 195.17 C 791.99 195.43 791.99 195.69 791.99 195.96 C 791.99 196.48 791.99 197.01 791.99 197.53 C 792.00 199.28 792.01 201.03 792.02 202.78 C 792.03 204.02 792.04 205.27 792.04 206.51 C 792.05 207.11 792.05 207.70 792.06 208.30 C 792.07 209.13 792.07 209.95 792.07 210.78 C 792.08 211.25 792.08 211.72 792.09 212.21 C 791.98 213.75 791.77 215.17 790.72 216.34 C 788.69 217.49 786.72 217.63 784.45 217.68 C 784.13 217.69 783.81 217.70 783.48 217.71 C 782.44 217.74 781.40 217.77 780.36 217.80 C 779.63 217.82 778.91 217.84 778.19 217.86 C 772.04 218.02 765.90 218.07 759.75 218.00 C 759.28 217.99 758.81 217.99 758.32 217.98 C 756.96 217.97 755.60 217.95 754.23 217.92 C 753.83 217.92 753.43 217.91 753.01 217.90 C 752.82 217.90 752.82 217.90 751.88 217.88 C 751.56 217.87 751.24 217.86 750.90 217.86 C 749.49 217.69 748.53 217.29 747.55 216.26 C 746.10 214.24 746.21 212.28 746.20 209.88 C 746.20 209.56 746.19 209.24 746.19 208.92 C 746.18 207.86 746.18 206.80 746.17 205.74 C 746.17 204.98 746.16 204.22 746.16 203.46 C 746.14 201.85 746.13 200.23 746.12 198.62 C 746.11 196.64 746.10 194.67 746.08 192.69 C 746.01 182.36 746.00 172.02 746.00 161.69 C 746.01 152.25 745.99 142.82 745.95 133.38 C 745.94 133.08 745.94 132.77 745.94 132.46 C 745.92 127.84 745.90 123.21 745.88 118.59 C 745.63 67.94 745.63 67.94 745.87 48.30 C 745.90 45.81 745.92 43.33 745.95 40.85 C 745.95 40.58 745.95 40.31 745.96 40.04 C 745.99 36.56 746.00 33.08 745.98 29.60 C 745.98 29.21 745.98 28.83 745.98 28.44 C 745.97 26.73 745.95 25.01 745.92 23.30 C 745.92 22.73 745.92 22.15 745.91 21.57 C 745.90 21.08 745.90 20.60 745.89 20.10 C 746.06 17.98 746.65 15.99 748.25 14.50 C 750.27 13.57 752.55 13.71 754.73 13.71 C 755.06 13.71 755.38 13.71 755.71 13.71 C 756.78 13.71 757.85 13.71 758.91 13.71 C 759.66 13.71 760.40 13.71 761.15 13.70 C 762.71 13.70 764.27 13.70 765.83 13.70 C 767.82 13.70 769.82 13.70 771.81 13.69 C 773.35 13.69 774.89 13.69 776.43 13.69 C 777.16 13.69 777.90 13.69 778.63 13.69 C 788.46 13.66 788.46 13.66 790.75 15.00 C 792.32 16.57 792.77 17.85 792.81 20.03 C 792.81 20.63 792.80 21.22 792.80 21.81 C 792.80 21.95 792.80 21.95 792.80 22.68 C 792.79 24.34 792.73 26.00 792.63 27.66 C 792.45 30.90 792.42 34.15 792.38 37.41 C 792.36 38.34 792.35 39.28 792.33 40.22 C 792.33 40.80 792.32 41.37 792.31 41.95 C 792.29 43.59 792.23 45.22 792.16 46.85 C 792.00 50.38 791.98 53.90 792.00 57.43 C 792.01 58.47 792.02 59.50 792.02 60.53 C 792.03 63.46 792.04 66.39 792.06 69.32 C 792.07 71.13 792.08 72.94 792.09 74.74 C 792.09 75.42 792.09 76.10 792.10 76.78 C 792.13 80.74 791.92 84.50 791.22 88.39 C 790.91 90.29 790.74 91.81 791.75 93.50 C 794.44 95.36 798.02 95.03 801.17 95.13 C 801.50 95.14 801.83 95.15 802.18 95.16 C 806.77 95.30 811.37 95.34 815.97 95.39 C 816.45 95.39 816.92 95.40 817.42 95.41 C 824.35 95.48 831.28 95.55 838.22 95.51 C 839.44 95.50 840.66 95.49 841.88 95.49 C 844.19 95.47 846.49 95.46 848.80 95.44 C 850.09 95.43 851.39 95.42 852.68 95.41 C 858.24 95.38 863.77 95.25 869.32 94.89 C 869.80 94.86 870.28 94.83 870.77 94.80 C 876.87 94.37 876.87 94.37 878.25 93.00 C 878.85 91.56 878.72 90.42 878.53 88.89 C 877.69 80.43 878.26 71.73 878.39 63.23 C 878.48 57.52 878.55 51.81 878.60 46.09 C 878.63 42.73 878.67 39.37 878.71 36.01 C 878.73 33.76 878.75 31.51 878.77 29.26 C 878.79 27.47 878.81 25.69 878.83 23.91 C 878.84 23.29 878.85 22.67 878.85 22.05 C 878.86 21.21 878.87 20.38 878.88 19.54 C 878.89 19.09 878.89 18.63 878.90 18.17 C 879.02 16.73 879.30 15.70 880.33 14.67 C 882.60 13.25 885.16 13.50 887.72 13.61 Z" fill="#083088"/></g>
</svg>
