<svg xmlns="http://www.w3.org/2000/svg" width="512" height="512" viewBox="0 0 512 512">
  <defs><linearGradient id="a_bg" x1="0" y1="0" x2="0.4" y2="1"><stop offset="0" stop-color="#FFFFFF"/><stop offset="1" stop-color="#EEF3F7"/></linearGradient><linearGradient id="a_teal_dark" x1="0.15" y1="0" x2="0.6" y2="1"><stop offset="0" stop-color="#2C8E93"/><stop offset="1" stop-color="#04616B"/></linearGradient><linearGradient id="a_teal_light" x1="0.1" y1="0" x2="0.55" y2="1"><stop offset="0" stop-color="#22B9C0"/><stop offset="1" stop-color="#017B84"/></linearGradient><linearGradient id="a_gold" x1="0.2" y1="0" x2="0.65" y2="1"><stop offset="0" stop-color="#F5C55E"/><stop offset="1" stop-color="#D9911F"/></linearGradient><linearGradient id="a_blue" x1="0.7" y1="0" x2="0.25" y2="1"><stop offset="0" stop-color="#2C55A8"/><stop offset="1" stop-color="#07234F"/></linearGradient></defs>
  <rect width="512" height="512" rx="114.5" fill="url(#a_bg)"/>
  <g transform="translate(85.42,91.08) scale(1.61684)"><path d="M 3.88 6.13 C 4.01 6.27 4.15 6.40 4.28 6.54 C 4.28 6.64 4.28 6.64 4.27 7.13 C 4.29 7.91 4.45 8.06 5.00 8.59 C 5.11 8.72 5.22 8.85 5.33 8.99 C 5.80 9.49 6.31 9.90 6.84 10.33 C 7.21 10.68 7.55 11.04 7.89 11.42 C 8.27 11.85 8.65 12.27 9.04 12.68 C 9.76 13.44 10.44 14.21 11.11 15.01 C 11.51 15.48 11.92 15.93 12.34 16.39 C 12.82 16.91 13.26 17.44 13.70 18.00 C 14.14 18.55 14.59 19.10 15.07 19.62 C 15.60 20.22 16.08 20.84 16.56 21.48 C 16.87 21.85 17.17 22.23 17.48 22.60 C 19.04 24.50 20.55 26.43 21.98 28.43 C 22.08 28.57 22.17 28.70 22.27 28.84 C 22.74 29.48 23.18 30.13 23.62 30.79 C 23.80 31.05 23.98 31.31 24.16 31.57 C 24.24 31.70 24.33 31.83 24.42 31.96 C 24.68 32.33 24.95 32.70 25.21 33.07 C 25.86 33.98 26.48 34.91 27.10 35.85 C 27.16 35.93 27.16 35.93 27.44 36.36 C 27.67 36.70 27.89 37.04 28.11 37.37 C 28.41 37.82 28.70 38.26 29.00 38.70 C 29.41 39.33 29.79 39.96 30.17 40.61 C 30.44 41.05 30.71 41.50 30.99 41.94 C 32.04 43.65 33.03 45.39 34.01 47.15 C 35.05 48.99 35.05 48.99 35.52 49.81 C 36.05 50.75 36.54 51.71 37.02 52.68 C 37.17 52.95 37.33 53.22 37.48 53.49 C 37.88 54.19 38.23 54.90 38.56 55.63 C 38.82 56.18 39.09 56.72 39.37 57.27 C 40.98 60.51 41.95 63.49 41.97 67.13 C 41.98 67.32 41.98 67.51 41.98 67.70 C 41.99 68.32 41.99 68.94 42.00 69.55 C 42.00 70.00 42.00 70.44 42.01 70.89 C 42.07 78.46 42.04 86.04 41.99 93.61 C 41.99 94.11 41.99 94.61 41.98 95.10 C 41.98 96.04 41.97 96.97 41.97 97.91 C 41.96 98.19 41.96 98.47 41.96 98.75 C 41.95 99.52 41.94 100.30 41.93 101.07 C 41.93 101.34 41.93 101.61 41.93 101.89 C 41.93 102.02 41.93 102.02 41.92 102.67 C 41.92 102.91 41.91 103.14 41.91 103.38 C 41.88 103.56 41.86 103.75 41.83 103.93 C 41.63 104.07 41.43 104.20 41.22 104.34 C 41.13 104.78 41.13 104.78 41.12 105.33 C 41.11 105.53 41.11 105.72 41.10 105.93 C 41.10 106.14 41.09 106.35 41.09 106.57 C 41.08 107.00 41.06 107.43 41.05 107.85 C 41.04 108.06 41.04 108.27 41.03 108.48 C 40.94 111.24 40.94 111.24 40.60 111.91 C 40.33 111.91 40.06 111.91 39.78 111.91 C 39.72 112.08 39.65 112.25 39.58 112.43 C 39.39 112.42 39.19 112.41 38.99 112.40 C 38.35 112.43 38.35 112.43 37.94 112.83 C 37.37 112.89 37.37 112.89 36.82 112.83 C 36.51 112.43 36.51 112.43 36.31 111.72 C 36.10 110.99 36.10 110.99 35.69 110.48 C 35.62 110.35 35.56 110.21 35.49 110.07 C 35.37 110.02 35.37 110.02 34.77 109.77 C 34.67 109.66 34.57 109.56 34.46 109.46 C 33.65 109.05 33.65 109.05 32.93 108.85 C 32.87 108.71 32.82 108.57 32.76 108.42 C 32.42 107.71 31.86 107.50 31.19 107.11 C 30.78 106.49 30.78 106.49 30.68 105.78 C 30.54 105.64 30.41 105.51 30.27 105.37 C 30.27 105.16 30.27 104.96 30.28 104.75 C 30.28 104.65 30.28 104.65 30.27 104.14 C 30.10 104.04 29.93 103.94 29.76 103.83 C 29.66 103.60 29.56 103.36 29.45 103.12 C 29.37 103.03 29.37 103.03 28.94 102.60 C 28.84 102.37 28.74 102.13 28.63 101.89 C 28.24 101.63 27.87 101.58 27.41 101.48 C 27.14 101.38 26.87 101.28 26.59 101.17 C 26.51 101.15 26.51 101.15 26.10 101.04 C 25.67 100.87 25.67 100.87 25.26 100.25 C 25.26 100.18 25.26 100.12 25.26 100.05 C 25.11 100.05 24.97 100.05 24.82 100.05 C 24.72 100.06 24.72 100.06 24.25 100.06 C 24.06 100.06 23.87 100.06 23.68 100.07 C 23.21 100.05 23.21 100.05 23.01 99.84 C 23.01 99.02 23.01 99.02 23.21 98.61 C 22.60 98.41 22.60 98.41 22.12 98.39 C 21.97 98.36 21.83 98.34 21.68 98.31 C 21.37 97.59 21.37 97.59 21.27 96.77 C 20.96 96.66 20.66 96.56 20.35 96.47 C 19.84 95.98 19.65 95.58 19.32 94.93 C 19.05 94.80 18.78 94.66 18.51 94.52 C 18.44 94.39 18.37 94.25 18.30 94.11 C 18.27 94.18 18.23 94.25 18.20 94.32 C 17.86 94.33 17.52 94.33 17.18 94.32 C 17.18 94.05 17.18 93.78 17.18 93.50 C 17.28 93.47 17.38 93.43 17.48 93.40 C 17.48 93.16 17.48 92.92 17.48 92.68 C 17.35 92.66 17.21 92.64 17.07 92.62 C 16.38 92.43 15.94 92.06 15.44 91.56 C 15.17 91.49 14.90 91.42 14.62 91.35 C 14.55 91.42 14.48 91.49 14.41 91.56 C 13.93 91.65 13.93 91.65 13.39 91.56 C 12.86 90.78 12.67 90.36 12.67 89.41 C 12.71 89.31 12.74 89.20 12.78 89.10 C 12.07 89.00 11.36 88.90 10.63 88.79 C 10.59 88.64 10.59 88.64 10.42 87.87 C 10.36 87.87 10.29 87.87 10.22 87.87 C 10.18 87.47 10.15 87.06 10.12 86.65 C 9.50 87.16 9.50 87.16 9.09 87.98 C 8.89 88.08 8.89 88.08 8.07 88.08 C 7.76 87.77 7.76 87.77 7.56 86.95 C 7.49 86.82 7.42 86.68 7.35 86.54 C 7.32 86.20 7.28 85.86 7.25 85.52 C 7.22 85.45 7.18 85.38 7.15 85.32 C 7.14 84.97 7.14 84.63 7.15 84.29 C 7.25 84.19 7.25 84.19 7.94 84.15 C 8.68 84.09 8.68 84.09 9.30 83.78 C 9.47 83.78 9.64 83.78 9.81 83.78 C 9.81 83.71 9.81 83.65 9.81 83.58 C 9.57 83.54 9.34 83.51 9.09 83.47 C 8.96 83.41 8.82 83.34 8.68 83.27 C 8.38 83.24 8.07 83.23 7.76 83.22 C 6.89 83.19 6.89 83.19 6.43 82.96 C 6.43 83.13 6.43 83.30 6.43 83.47 C 6.42 84.24 6.41 85.00 6.40 85.76 C 6.40 86.02 6.40 86.29 6.39 86.56 C 6.39 86.82 6.39 87.07 6.38 87.33 C 6.38 87.56 6.38 87.80 6.38 88.04 C 6.33 88.59 6.33 88.59 6.02 88.90 C 5.75 88.90 5.48 88.90 5.21 88.90 C 5.15 88.84 5.15 88.84 4.90 88.59 C 4.91 87.81 4.95 87.03 4.99 86.25 C 4.90 85.52 4.90 85.52 4.40 85.09 C 4.32 85.05 4.32 85.05 3.88 84.80 C 3.59 84.34 3.59 84.34 3.36 83.88 C 3.26 83.78 3.26 83.78 2.75 83.27 C 2.65 82.64 2.65 82.03 2.65 81.39 C 2.66 81.19 2.66 81.00 2.66 80.79 C 2.66 80.70 2.66 80.70 2.67 80.23 C 2.65 79.66 2.51 79.21 2.34 78.67 C 2.05 76.36 2.12 74.03 2.14 71.71 C 1.87 71.71 1.60 71.71 1.32 71.71 C 1.12 61.83 1.09 51.95 1.09 42.06 C 1.09 41.23 1.09 40.41 1.09 39.58 C 1.09 32.73 1.11 25.87 1.16 19.02 C 1.16 18.76 1.16 18.51 1.17 18.24 C 1.19 15.80 1.21 13.36 1.26 10.92 C 1.26 10.74 1.26 10.56 1.27 10.37 C 1.33 7.71 1.33 7.71 2.35 6.60 C 2.99 6.02 2.87 6.13 3.88 6.13 Z M 4.49 79.18 C 4.39 79.38 4.39 79.38 4.39 80.20 C 4.80 79.69 4.80 79.69 5.00 79.28 C 4.83 79.25 4.66 79.21 4.49 79.18 Z M 80.50 110.38 C 81.01 110.69 81.01 110.69 81.32 110.99 C 82.21 111.62 83.06 111.54 84.11 111.50 C 84.59 111.50 84.59 111.50 84.90 111.71 C 84.98 111.69 84.98 111.69 85.41 111.61 C 85.94 111.60 86.46 111.59 86.98 111.59 C 87.27 111.59 87.55 111.58 87.84 111.58 C 88.58 111.61 88.58 111.61 89.30 111.81 C 89.33 111.90 89.33 111.90 89.50 112.32 C 90.12 112.37 90.72 112.39 91.34 112.39 C 91.96 112.39 92.57 112.40 93.19 112.43 C 93.49 112.73 93.49 112.73 93.60 113.14 C 94.69 113.16 94.69 113.16 100.25 113.24 C 100.25 112.81 100.25 112.37 100.25 111.91 C 100.55 111.61 100.55 111.61 101.20 111.58 C 102.08 111.50 102.63 111.19 103.42 110.79 C 103.69 110.79 103.96 110.79 104.24 110.79 C 104.54 111.10 104.54 111.10 104.58 111.71 C 104.54 112.32 104.54 112.32 104.24 112.63 C 103.96 112.70 103.69 112.77 103.42 112.83 C 103.28 112.90 103.15 112.97 103.01 113.04 C 102.90 113.04 102.90 113.04 102.38 113.07 C 102.18 113.09 101.98 113.12 101.78 113.14 C 101.71 113.34 101.64 113.55 101.58 113.76 C 101.46 113.77 101.46 113.77 100.86 113.86 C 100.87 114.51 100.87 114.51 100.96 115.19 C 101.16 115.26 101.37 115.32 101.58 115.39 C 101.98 115.80 101.98 115.80 102.19 116.42 C 102.46 116.48 102.73 116.55 103.01 116.62 C 103.11 116.14 103.22 115.67 103.31 115.19 C 102.81 115.15 102.30 115.12 101.78 115.09 C 101.78 114.75 101.78 114.41 101.78 114.06 C 101.86 114.06 101.86 114.06 102.25 114.03 C 102.80 113.96 102.80 113.96 103.42 113.65 C 104.24 113.65 104.24 113.65 104.85 113.96 C 105.67 113.96 105.67 113.96 106.28 113.65 C 106.69 113.61 107.10 113.57 107.51 113.55 C 107.54 113.38 107.57 113.22 107.60 113.05 C 107.64 112.87 107.67 112.70 107.71 112.53 C 108.28 112.25 109.15 112.36 109.79 112.34 C 109.97 112.33 110.14 112.33 110.32 112.32 C 111.64 112.28 111.64 112.28 112.21 112.73 C 112.35 112.75 112.35 112.75 113.03 112.83 C 113.36 113.22 113.36 113.22 113.65 113.65 C 114.16 114.06 114.16 114.06 114.87 114.47 C 115.22 115.01 115.22 115.01 115.55 115.66 C 115.66 115.87 115.77 116.09 115.89 116.30 C 116.09 116.70 116.29 117.10 116.48 117.51 C 116.72 117.95 116.72 117.95 117.02 118.15 C 117.04 118.36 117.05 118.57 117.06 118.78 C 117.13 119.49 117.24 119.74 117.64 120.30 C 117.70 120.57 117.77 120.84 117.84 121.12 C 117.98 121.14 117.98 121.14 118.66 121.22 C 118.76 121.33 118.76 121.33 118.76 122.04 C 118.66 122.18 118.56 122.31 118.46 122.45 C 118.69 122.45 118.93 122.45 119.17 122.45 C 119.38 122.76 119.38 122.76 119.38 123.47 C 119.48 123.51 119.58 123.54 119.68 123.58 C 120.03 124.27 120.26 124.99 120.50 125.73 C 120.60 125.93 120.70 126.13 120.81 126.34 C 120.81 127.26 120.81 127.26 120.60 127.67 C 120.69 128.40 120.84 128.84 121.12 129.51 C 121.33 130.21 121.54 130.91 121.75 131.61 C 122.04 132.40 122.36 133.03 122.85 133.70 C 123.12 133.81 123.39 133.91 123.67 134.01 C 124.08 134.83 124.08 134.83 124.29 135.65 C 124.39 135.85 124.49 136.05 124.59 136.26 C 124.73 136.64 124.87 137.01 125.00 137.39 C 125.08 137.54 125.15 137.70 125.23 137.85 C 125.44 138.38 125.45 138.77 125.41 139.33 C 125.38 139.37 125.34 139.40 125.31 139.43 C 125.44 139.50 125.58 139.57 125.72 139.64 C 125.72 140.56 125.72 140.56 125.62 140.97 C 125.71 141.26 125.81 141.56 125.92 141.84 C 126.23 142.71 126.23 142.71 126.23 143.01 C 126.53 143.01 126.84 143.01 127.15 143.01 C 127.25 143.12 127.25 143.12 127.27 143.62 C 127.25 144.14 127.25 144.14 127.05 144.34 C 127.28 144.45 127.52 144.55 127.76 144.65 C 128.30 145.61 128.70 146.59 129.09 147.62 C 129.22 147.88 129.34 148.13 129.46 148.40 C 129.81 149.15 129.81 149.15 130.00 149.67 C 130.67 151.49 131.54 153.24 132.37 154.98 C 132.49 155.24 132.60 155.49 132.73 155.76 C 133.88 158.21 133.88 158.21 134.52 158.97 C 135.14 159.73 135.41 160.52 135.74 161.43 C 136.27 162.87 136.82 164.25 137.56 165.60 C 137.90 166.24 138.20 166.90 138.51 167.57 C 138.96 168.56 139.42 169.53 139.96 170.48 C 140.35 171.15 140.35 171.15 140.65 171.86 C 140.99 172.64 141.41 173.30 141.88 174.01 C 142.28 174.70 142.67 175.38 143.02 176.09 C 143.46 176.97 143.99 177.68 144.64 178.41 C 145.27 179.19 145.65 180.11 146.09 181.00 C 147.18 183.16 148.60 185.14 150.07 187.06 C 150.37 187.45 150.67 187.86 150.96 188.27 C 151.53 189.03 152.18 189.70 152.83 190.38 C 153.61 191.22 154.38 192.07 155.12 192.94 C 155.49 193.35 155.88 193.71 156.31 194.06 C 156.36 194.11 156.36 194.11 156.63 194.35 C 157.19 194.82 157.77 195.26 158.35 195.70 C 158.56 195.87 158.76 196.04 158.97 196.21 C 158.97 196.38 158.97 196.55 158.97 196.72 C 159.20 196.72 159.44 196.72 159.68 196.72 C 160.06 196.92 160.44 197.13 160.81 197.34 C 160.91 197.34 161.01 197.34 161.12 197.34 C 161.18 197.24 161.25 197.13 161.32 197.03 C 161.59 197.03 161.86 197.03 162.14 197.03 C 162.48 197.40 162.82 197.78 163.16 198.16 C 164.18 198.76 165.20 199.08 166.33 199.38 C 166.57 199.45 166.81 199.52 167.05 199.59 C 167.05 199.86 167.05 200.13 167.05 200.41 C 166.20 200.83 165.54 200.73 164.59 200.71 C 164.59 200.78 164.59 200.85 164.59 200.92 C 160.84 202.33 156.68 202.57 152.70 202.57 C 152.60 202.57 152.60 202.57 152.12 202.57 C 151.72 202.57 151.32 202.57 150.91 202.57 C 150.31 202.57 149.70 202.57 149.09 202.57 C 144.33 202.57 139.87 202.19 135.26 200.93 C 134.86 200.82 134.45 200.74 134.04 200.65 C 132.21 200.23 130.38 199.56 128.69 198.77 C 128.50 198.69 128.30 198.61 128.11 198.53 C 125.84 197.58 123.64 196.45 121.52 195.19 C 121.36 195.09 121.20 194.99 121.03 194.89 C 118.83 193.57 116.77 192.09 114.77 190.48 C 114.62 190.37 114.47 190.25 114.31 190.13 C 113.80 189.72 113.32 189.29 112.83 188.85 C 112.67 188.72 112.52 188.60 112.36 188.48 C 111.32 187.63 110.37 186.70 109.43 185.76 C 108.84 185.16 108.84 185.16 108.33 184.75 C 108.09 184.48 107.85 184.21 107.61 183.94 C 107.43 183.76 107.25 183.58 107.06 183.39 C 106.52 182.85 106.05 182.28 105.56 181.68 C 105.40 181.51 105.24 181.34 105.08 181.16 C 104.41 180.41 103.81 179.62 103.21 178.82 C 103.09 178.66 102.97 178.50 102.85 178.34 C 101.71 176.79 100.61 175.22 99.53 173.63 C 99.29 173.29 99.04 172.94 98.79 172.60 C 97.98 171.48 97.27 170.29 96.56 169.10 C 96.29 168.65 96.02 168.21 95.74 167.78 C 95.13 166.80 94.57 165.81 94.00 164.80 C 93.92 164.66 93.84 164.51 93.75 164.36 C 92.96 162.95 92.21 161.52 91.45 160.10 C 91.40 160.01 91.40 160.01 91.16 159.57 C 90.62 158.55 90.11 157.52 89.62 156.47 C 89.31 155.83 89.00 155.19 88.69 154.55 C 87.97 153.07 87.28 151.59 86.64 150.07 C 86.57 149.91 86.50 149.75 86.42 149.59 C 86.27 149.24 86.12 148.89 85.97 148.53 C 85.77 148.05 85.54 147.58 85.31 147.11 C 85.19 146.82 85.06 146.54 84.94 146.25 C 84.60 145.43 84.26 144.61 83.91 143.79 C 83.64 143.15 83.37 142.51 83.10 141.87 C 82.88 141.33 82.64 140.79 82.39 140.26 C 82.04 139.48 81.72 138.70 81.42 137.90 C 81.06 136.98 80.69 136.07 80.32 135.16 C 80.13 134.71 79.96 134.26 79.78 133.81 C 79.63 133.45 79.47 133.10 79.32 132.74 C 78.56 131.00 77.86 129.25 77.23 127.46 C 77.09 127.16 76.96 126.85 76.82 126.54 C 76.59 125.99 76.61 125.60 76.61 125.01 C 76.55 124.91 76.48 124.81 76.41 124.70 C 76.40 124.33 76.40 123.95 76.41 123.58 C 76.37 121.90 76.37 121.90 75.79 121.33 C 75.54 120.82 75.58 120.45 75.59 119.89 C 75.42 119.83 75.25 119.76 75.08 119.69 C 75.00 118.98 75.00 118.98 74.98 118.26 C 74.87 117.95 74.87 117.95 74.36 117.64 C 74.16 117.23 74.16 117.23 74.16 116.52 C 74.32 116.05 74.65 115.97 75.08 115.74 C 75.24 115.66 75.39 115.58 75.54 115.50 C 76.00 115.29 76.00 115.29 76.82 115.09 C 76.85 115.07 76.85 115.07 77.02 114.98 C 77.16 113.75 77.16 113.75 77.02 113.35 C 76.68 113.24 76.34 113.14 76.00 113.04 C 75.90 112.94 75.80 112.84 75.69 112.73 C 75.69 112.46 75.69 112.19 75.69 111.91 C 76.00 111.61 76.00 111.61 76.82 111.40 C 76.95 111.34 77.09 111.27 77.23 111.20 C 78.05 111.20 78.05 111.20 78.66 111.30 C 78.79 111.03 78.93 110.76 79.07 110.48 C 79.50 110.27 80.03 110.36 80.50 110.38 Z M 76.10 119.48 C 76.20 119.69 76.20 119.69 76.20 119.69 Z" fill="url(#a_teal_dark)"/><path d="M 36.51 4.39 C 36.63 4.41 36.63 4.41 37.21 4.52 C 38.29 4.71 39.33 5.02 40.37 5.31 C 40.87 5.45 41.37 5.59 41.88 5.72 C 42.67 5.93 43.43 6.19 44.20 6.48 C 44.45 6.57 44.71 6.67 44.97 6.76 C 45.68 7.04 46.36 7.35 47.05 7.67 C 47.14 7.70 47.14 7.70 47.60 7.87 C 48.30 8.12 48.95 8.44 49.62 8.77 C 50.45 9.17 51.28 9.58 52.12 9.96 C 52.81 10.29 53.45 10.65 54.11 11.04 C 54.28 11.14 54.45 11.23 54.62 11.32 C 55.48 11.80 56.33 12.29 57.18 12.78 C 57.37 12.90 57.57 13.01 57.77 13.13 C 57.96 13.24 58.16 13.36 58.36 13.47 C 58.54 13.58 58.72 13.68 58.90 13.79 C 59.43 14.12 59.94 14.47 60.45 14.83 C 60.68 14.99 60.91 15.15 61.15 15.32 C 61.85 15.83 62.53 16.35 63.21 16.87 C 63.32 16.96 63.32 16.96 63.89 17.39 C 64.86 18.14 65.79 18.92 66.69 19.74 C 66.82 19.86 66.96 19.98 67.10 20.10 C 67.95 20.84 68.76 21.60 69.55 22.40 C 69.68 22.51 69.80 22.61 69.93 22.72 C 70.44 23.18 70.92 23.65 71.40 24.13 C 71.49 24.22 71.49 24.22 71.93 24.66 C 72.35 25.09 72.74 25.53 73.13 25.98 C 73.19 26.04 73.19 26.04 73.49 26.34 C 74.18 27.03 74.78 27.78 75.39 28.54 C 76.20 29.54 76.20 29.54 76.62 30.03 C 77.34 30.87 78.00 31.75 78.66 32.63 C 78.79 32.79 78.92 32.95 79.05 33.11 C 79.52 33.71 79.96 34.32 80.39 34.95 C 80.67 35.34 80.96 35.73 81.24 36.11 C 82.02 37.18 82.74 38.28 83.47 39.38 C 83.62 39.61 83.77 39.84 83.92 40.07 C 84.73 41.29 85.50 42.51 86.23 43.78 C 86.40 44.07 86.57 44.36 86.75 44.66 C 87.16 45.35 87.55 46.05 87.95 46.76 C 88.18 47.16 88.42 47.56 88.66 47.96 C 89.00 48.54 89.31 49.11 89.61 49.71 C 89.77 50.01 89.92 50.32 90.09 50.62 C 90.55 51.50 90.98 52.39 91.41 53.29 C 91.75 54.01 92.11 54.73 92.47 55.44 C 92.64 55.78 92.81 56.13 92.98 56.47 C 93.10 56.70 93.23 56.94 93.35 57.19 C 93.83 58.14 94.25 59.11 94.67 60.08 C 94.88 60.55 95.10 61.02 95.33 61.48 C 95.57 62.02 95.80 62.56 96.03 63.11 C 96.23 63.56 96.44 64.00 96.66 64.45 C 96.85 64.89 97.04 65.34 97.23 65.79 C 97.64 66.76 98.07 67.73 98.49 68.71 C 98.71 69.22 98.92 69.73 99.13 70.25 C 99.38 70.88 99.66 71.50 99.94 72.12 C 100.15 72.63 100.36 73.14 100.56 73.65 C 100.68 73.94 100.80 74.24 100.92 74.53 C 100.98 74.67 101.04 74.82 101.10 74.97 C 102.26 77.83 102.26 77.83 102.82 79.16 C 103.18 80.01 103.51 80.86 103.83 81.72 C 104.13 82.51 104.44 83.30 104.75 84.09 C 104.82 84.27 104.88 84.44 104.96 84.63 C 105.37 85.68 105.79 86.73 106.22 87.78 C 106.73 89.02 107.19 90.27 107.65 91.53 C 107.96 92.40 108.30 93.25 108.64 94.11 C 108.85 94.65 109.05 95.20 109.25 95.75 C 109.69 96.89 110.14 98.03 110.60 99.17 C 110.84 99.78 111.08 100.40 111.31 101.02 C 111.48 101.47 111.66 101.92 111.84 102.37 C 112.34 103.55 112.78 104.75 113.23 105.96 C 113.49 106.65 113.76 107.34 114.04 108.03 C 114.38 108.87 114.71 109.72 115.02 110.57 C 115.35 111.45 115.69 112.32 116.05 113.19 C 116.50 114.28 116.92 115.37 117.33 116.47 C 117.79 117.70 118.27 118.93 118.76 120.15 C 118.85 120.37 118.93 120.58 119.02 120.81 C 119.18 121.19 119.34 121.58 119.50 121.97 C 119.83 122.77 119.99 123.31 119.99 124.19 C 120.09 124.19 120.19 124.19 120.30 124.19 C 120.67 124.96 120.84 125.60 120.91 126.44 C 121.01 126.47 121.11 126.51 121.22 126.54 C 121.40 126.90 121.40 126.90 121.59 127.39 C 121.67 127.56 121.74 127.74 121.81 127.92 C 122.17 128.82 122.51 129.73 122.85 130.64 C 123.00 131.01 123.14 131.39 123.28 131.76 C 123.32 131.85 123.32 131.85 123.49 132.30 C 123.64 132.71 123.81 133.12 123.98 133.53 C 124.18 134.11 124.18 134.11 124.18 134.93 C 124.29 134.97 124.39 135.00 124.49 135.03 C 124.60 135.34 124.70 135.65 124.80 135.96 C 124.93 136.23 125.07 136.50 125.21 136.77 C 125.36 137.17 125.51 137.56 125.66 137.96 C 126.00 138.90 126.37 139.83 126.74 140.76 C 126.94 141.28 127.14 141.80 127.34 142.32 C 127.75 143.37 128.17 144.42 128.61 145.45 C 128.89 146.13 129.15 146.82 129.40 147.52 C 129.50 147.79 129.60 148.06 129.71 148.33 C 129.71 148.60 129.71 148.87 129.71 149.15 C 129.44 149.15 129.17 149.15 128.89 149.15 C 128.43 148.36 128.10 147.54 127.76 146.70 C 127.15 145.31 127.15 145.31 126.33 144.96 C 126.23 144.75 126.23 144.75 126.23 144.04 C 126.10 144.00 125.96 143.97 125.82 143.94 C 125.55 143.40 125.34 142.88 125.14 142.32 C 125.07 142.14 125.01 141.97 124.94 141.79 C 124.63 140.69 124.63 140.69 124.90 140.15 C 124.73 140.12 124.56 140.08 124.39 140.05 C 124.35 140.01 124.32 139.98 124.29 139.95 C 124.29 139.23 124.29 139.23 124.59 138.82 C 124.39 138.21 124.39 138.21 124.18 137.75 C 123.98 137.29 123.98 137.29 123.77 136.57 C 123.67 136.40 123.57 136.23 123.47 136.06 C 123.43 135.79 123.40 135.52 123.37 135.24 C 122.96 134.63 122.96 134.63 122.14 134.32 C 121.04 132.78 120.60 131.01 120.09 129.20 C 120.03 129.04 119.97 128.88 119.91 128.72 C 119.69 127.96 119.74 127.39 119.99 126.65 C 119.82 126.27 119.65 125.89 119.48 125.52 C 119.47 125.18 119.47 124.84 119.48 124.50 C 119.34 124.43 119.21 124.36 119.07 124.29 C 118.93 124.23 118.80 124.16 118.66 124.09 C 118.66 123.85 118.66 123.62 118.66 123.37 C 118.36 123.37 118.05 123.37 117.74 123.37 C 117.64 123.27 117.64 123.27 117.63 122.60 C 117.63 122.38 117.63 122.16 117.64 121.94 C 117.50 121.91 117.37 121.87 117.23 121.84 C 117.12 121.53 117.02 121.22 116.92 120.92 C 116.83 120.79 116.74 120.66 116.65 120.53 C 116.32 119.94 116.40 119.43 116.41 118.77 C 116.27 118.70 116.14 118.63 116.00 118.56 C 115.79 118.20 115.59 117.82 115.40 117.44 C 115.19 117.03 114.98 116.62 114.77 116.21 C 114.67 116.01 114.56 115.80 114.46 115.59 C 114.12 115.02 113.84 114.84 113.24 114.57 C 113.20 114.54 113.17 114.51 113.14 114.47 C 113.10 114.57 113.07 114.67 113.03 114.78 C 112.73 114.78 112.43 114.78 112.11 114.78 C 112.08 114.74 112.04 114.71 112.01 114.68 C 112.01 114.44 112.01 114.20 112.01 113.96 C 112.21 113.96 112.42 113.96 112.62 113.96 C 112.59 113.86 112.56 113.76 112.52 113.65 C 112.25 113.62 111.98 113.59 111.70 113.55 C 111.57 113.42 111.43 113.28 111.29 113.14 C 110.61 113.10 110.61 113.10 109.78 113.12 C 109.65 113.12 109.65 113.12 108.96 113.13 C 108.75 113.13 108.54 113.14 108.33 113.14 C 108.30 113.31 108.27 113.48 108.24 113.65 C 108.20 113.82 108.16 113.99 108.12 114.16 C 107.92 114.27 107.92 114.27 107.43 114.31 C 106.89 114.37 106.89 114.37 106.28 114.68 C 105.78 114.71 105.78 114.71 105.24 114.70 C 105.06 114.70 104.88 114.70 104.69 114.70 C 104.24 114.68 104.24 114.68 103.93 114.57 C 103.96 114.64 104.00 114.71 104.03 114.78 C 104.07 116.03 104.07 116.03 103.83 116.52 C 103.79 116.68 103.76 116.83 103.72 117.00 C 103.69 117.14 103.66 117.29 103.62 117.44 C 103.42 117.54 103.42 117.54 102.60 117.54 C 101.73 117.21 101.60 117.09 101.17 116.21 C 100.90 116.08 100.63 115.94 100.35 115.80 C 100.09 115.28 100.24 114.43 100.25 113.86 C 100.03 113.86 99.82 113.86 99.60 113.86 C 98.82 113.87 98.03 113.87 97.25 113.87 C 96.91 113.88 96.57 113.88 96.23 113.88 C 95.74 113.88 95.25 113.89 94.76 113.89 C 94.47 113.89 94.17 113.89 93.87 113.89 C 93.19 113.86 93.19 113.86 92.88 113.55 C 92.85 113.42 92.81 113.28 92.78 113.14 C 92.52 113.14 92.26 113.14 91.99 113.13 C 91.64 113.13 91.30 113.12 90.96 113.12 C 90.79 113.12 90.62 113.11 90.44 113.11 C 89.14 113.09 89.14 113.09 88.68 112.63 C 88.68 112.56 88.68 112.50 88.68 112.43 C 88.10 112.34 87.57 112.30 86.99 112.30 C 86.82 112.29 86.66 112.29 86.49 112.29 C 86.03 112.32 86.03 112.32 85.41 112.63 C 84.59 112.63 84.59 112.63 84.08 112.32 C 83.71 112.30 83.33 112.30 82.96 112.30 C 81.80 112.26 80.94 112.04 80.09 111.20 C 79.96 111.16 79.82 111.13 79.68 111.10 C 79.61 111.30 79.55 111.50 79.48 111.71 C 79.07 112.12 79.07 112.12 78.86 112.22 C 78.05 112.22 78.05 112.22 77.43 112.12 C 77.36 112.15 77.30 112.19 77.23 112.22 C 77.02 112.22 76.82 112.22 76.61 112.22 C 76.61 112.29 76.61 112.36 76.61 112.43 C 76.85 112.46 77.09 112.49 77.33 112.53 C 78.04 113.24 77.94 113.35 77.94 114.37 C 77.98 114.40 78.01 114.44 78.05 114.47 C 78.10 114.96 78.10 114.96 78.05 115.49 C 77.23 115.90 77.23 115.90 76.41 116.11 C 75.96 116.33 75.51 116.57 75.08 116.82 C 75.08 116.89 75.08 116.96 75.08 117.03 C 75.16 117.08 75.16 117.08 75.59 117.34 C 75.74 117.78 75.70 118.20 75.69 118.67 C 76.00 118.67 76.30 118.67 76.61 118.67 C 76.68 118.73 76.75 118.80 76.82 118.87 C 76.85 118.77 76.89 118.67 76.92 118.56 C 77.26 118.56 77.60 118.56 77.94 118.56 C 77.94 118.94 77.94 119.31 77.94 119.69 C 77.61 119.69 77.27 119.69 76.92 119.69 C 76.92 119.82 76.92 119.96 76.92 120.10 C 77.12 120.10 77.33 120.10 77.53 120.10 C 77.53 120.33 77.53 120.57 77.53 120.81 C 77.26 120.81 76.99 120.81 76.72 120.81 C 76.72 120.65 76.72 120.48 76.72 120.30 C 76.58 120.30 76.45 120.30 76.31 120.30 C 76.61 120.81 76.61 120.81 77.02 121.22 C 77.07 121.80 77.10 122.38 77.12 122.96 C 77.16 123.10 77.19 123.23 77.23 123.37 C 77.23 123.68 77.23 123.98 77.23 124.29 C 77.29 124.36 77.36 124.43 77.43 124.50 C 77.43 124.68 77.42 124.86 77.41 125.05 C 77.43 125.80 77.63 126.27 77.94 126.95 C 77.99 127.10 78.04 127.25 78.09 127.40 C 78.31 128.05 78.59 128.67 78.86 129.31 C 79.00 129.65 79.14 129.99 79.27 130.33 C 79.55 130.99 79.82 131.64 80.12 132.29 C 80.40 132.99 80.40 132.99 80.40 133.91 C 80.53 133.98 80.67 134.04 80.81 134.11 C 81.14 134.75 81.36 135.37 81.57 136.06 C 81.83 136.88 81.83 136.88 82.16 137.47 C 82.47 138.05 82.50 138.48 82.55 139.13 C 82.65 139.16 82.75 139.19 82.85 139.23 C 83.06 139.59 83.06 139.59 83.28 140.06 C 83.32 140.14 83.32 140.14 83.50 140.52 C 83.67 140.97 83.67 140.97 83.67 141.68 C 83.74 141.68 83.81 141.68 83.88 141.68 C 84.90 143.62 84.90 143.62 84.90 144.75 C 85.00 144.75 85.10 144.75 85.21 144.75 C 85.62 145.52 85.72 145.90 85.72 146.80 C 85.45 146.80 85.18 146.80 84.90 146.80 C 84.45 146.12 84.39 145.78 84.39 144.96 C 84.29 144.96 84.19 144.96 84.08 144.96 C 83.06 142.91 83.06 142.91 83.06 141.79 C 82.92 141.75 82.79 141.72 82.65 141.68 C 82.27 140.94 81.93 140.17 81.93 139.33 C 81.87 139.33 81.80 139.33 81.73 139.33 C 81.32 138.51 81.32 138.51 81.13 137.94 C 80.88 137.20 80.55 136.54 80.19 135.85 C 79.92 135.12 79.86 134.76 79.89 134.01 C 79.75 134.01 79.62 134.01 79.48 134.01 C 78.94 132.99 78.54 131.92 78.13 130.83 C 77.98 130.43 77.82 130.02 77.65 129.62 C 77.43 129.10 77.43 129.10 77.23 128.38 C 76.98 127.79 76.70 127.22 76.41 126.65 C 76.27 126.31 76.13 125.96 76.00 125.62 C 75.82 125.19 75.65 124.77 75.48 124.34 C 75.10 123.42 74.73 122.50 74.36 121.58 C 73.92 120.46 73.46 119.36 72.99 118.27 C 72.72 117.62 72.46 116.97 72.21 116.31 C 71.96 115.71 71.71 115.11 71.45 114.50 C 71.19 113.86 70.97 113.22 70.74 112.56 C 70.48 111.85 70.17 111.17 69.86 110.48 C 69.65 109.96 69.44 109.44 69.24 108.92 C 69.05 108.44 68.84 107.98 68.63 107.52 C 68.43 107.03 68.22 106.54 68.02 106.04 C 67.91 105.79 67.81 105.54 67.70 105.27 C 67.52 104.84 67.35 104.40 67.19 103.96 C 66.98 103.39 66.75 102.83 66.50 102.27 C 66.10 101.37 65.73 100.45 65.36 99.54 C 65.18 99.14 65.01 98.74 64.83 98.34 C 64.63 97.87 64.44 97.40 64.25 96.92 C 63.97 96.21 63.67 95.50 63.36 94.80 C 62.81 93.53 62.29 92.25 61.77 90.97 C 61.37 90.00 60.96 89.04 60.54 88.09 C 60.28 87.52 60.04 86.95 59.80 86.37 C 59.36 85.33 58.91 84.28 58.45 83.25 C 58.25 82.78 58.05 82.30 57.86 81.83 C 57.49 80.93 57.10 80.04 56.70 79.15 C 56.63 78.99 56.56 78.83 56.49 78.67 C 56.15 77.91 55.81 77.14 55.46 76.38 C 55.35 76.12 55.23 75.87 55.11 75.60 C 55.01 75.38 54.90 75.15 54.80 74.92 C 54.61 74.48 54.43 74.04 54.26 73.59 C 54.01 72.96 53.74 72.36 53.44 71.75 C 52.63 70.09 51.89 68.41 51.17 66.73 C 50.87 66.08 50.57 65.44 50.24 64.80 C 49.97 64.26 49.71 63.71 49.45 63.17 C 49.00 62.22 48.54 61.29 48.07 60.35 C 47.95 60.11 47.83 59.86 47.70 59.61 C 46.83 57.86 45.93 56.13 45.00 54.42 C 44.91 54.25 44.82 54.09 44.73 53.91 C 44.06 52.68 43.37 51.47 42.66 50.26 C 42.42 49.85 42.19 49.44 41.97 49.02 C 41.57 48.29 41.14 47.57 40.71 46.85 C 40.16 45.95 39.63 45.04 39.10 44.13 C 38.54 43.14 37.95 42.17 37.33 41.20 C 37.02 40.70 36.71 40.20 36.41 39.69 C 35.20 37.66 33.90 35.69 32.56 33.75 C 32.33 33.41 32.10 33.07 31.87 32.73 C 31.23 31.79 30.56 30.87 29.86 29.97 C 29.66 29.68 29.45 29.39 29.25 29.10 C 28.72 28.35 28.17 27.62 27.61 26.90 C 27.44 26.68 27.27 26.45 27.09 26.22 C 26.51 25.48 25.93 24.74 25.30 24.03 C 25.05 23.75 24.81 23.45 24.58 23.16 C 23.66 22.01 22.67 20.92 21.68 19.84 C 21.11 19.22 20.53 18.60 19.97 17.97 C 19.53 17.50 19.09 17.09 18.61 16.67 C 18.37 16.44 18.14 16.20 17.91 15.97 C 17.32 15.37 16.70 14.84 16.05 14.32 C 15.89 14.17 15.72 14.02 15.55 13.86 C 14.96 13.33 14.33 12.85 13.70 12.37 C 13.50 12.22 13.31 12.07 13.11 11.92 C 12.34 11.36 11.54 10.84 10.73 10.33 C 10.54 10.20 10.35 10.08 10.16 9.95 C 8.59 9.00 6.57 7.87 4.69 7.87 C 4.63 7.94 4.56 8.01 4.49 8.08 C 4.22 8.08 3.95 8.08 3.67 8.08 C 3.67 8.00 3.67 8.00 3.65 7.64 C 3.57 7.16 3.57 7.16 3.06 6.75 C 3.03 6.21 3.03 6.21 3.06 5.72 C 3.25 5.68 3.43 5.64 3.63 5.60 C 4.41 5.41 5.16 5.16 5.92 4.91 C 6.57 4.73 7.22 4.59 7.88 4.46 C 8.60 4.33 9.29 4.16 9.99 3.98 C 11.15 3.70 12.29 3.55 13.47 3.44 C 14.11 3.37 14.11 3.37 14.67 3.27 C 15.58 3.13 16.48 3.09 17.39 3.05 C 17.59 3.04 17.79 3.03 18.00 3.02 C 24.17 2.79 30.51 2.75 36.51 4.39 Z M 103.01 111.91 C 103.01 111.95 103.01 111.98 103.01 112.02 C 103.62 112.02 103.62 112.02 103.83 111.91 C 103.83 111.81 103.83 111.71 103.83 111.61 C 103.62 111.61 103.62 111.61 103.01 111.91 Z M 100.86 112.53 C 100.86 112.73 100.86 112.93 100.86 113.14 C 101.17 112.73 101.17 112.73 101.17 112.53 C 101.27 112.52 101.27 112.52 101.77 112.49 C 102.39 112.43 102.39 112.43 102.60 112.22 C 101.20 112.18 101.20 112.18 100.86 112.53 Z M 2.75 70.99 C 2.76 71.28 2.76 71.56 2.77 71.85 C 2.78 72.23 2.79 72.61 2.80 72.99 C 2.80 73.17 2.80 73.36 2.81 73.55 C 2.90 77.44 2.90 77.44 3.36 79.07 C 3.38 79.84 3.39 80.59 3.38 81.36 C 3.39 82.56 3.39 82.56 3.80 83.07 C 3.87 83.12 3.87 83.12 4.18 83.37 C 4.32 83.64 4.45 83.91 4.59 84.19 C 5.07 84.54 5.07 84.54 5.51 84.80 C 5.55 84.84 5.58 84.87 5.61 84.91 C 5.62 84.80 5.62 84.80 5.63 84.28 C 5.64 84.02 5.65 83.75 5.66 83.48 C 5.67 83.22 5.68 82.95 5.68 82.68 C 5.72 82.04 5.72 82.04 5.82 81.94 C 6.31 81.91 6.31 81.91 6.84 81.94 C 6.98 82.07 7.11 82.21 7.25 82.35 C 7.73 82.59 8.32 82.49 8.84 82.50 C 9.30 82.55 9.30 82.55 9.91 82.86 C 10.15 82.93 10.38 83.00 10.63 83.06 C 10.73 83.27 10.73 83.27 10.73 84.09 C 10.35 84.47 10.01 84.55 9.50 84.70 C 9.43 84.74 9.37 84.77 9.30 84.80 C 8.85 84.84 8.41 84.88 7.97 84.91 C 8.01 85.56 8.08 85.94 8.38 86.54 C 8.38 86.75 8.38 86.95 8.38 87.16 C 8.44 87.16 8.51 87.16 8.58 87.16 C 8.62 87.06 8.62 87.06 8.79 86.54 C 9.02 86.33 9.26 86.13 9.50 85.93 C 9.57 85.83 9.64 85.73 9.71 85.62 C 10.42 85.62 10.42 85.62 10.73 85.83 C 10.78 86.30 10.81 86.78 10.83 87.26 C 10.90 87.26 10.97 87.26 11.04 87.26 C 11.07 87.33 11.10 87.39 11.14 87.46 C 11.27 87.50 11.41 87.53 11.55 87.57 C 11.58 87.77 11.62 87.97 11.65 88.18 C 11.93 88.21 12.21 88.24 12.50 88.26 C 13.39 88.38 13.39 88.38 13.70 88.69 C 13.70 89.41 13.70 89.41 13.59 90.02 C 13.66 90.16 13.73 90.29 13.80 90.43 C 13.83 90.36 13.87 90.30 13.90 90.23 C 14.24 90.22 14.58 90.22 14.92 90.23 C 14.96 90.36 14.99 90.50 15.03 90.64 C 15.18 90.66 15.33 90.69 15.49 90.72 C 16.14 90.86 16.40 91.10 16.87 91.56 C 17.38 91.86 17.38 91.86 18.10 92.07 C 18.20 92.27 18.20 92.27 18.20 93.19 C 18.43 93.23 18.67 93.26 18.91 93.30 C 18.98 93.50 19.05 93.70 19.12 93.91 C 19.22 93.94 19.22 93.94 19.73 94.11 C 20.14 94.52 20.14 94.52 20.55 95.34 C 21.16 95.85 21.16 95.85 21.88 96.16 C 22.29 97.26 22.29 97.26 22.29 97.69 C 22.59 97.69 22.90 97.69 23.21 97.69 C 24.05 98.02 24.05 98.02 24.23 98.21 C 24.23 99.02 24.23 99.02 24.13 99.23 C 24.38 99.24 24.62 99.24 24.87 99.25 C 25.67 99.33 25.67 99.33 26.08 99.74 C 26.14 99.88 26.21 100.01 26.28 100.15 C 26.58 100.26 26.89 100.36 27.20 100.46 C 27.37 100.53 27.54 100.60 27.71 100.67 C 28.22 100.87 28.22 100.87 28.72 100.96 C 29.14 101.07 29.14 101.07 29.55 101.58 C 29.62 101.75 29.69 101.92 29.76 102.09 C 29.86 102.21 29.96 102.33 30.07 102.45 C 30.37 102.81 30.37 102.81 30.58 103.32 C 30.75 103.35 30.91 103.39 31.09 103.42 C 31.19 103.63 31.19 103.63 31.19 104.34 C 31.12 104.55 31.06 104.75 30.99 104.96 C 31.12 105.03 31.26 105.09 31.40 105.16 C 31.44 105.32 31.49 105.49 31.54 105.65 C 31.76 106.37 32.09 106.63 32.74 106.98 C 33.24 107.31 33.24 107.31 33.54 108.13 C 34.08 108.36 34.08 108.36 34.67 108.54 C 34.91 108.67 35.14 108.81 35.39 108.95 C 35.39 109.01 35.39 109.08 35.39 109.15 C 35.62 109.22 35.86 109.29 36.10 109.36 C 36.73 110.17 37.05 111.04 37.33 112.02 C 37.50 111.88 37.67 111.75 37.84 111.61 C 37.94 111.61 37.94 111.61 38.42 111.61 C 38.60 111.61 38.78 111.61 38.97 111.61 C 39.07 111.44 39.17 111.27 39.27 111.10 C 39.54 111.10 39.81 111.10 40.09 111.10 C 40.21 109.81 40.30 108.52 40.33 107.23 C 40.34 107.01 40.35 106.80 40.35 106.59 C 40.37 106.16 40.38 105.73 40.38 105.30 C 40.39 105.11 40.40 104.91 40.40 104.71 C 40.41 104.53 40.41 104.35 40.42 104.17 C 40.44 104.02 40.47 103.88 40.50 103.73 C 40.70 103.59 40.91 103.46 41.11 103.32 C 41.20 102.65 41.20 102.65 41.20 101.86 C 41.21 101.60 41.21 101.34 41.22 101.07 C 41.22 100.97 41.22 100.97 41.22 100.46 C 41.55 100.46 41.89 100.46 42.24 100.46 C 42.25 111.85 42.27 123.25 42.28 134.65 C 42.28 136.00 42.28 137.35 42.28 138.70 C 42.28 138.97 42.28 139.24 42.28 139.52 C 42.29 143.85 42.29 148.18 42.30 152.51 C 42.30 156.97 42.31 161.43 42.31 165.89 C 42.32 168.63 42.32 171.37 42.32 174.12 C 42.33 176.01 42.33 177.90 42.33 179.79 C 42.33 180.87 42.33 181.96 42.33 183.04 C 42.33 183.24 42.33 183.44 42.33 183.65 C 42.33 184.05 42.34 184.45 42.34 184.85 C 42.34 185.82 42.34 186.78 42.34 187.75 C 42.34 189.65 42.34 191.54 42.35 193.44 C 42.35 194.40 42.36 195.36 42.36 196.33 C 42.36 196.79 42.36 197.26 42.37 197.72 C 42.37 198.37 42.37 199.01 42.37 199.66 C 42.37 199.75 42.37 199.75 42.38 200.24 C 42.38 201.58 42.38 201.58 42.03 202.15 C 41.58 202.45 41.24 202.38 40.70 202.35 C 40.23 202.20 40.23 202.20 39.75 202.00 C 39.66 201.96 39.66 201.96 39.21 201.77 C 39.03 201.69 38.84 201.61 38.66 201.53 C 38.48 201.46 38.31 201.38 38.13 201.30 C 35.31 200.05 32.61 198.57 30.07 196.83 C 29.98 196.77 29.98 196.77 29.56 196.48 C 28.61 195.83 27.74 195.16 26.89 194.37 C 26.52 194.10 26.15 193.82 25.77 193.55 C 25.32 193.18 24.88 192.80 24.44 192.43 C 24.24 192.26 24.03 192.10 23.82 191.93 C 23.31 191.51 23.31 191.51 22.80 190.99 C 22.70 190.89 22.70 190.89 22.17 190.37 C 21.93 190.12 21.68 189.88 21.43 189.63 C 21.37 189.57 21.37 189.57 21.06 189.26 C 20.46 188.66 19.87 188.06 19.32 187.41 C 19.23 187.31 19.23 187.31 18.77 186.81 C 18.09 186.06 17.47 185.28 16.86 184.48 C 16.59 184.14 16.33 183.80 16.05 183.48 C 15.21 182.49 14.51 181.38 13.79 180.30 C 13.61 180.01 13.42 179.73 13.23 179.45 C 12.33 178.12 11.50 176.76 10.73 175.34 C 10.63 175.17 10.53 174.99 10.43 174.81 C 9.85 173.75 9.30 172.69 8.79 171.59 C 8.61 171.21 8.42 170.83 8.23 170.46 C 7.08 168.12 6.10 165.68 5.26 163.21 C 5.12 162.82 4.97 162.43 4.82 162.04 C 4.59 161.43 4.44 160.83 4.28 160.20 C 4.20 159.96 4.12 159.71 4.04 159.46 C 3.59 158.12 3.29 156.75 2.97 155.37 C 2.87 154.94 2.76 154.50 2.65 154.06 C 2.62 153.85 2.59 153.64 2.57 153.42 C 2.44 152.63 2.44 152.63 2.20 151.78 C 1.87 150.58 1.75 149.35 1.61 148.11 C 1.56 147.63 1.50 147.15 1.42 146.68 C 1.24 145.42 1.24 144.14 1.21 142.87 C 1.20 142.71 1.20 142.54 1.19 142.37 C 1.05 136.32 1.07 130.27 1.05 124.22 C 1.05 122.93 1.05 121.65 1.04 120.36 C 1.00 103.94 1.00 87.52 1.01 71.10 C 1.61 71.01 2.15 70.98 2.75 70.99 Z" fill="url(#a_teal_light)"/><path d="M 208.79 1.43 C 209.06 1.43 209.33 1.43 209.61 1.43 C 210.00 2.08 209.95 2.48 209.95 3.25 C 209.95 3.52 209.95 3.80 209.95 4.09 C 209.95 4.40 209.95 4.71 209.95 5.01 C 209.95 5.34 209.95 5.67 209.95 5.99 C 209.95 6.88 209.95 7.77 209.95 8.65 C 209.95 9.60 209.95 10.54 209.95 11.48 C 209.95 13.07 209.94 14.66 209.94 16.26 C 209.94 18.26 209.94 20.26 209.94 22.27 C 209.94 29.53 209.93 36.79 209.87 44.05 C 209.87 44.30 209.86 44.56 209.86 44.82 C 209.86 45.52 209.85 46.22 209.84 46.92 C 209.84 47.12 209.84 47.32 209.84 47.52 C 209.82 49.07 209.75 50.58 209.51 52.11 C 209.39 52.90 209.27 53.69 209.20 54.48 C 209.09 55.37 208.90 56.21 208.69 57.08 C 208.66 57.21 208.66 57.21 208.55 57.87 C 208.28 59.47 207.93 61.09 207.36 62.60 C 207.25 63.08 207.15 63.56 207.05 64.04 C 206.95 64.38 206.85 64.72 206.74 65.06 C 206.68 65.27 206.63 65.49 206.56 65.71 C 206.13 67.17 205.60 68.59 205.07 70.01 C 204.91 70.47 204.75 70.92 204.59 71.38 C 203.92 73.25 203.14 75.05 202.24 76.82 C 202.06 77.21 201.87 77.60 201.68 77.99 C 200.63 80.21 199.48 82.33 198.15 84.39 C 198.06 84.53 197.97 84.67 197.88 84.82 C 195.68 88.24 195.68 88.24 194.67 89.51 C 194.45 89.80 194.23 90.08 194.01 90.37 C 193.20 91.44 192.36 92.47 191.50 93.50 C 191.35 93.69 191.19 93.88 191.03 94.07 C 190.59 94.61 190.13 95.13 189.66 95.65 C 189.59 95.73 189.59 95.73 189.22 96.14 C 187.14 98.44 187.14 98.44 186.28 99.13 C 186.11 99.33 185.94 99.53 185.77 99.74 C 185.65 99.84 185.54 99.94 185.42 100.05 C 185.01 100.41 184.62 100.78 184.24 101.17 C 183.74 101.67 183.24 102.15 182.70 102.60 C 182.50 102.79 182.30 102.97 182.10 103.16 C 181.56 103.65 181.02 104.10 180.45 104.55 C 180.31 104.68 180.16 104.81 180.02 104.94 C 179.63 105.28 179.23 105.60 178.82 105.92 C 178.21 106.40 177.65 106.89 177.07 107.41 C 176.70 107.72 176.32 108.03 175.95 108.33 C 175.78 108.49 175.61 108.65 175.43 108.81 C 174.93 109.25 174.93 109.25 174.42 109.61 C 173.83 110.02 173.31 110.50 172.78 110.99 C 172.44 111.27 172.10 111.54 171.76 111.81 C 170.98 112.43 170.25 113.08 169.53 113.76 C 169.16 114.10 168.77 114.38 168.38 114.68 C 168.02 115.00 167.66 115.33 167.31 115.67 C 167.07 115.90 166.81 116.12 166.56 116.34 C 165.20 117.54 163.92 118.81 162.64 120.09 C 162.57 120.17 162.57 120.17 162.17 120.57 C 162.01 120.72 161.86 120.87 161.71 121.03 C 161.57 121.16 161.43 121.30 161.29 121.44 C 160.18 122.60 159.16 123.86 158.15 125.11 C 157.23 126.24 157.23 126.24 156.78 126.77 C 156.22 127.47 155.70 128.18 155.18 128.90 C 155.05 129.07 154.92 129.25 154.79 129.43 C 153.38 131.40 152.11 133.38 151.00 135.53 C 150.73 136.06 150.45 136.59 150.17 137.11 C 149.50 138.37 148.92 139.67 148.33 140.97 C 148.24 141.16 148.15 141.35 148.06 141.55 C 147.81 142.11 147.58 142.67 147.36 143.24 C 147.28 143.43 147.21 143.63 147.13 143.82 C 146.09 146.60 145.25 149.50 144.75 152.43 C 144.73 152.52 144.73 152.52 144.64 153.00 C 143.40 159.88 143.05 167.26 144.43 174.14 C 144.52 174.61 144.59 175.09 144.66 175.56 C 144.75 176.16 144.75 176.16 144.91 176.61 C 145.12 177.29 145.09 177.91 145.05 178.62 C 145.00 178.67 145.00 178.67 144.75 178.92 C 143.83 178.92 143.83 178.92 143.51 178.64 C 142.84 177.67 142.28 176.67 141.73 175.63 C 141.27 174.75 140.75 173.91 140.22 173.07 C 139.94 172.58 139.94 172.58 139.71 172.02 C 139.48 171.47 139.22 170.97 138.93 170.45 C 138.47 169.64 138.07 168.82 137.69 167.98 C 137.50 167.59 137.32 167.20 137.13 166.81 C 137.04 166.60 136.94 166.40 136.84 166.19 C 136.61 165.72 136.37 165.25 136.13 164.78 C 135.77 164.05 135.49 163.32 135.21 162.55 C 134.49 160.56 134.49 160.56 134.11 159.79 C 134.03 159.04 133.96 158.28 133.89 157.53 C 133.81 156.76 133.66 156.04 133.49 155.29 C 133.43 154.73 133.39 154.18 133.35 153.62 C 133.29 153.04 133.29 153.04 133.14 152.39 C 132.94 151.40 132.86 150.41 132.78 149.40 C 132.67 147.96 132.53 146.53 132.36 145.09 C 132.14 143.17 132.08 141.25 132.03 139.31 C 132.00 138.06 131.94 136.82 131.85 135.57 C 131.73 133.78 131.72 132.00 131.73 130.20 C 131.73 129.65 131.73 129.09 131.73 128.54 C 131.73 126.96 131.73 125.39 131.91 123.81 C 131.99 123.08 132.02 122.35 132.05 121.61 C 132.14 119.80 132.34 118.01 132.57 116.21 C 132.62 115.78 132.67 115.35 132.71 114.93 C 132.90 113.36 133.20 111.82 133.49 110.28 C 133.55 109.99 133.60 109.71 133.65 109.42 C 133.91 108.04 134.20 106.71 134.62 105.37 C 134.68 105.08 134.74 104.79 134.80 104.49 C 135.06 103.32 135.46 102.20 135.85 101.07 C 135.95 100.74 136.06 100.42 136.17 100.09 C 136.44 99.28 136.75 98.49 137.07 97.69 C 137.17 97.46 137.26 97.23 137.36 96.98 C 138.43 94.31 139.55 91.72 140.96 89.20 C 141.01 89.12 141.01 89.12 141.23 88.72 C 142.53 86.34 143.96 84.02 145.57 81.84 C 145.66 81.71 145.75 81.58 145.85 81.45 C 146.04 81.19 146.23 80.93 146.42 80.66 C 146.66 80.35 146.89 80.03 147.12 79.71 C 147.80 78.79 148.52 77.91 149.25 77.03 C 149.40 76.85 149.54 76.66 149.70 76.47 C 150.21 75.85 150.75 75.27 151.29 74.68 C 151.50 74.43 151.71 74.19 151.91 73.95 C 152.43 73.34 152.98 72.78 153.55 72.22 C 153.64 72.11 153.74 71.99 153.84 71.87 C 154.43 71.21 155.06 70.59 155.69 69.96 C 155.81 69.84 155.94 69.71 156.07 69.58 C 156.68 68.97 157.29 68.38 157.94 67.82 C 158.16 67.62 158.38 67.42 158.61 67.21 C 159.10 66.76 159.59 66.31 160.09 65.88 C 160.19 65.79 160.19 65.79 160.66 65.37 C 160.97 65.08 161.30 64.79 161.62 64.50 C 161.96 64.20 162.30 63.90 162.63 63.59 C 163.02 63.23 163.43 62.88 163.84 62.55 C 164.39 62.09 164.39 62.09 164.90 61.58 C 165.42 61.06 165.97 60.61 166.54 60.15 C 166.81 59.88 167.09 59.61 167.36 59.33 C 167.73 58.99 168.12 58.66 168.51 58.33 C 169.25 57.70 169.95 57.06 170.63 56.36 C 170.90 56.12 171.17 55.88 171.45 55.65 C 171.79 55.34 172.13 55.03 172.47 54.73 C 172.56 54.65 172.56 54.65 173.00 54.25 C 173.88 53.44 174.73 52.59 175.57 51.74 C 175.74 51.58 175.90 51.41 176.07 51.24 C 176.23 51.09 176.39 50.93 176.55 50.76 C 176.69 50.62 176.83 50.48 176.98 50.33 C 177.37 49.93 177.73 49.52 178.10 49.10 C 178.36 48.82 178.62 48.54 178.88 48.27 C 179.40 47.73 179.90 47.18 180.38 46.61 C 180.93 45.96 181.51 45.33 182.09 44.70 C 182.86 43.84 183.59 42.94 184.30 42.02 C 184.60 41.64 184.90 41.27 185.22 40.90 C 185.67 40.38 186.08 39.83 186.49 39.28 C 186.85 38.79 187.22 38.31 187.59 37.83 C 188.10 37.16 188.57 36.49 189.04 35.80 C 189.35 35.39 189.66 34.98 189.96 34.57 C 190.65 33.66 191.29 32.71 191.93 31.77 C 192.27 31.27 192.61 30.78 192.96 30.30 C 193.46 29.60 193.89 28.88 194.32 28.14 C 194.64 27.61 194.98 27.09 195.33 26.58 C 195.72 25.99 196.08 25.39 196.45 24.78 C 196.68 24.41 196.92 24.04 197.16 23.67 C 198.17 22.07 199.10 20.42 200.00 18.75 C 200.29 18.22 200.59 17.69 200.88 17.16 C 201.33 16.35 201.73 15.52 202.12 14.68 C 202.47 13.96 202.87 13.27 203.26 12.58 C 203.40 12.31 203.53 12.04 203.67 11.76 C 203.84 11.45 204.00 11.15 204.16 10.84 C 204.57 10.07 204.95 9.29 205.32 8.50 C 205.52 8.08 205.72 7.66 205.93 7.25 C 206.61 5.89 207.22 4.51 207.81 3.11 C 208.42 1.79 208.42 1.79 208.79 1.43 Z M 143.07 9.77 C 143.17 9.77 143.17 9.77 143.64 9.77 C 144.83 9.77 145.93 9.90 147.10 10.12 C 147.21 10.14 147.21 10.14 147.76 10.21 C 151.95 10.96 155.70 13.28 158.76 16.16 C 158.85 16.23 158.85 16.23 159.26 16.59 C 159.70 16.99 160.04 17.42 160.40 17.90 C 160.52 18.05 160.65 18.21 160.78 18.36 C 162.57 20.62 164.01 22.98 164.80 25.78 C 164.85 25.93 164.91 26.08 164.96 26.24 C 165.17 26.92 165.29 27.62 165.41 28.33 C 165.44 28.47 165.44 28.47 165.58 29.18 C 166.07 31.94 165.89 34.73 165.21 37.44 C 165.18 37.57 165.18 37.57 165.06 38.22 C 164.74 39.73 164.16 41.07 163.47 42.45 C 163.39 42.61 163.31 42.78 163.23 42.94 C 162.24 44.89 160.95 46.77 159.38 48.28 C 159.26 48.41 159.15 48.54 159.04 48.68 C 157.60 50.29 155.74 51.55 153.85 52.58 C 153.59 52.73 153.33 52.87 153.06 53.03 C 149.66 54.81 146.10 55.46 142.30 55.46 C 142.11 55.46 141.92 55.46 141.73 55.47 C 137.59 55.47 133.67 54.42 130.12 52.27 C 129.91 52.15 129.71 52.03 129.50 51.90 C 128.97 51.54 128.47 51.15 127.97 50.74 C 127.78 50.59 127.60 50.44 127.41 50.28 C 122.79 46.45 120.12 41.22 119.38 35.29 C 119.33 33.26 119.29 31.25 119.68 29.25 C 119.72 28.99 119.77 28.72 119.81 28.45 C 120.32 26.09 121.21 24.00 122.34 21.89 C 122.46 21.66 122.58 21.43 122.71 21.19 C 123.37 20.00 124.11 18.93 125.00 17.90 C 125.06 17.83 125.06 17.83 125.34 17.50 C 126.33 16.39 127.36 15.37 128.58 14.52 C 128.79 14.37 129.00 14.22 129.22 14.06 C 130.36 13.30 131.55 12.66 132.78 12.07 C 132.92 12.00 133.06 11.93 133.20 11.86 C 136.36 10.35 139.60 9.79 143.07 9.77 Z" fill="url(#a_gold)"/><path d="M 208.79 83.58 C 209.09 83.58 209.40 83.58 209.71 83.58 C 209.81 83.68 209.81 83.68 209.82 84.16 C 209.81 84.70 209.81 84.70 209.71 85.32 C 209.69 85.68 209.68 86.04 209.68 86.41 C 209.67 86.63 209.67 86.85 209.66 87.08 C 209.66 87.31 209.66 87.55 209.65 87.80 C 209.65 88.05 209.64 88.30 209.64 88.55 C 209.60 91.00 209.59 93.45 209.59 95.90 C 209.59 96.38 209.59 96.86 209.59 97.34 C 209.59 98.35 209.59 99.37 209.59 100.38 C 209.59 101.99 209.58 103.61 209.58 105.22 C 209.58 109.79 209.57 114.37 209.57 118.95 C 209.56 121.49 209.56 124.02 209.56 126.56 C 209.55 127.90 209.55 129.24 209.55 130.57 C 209.55 131.83 209.55 133.09 209.55 134.35 C 209.55 134.80 209.55 135.26 209.55 135.72 C 209.55 142.18 209.28 148.82 207.40 155.06 C 207.29 155.46 207.20 155.86 207.12 156.26 C 206.92 157.15 206.65 157.99 206.35 158.85 C 206.30 159.01 206.25 159.16 206.20 159.32 C 205.32 161.91 204.43 164.48 203.26 166.95 C 203.18 167.14 203.09 167.33 203.00 167.52 C 202.44 168.72 201.84 169.89 201.20 171.04 C 200.95 171.48 200.72 171.93 200.48 172.37 C 198.47 176.10 195.99 179.58 193.24 182.81 C 193.10 182.99 192.96 183.17 192.81 183.35 C 192.26 184.01 191.67 184.63 191.08 185.25 C 190.82 185.52 190.57 185.80 190.33 186.08 C 189.91 186.56 189.46 187.01 189.01 187.46 C 188.85 187.63 188.69 187.79 188.52 187.96 C 188.03 188.42 187.53 188.84 187.00 189.26 C 186.72 189.49 186.45 189.73 186.18 189.97 C 184.81 191.18 183.37 192.28 181.88 193.35 C 181.81 193.40 181.81 193.40 181.42 193.68 C 179.44 195.03 177.39 196.30 175.23 197.34 C 175.06 197.42 174.89 197.51 174.72 197.60 C 172.85 198.53 170.85 199.39 168.79 199.79 C 168.55 199.85 168.31 199.90 168.06 199.96 C 166.14 200.29 164.18 200.01 162.55 198.87 C 162.15 198.47 161.77 198.06 161.39 197.64 C 161.01 197.23 160.62 196.88 160.19 196.52 C 159.46 195.82 158.85 195.09 158.25 194.27 C 158.10 194.09 157.95 193.90 157.80 193.72 C 154.76 189.97 153.06 185.50 151.91 180.87 C 151.84 180.62 151.78 180.38 151.71 180.12 C 151.46 179.05 151.29 177.97 151.13 176.88 C 151.10 176.68 151.07 176.48 151.04 176.27 C 150.77 174.49 150.55 172.72 150.51 170.92 C 150.51 170.75 150.51 170.58 150.50 170.40 C 150.45 167.68 150.41 165.03 150.87 162.33 C 151.07 161.15 151.24 159.96 151.40 158.78 C 151.50 158.16 151.50 158.16 151.70 157.34 C 151.73 157.15 151.75 156.97 151.77 156.78 C 152.28 153.87 153.43 151.14 154.57 148.44 C 154.60 148.36 154.60 148.36 154.77 147.95 C 156.15 144.70 158.07 141.54 160.19 138.72 C 160.34 138.52 160.48 138.32 160.62 138.12 C 161.30 137.20 162.03 136.33 162.75 135.44 C 162.89 135.27 163.03 135.10 163.17 134.92 C 164.29 133.59 165.52 132.36 166.74 131.13 C 166.86 131.02 166.98 130.90 167.10 130.77 C 167.68 130.19 168.27 129.64 168.89 129.10 C 169.14 128.86 169.38 128.61 169.62 128.36 C 170.32 127.65 171.06 127.05 171.86 126.44 C 172.17 126.17 172.47 125.90 172.78 125.62 C 172.91 125.52 173.04 125.42 173.18 125.32 C 173.60 125.01 173.60 125.01 174.07 124.58 C 174.59 124.11 175.13 123.69 175.68 123.26 C 176.05 122.96 176.41 122.66 176.77 122.35 C 177.25 121.93 177.74 121.53 178.24 121.14 C 178.61 120.85 178.97 120.56 179.33 120.25 C 179.80 119.83 180.30 119.45 180.80 119.06 C 181.32 118.64 181.81 118.20 182.29 117.75 C 182.56 117.51 182.84 117.27 183.11 117.03 C 183.27 116.88 183.44 116.73 183.60 116.58 C 183.97 116.26 184.34 115.94 184.72 115.64 C 185.17 115.26 185.50 114.91 185.87 114.47 C 186.01 114.37 186.14 114.27 186.28 114.16 C 186.86 113.70 187.37 113.19 187.89 112.66 C 188.23 112.32 188.23 112.32 188.84 111.81 C 188.94 111.70 189.04 111.58 189.14 111.46 C 189.45 111.10 189.45 111.10 189.81 110.79 C 190.21 110.45 190.53 110.07 190.89 109.66 C 191.29 109.25 191.70 108.85 192.11 108.44 C 192.25 108.27 192.38 108.10 192.52 107.92 C 192.69 107.79 192.86 107.65 193.03 107.52 C 193.35 107.14 193.65 106.77 193.95 106.39 C 194.55 105.65 195.16 104.94 195.80 104.24 C 197.64 102.16 199.39 99.95 200.88 97.60 C 201.39 96.79 201.91 95.99 202.43 95.19 C 203.01 94.30 203.56 93.40 204.08 92.48 C 204.13 92.39 204.13 92.39 204.38 91.96 C 205.19 90.56 205.93 89.13 206.67 87.69 C 206.98 87.10 207.29 86.51 207.62 85.92 C 208.04 85.20 208.37 84.45 208.69 83.68 C 208.72 83.64 208.75 83.61 208.79 83.58 Z" fill="url(#a_blue)"/></g>
</svg>
