<svg xmlns="http://www.w3.org/2000/svg" viewBox="-19.50 -19.19 250.00 242.38" width="250" height="242">
  <defs>
    <linearGradient id="n_teal" x1="0.245" y1="0.07" x2="0.755" y2="0.93"><stop offset="0.0" stop-color="#229EA4"/><stop offset="0.3" stop-color="#19959D"/><stop offset="0.5" stop-color="#0F929A"/><stop offset="0.7" stop-color="#0D7982"/><stop offset="1.0" stop-color="#0B6570"/></linearGradient>
    <linearGradient id="n_gold" x1="0.309" y1="0.038" x2="0.691" y2="0.962"><stop offset="0.0" stop-color="#F1BE56"/><stop offset="0.3" stop-color="#EEB84F"/><stop offset="0.5" stop-color="#E9AF43"/><stop offset="0.7" stop-color="#E5A83C"/><stop offset="1.0" stop-color="#E2A335"/></linearGradient>
    <linearGradient id="n_blue" x1="0.863" y1="0.156" x2="0.137" y2="0.844"><stop offset="0.0" stop-color="#274E9B"/><stop offset="0.3" stop-color="#1F4388"/><stop offset="0.5" stop-color="#183A79"/><stop offset="0.7" stop-color="#12326A"/><stop offset="1.0" stop-color="#0C2A5B"/></linearGradient>
  </defs>
    <path id="n-teal" d="M 36.60 4.27 C 36.71 4.29 36.71 4.29 37.30 4.39 C 38.37 4.59 39.41 4.89 40.46 5.19 C 40.96 5.33 41.46 5.46 41.96 5.59 C 42.75 5.81 43.51 6.07 44.28 6.36 C 44.53 6.45 44.79 6.54 45.05 6.64 C 45.76 6.92 46.44 7.23 47.13 7.54 C 47.22 7.58 47.22 7.58 47.68 7.74 C 48.38 8.00 49.03 8.32 49.70 8.64 C 50.53 9.05 51.36 9.45 52.19 9.84 C 52.88 10.17 53.53 10.53 54.18 10.92 C 54.27 10.96 54.27 10.96 54.70 11.20 C 55.56 11.67 56.40 12.16 57.25 12.66 C 57.44 12.77 57.64 12.88 57.84 13.00 C 58.03 13.11 58.23 13.23 58.43 13.35 C 58.61 13.45 58.79 13.56 58.97 13.66 C 59.51 13.99 60.01 14.34 60.52 14.70 C 60.75 14.86 60.98 15.03 61.22 15.19 C 61.92 15.70 62.60 16.22 63.28 16.75 C 63.39 16.83 63.39 16.83 63.96 17.26 C 64.93 18.01 65.85 18.79 66.76 19.61 C 66.89 19.73 67.03 19.85 67.17 19.97 C 68.01 20.71 68.82 21.47 69.62 22.27 C 69.74 22.37 69.87 22.48 70.00 22.59 C 70.51 23.04 70.99 23.52 71.47 24.00 C 71.55 24.09 71.55 24.09 71.99 24.53 C 72.41 24.96 72.81 25.39 73.20 25.85 C 73.26 25.91 73.26 25.91 73.56 26.20 C 74.24 26.89 74.84 27.64 75.45 28.40 C 76.26 29.41 76.26 29.41 76.68 29.89 C 77.40 30.73 78.06 31.61 78.72 32.49 C 78.85 32.65 78.98 32.81 79.11 32.97 C 79.58 33.57 80.02 34.18 80.45 34.81 C 80.73 35.20 81.02 35.59 81.30 35.97 C 82.08 37.04 82.80 38.14 83.53 39.24 C 83.68 39.47 83.83 39.69 83.98 39.93 C 84.78 41.15 85.56 42.37 86.29 43.64 C 86.46 43.93 86.63 44.22 86.80 44.51 C 87.21 45.21 87.61 45.91 88.00 46.61 C 88.23 47.02 88.47 47.42 88.71 47.82 C 89.06 48.39 89.37 48.96 89.66 49.57 C 89.82 49.87 89.98 50.17 90.14 50.47 C 90.60 51.35 91.04 52.24 91.46 53.14 C 91.80 53.86 92.16 54.58 92.52 55.29 C 92.69 55.63 92.86 55.97 93.03 56.31 C 93.16 56.55 93.28 56.79 93.40 57.04 C 93.88 57.98 94.30 58.95 94.72 59.92 C 94.93 60.40 95.15 60.86 95.39 61.32 C 95.62 61.87 95.85 62.41 96.08 62.95 C 96.28 63.40 96.49 63.85 96.71 64.29 C 96.90 64.74 97.09 65.18 97.28 65.63 C 97.69 66.61 98.12 67.58 98.54 68.55 C 98.76 69.06 98.97 69.57 99.18 70.09 C 99.43 70.72 99.70 71.34 99.99 71.96 C 100.20 72.47 100.41 72.98 100.61 73.49 C 100.73 73.78 100.85 74.07 100.97 74.36 C 101.03 74.51 101.08 74.65 101.14 74.80 C 102.30 77.67 102.30 77.67 102.87 79.00 C 103.23 79.84 103.55 80.70 103.88 81.56 C 104.18 82.35 104.49 83.13 104.79 83.92 C 104.86 84.10 104.93 84.28 105.00 84.46 C 105.41 85.51 105.83 86.56 106.26 87.61 C 106.77 88.85 107.23 90.10 107.69 91.36 C 108.01 92.23 108.34 93.08 108.68 93.93 C 108.89 94.48 109.09 95.03 109.29 95.58 C 109.73 96.72 110.18 97.86 110.64 98.99 C 110.89 99.61 111.12 100.22 111.35 100.84 C 111.52 101.29 111.70 101.74 111.89 102.19 C 112.38 103.37 112.82 104.57 113.27 105.77 C 113.53 106.47 113.80 107.16 114.08 107.84 C 114.42 108.69 114.75 109.53 115.06 110.39 C 115.39 111.27 115.73 112.14 116.09 113.01 C 116.69 114.46 117.25 115.94 117.78 117.42 C 117.96 117.91 118.16 118.40 118.36 118.88 C 119.14 120.72 119.85 122.58 120.55 124.45 C 120.84 125.21 121.14 125.97 121.45 126.73 C 122.40 129.11 123.31 131.51 124.20 133.92 C 124.73 135.36 125.29 136.79 125.85 138.21 C 126.01 138.61 126.16 139.00 126.32 139.40 C 126.39 139.59 126.47 139.78 126.55 139.98 C 126.70 140.38 126.86 140.78 127.01 141.19 C 127.58 142.69 128.19 144.17 128.81 145.64 C 129.25 146.69 129.68 147.74 130.06 148.82 C 130.68 150.53 131.44 152.19 132.27 153.81 C 132.71 154.70 133.11 155.60 133.52 156.51 C 133.83 157.13 133.83 157.13 134.34 157.64 C 134.88 158.29 134.89 158.39 134.95 159.17 C 135.06 159.48 135.18 159.78 135.31 160.08 C 135.64 160.90 135.96 161.72 136.27 162.55 C 136.65 163.54 137.07 164.46 137.58 165.38 C 137.93 166.03 138.23 166.69 138.53 167.35 C 138.99 168.34 139.45 169.31 139.99 170.26 C 140.37 170.93 140.37 170.93 140.67 171.64 C 141.01 172.42 141.44 173.08 141.91 173.79 C 142.31 174.48 142.69 175.16 143.04 175.87 C 143.42 176.60 143.85 177.24 144.36 177.88 C 144.60 177.91 144.83 177.95 145.08 177.98 C 145.38 178.49 145.38 178.49 145.57 179.03 C 146.61 181.87 148.56 184.40 150.39 186.78 C 150.59 187.05 150.79 187.32 150.99 187.59 C 151.57 188.36 152.19 189.05 152.85 189.74 C 153.47 190.42 154.08 191.10 154.69 191.79 C 155.36 192.55 156.03 193.20 156.83 193.83 C 157.11 194.05 157.39 194.28 157.67 194.50 C 157.90 194.69 158.13 194.87 158.37 195.06 C 158.12 194.56 157.79 194.17 157.45 193.73 C 155.80 191.63 154.41 189.32 153.56 186.78 C 153.47 186.59 153.37 186.41 153.27 186.21 C 152.18 183.99 151.22 181.09 151.31 178.60 C 151.25 178.60 151.18 178.60 151.11 178.60 C 150.65 176.38 150.22 174.22 150.29 171.95 C 150.63 171.95 150.96 171.95 151.31 171.95 C 151.33 172.09 151.35 172.23 151.36 172.38 C 151.54 173.88 151.77 175.38 152.02 176.88 C 152.08 177.28 152.14 177.69 152.19 178.10 C 152.23 178.49 152.23 178.49 152.37 178.90 C 152.54 179.41 152.54 179.41 152.71 180.22 C 153.82 185.32 153.82 185.32 154.99 187.08 C 155.05 187.24 155.11 187.39 155.17 187.55 C 155.45 188.23 155.83 188.81 156.22 189.43 C 156.39 189.73 156.56 190.02 156.73 190.32 C 157.39 191.43 158.16 192.42 158.98 193.42 C 159.14 193.64 159.30 193.85 159.47 194.07 C 159.90 194.65 159.90 194.65 160.41 195.16 C 160.92 195.67 160.92 195.67 160.92 195.88 C 161.06 195.94 161.19 196.01 161.33 196.08 C 161.85 196.52 162.31 196.95 162.74 197.47 C 163.70 198.46 165.03 198.85 166.34 199.15 C 167.03 199.09 167.03 199.09 167.67 198.94 C 167.78 198.93 167.78 198.93 168.34 198.86 C 169.03 198.73 169.59 198.51 170.23 198.23 C 171.20 197.87 172.05 197.65 173.09 197.61 C 173.09 197.85 173.09 198.09 173.09 198.33 C 172.99 198.33 172.89 198.33 172.78 198.33 C 172.78 198.40 172.78 198.46 172.78 198.53 C 172.38 198.71 171.97 198.88 171.56 199.05 C 171.41 199.12 171.26 199.19 171.10 199.26 C 170.52 199.50 169.93 199.62 169.31 199.76 C 169.00 199.86 168.69 199.96 168.39 200.07 C 167.88 200.24 167.36 200.41 166.85 200.58 C 166.70 200.63 166.55 200.69 166.40 200.74 C 165.71 200.95 165.00 201.06 164.30 201.19 C 164.04 201.26 163.78 201.32 163.52 201.39 C 161.84 201.80 160.15 202.06 158.44 202.29 C 158.28 202.31 158.13 202.33 157.96 202.35 C 155.32 202.69 152.65 202.64 149.99 202.64 C 149.41 202.64 148.84 202.65 148.26 202.65 C 144.86 202.65 141.56 202.42 138.23 201.70 C 138.06 201.67 137.89 201.64 137.72 201.60 C 133.17 200.65 128.86 199.13 124.73 197.00 C 124.56 196.92 124.40 196.83 124.23 196.75 C 119.83 194.48 115.73 191.62 112.05 188.31 C 111.92 188.20 111.79 188.09 111.66 187.97 C 110.60 187.04 109.59 186.07 108.59 185.07 C 108.47 184.95 108.35 184.83 108.23 184.71 C 107.64 184.12 107.07 183.52 106.53 182.89 C 106.42 182.78 106.30 182.67 106.18 182.55 C 105.72 182.08 105.31 181.57 104.89 181.05 C 104.74 180.88 104.59 180.72 104.43 180.55 C 103.94 179.99 103.50 179.40 103.05 178.80 C 102.98 178.70 102.98 178.70 102.60 178.20 C 102.09 177.52 101.60 176.83 101.11 176.14 C 101.02 176.01 100.93 175.88 100.83 175.75 C 100.52 175.30 100.20 174.85 99.88 174.40 C 99.76 174.23 99.63 174.05 99.50 173.86 C 97.38 170.85 95.43 167.71 93.65 164.49 C 93.54 164.30 93.44 164.12 93.34 163.92 C 92.70 162.77 92.09 161.61 91.49 160.45 C 91.23 159.95 90.96 159.45 90.70 158.96 C 89.50 156.68 88.38 154.36 87.31 152.01 C 87.21 151.80 87.11 151.59 87.01 151.37 C 86.46 150.18 85.93 148.98 85.41 147.78 C 85.10 147.06 84.78 146.36 84.46 145.65 C 84.20 145.08 83.97 144.51 83.73 143.94 C 83.54 143.48 83.34 143.03 83.15 142.58 C 82.58 141.26 82.03 139.94 81.48 138.62 C 81.31 138.22 81.14 137.81 80.98 137.41 C 80.60 136.52 80.24 135.63 79.88 134.73 C 79.58 134.01 79.28 133.28 78.96 132.56 C 78.60 131.72 78.27 130.87 77.93 130.02 C 77.37 128.59 76.78 127.17 76.19 125.75 C 75.32 123.64 74.46 121.52 73.61 119.40 C 73.52 119.18 73.44 118.97 73.35 118.74 C 73.26 118.54 73.18 118.33 73.10 118.12 C 73.01 117.90 72.92 117.68 72.83 117.45 C 72.64 116.98 72.45 116.50 72.26 116.02 C 72.05 115.51 71.84 115.00 71.61 114.50 C 71.37 113.93 71.15 113.39 70.95 112.80 C 70.66 111.95 70.29 111.13 69.93 110.30 C 69.72 109.78 69.51 109.26 69.30 108.73 C 69.11 108.26 68.91 107.80 68.70 107.33 C 68.49 106.84 68.29 106.35 68.09 105.86 C 67.98 105.61 67.88 105.36 67.77 105.09 C 67.59 104.66 67.42 104.22 67.26 103.78 C 67.05 103.21 66.81 102.65 66.57 102.09 C 66.17 101.19 65.79 100.28 65.43 99.36 C 65.25 98.96 65.08 98.56 64.90 98.16 C 64.70 97.69 64.51 97.22 64.32 96.75 C 64.04 96.03 63.74 95.33 63.43 94.62 C 62.88 93.36 62.36 92.08 61.84 90.80 C 61.44 89.83 61.03 88.87 60.61 87.92 C 60.35 87.35 60.11 86.78 59.87 86.20 C 59.43 85.16 58.98 84.12 58.52 83.08 C 58.32 82.61 58.13 82.13 57.93 81.66 C 57.56 80.76 57.17 79.87 56.78 78.99 C 56.71 78.83 56.63 78.67 56.56 78.51 C 56.22 77.74 55.88 76.98 55.54 76.22 C 55.48 76.09 55.48 76.09 55.18 75.44 C 55.08 75.21 54.98 74.99 54.87 74.75 C 54.68 74.32 54.50 73.88 54.33 73.43 C 54.09 72.80 53.81 72.20 53.51 71.59 C 52.71 69.94 51.97 68.26 51.24 66.57 C 50.95 65.92 50.64 65.28 50.32 64.64 C 50.05 64.10 49.79 63.56 49.53 63.01 C 49.08 62.07 48.62 61.13 48.15 60.20 C 48.03 59.95 47.90 59.71 47.78 59.45 C 46.91 57.71 46.01 55.98 45.08 54.27 C 44.99 54.10 44.90 53.94 44.81 53.76 C 44.14 52.53 43.45 51.32 42.74 50.11 C 42.50 49.71 42.28 49.29 42.05 48.88 C 41.65 48.14 41.23 47.43 40.79 46.71 C 40.25 45.81 39.71 44.90 39.19 43.98 C 38.62 42.99 38.03 42.02 37.42 41.06 C 37.10 40.56 36.80 40.05 36.49 39.55 C 35.28 37.52 33.98 35.55 32.65 33.61 C 32.42 33.27 32.19 32.93 31.96 32.60 C 31.32 31.65 30.65 30.74 29.95 29.83 C 29.74 29.54 29.54 29.25 29.34 28.96 C 28.81 28.21 28.26 27.49 27.70 26.77 C 27.53 26.54 27.36 26.32 27.18 26.09 C 26.60 25.34 26.02 24.61 25.39 23.90 C 25.15 23.61 24.91 23.32 24.67 23.03 C 23.75 21.88 22.77 20.79 21.77 19.71 C 21.20 19.09 20.63 18.47 20.06 17.84 C 19.63 17.37 19.19 16.96 18.70 16.54 C 18.47 16.31 18.24 16.07 18.01 15.84 C 17.42 15.24 16.80 14.71 16.15 14.19 C 15.98 14.04 15.82 13.89 15.65 13.74 C 15.05 13.21 14.43 12.73 13.80 12.25 C 13.60 12.10 13.41 11.95 13.21 11.79 C 12.43 11.23 11.64 10.72 10.83 10.20 C 10.64 10.08 10.46 9.95 10.26 9.83 C 8.70 8.87 6.67 7.75 4.80 7.75 C 5.31 8.45 5.85 9.04 6.51 9.61 C 6.94 10.00 7.36 10.40 7.77 10.81 C 7.84 10.88 7.84 10.88 8.18 11.22 C 8.57 11.62 8.93 12.03 9.30 12.45 C 9.47 12.64 9.63 12.82 9.81 13.01 C 10.22 13.47 10.63 13.93 11.04 14.39 C 11.50 14.91 11.96 15.42 12.42 15.93 C 12.86 16.43 13.28 16.94 13.69 17.46 C 14.25 18.13 14.82 18.79 15.38 19.45 C 15.86 20.02 16.32 20.59 16.77 21.18 C 17.48 22.07 18.20 22.95 18.93 23.83 C 19.42 24.42 19.88 25.02 20.34 25.64 C 20.50 25.85 20.66 26.05 20.82 26.27 C 21.66 27.36 22.47 28.47 23.23 29.62 C 23.65 30.25 24.09 30.86 24.53 31.47 C 24.86 31.95 25.19 32.43 25.52 32.91 C 25.83 33.37 26.14 33.82 26.45 34.27 C 26.91 34.94 27.36 35.60 27.80 36.27 C 27.97 36.52 28.14 36.77 28.31 37.03 C 29.09 38.20 29.84 39.39 30.57 40.60 C 30.87 41.09 31.18 41.57 31.49 42.05 C 32.07 42.97 32.60 43.91 33.12 44.86 C 33.58 45.70 34.06 46.53 34.54 47.36 C 35.35 48.72 36.10 50.11 36.84 51.51 C 37.22 52.24 37.62 52.96 38.02 53.69 C 38.74 55.02 39.39 56.38 40.03 57.75 C 40.11 57.91 40.18 58.06 40.26 58.22 C 41.83 61.54 42.25 64.55 42.32 68.17 C 42.33 68.38 42.33 68.59 42.33 68.80 C 42.45 74.73 42.44 80.67 42.44 86.60 C 42.44 87.99 42.44 89.37 42.44 90.75 C 42.44 94.45 42.44 98.14 42.44 101.84 C 42.44 103.59 42.45 105.33 42.45 107.08 C 42.45 113.08 42.45 119.07 42.45 125.06 C 42.45 125.44 42.45 125.81 42.45 126.19 C 42.45 126.56 42.45 126.94 42.45 127.31 C 42.45 128.07 42.45 128.82 42.45 129.57 C 42.45 129.67 42.45 129.67 42.45 130.14 C 42.45 136.21 42.45 142.29 42.45 148.36 C 42.46 154.79 42.46 161.23 42.46 167.66 C 42.46 168.37 42.46 169.07 42.46 169.78 C 42.46 169.95 42.46 170.12 42.46 170.30 C 42.46 173.10 42.46 175.89 42.46 178.69 C 42.46 181.49 42.46 184.30 42.46 187.10 C 42.46 188.62 42.46 190.14 42.46 191.66 C 42.46 193.05 42.46 194.44 42.46 195.82 C 42.46 196.33 42.46 196.83 42.46 197.34 C 42.46 198.02 42.46 198.70 42.46 199.38 C 42.46 199.48 42.46 199.48 42.46 199.99 C 42.46 201.34 42.46 201.34 42.12 201.91 C 41.67 202.21 41.32 202.15 40.79 202.11 C 40.31 201.97 40.31 201.97 39.83 201.76 C 39.74 201.72 39.74 201.72 39.29 201.54 C 39.11 201.46 38.93 201.38 38.74 201.29 C 38.57 201.22 38.39 201.14 38.21 201.06 C 35.40 199.82 32.70 198.34 30.15 196.59 C 30.07 196.53 30.07 196.53 29.65 196.25 C 28.70 195.59 27.83 194.93 26.99 194.14 C 26.61 193.86 26.24 193.59 25.86 193.32 C 25.42 192.95 24.97 192.57 24.53 192.20 C 24.33 192.03 24.13 191.87 23.92 191.70 C 23.41 191.27 23.41 191.27 22.90 190.76 C 22.79 190.66 22.79 190.66 22.27 190.14 C 22.02 189.89 21.77 189.65 21.53 189.40 C 21.47 189.34 21.47 189.34 21.15 189.03 C 20.55 188.43 19.97 187.83 19.42 187.19 C 19.33 187.09 19.33 187.09 18.86 186.58 C 18.18 185.84 17.57 185.05 16.95 184.25 C 16.69 183.91 16.43 183.58 16.15 183.26 C 15.31 182.26 14.61 181.15 13.89 180.07 C 13.70 179.79 13.52 179.51 13.33 179.23 C 12.43 177.89 11.60 176.53 10.83 175.12 C 10.73 174.94 10.64 174.77 10.54 174.59 C 9.95 173.53 9.40 172.47 8.89 171.37 C 8.71 170.99 8.52 170.61 8.33 170.24 C 7.18 167.90 6.21 165.46 5.36 162.99 C 5.23 162.60 5.08 162.21 4.93 161.83 C 4.70 161.22 4.54 160.62 4.39 159.99 C 4.31 159.74 4.22 159.50 4.14 159.25 C 3.70 157.91 3.40 156.53 3.08 155.16 C 2.97 154.73 2.86 154.29 2.75 153.85 C 2.73 153.64 2.70 153.43 2.67 153.21 C 2.55 152.42 2.55 152.42 2.31 151.57 C 1.97 150.37 1.86 149.14 1.72 147.91 C 1.67 147.43 1.60 146.96 1.52 146.49 C 1.42 145.72 1.38 144.96 1.36 144.18 C 1.36 144.03 1.35 143.88 1.35 143.72 C 1.34 143.21 1.32 142.71 1.31 142.20 C 1.31 142.03 1.30 141.85 1.30 141.67 C 1.21 137.91 1.18 134.15 1.18 130.38 C 1.18 129.48 1.17 128.57 1.17 127.66 C 1.17 126.15 1.16 124.63 1.16 123.11 C 1.16 120.99 1.15 118.88 1.15 116.76 C 1.13 111.15 1.12 105.55 1.12 99.94 C 1.12 97.33 1.11 94.73 1.10 92.12 C 1.09 90.98 1.09 89.84 1.08 88.69 C 1.08 88.45 1.08 88.20 1.08 87.94 C 1.01 74.59 1.00 61.23 1.00 47.87 C 1.00 46.04 1.00 44.21 1.00 42.38 C 1.00 39.87 1.00 37.36 1.00 34.85 C 1.00 33.92 1.00 32.99 1.00 32.06 C 1.00 27.36 1.01 22.66 1.06 17.97 C 1.06 17.77 1.06 17.57 1.07 17.37 C 1.09 15.27 1.12 13.17 1.17 11.07 C 1.17 10.88 1.17 10.70 1.18 10.51 C 1.25 7.45 1.25 7.45 2.45 6.22 C 2.55 6.10 2.66 5.99 2.77 5.88 C 3.31 5.50 3.84 5.43 4.49 5.30 C 5.00 5.13 5.51 4.96 6.03 4.78 C 6.68 4.60 7.32 4.46 7.99 4.34 C 8.70 4.21 9.39 4.04 10.10 3.86 C 11.25 3.58 12.39 3.43 13.57 3.32 C 14.20 3.25 14.20 3.25 14.77 3.15 C 15.67 3.01 16.58 2.97 17.49 2.93 C 17.69 2.92 17.89 2.91 18.10 2.90 C 24.27 2.67 30.60 2.63 36.60 4.27 Z M 209.29 82.78 C 209.80 82.80 209.80 82.80 209.90 82.90 C 209.91 83.27 209.91 83.65 209.90 84.02 C 209.86 84.06 209.83 84.09 209.80 84.12 C 209.56 84.12 209.32 84.12 209.08 84.12 C 209.08 84.26 209.08 84.39 209.08 84.53 C 209.38 84.53 209.69 84.53 210.00 84.53 C 210.00 86.29 210.00 88.04 210.00 89.85 C 209.66 89.85 209.33 89.85 208.98 89.85 C 208.94 88.33 208.91 86.81 208.88 85.25 C 208.57 85.79 208.28 86.33 207.99 86.88 C 207.65 87.50 207.65 87.50 207.44 87.70 C 207.34 87.70 207.24 87.70 207.14 87.70 C 207.14 87.94 207.14 88.18 207.14 88.42 C 206.84 89.14 206.48 89.84 206.01 90.46 C 205.96 90.56 205.96 90.56 205.71 91.08 C 205.40 91.69 205.40 91.69 205.09 92.10 C 204.96 92.10 204.82 92.10 204.68 92.10 C 204.68 92.37 204.68 92.64 204.68 92.92 C 204.49 93.36 204.49 93.36 204.22 93.81 C 204.13 93.97 204.04 94.13 203.94 94.30 C 203.59 94.87 203.22 95.43 202.84 95.98 C 202.23 96.89 201.65 97.80 201.10 98.75 C 200.87 99.09 200.63 99.43 200.39 99.77 C 200.28 99.92 200.17 100.07 200.05 100.23 C 199.45 101.06 198.83 101.87 198.14 102.63 C 197.98 102.84 197.82 103.06 197.65 103.28 C 197.11 103.97 196.52 104.57 195.89 105.19 C 195.68 105.46 195.48 105.73 195.28 106.00 C 195.21 106.00 195.14 106.00 195.07 106.00 C 195.01 106.17 194.94 106.34 194.87 106.52 C 194.19 107.35 193.48 108.11 192.72 108.87 C 192.58 109.02 192.45 109.17 192.31 109.33 C 191.75 109.95 191.16 110.53 190.57 111.12 C 190.25 111.44 189.93 111.78 189.62 112.13 C 189.21 112.58 188.79 112.97 188.32 113.37 C 188.23 113.46 188.23 113.46 187.76 113.93 C 187.20 114.49 187.20 114.49 186.80 114.78 C 186.40 115.09 186.07 115.40 185.72 115.76 C 185.22 116.27 184.70 116.71 184.13 117.15 C 184.05 117.23 184.05 117.23 183.67 117.62 C 183.26 118.02 182.85 118.34 182.39 118.68 C 182.05 118.99 181.71 119.29 181.37 119.60 C 181.03 119.88 180.69 120.15 180.35 120.42 C 180.22 120.53 180.09 120.65 179.96 120.77 C 179.62 121.06 179.26 121.34 178.90 121.62 C 178.20 122.16 177.54 122.72 176.87 123.28 C 176.59 123.51 176.32 123.74 176.04 123.96 C 175.58 124.33 175.14 124.70 174.71 125.09 C 174.12 125.61 173.51 126.08 172.89 126.56 C 171.95 127.27 171.11 128.02 170.28 128.86 C 169.63 129.51 168.98 130.14 168.28 130.75 C 168.11 130.92 167.94 131.09 167.77 131.26 C 167.26 131.77 167.26 131.77 166.89 132.09 C 166.55 132.38 166.55 132.38 166.19 132.79 C 165.85 133.18 165.50 133.48 165.12 133.81 C 164.87 134.08 164.63 134.36 164.40 134.63 C 164.22 134.85 164.03 135.06 163.84 135.28 C 163.37 135.84 162.91 136.41 162.46 136.98 C 162.30 137.17 162.15 137.36 161.99 137.55 C 161.57 138.06 161.20 138.59 160.82 139.13 C 160.62 139.40 160.41 139.68 160.21 139.95 C 160.04 140.19 159.87 140.42 159.70 140.66 C 159.56 140.66 159.43 140.66 159.29 140.66 C 159.29 140.87 159.29 141.07 159.29 141.28 C 159.24 141.36 159.24 141.36 158.98 141.79 C 158.74 141.79 158.51 141.79 158.27 141.79 C 158.27 140.97 158.27 140.97 158.57 140.46 C 158.71 140.46 158.84 140.46 158.98 140.46 C 158.98 140.26 158.98 140.06 158.98 139.85 C 159.42 139.14 159.91 138.47 160.41 137.80 C 160.54 137.62 160.66 137.44 160.79 137.26 C 161.13 136.78 161.13 136.78 161.43 136.47 C 161.67 136.17 161.91 135.86 162.15 135.55 C 162.46 135.18 162.76 134.80 163.07 134.43 C 163.23 134.23 163.39 134.03 163.56 133.83 C 163.99 133.30 163.99 133.30 164.50 132.79 C 164.69 132.59 164.87 132.39 165.06 132.18 C 165.41 131.80 165.77 131.42 166.14 131.05 C 166.34 130.85 166.53 130.65 166.74 130.45 C 167.18 130.01 167.61 129.61 168.08 129.21 C 168.42 128.87 168.76 128.53 169.09 128.19 C 169.61 127.68 169.61 127.68 170.33 127.17 C 170.50 127.00 170.67 126.83 170.84 126.66 C 171.50 126.06 172.19 125.51 172.87 124.96 C 173.25 124.64 173.63 124.33 174.00 124.01 C 174.35 123.72 174.71 123.42 175.07 123.14 C 175.63 122.70 176.16 122.24 176.70 121.77 C 177.19 121.34 177.70 120.93 178.20 120.52 C 178.73 120.10 179.25 119.67 179.75 119.23 C 180.15 118.89 180.55 118.58 180.96 118.27 C 181.54 117.81 182.08 117.36 182.60 116.84 C 183.34 116.15 184.08 115.46 184.85 114.80 C 185.73 114.00 186.58 113.17 187.42 112.32 C 187.81 111.94 188.22 111.58 188.63 111.22 C 189.01 110.84 189.38 110.46 189.76 110.08 C 189.99 109.84 190.23 109.60 190.47 109.36 C 190.53 109.30 190.53 109.30 190.84 108.99 C 191.74 108.07 191.74 108.07 192.31 107.84 C 192.38 107.68 192.45 107.51 192.52 107.33 C 193.04 106.69 193.57 106.08 194.15 105.49 C 194.22 105.49 194.29 105.49 194.36 105.49 C 194.42 105.32 194.49 105.16 194.56 104.98 C 194.73 104.81 194.90 104.64 195.07 104.47 C 195.20 104.30 195.32 104.13 195.45 103.95 C 195.89 103.35 195.89 103.35 196.37 102.82 C 196.93 102.21 197.42 101.57 197.92 100.91 C 198.20 100.54 198.49 100.18 198.79 99.82 C 199.99 98.38 200.98 96.76 201.97 95.17 C 202.06 95.02 202.15 94.88 202.24 94.73 C 202.28 94.67 202.28 94.67 202.49 94.33 C 202.73 93.95 202.99 93.59 203.25 93.22 C 203.39 92.95 203.52 92.68 203.66 92.41 C 203.76 92.27 203.86 92.14 203.97 92.00 C 204.10 92.00 204.24 92.00 204.38 92.00 C 204.38 91.76 204.38 91.52 204.38 91.28 C 204.64 90.69 204.91 90.16 205.30 89.65 C 205.50 89.23 205.71 88.82 205.92 88.40 C 206.07 88.09 206.24 87.79 206.42 87.50 C 206.52 87.50 206.62 87.50 206.73 87.50 C 206.73 87.38 206.73 87.25 206.73 87.13 C 206.86 86.38 207.19 85.81 207.55 85.15 C 207.65 84.92 207.76 84.69 207.87 84.45 C 207.97 84.27 208.06 84.10 208.16 83.92 C 208.29 83.89 208.43 83.85 208.57 83.82 C 208.57 83.55 208.57 83.28 208.57 83.00 C 208.77 82.80 208.77 82.80 209.29 82.78 Z M 208.88 107.33 C 209.21 107.33 209.55 107.33 209.90 107.33 C 209.90 111.45 209.90 115.58 209.90 119.70 C 209.90 121.61 209.90 123.53 209.91 125.44 C 209.91 127.11 209.91 128.78 209.91 130.45 C 209.91 131.33 209.91 132.21 209.91 133.10 C 209.91 133.93 209.91 134.76 209.91 135.60 C 209.91 136.04 209.91 136.49 209.91 136.94 C 209.90 149.14 209.90 149.14 208.36 152.22 C 208.06 152.22 207.76 152.22 207.44 152.22 C 207.43 151.45 207.48 150.76 207.63 150.01 C 207.94 148.38 208.21 146.78 208.37 145.13 C 208.39 144.97 208.40 144.81 208.42 144.64 C 208.48 144.07 208.52 143.49 208.57 142.91 C 208.59 142.69 208.60 142.47 208.62 142.25 C 208.84 138.98 208.81 135.70 208.81 132.42 C 208.82 131.53 208.82 130.65 208.82 129.77 C 208.83 128.10 208.83 126.43 208.83 124.76 C 208.84 122.86 208.84 120.96 208.85 119.05 C 208.86 115.15 208.87 111.24 208.88 107.33 Z M 206.32 156.10 C 206.62 156.10 206.93 156.10 207.24 156.10 C 207.24 157.42 206.75 158.60 206.31 159.83 C 206.02 160.66 205.76 161.49 205.49 162.32 C 205.30 162.85 205.30 162.85 204.89 163.57 C 204.75 163.98 204.61 164.39 204.48 164.79 C 204.34 165.06 204.21 165.33 204.07 165.61 C 204.03 165.71 204.03 165.71 203.84 166.23 C 203.52 167.04 203.14 167.80 202.74 168.58 C 202.61 168.85 202.47 169.12 202.34 169.39 C 201.99 170.09 201.62 170.77 201.23 171.45 C 201.01 171.83 200.80 172.23 200.59 172.62 C 199.94 173.84 199.22 175.00 198.45 176.14 C 198.32 176.33 198.20 176.52 198.07 176.72 C 197.50 177.56 196.90 178.39 196.30 179.21 C 196.16 179.40 196.02 179.60 195.88 179.80 C 195.48 180.34 195.07 180.87 194.65 181.40 C 194.45 181.65 194.26 181.90 194.06 182.15 C 193.58 182.78 193.09 183.36 192.52 183.91 C 192.28 184.19 192.04 184.46 191.80 184.73 C 191.43 185.14 191.05 185.55 190.68 185.96 C 190.55 186.10 190.43 186.25 190.31 186.39 C 189.91 186.83 189.48 187.21 189.04 187.59 C 188.87 187.76 188.70 187.93 188.53 188.11 C 187.80 188.79 187.07 189.44 186.28 190.05 C 186.05 190.25 185.81 190.46 185.58 190.66 C 184.26 191.82 182.83 192.84 181.37 193.83 C 181.17 193.98 180.96 194.12 180.75 194.27 C 179.34 195.22 177.89 196.05 176.36 196.80 C 176.33 196.83 176.29 196.86 176.26 196.90 C 175.96 196.90 175.65 196.90 175.34 196.90 C 175.34 196.66 175.34 196.43 175.34 196.18 C 175.81 195.90 175.81 195.90 176.46 195.57 C 176.72 195.40 176.98 195.23 177.24 195.06 C 177.99 194.55 178.75 194.09 179.53 193.64 C 180.09 193.29 180.63 192.90 181.17 192.50 C 181.24 192.45 181.24 192.45 181.63 192.20 C 182.15 191.85 182.63 191.46 183.11 191.07 C 183.19 191.01 183.19 191.01 183.60 190.68 C 184.37 190.06 185.13 189.42 185.87 188.77 C 186.22 188.47 186.57 188.17 186.92 187.88 C 187.86 187.08 188.74 186.28 189.55 185.34 C 189.96 184.91 190.37 184.47 190.78 184.04 C 192.04 182.69 193.20 181.26 194.36 179.82 C 194.50 179.65 194.64 179.47 194.79 179.29 C 195.55 178.32 196.23 177.28 196.91 176.25 C 197.01 176.10 197.11 175.96 197.21 175.81 C 197.83 174.86 198.43 173.90 198.99 172.92 C 199.37 172.26 199.37 172.26 199.88 171.54 C 200.16 171.00 200.43 170.45 200.70 169.91 C 201.07 169.16 201.44 168.42 201.81 167.68 C 202.44 166.43 203.03 165.17 203.56 163.87 C 203.65 163.67 203.73 163.47 203.82 163.27 C 204.07 162.65 204.07 162.65 204.27 161.98 C 204.47 161.33 204.73 160.72 204.99 160.09 C 205.13 159.65 205.27 159.21 205.40 158.76 C 205.54 158.31 205.68 157.86 205.83 157.41 C 205.90 157.18 205.97 156.96 206.04 156.73 C 206.22 156.21 206.22 156.21 206.32 156.10 Z" fill="url(#n_teal)"><title>N / teal ribbon</title></path>
    <path id="n-gold" d="M 208.77 1.31 C 209.04 1.31 209.31 1.31 209.59 1.31 C 209.98 1.96 209.94 2.36 209.94 3.13 C 209.94 3.40 209.94 3.68 209.94 3.97 C 209.94 4.28 209.94 4.58 209.93 4.89 C 209.93 5.22 209.93 5.54 209.93 5.87 C 209.94 6.76 209.93 7.64 209.93 8.53 C 209.93 9.47 209.93 10.41 209.93 11.35 C 209.93 12.94 209.93 14.54 209.93 16.13 C 209.92 18.13 209.92 20.13 209.92 22.14 C 209.92 29.39 209.91 36.65 209.85 43.91 C 209.85 44.16 209.85 44.41 209.85 44.67 C 209.84 45.37 209.83 46.07 209.83 46.77 C 209.83 46.97 209.82 47.17 209.82 47.38 C 209.81 48.92 209.74 50.43 209.49 51.96 C 209.37 52.75 209.26 53.54 209.18 54.33 C 209.08 55.22 208.88 56.06 208.67 56.93 C 208.65 57.06 208.65 57.06 208.54 57.72 C 208.27 59.32 207.91 60.93 207.34 62.45 C 207.24 62.93 207.14 63.40 207.03 63.88 C 206.94 64.22 206.83 64.56 206.73 64.90 C 206.67 65.12 206.61 65.33 206.55 65.55 C 206.12 67.01 205.59 68.43 205.06 69.85 C 204.89 70.31 204.73 70.76 204.57 71.22 C 203.91 73.09 203.12 74.89 202.23 76.66 C 202.04 77.05 201.86 77.44 201.67 77.82 C 200.62 80.04 199.47 82.16 198.14 84.23 C 198.05 84.37 197.96 84.51 197.87 84.65 C 195.67 88.07 195.67 88.07 194.66 89.34 C 194.44 89.63 194.22 89.91 194.01 90.20 C 193.19 91.26 192.35 92.30 191.49 93.33 C 191.34 93.52 191.19 93.71 191.03 93.90 C 190.58 94.44 190.12 94.96 189.65 95.47 C 189.58 95.55 189.58 95.55 189.21 95.97 C 187.13 98.27 187.13 98.27 186.28 98.95 C 186.11 99.15 185.94 99.35 185.77 99.56 C 185.65 99.66 185.54 99.77 185.42 99.87 C 185.00 100.23 184.62 100.60 184.23 100.99 C 183.74 101.49 183.24 101.97 182.70 102.43 C 182.50 102.61 182.30 102.79 182.10 102.98 C 181.57 103.47 181.02 103.92 180.45 104.37 C 180.31 104.50 180.16 104.63 180.02 104.76 C 179.63 105.10 179.23 105.42 178.82 105.74 C 178.22 106.22 177.65 106.71 177.08 107.23 C 176.70 107.54 176.33 107.84 175.95 108.15 C 175.78 108.31 175.61 108.46 175.44 108.62 C 174.93 109.07 174.93 109.07 174.43 109.42 C 173.83 109.84 173.32 110.32 172.78 110.81 C 172.45 111.08 172.10 111.36 171.76 111.63 C 170.99 112.25 170.26 112.90 169.53 113.58 C 169.17 113.91 168.78 114.20 168.39 114.49 C 168.03 114.82 167.67 115.15 167.32 115.48 C 167.07 115.71 166.82 115.93 166.57 116.16 C 165.21 117.35 163.93 118.62 162.66 119.90 C 162.58 119.98 162.58 119.98 162.18 120.38 C 162.03 120.53 161.88 120.68 161.72 120.84 C 161.58 120.97 161.45 121.11 161.31 121.25 C 160.19 122.41 159.18 123.67 158.16 124.92 C 157.24 126.04 157.24 126.04 156.79 126.58 C 156.24 127.27 155.72 127.98 155.20 128.70 C 155.07 128.88 154.94 129.06 154.80 129.24 C 153.39 131.20 152.12 133.18 151.02 135.33 C 150.75 135.86 150.47 136.39 150.19 136.91 C 149.52 138.17 148.94 139.47 148.35 140.77 C 148.26 140.96 148.17 141.15 148.08 141.34 C 147.83 141.90 147.60 142.47 147.38 143.04 C 147.30 143.23 147.23 143.42 147.15 143.62 C 146.11 146.40 145.28 149.29 144.77 152.22 C 144.75 152.31 144.75 152.31 144.66 152.80 C 143.42 159.67 143.07 167.04 144.45 173.92 C 144.54 174.39 144.61 174.86 144.68 175.34 C 144.77 175.94 144.77 175.94 144.93 176.39 C 145.14 177.07 145.11 177.69 145.08 178.39 C 145.03 178.44 145.03 178.44 144.77 178.70 C 143.85 178.70 143.85 178.70 143.53 178.41 C 142.86 177.44 142.30 176.45 141.76 175.41 C 141.29 174.53 140.77 173.69 140.24 172.85 C 139.96 172.36 139.96 172.36 139.73 171.80 C 139.50 171.25 139.25 170.75 138.95 170.23 C 138.50 169.42 138.10 168.60 137.71 167.76 C 137.53 167.37 137.34 166.98 137.16 166.59 C 137.06 166.39 136.97 166.19 136.87 165.98 C 136.64 165.50 136.40 165.03 136.16 164.56 C 135.80 163.83 135.51 163.11 135.24 162.34 C 134.52 160.35 134.52 160.35 134.14 159.58 C 134.06 158.83 133.99 158.07 133.92 157.32 C 133.83 156.55 133.69 155.83 133.52 155.08 C 133.46 154.52 133.42 153.97 133.38 153.41 C 133.32 152.83 133.32 152.83 133.17 152.18 C 132.97 151.19 132.89 150.21 132.81 149.20 C 132.70 147.76 132.56 146.32 132.39 144.89 C 132.17 142.97 132.11 141.05 132.06 139.11 C 132.03 137.86 131.97 136.62 131.88 135.38 C 131.76 133.59 131.75 131.80 131.76 130.01 C 131.76 129.45 131.76 128.90 131.76 128.34 C 131.76 126.76 131.76 125.19 131.94 123.62 C 132.02 122.89 132.04 122.16 132.08 121.42 C 132.17 119.61 132.37 117.82 132.60 116.02 C 132.65 115.60 132.70 115.17 132.74 114.74 C 132.93 113.18 133.23 111.64 133.52 110.09 C 133.57 109.81 133.63 109.53 133.68 109.24 C 133.94 107.86 134.23 106.53 134.65 105.19 C 134.71 104.90 134.77 104.61 134.83 104.31 C 135.08 103.14 135.48 102.02 135.87 100.89 C 135.98 100.57 136.09 100.24 136.19 99.91 C 136.47 99.10 136.78 98.31 137.10 97.52 C 137.19 97.28 137.29 97.05 137.38 96.81 C 138.46 94.14 139.58 91.54 140.99 89.03 C 141.03 88.95 141.03 88.95 141.25 88.55 C 142.55 86.17 143.99 83.85 145.59 81.67 C 145.68 81.54 145.77 81.41 145.87 81.28 C 146.06 81.02 146.25 80.76 146.45 80.50 C 146.68 80.18 146.91 79.86 147.14 79.54 C 147.82 78.62 148.54 77.75 149.27 76.87 C 149.41 76.68 149.56 76.50 149.72 76.31 C 150.23 75.69 150.77 75.10 151.31 74.51 C 151.52 74.27 151.73 74.03 151.93 73.79 C 152.45 73.18 153.00 72.62 153.56 72.06 C 153.66 71.94 153.76 71.83 153.86 71.71 C 154.45 71.05 155.08 70.43 155.70 69.80 C 155.83 69.68 155.96 69.55 156.09 69.42 C 156.69 68.81 157.30 68.22 157.96 67.66 C 158.18 67.46 158.40 67.26 158.62 67.05 C 159.11 66.60 159.60 66.16 160.11 65.72 C 160.20 65.64 160.20 65.64 160.67 65.21 C 160.99 64.92 161.31 64.63 161.63 64.35 C 161.97 64.05 162.31 63.74 162.64 63.43 C 163.04 63.08 163.44 62.73 163.85 62.39 C 164.40 61.94 164.40 61.94 164.91 61.43 C 165.43 60.91 165.98 60.46 166.55 60.00 C 166.82 59.72 167.09 59.45 167.36 59.18 C 167.74 58.84 168.13 58.51 168.52 58.18 C 169.26 57.55 169.95 56.90 170.64 56.21 C 170.91 55.97 171.18 55.73 171.45 55.50 C 171.80 55.19 172.14 54.88 172.48 54.58 C 172.56 54.50 172.56 54.50 173.01 54.10 C 173.89 53.29 174.73 52.44 175.58 51.59 C 175.74 51.43 175.90 51.26 176.07 51.10 C 176.23 50.94 176.39 50.78 176.55 50.62 C 176.70 50.47 176.84 50.33 176.98 50.18 C 177.37 49.78 177.74 49.37 178.10 48.95 C 178.36 48.67 178.62 48.40 178.89 48.12 C 179.40 47.58 179.90 47.03 180.38 46.47 C 180.94 45.81 181.51 45.19 182.09 44.56 C 182.86 43.69 183.59 42.79 184.30 41.88 C 184.60 41.50 184.90 41.12 185.22 40.76 C 185.67 40.24 186.08 39.69 186.48 39.14 C 186.85 38.65 187.22 38.17 187.59 37.69 C 188.09 37.02 188.57 36.35 189.04 35.66 C 189.35 35.25 189.65 34.84 189.96 34.43 C 190.64 33.52 191.28 32.58 191.92 31.63 C 192.26 31.13 192.61 30.65 192.96 30.16 C 193.45 29.46 193.89 28.74 194.31 28.00 C 194.63 27.47 194.97 26.96 195.32 26.45 C 195.71 25.86 196.07 25.25 196.44 24.65 C 196.67 24.27 196.91 23.90 197.15 23.53 C 198.17 21.93 199.09 20.28 199.99 18.62 C 200.28 18.09 200.57 17.56 200.87 17.03 C 201.32 16.22 201.72 15.40 202.11 14.55 C 202.45 13.83 202.85 13.15 203.25 12.45 C 203.39 12.18 203.52 11.91 203.66 11.63 C 203.82 11.33 203.98 11.02 204.15 10.72 C 204.55 9.95 204.94 9.17 205.30 8.37 C 205.50 7.95 205.71 7.54 205.92 7.12 C 206.60 5.77 207.21 4.39 207.80 2.99 C 208.41 1.67 208.41 1.67 208.77 1.31 Z M 143.09 9.65 C 143.19 9.65 143.19 9.65 143.66 9.64 C 144.85 9.65 145.95 9.78 147.12 10.00 C 147.23 10.01 147.23 10.01 147.78 10.08 C 151.97 10.84 155.72 13.16 158.78 16.03 C 158.86 16.10 158.86 16.10 159.28 16.46 C 159.71 16.86 160.06 17.29 160.41 17.77 C 160.54 17.92 160.66 18.08 160.79 18.23 C 162.58 20.49 164.02 22.85 164.81 25.64 C 164.86 25.79 164.92 25.95 164.97 26.10 C 165.18 26.79 165.30 27.49 165.42 28.20 C 165.45 28.34 165.45 28.34 165.59 29.04 C 166.08 31.80 165.90 34.59 165.22 37.30 C 165.19 37.43 165.19 37.43 165.07 38.08 C 164.75 39.59 164.17 40.93 163.48 42.31 C 163.40 42.47 163.32 42.63 163.24 42.80 C 162.25 44.74 160.96 46.62 159.39 48.13 C 159.28 48.27 159.17 48.40 159.05 48.53 C 157.61 50.14 155.75 51.40 153.87 52.43 C 153.61 52.58 153.35 52.72 153.08 52.88 C 149.68 54.66 146.12 55.31 142.32 55.31 C 142.13 55.31 141.95 55.31 141.75 55.31 C 137.62 55.32 133.70 54.27 130.15 52.12 C 129.94 52.00 129.74 51.88 129.54 51.75 C 129.00 51.39 128.50 51.00 128.00 50.59 C 127.82 50.44 127.63 50.29 127.44 50.13 C 122.83 46.31 120.15 41.07 119.41 35.15 C 119.36 33.12 119.33 31.12 119.72 29.12 C 119.76 28.85 119.80 28.59 119.85 28.31 C 120.35 25.96 121.24 23.87 122.38 21.76 C 122.50 21.53 122.62 21.30 122.74 21.06 C 123.41 19.87 124.14 18.80 125.04 17.77 C 125.09 17.70 125.09 17.70 125.38 17.37 C 126.36 16.26 127.39 15.25 128.62 14.39 C 128.83 14.24 129.04 14.09 129.25 13.93 C 130.39 13.18 131.58 12.53 132.81 11.94 C 132.95 11.87 133.08 11.80 133.23 11.73 C 136.39 10.22 139.62 9.66 143.09 9.65 Z" fill="url(#n_gold)"><title>Leaf / gold + dot</title></path>
    <path id="n-blue" d="M 208.77 83.41 C 209.08 83.41 209.38 83.41 209.69 83.41 C 209.80 83.51 209.80 83.51 209.81 83.99 C 209.80 84.53 209.80 84.53 209.69 85.15 C 209.68 85.51 209.67 85.87 209.66 86.24 C 209.66 86.46 209.65 86.68 209.65 86.91 C 209.65 87.14 209.64 87.38 209.64 87.63 C 209.63 87.88 209.63 88.13 209.62 88.38 C 209.58 90.83 209.58 93.28 209.57 95.73 C 209.57 96.21 209.57 96.68 209.57 97.16 C 209.57 98.18 209.57 99.19 209.57 100.21 C 209.57 101.82 209.57 103.43 209.57 105.04 C 209.56 109.61 209.55 114.19 209.55 118.76 C 209.55 121.30 209.55 123.83 209.54 126.37 C 209.54 127.71 209.54 129.04 209.54 130.38 C 209.54 131.63 209.53 132.89 209.53 134.15 C 209.53 134.60 209.53 135.06 209.53 135.52 C 209.54 141.98 209.26 148.62 207.39 154.85 C 207.28 155.25 207.19 155.65 207.10 156.05 C 206.91 156.94 206.63 157.78 206.34 158.64 C 206.29 158.79 206.23 158.95 206.18 159.11 C 205.31 161.69 204.41 164.27 203.25 166.74 C 203.17 166.92 203.08 167.11 202.99 167.31 C 202.43 168.50 201.82 169.67 201.18 170.82 C 200.94 171.26 200.71 171.71 200.47 172.15 C 198.46 175.88 195.98 179.36 193.23 182.58 C 193.09 182.76 192.95 182.94 192.80 183.12 C 192.25 183.78 191.67 184.40 191.07 185.03 C 190.82 185.30 190.57 185.57 190.33 185.85 C 189.90 186.33 189.46 186.78 189.01 187.24 C 188.85 187.40 188.68 187.56 188.52 187.73 C 188.03 188.20 187.52 188.61 187.00 189.03 C 186.72 189.26 186.45 189.50 186.18 189.74 C 184.81 190.95 183.36 192.05 181.88 193.12 C 181.81 193.17 181.81 193.17 181.42 193.45 C 179.45 194.80 177.40 196.07 175.24 197.10 C 175.07 197.19 174.90 197.27 174.72 197.36 C 172.85 198.30 170.86 199.15 168.80 199.56 C 168.56 199.61 168.32 199.67 168.07 199.72 C 166.15 200.06 164.19 199.77 162.56 198.64 C 162.16 198.24 161.78 197.83 161.40 197.41 C 161.03 197.00 160.63 196.64 160.21 196.28 C 159.47 195.58 158.87 194.86 158.27 194.04 C 158.12 193.85 157.97 193.67 157.81 193.49 C 154.77 189.74 153.08 185.28 151.93 180.64 C 151.86 180.40 151.80 180.15 151.73 179.90 C 151.48 178.83 151.31 177.75 151.15 176.66 C 151.12 176.46 151.09 176.26 151.05 176.05 C 150.79 174.26 150.57 172.50 150.53 170.70 C 150.53 170.53 150.53 170.36 150.52 170.18 C 150.47 167.46 150.42 164.81 150.89 162.12 C 151.09 160.94 151.26 159.75 151.42 158.56 C 151.52 157.94 151.52 157.94 151.72 157.13 C 151.75 156.94 151.77 156.76 151.79 156.57 C 152.30 153.66 153.44 150.93 154.58 148.23 C 154.62 148.15 154.62 148.15 154.79 147.75 C 156.17 144.49 158.08 141.33 160.21 138.52 C 160.35 138.32 160.49 138.13 160.64 137.92 C 161.31 137.00 162.04 136.13 162.76 135.25 C 162.90 135.07 163.04 134.90 163.18 134.72 C 164.30 133.39 165.53 132.17 166.75 130.94 C 166.87 130.82 166.99 130.70 167.11 130.58 C 167.69 130.00 168.28 129.44 168.90 128.91 C 169.14 128.66 169.39 128.41 169.63 128.17 C 170.33 127.46 171.07 126.85 171.86 126.25 C 172.17 125.98 172.48 125.70 172.78 125.43 C 172.92 125.33 173.05 125.23 173.19 125.13 C 173.60 124.82 173.60 124.82 174.07 124.39 C 174.59 123.92 175.13 123.50 175.68 123.07 C 176.05 122.77 176.41 122.47 176.77 122.16 C 177.25 121.74 177.74 121.34 178.24 120.95 C 178.61 120.66 178.98 120.37 179.33 120.06 C 179.80 119.64 180.31 119.26 180.81 118.87 C 181.32 118.46 181.81 118.01 182.29 117.56 C 182.56 117.32 182.84 117.08 183.11 116.84 C 183.27 116.69 183.44 116.55 183.60 116.39 C 183.97 116.07 184.34 115.76 184.72 115.45 C 185.17 115.08 185.50 114.72 185.87 114.29 C 186.01 114.18 186.14 114.08 186.28 113.97 C 186.86 113.51 187.37 113.01 187.88 112.48 C 188.22 112.14 188.22 112.14 188.84 111.63 C 188.93 111.51 189.03 111.40 189.14 111.28 C 189.45 110.91 189.45 110.91 189.80 110.61 C 190.20 110.26 190.53 109.88 190.88 109.48 C 191.29 109.07 191.70 108.66 192.11 108.25 C 192.24 108.08 192.38 107.92 192.52 107.74 C 192.69 107.61 192.85 107.47 193.03 107.33 C 193.34 106.96 193.65 106.59 193.95 106.21 C 194.54 105.47 195.15 104.76 195.79 104.06 C 197.64 101.98 199.38 99.77 200.87 97.42 C 201.38 96.62 201.90 95.81 202.42 95.01 C 203.00 94.12 203.54 93.22 204.07 92.30 C 204.12 92.22 204.12 92.22 204.37 91.78 C 205.17 90.38 205.92 88.96 206.65 87.52 C 206.96 86.93 207.28 86.34 207.61 85.75 C 208.02 85.03 208.35 84.28 208.67 83.51 C 208.70 83.48 208.74 83.44 208.77 83.41 Z" fill="url(#n_blue)"><title>Leaf / blue</title></path>
</svg>
