<svg xmlns="http://www.w3.org/2000/svg" viewBox="-76.90 -76.59 1352.90 378.23" width="1353" height="378">
  <defs>
    <linearGradient id="n_teal" x1="0.245" y1="0.07" x2="0.755" y2="0.93"><stop offset="0.0" stop-color="#229EA4"/><stop offset="0.3" stop-color="#19959D"/><stop offset="0.5" stop-color="#0F929A"/><stop offset="0.7" stop-color="#0D7982"/><stop offset="1.0" stop-color="#0B6570"/></linearGradient>
    <linearGradient id="n_gold" x1="0.309" y1="0.038" x2="0.691" y2="0.962"><stop offset="0.0" stop-color="#F1BE56"/><stop offset="0.3" stop-color="#EEB84F"/><stop offset="0.5" stop-color="#E9AF43"/><stop offset="0.7" stop-color="#E5A83C"/><stop offset="1.0" stop-color="#E2A335"/></linearGradient>
    <linearGradient id="n_blue" x1="0.863" y1="0.156" x2="0.137" y2="0.844"><stop offset="0.0" stop-color="#274E9B"/><stop offset="0.3" stop-color="#1F4388"/><stop offset="0.5" stop-color="#183A79"/><stop offset="0.7" stop-color="#12326A"/><stop offset="1.0" stop-color="#0C2A5B"/></linearGradient>
  </defs>
    <path id="n-teal" d="M 36.60 4.27 C 36.71 4.29 36.71 4.29 37.30 4.39 C 38.37 4.59 39.41 4.89 40.46 5.19 C 40.96 5.33 41.46 5.46 41.96 5.59 C 42.75 5.81 43.51 6.07 44.28 6.36 C 44.53 6.45 44.79 6.54 45.05 6.64 C 45.76 6.92 46.44 7.23 47.13 7.54 C 47.22 7.58 47.22 7.58 47.68 7.74 C 48.38 8.00 49.03 8.32 49.70 8.64 C 50.53 9.05 51.36 9.45 52.19 9.84 C 52.88 10.17 53.53 10.53 54.18 10.92 C 54.27 10.96 54.27 10.96 54.70 11.20 C 55.56 11.67 56.40 12.16 57.25 12.66 C 57.44 12.77 57.64 12.88 57.84 13.00 C 58.03 13.11 58.23 13.23 58.43 13.35 C 58.61 13.45 58.79 13.56 58.97 13.66 C 59.51 13.99 60.01 14.34 60.52 14.70 C 60.75 14.86 60.98 15.03 61.22 15.19 C 61.92 15.70 62.60 16.22 63.28 16.75 C 63.39 16.83 63.39 16.83 63.96 17.26 C 64.93 18.01 65.85 18.79 66.76 19.61 C 66.89 19.73 67.03 19.85 67.17 19.97 C 68.01 20.71 68.82 21.47 69.62 22.27 C 69.74 22.37 69.87 22.48 70.00 22.59 C 70.51 23.04 70.99 23.52 71.47 24.00 C 71.55 24.09 71.55 24.09 71.99 24.53 C 72.41 24.96 72.81 25.39 73.20 25.85 C 73.26 25.91 73.26 25.91 73.56 26.20 C 74.24 26.89 74.84 27.64 75.45 28.40 C 76.26 29.41 76.26 29.41 76.68 29.89 C 77.40 30.73 78.06 31.61 78.72 32.49 C 78.85 32.65 78.98 32.81 79.11 32.97 C 79.58 33.57 80.02 34.18 80.45 34.81 C 80.73 35.20 81.02 35.59 81.30 35.97 C 82.08 37.04 82.80 38.14 83.53 39.24 C 83.68 39.47 83.83 39.69 83.98 39.93 C 84.78 41.15 85.56 42.37 86.29 43.64 C 86.46 43.93 86.63 44.22 86.80 44.51 C 87.21 45.21 87.61 45.91 88.00 46.61 C 88.23 47.02 88.47 47.42 88.71 47.82 C 89.06 48.39 89.37 48.96 89.66 49.57 C 89.82 49.87 89.98 50.17 90.14 50.47 C 90.60 51.35 91.04 52.24 91.46 53.14 C 91.80 53.86 92.16 54.58 92.52 55.29 C 92.69 55.63 92.86 55.97 93.03 56.31 C 93.16 56.55 93.28 56.79 93.40 57.04 C 93.88 57.98 94.30 58.95 94.72 59.92 C 94.93 60.40 95.15 60.86 95.39 61.32 C 95.62 61.87 95.85 62.41 96.08 62.95 C 96.28 63.40 96.49 63.85 96.71 64.29 C 96.90 64.74 97.09 65.18 97.28 65.63 C 97.69 66.61 98.12 67.58 98.54 68.55 C 98.76 69.06 98.97 69.57 99.18 70.09 C 99.43 70.72 99.70 71.34 99.99 71.96 C 100.20 72.47 100.41 72.98 100.61 73.49 C 100.73 73.78 100.85 74.07 100.97 74.36 C 101.03 74.51 101.08 74.65 101.14 74.80 C 102.30 77.67 102.30 77.67 102.87 79.00 C 103.23 79.84 103.55 80.70 103.88 81.56 C 104.18 82.35 104.49 83.13 104.79 83.92 C 104.86 84.10 104.93 84.28 105.00 84.46 C 105.41 85.51 105.83 86.56 106.26 87.61 C 106.77 88.85 107.23 90.10 107.69 91.36 C 108.01 92.23 108.34 93.08 108.68 93.93 C 108.89 94.48 109.09 95.03 109.29 95.58 C 109.73 96.72 110.18 97.86 110.64 98.99 C 110.89 99.61 111.12 100.22 111.35 100.84 C 111.52 101.29 111.70 101.74 111.89 102.19 C 112.38 103.37 112.82 104.57 113.27 105.77 C 113.53 106.47 113.80 107.16 114.08 107.84 C 114.42 108.69 114.75 109.53 115.06 110.39 C 115.39 111.27 115.73 112.14 116.09 113.01 C 116.69 114.46 117.25 115.94 117.78 117.42 C 117.96 117.91 118.16 118.40 118.36 118.88 C 119.14 120.72 119.85 122.58 120.55 124.45 C 120.84 125.21 121.14 125.97 121.45 126.73 C 122.40 129.11 123.31 131.51 124.20 133.92 C 124.73 135.36 125.29 136.79 125.85 138.21 C 126.01 138.61 126.16 139.00 126.32 139.40 C 126.39 139.59 126.47 139.78 126.55 139.98 C 126.70 140.38 126.86 140.78 127.01 141.19 C 127.58 142.69 128.19 144.17 128.81 145.64 C 129.25 146.69 129.68 147.74 130.06 148.82 C 130.68 150.53 131.44 152.19 132.27 153.81 C 132.71 154.70 133.11 155.60 133.52 156.51 C 133.83 157.13 133.83 157.13 134.34 157.64 C 134.88 158.29 134.89 158.39 134.95 159.17 C 135.06 159.48 135.18 159.78 135.31 160.08 C 135.64 160.90 135.96 161.72 136.27 162.55 C 136.65 163.54 137.07 164.46 137.58 165.38 C 137.93 166.03 138.23 166.69 138.53 167.35 C 138.99 168.34 139.45 169.31 139.99 170.26 C 140.37 170.93 140.37 170.93 140.67 171.64 C 141.01 172.42 141.44 173.08 141.91 173.79 C 142.31 174.48 142.69 175.16 143.04 175.87 C 143.42 176.60 143.85 177.24 144.36 177.88 C 144.60 177.91 144.83 177.95 145.08 177.98 C 145.38 178.49 145.38 178.49 145.57 179.03 C 146.61 181.87 148.56 184.40 150.39 186.78 C 150.59 187.05 150.79 187.32 150.99 187.59 C 151.57 188.36 152.19 189.05 152.85 189.74 C 153.47 190.42 154.08 191.10 154.69 191.79 C 155.36 192.55 156.03 193.20 156.83 193.83 C 157.11 194.05 157.39 194.28 157.67 194.50 C 157.90 194.69 158.13 194.87 158.37 195.06 C 158.12 194.56 157.79 194.17 157.45 193.73 C 155.80 191.63 154.41 189.32 153.56 186.78 C 153.47 186.59 153.37 186.41 153.27 186.21 C 152.18 183.99 151.22 181.09 151.31 178.60 C 151.25 178.60 151.18 178.60 151.11 178.60 C 150.65 176.38 150.22 174.22 150.29 171.95 C 150.63 171.95 150.96 171.95 151.31 171.95 C 151.33 172.09 151.35 172.23 151.36 172.38 C 151.54 173.88 151.77 175.38 152.02 176.88 C 152.08 177.28 152.14 177.69 152.19 178.10 C 152.23 178.49 152.23 178.49 152.37 178.90 C 152.54 179.41 152.54 179.41 152.71 180.22 C 153.82 185.32 153.82 185.32 154.99 187.08 C 155.05 187.24 155.11 187.39 155.17 187.55 C 155.45 188.23 155.83 188.81 156.22 189.43 C 156.39 189.73 156.56 190.02 156.73 190.32 C 157.39 191.43 158.16 192.42 158.98 193.42 C 159.14 193.64 159.30 193.85 159.47 194.07 C 159.90 194.65 159.90 194.65 160.41 195.16 C 160.92 195.67 160.92 195.67 160.92 195.88 C 161.06 195.94 161.19 196.01 161.33 196.08 C 161.85 196.52 162.31 196.95 162.74 197.47 C 163.70 198.46 165.03 198.85 166.34 199.15 C 167.03 199.09 167.03 199.09 167.67 198.94 C 167.78 198.93 167.78 198.93 168.34 198.86 C 169.03 198.73 169.59 198.51 170.23 198.23 C 171.20 197.87 172.05 197.65 173.09 197.61 C 173.09 197.85 173.09 198.09 173.09 198.33 C 172.99 198.33 172.89 198.33 172.78 198.33 C 172.78 198.40 172.78 198.46 172.78 198.53 C 172.38 198.71 171.97 198.88 171.56 199.05 C 171.41 199.12 171.26 199.19 171.10 199.26 C 170.52 199.50 169.93 199.62 169.31 199.76 C 169.00 199.86 168.69 199.96 168.39 200.07 C 167.88 200.24 167.36 200.41 166.85 200.58 C 166.70 200.63 166.55 200.69 166.40 200.74 C 165.71 200.95 165.00 201.06 164.30 201.19 C 164.04 201.26 163.78 201.32 163.52 201.39 C 161.84 201.80 160.15 202.06 158.44 202.29 C 158.28 202.31 158.13 202.33 157.96 202.35 C 155.32 202.69 152.65 202.64 149.99 202.64 C 149.41 202.64 148.84 202.65 148.26 202.65 C 144.86 202.65 141.56 202.42 138.23 201.70 C 138.06 201.67 137.89 201.64 137.72 201.60 C 133.17 200.65 128.86 199.13 124.73 197.00 C 124.56 196.92 124.40 196.83 124.23 196.75 C 119.83 194.48 115.73 191.62 112.05 188.31 C 111.92 188.20 111.79 188.09 111.66 187.97 C 110.60 187.04 109.59 186.07 108.59 185.07 C 108.47 184.95 108.35 184.83 108.23 184.71 C 107.64 184.12 107.07 183.52 106.53 182.89 C 106.42 182.78 106.30 182.67 106.18 182.55 C 105.72 182.08 105.31 181.57 104.89 181.05 C 104.74 180.88 104.59 180.72 104.43 180.55 C 103.94 179.99 103.50 179.40 103.05 178.80 C 102.98 178.70 102.98 178.70 102.60 178.20 C 102.09 177.52 101.60 176.83 101.11 176.14 C 101.02 176.01 100.93 175.88 100.83 175.75 C 100.52 175.30 100.20 174.85 99.88 174.40 C 99.76 174.23 99.63 174.05 99.50 173.86 C 97.38 170.85 95.43 167.71 93.65 164.49 C 93.54 164.30 93.44 164.12 93.34 163.92 C 92.70 162.77 92.09 161.61 91.49 160.45 C 91.23 159.95 90.96 159.45 90.70 158.96 C 89.50 156.68 88.38 154.36 87.31 152.01 C 87.21 151.80 87.11 151.59 87.01 151.37 C 86.46 150.18 85.93 148.98 85.41 147.78 C 85.10 147.06 84.78 146.36 84.46 145.65 C 84.20 145.08 83.97 144.51 83.73 143.94 C 83.54 143.48 83.34 143.03 83.15 142.58 C 82.58 141.26 82.03 139.94 81.48 138.62 C 81.31 138.22 81.14 137.81 80.98 137.41 C 80.60 136.52 80.24 135.63 79.88 134.73 C 79.58 134.01 79.28 133.28 78.96 132.56 C 78.60 131.72 78.27 130.87 77.93 130.02 C 77.37 128.59 76.78 127.17 76.19 125.75 C 75.32 123.64 74.46 121.52 73.61 119.40 C 73.52 119.18 73.44 118.97 73.35 118.74 C 73.26 118.54 73.18 118.33 73.10 118.12 C 73.01 117.90 72.92 117.68 72.83 117.45 C 72.64 116.98 72.45 116.50 72.26 116.02 C 72.05 115.51 71.84 115.00 71.61 114.50 C 71.37 113.93 71.15 113.39 70.95 112.80 C 70.66 111.95 70.29 111.13 69.93 110.30 C 69.72 109.78 69.51 109.26 69.30 108.73 C 69.11 108.26 68.91 107.80 68.70 107.33 C 68.49 106.84 68.29 106.35 68.09 105.86 C 67.98 105.61 67.88 105.36 67.77 105.09 C 67.59 104.66 67.42 104.22 67.26 103.78 C 67.05 103.21 66.81 102.65 66.57 102.09 C 66.17 101.19 65.79 100.28 65.43 99.36 C 65.25 98.96 65.08 98.56 64.90 98.16 C 64.70 97.69 64.51 97.22 64.32 96.75 C 64.04 96.03 63.74 95.33 63.43 94.62 C 62.88 93.36 62.36 92.08 61.84 90.80 C 61.44 89.83 61.03 88.87 60.61 87.92 C 60.35 87.35 60.11 86.78 59.87 86.20 C 59.43 85.16 58.98 84.12 58.52 83.08 C 58.32 82.61 58.13 82.13 57.93 81.66 C 57.56 80.76 57.17 79.87 56.78 78.99 C 56.71 78.83 56.63 78.67 56.56 78.51 C 56.22 77.74 55.88 76.98 55.54 76.22 C 55.48 76.09 55.48 76.09 55.18 75.44 C 55.08 75.21 54.98 74.99 54.87 74.75 C 54.68 74.32 54.50 73.88 54.33 73.43 C 54.09 72.80 53.81 72.20 53.51 71.59 C 52.71 69.94 51.97 68.26 51.24 66.57 C 50.95 65.92 50.64 65.28 50.32 64.64 C 50.05 64.10 49.79 63.56 49.53 63.01 C 49.08 62.07 48.62 61.13 48.15 60.20 C 48.03 59.95 47.90 59.71 47.78 59.45 C 46.91 57.71 46.01 55.98 45.08 54.27 C 44.99 54.10 44.90 53.94 44.81 53.76 C 44.14 52.53 43.45 51.32 42.74 50.11 C 42.50 49.71 42.28 49.29 42.05 48.88 C 41.65 48.14 41.23 47.43 40.79 46.71 C 40.25 45.81 39.71 44.90 39.19 43.98 C 38.62 42.99 38.03 42.02 37.42 41.06 C 37.10 40.56 36.80 40.05 36.49 39.55 C 35.28 37.52 33.98 35.55 32.65 33.61 C 32.42 33.27 32.19 32.93 31.96 32.60 C 31.32 31.65 30.65 30.74 29.95 29.83 C 29.74 29.54 29.54 29.25 29.34 28.96 C 28.81 28.21 28.26 27.49 27.70 26.77 C 27.53 26.54 27.36 26.32 27.18 26.09 C 26.60 25.34 26.02 24.61 25.39 23.90 C 25.15 23.61 24.91 23.32 24.67 23.03 C 23.75 21.88 22.77 20.79 21.77 19.71 C 21.20 19.09 20.63 18.47 20.06 17.84 C 19.63 17.37 19.19 16.96 18.70 16.54 C 18.47 16.31 18.24 16.07 18.01 15.84 C 17.42 15.24 16.80 14.71 16.15 14.19 C 15.98 14.04 15.82 13.89 15.65 13.74 C 15.05 13.21 14.43 12.73 13.80 12.25 C 13.60 12.10 13.41 11.95 13.21 11.79 C 12.43 11.23 11.64 10.72 10.83 10.20 C 10.64 10.08 10.46 9.95 10.26 9.83 C 8.70 8.87 6.67 7.75 4.80 7.75 C 5.31 8.45 5.85 9.04 6.51 9.61 C 6.94 10.00 7.36 10.40 7.77 10.81 C 7.84 10.88 7.84 10.88 8.18 11.22 C 8.57 11.62 8.93 12.03 9.30 12.45 C 9.47 12.64 9.63 12.82 9.81 13.01 C 10.22 13.47 10.63 13.93 11.04 14.39 C 11.50 14.91 11.96 15.42 12.42 15.93 C 12.86 16.43 13.28 16.94 13.69 17.46 C 14.25 18.13 14.82 18.79 15.38 19.45 C 15.86 20.02 16.32 20.59 16.77 21.18 C 17.48 22.07 18.20 22.95 18.93 23.83 C 19.42 24.42 19.88 25.02 20.34 25.64 C 20.50 25.85 20.66 26.05 20.82 26.27 C 21.66 27.36 22.47 28.47 23.23 29.62 C 23.65 30.25 24.09 30.86 24.53 31.47 C 24.86 31.95 25.19 32.43 25.52 32.91 C 25.83 33.37 26.14 33.82 26.45 34.27 C 26.91 34.94 27.36 35.60 27.80 36.27 C 27.97 36.52 28.14 36.77 28.31 37.03 C 29.09 38.20 29.84 39.39 30.57 40.60 C 30.87 41.09 31.18 41.57 31.49 42.05 C 32.07 42.97 32.60 43.91 33.12 44.86 C 33.58 45.70 34.06 46.53 34.54 47.36 C 35.35 48.72 36.10 50.11 36.84 51.51 C 37.22 52.24 37.62 52.96 38.02 53.69 C 38.74 55.02 39.39 56.38 40.03 57.75 C 40.11 57.91 40.18 58.06 40.26 58.22 C 41.83 61.54 42.25 64.55 42.32 68.17 C 42.33 68.38 42.33 68.59 42.33 68.80 C 42.45 74.73 42.44 80.67 42.44 86.60 C 42.44 87.99 42.44 89.37 42.44 90.75 C 42.44 94.45 42.44 98.14 42.44 101.84 C 42.44 103.59 42.45 105.33 42.45 107.08 C 42.45 113.08 42.45 119.07 42.45 125.06 C 42.45 125.44 42.45 125.81 42.45 126.19 C 42.45 126.56 42.45 126.94 42.45 127.31 C 42.45 128.07 42.45 128.82 42.45 129.57 C 42.45 129.67 42.45 129.67 42.45 130.14 C 42.45 136.21 42.45 142.29 42.45 148.36 C 42.46 154.79 42.46 161.23 42.46 167.66 C 42.46 168.37 42.46 169.07 42.46 169.78 C 42.46 169.95 42.46 170.12 42.46 170.30 C 42.46 173.10 42.46 175.89 42.46 178.69 C 42.46 181.49 42.46 184.30 42.46 187.10 C 42.46 188.62 42.46 190.14 42.46 191.66 C 42.46 193.05 42.46 194.44 42.46 195.82 C 42.46 196.33 42.46 196.83 42.46 197.34 C 42.46 198.02 42.46 198.70 42.46 199.38 C 42.46 199.48 42.46 199.48 42.46 199.99 C 42.46 201.34 42.46 201.34 42.12 201.91 C 41.67 202.21 41.32 202.15 40.79 202.11 C 40.31 201.97 40.31 201.97 39.83 201.76 C 39.74 201.72 39.74 201.72 39.29 201.54 C 39.11 201.46 38.93 201.38 38.74 201.29 C 38.57 201.22 38.39 201.14 38.21 201.06 C 35.40 199.82 32.70 198.34 30.15 196.59 C 30.07 196.53 30.07 196.53 29.65 196.25 C 28.70 195.59 27.83 194.93 26.99 194.14 C 26.61 193.86 26.24 193.59 25.86 193.32 C 25.42 192.95 24.97 192.57 24.53 192.20 C 24.33 192.03 24.13 191.87 23.92 191.70 C 23.41 191.27 23.41 191.27 22.90 190.76 C 22.79 190.66 22.79 190.66 22.27 190.14 C 22.02 189.89 21.77 189.65 21.53 189.40 C 21.47 189.34 21.47 189.34 21.15 189.03 C 20.55 188.43 19.97 187.83 19.42 187.19 C 19.33 187.09 19.33 187.09 18.86 186.58 C 18.18 185.84 17.57 185.05 16.95 184.25 C 16.69 183.91 16.43 183.58 16.15 183.26 C 15.31 182.26 14.61 181.15 13.89 180.07 C 13.70 179.79 13.52 179.51 13.33 179.23 C 12.43 177.89 11.60 176.53 10.83 175.12 C 10.73 174.94 10.64 174.77 10.54 174.59 C 9.95 173.53 9.40 172.47 8.89 171.37 C 8.71 170.99 8.52 170.61 8.33 170.24 C 7.18 167.90 6.21 165.46 5.36 162.99 C 5.23 162.60 5.08 162.21 4.93 161.83 C 4.70 161.22 4.54 160.62 4.39 159.99 C 4.31 159.74 4.22 159.50 4.14 159.25 C 3.70 157.91 3.40 156.53 3.08 155.16 C 2.97 154.73 2.86 154.29 2.75 153.85 C 2.73 153.64 2.70 153.43 2.67 153.21 C 2.55 152.42 2.55 152.42 2.31 151.57 C 1.97 150.37 1.86 149.14 1.72 147.91 C 1.67 147.43 1.60 146.96 1.52 146.49 C 1.42 145.72 1.38 144.96 1.36 144.18 C 1.36 144.03 1.35 143.88 1.35 143.72 C 1.34 143.21 1.32 142.71 1.31 142.20 C 1.31 142.03 1.30 141.85 1.30 141.67 C 1.21 137.91 1.18 134.15 1.18 130.38 C 1.18 129.48 1.17 128.57 1.17 127.66 C 1.17 126.15 1.16 124.63 1.16 123.11 C 1.16 120.99 1.15 118.88 1.15 116.76 C 1.13 111.15 1.12 105.55 1.12 99.94 C 1.12 97.33 1.11 94.73 1.10 92.12 C 1.09 90.98 1.09 89.84 1.08 88.69 C 1.08 88.45 1.08 88.20 1.08 87.94 C 1.01 74.59 1.00 61.23 1.00 47.87 C 1.00 46.04 1.00 44.21 1.00 42.38 C 1.00 39.87 1.00 37.36 1.00 34.85 C 1.00 33.92 1.00 32.99 1.00 32.06 C 1.00 27.36 1.01 22.66 1.06 17.97 C 1.06 17.77 1.06 17.57 1.07 17.37 C 1.09 15.27 1.12 13.17 1.17 11.07 C 1.17 10.88 1.17 10.70 1.18 10.51 C 1.25 7.45 1.25 7.45 2.45 6.22 C 2.55 6.10 2.66 5.99 2.77 5.88 C 3.31 5.50 3.84 5.43 4.49 5.30 C 5.00 5.13 5.51 4.96 6.03 4.78 C 6.68 4.60 7.32 4.46 7.99 4.34 C 8.70 4.21 9.39 4.04 10.10 3.86 C 11.25 3.58 12.39 3.43 13.57 3.32 C 14.20 3.25 14.20 3.25 14.77 3.15 C 15.67 3.01 16.58 2.97 17.49 2.93 C 17.69 2.92 17.89 2.91 18.10 2.90 C 24.27 2.67 30.60 2.63 36.60 4.27 Z M 209.29 82.78 C 209.80 82.80 209.80 82.80 209.90 82.90 C 209.91 83.27 209.91 83.65 209.90 84.02 C 209.86 84.06 209.83 84.09 209.80 84.12 C 209.56 84.12 209.32 84.12 209.08 84.12 C 209.08 84.26 209.08 84.39 209.08 84.53 C 209.38 84.53 209.69 84.53 210.00 84.53 C 210.00 86.29 210.00 88.04 210.00 89.85 C 209.66 89.85 209.33 89.85 208.98 89.85 C 208.94 88.33 208.91 86.81 208.88 85.25 C 208.57 85.79 208.28 86.33 207.99 86.88 C 207.65 87.50 207.65 87.50 207.44 87.70 C 207.34 87.70 207.24 87.70 207.14 87.70 C 207.14 87.94 207.14 88.18 207.14 88.42 C 206.84 89.14 206.48 89.84 206.01 90.46 C 205.96 90.56 205.96 90.56 205.71 91.08 C 205.40 91.69 205.40 91.69 205.09 92.10 C 204.96 92.10 204.82 92.10 204.68 92.10 C 204.68 92.37 204.68 92.64 204.68 92.92 C 204.49 93.36 204.49 93.36 204.22 93.81 C 204.13 93.97 204.04 94.13 203.94 94.30 C 203.59 94.87 203.22 95.43 202.84 95.98 C 202.23 96.89 201.65 97.80 201.10 98.75 C 200.87 99.09 200.63 99.43 200.39 99.77 C 200.28 99.92 200.17 100.07 200.05 100.23 C 199.45 101.06 198.83 101.87 198.14 102.63 C 197.98 102.84 197.82 103.06 197.65 103.28 C 197.11 103.97 196.52 104.57 195.89 105.19 C 195.68 105.46 195.48 105.73 195.28 106.00 C 195.21 106.00 195.14 106.00 195.07 106.00 C 195.01 106.17 194.94 106.34 194.87 106.52 C 194.19 107.35 193.48 108.11 192.72 108.87 C 192.58 109.02 192.45 109.17 192.31 109.33 C 191.75 109.95 191.16 110.53 190.57 111.12 C 190.25 111.44 189.93 111.78 189.62 112.13 C 189.21 112.58 188.79 112.97 188.32 113.37 C 188.23 113.46 188.23 113.46 187.76 113.93 C 187.20 114.49 187.20 114.49 186.80 114.78 C 186.40 115.09 186.07 115.40 185.72 115.76 C 185.22 116.27 184.70 116.71 184.13 117.15 C 184.05 117.23 184.05 117.23 183.67 117.62 C 183.26 118.02 182.85 118.34 182.39 118.68 C 182.05 118.99 181.71 119.29 181.37 119.60 C 181.03 119.88 180.69 120.15 180.35 120.42 C 180.22 120.53 180.09 120.65 179.96 120.77 C 179.62 121.06 179.26 121.34 178.90 121.62 C 178.20 122.16 177.54 122.72 176.87 123.28 C 176.59 123.51 176.32 123.74 176.04 123.96 C 175.58 124.33 175.14 124.70 174.71 125.09 C 174.12 125.61 173.51 126.08 172.89 126.56 C 171.95 127.27 171.11 128.02 170.28 128.86 C 169.63 129.51 168.98 130.14 168.28 130.75 C 168.11 130.92 167.94 131.09 167.77 131.26 C 167.26 131.77 167.26 131.77 166.89 132.09 C 166.55 132.38 166.55 132.38 166.19 132.79 C 165.85 133.18 165.50 133.48 165.12 133.81 C 164.87 134.08 164.63 134.36 164.40 134.63 C 164.22 134.85 164.03 135.06 163.84 135.28 C 163.37 135.84 162.91 136.41 162.46 136.98 C 162.30 137.17 162.15 137.36 161.99 137.55 C 161.57 138.06 161.20 138.59 160.82 139.13 C 160.62 139.40 160.41 139.68 160.21 139.95 C 160.04 140.19 159.87 140.42 159.70 140.66 C 159.56 140.66 159.43 140.66 159.29 140.66 C 159.29 140.87 159.29 141.07 159.29 141.28 C 159.24 141.36 159.24 141.36 158.98 141.79 C 158.74 141.79 158.51 141.79 158.27 141.79 C 158.27 140.97 158.27 140.97 158.57 140.46 C 158.71 140.46 158.84 140.46 158.98 140.46 C 158.98 140.26 158.98 140.06 158.98 139.85 C 159.42 139.14 159.91 138.47 160.41 137.80 C 160.54 137.62 160.66 137.44 160.79 137.26 C 161.13 136.78 161.13 136.78 161.43 136.47 C 161.67 136.17 161.91 135.86 162.15 135.55 C 162.46 135.18 162.76 134.80 163.07 134.43 C 163.23 134.23 163.39 134.03 163.56 133.83 C 163.99 133.30 163.99 133.30 164.50 132.79 C 164.69 132.59 164.87 132.39 165.06 132.18 C 165.41 131.80 165.77 131.42 166.14 131.05 C 166.34 130.85 166.53 130.65 166.74 130.45 C 167.18 130.01 167.61 129.61 168.08 129.21 C 168.42 128.87 168.76 128.53 169.09 128.19 C 169.61 127.68 169.61 127.68 170.33 127.17 C 170.50 127.00 170.67 126.83 170.84 126.66 C 171.50 126.06 172.19 125.51 172.87 124.96 C 173.25 124.64 173.63 124.33 174.00 124.01 C 174.35 123.72 174.71 123.42 175.07 123.14 C 175.63 122.70 176.16 122.24 176.70 121.77 C 177.19 121.34 177.70 120.93 178.20 120.52 C 178.73 120.10 179.25 119.67 179.75 119.23 C 180.15 118.89 180.55 118.58 180.96 118.27 C 181.54 117.81 182.08 117.36 182.60 116.84 C 183.34 116.15 184.08 115.46 184.85 114.80 C 185.73 114.00 186.58 113.17 187.42 112.32 C 187.81 111.94 188.22 111.58 188.63 111.22 C 189.01 110.84 189.38 110.46 189.76 110.08 C 189.99 109.84 190.23 109.60 190.47 109.36 C 190.53 109.30 190.53 109.30 190.84 108.99 C 191.74 108.07 191.74 108.07 192.31 107.84 C 192.38 107.68 192.45 107.51 192.52 107.33 C 193.04 106.69 193.57 106.08 194.15 105.49 C 194.22 105.49 194.29 105.49 194.36 105.49 C 194.42 105.32 194.49 105.16 194.56 104.98 C 194.73 104.81 194.90 104.64 195.07 104.47 C 195.20 104.30 195.32 104.13 195.45 103.95 C 195.89 103.35 195.89 103.35 196.37 102.82 C 196.93 102.21 197.42 101.57 197.92 100.91 C 198.20 100.54 198.49 100.18 198.79 99.82 C 199.99 98.38 200.98 96.76 201.97 95.17 C 202.06 95.02 202.15 94.88 202.24 94.73 C 202.28 94.67 202.28 94.67 202.49 94.33 C 202.73 93.95 202.99 93.59 203.25 93.22 C 203.39 92.95 203.52 92.68 203.66 92.41 C 203.76 92.27 203.86 92.14 203.97 92.00 C 204.10 92.00 204.24 92.00 204.38 92.00 C 204.38 91.76 204.38 91.52 204.38 91.28 C 204.64 90.69 204.91 90.16 205.30 89.65 C 205.50 89.23 205.71 88.82 205.92 88.40 C 206.07 88.09 206.24 87.79 206.42 87.50 C 206.52 87.50 206.62 87.50 206.73 87.50 C 206.73 87.38 206.73 87.25 206.73 87.13 C 206.86 86.38 207.19 85.81 207.55 85.15 C 207.65 84.92 207.76 84.69 207.87 84.45 C 207.97 84.27 208.06 84.10 208.16 83.92 C 208.29 83.89 208.43 83.85 208.57 83.82 C 208.57 83.55 208.57 83.28 208.57 83.00 C 208.77 82.80 208.77 82.80 209.29 82.78 Z M 208.88 107.33 C 209.21 107.33 209.55 107.33 209.90 107.33 C 209.90 111.45 209.90 115.58 209.90 119.70 C 209.90 121.61 209.90 123.53 209.91 125.44 C 209.91 127.11 209.91 128.78 209.91 130.45 C 209.91 131.33 209.91 132.21 209.91 133.10 C 209.91 133.93 209.91 134.76 209.91 135.60 C 209.91 136.04 209.91 136.49 209.91 136.94 C 209.90 149.14 209.90 149.14 208.36 152.22 C 208.06 152.22 207.76 152.22 207.44 152.22 C 207.43 151.45 207.48 150.76 207.63 150.01 C 207.94 148.38 208.21 146.78 208.37 145.13 C 208.39 144.97 208.40 144.81 208.42 144.64 C 208.48 144.07 208.52 143.49 208.57 142.91 C 208.59 142.69 208.60 142.47 208.62 142.25 C 208.84 138.98 208.81 135.70 208.81 132.42 C 208.82 131.53 208.82 130.65 208.82 129.77 C 208.83 128.10 208.83 126.43 208.83 124.76 C 208.84 122.86 208.84 120.96 208.85 119.05 C 208.86 115.15 208.87 111.24 208.88 107.33 Z M 206.32 156.10 C 206.62 156.10 206.93 156.10 207.24 156.10 C 207.24 157.42 206.75 158.60 206.31 159.83 C 206.02 160.66 205.76 161.49 205.49 162.32 C 205.30 162.85 205.30 162.85 204.89 163.57 C 204.75 163.98 204.61 164.39 204.48 164.79 C 204.34 165.06 204.21 165.33 204.07 165.61 C 204.03 165.71 204.03 165.71 203.84 166.23 C 203.52 167.04 203.14 167.80 202.74 168.58 C 202.61 168.85 202.47 169.12 202.34 169.39 C 201.99 170.09 201.62 170.77 201.23 171.45 C 201.01 171.83 200.80 172.23 200.59 172.62 C 199.94 173.84 199.22 175.00 198.45 176.14 C 198.32 176.33 198.20 176.52 198.07 176.72 C 197.50 177.56 196.90 178.39 196.30 179.21 C 196.16 179.40 196.02 179.60 195.88 179.80 C 195.48 180.34 195.07 180.87 194.65 181.40 C 194.45 181.65 194.26 181.90 194.06 182.15 C 193.58 182.78 193.09 183.36 192.52 183.91 C 192.28 184.19 192.04 184.46 191.80 184.73 C 191.43 185.14 191.05 185.55 190.68 185.96 C 190.55 186.10 190.43 186.25 190.31 186.39 C 189.91 186.83 189.48 187.21 189.04 187.59 C 188.87 187.76 188.70 187.93 188.53 188.11 C 187.80 188.79 187.07 189.44 186.28 190.05 C 186.05 190.25 185.81 190.46 185.58 190.66 C 184.26 191.82 182.83 192.84 181.37 193.83 C 181.17 193.98 180.96 194.12 180.75 194.27 C 179.34 195.22 177.89 196.05 176.36 196.80 C 176.33 196.83 176.29 196.86 176.26 196.90 C 175.96 196.90 175.65 196.90 175.34 196.90 C 175.34 196.66 175.34 196.43 175.34 196.18 C 175.81 195.90 175.81 195.90 176.46 195.57 C 176.72 195.40 176.98 195.23 177.24 195.06 C 177.99 194.55 178.75 194.09 179.53 193.64 C 180.09 193.29 180.63 192.90 181.17 192.50 C 181.24 192.45 181.24 192.45 181.63 192.20 C 182.15 191.85 182.63 191.46 183.11 191.07 C 183.19 191.01 183.19 191.01 183.60 190.68 C 184.37 190.06 185.13 189.42 185.87 188.77 C 186.22 188.47 186.57 188.17 186.92 187.88 C 187.86 187.08 188.74 186.28 189.55 185.34 C 189.96 184.91 190.37 184.47 190.78 184.04 C 192.04 182.69 193.20 181.26 194.36 179.82 C 194.50 179.65 194.64 179.47 194.79 179.29 C 195.55 178.32 196.23 177.28 196.91 176.25 C 197.01 176.10 197.11 175.96 197.21 175.81 C 197.83 174.86 198.43 173.90 198.99 172.92 C 199.37 172.26 199.37 172.26 199.88 171.54 C 200.16 171.00 200.43 170.45 200.70 169.91 C 201.07 169.16 201.44 168.42 201.81 167.68 C 202.44 166.43 203.03 165.17 203.56 163.87 C 203.65 163.67 203.73 163.47 203.82 163.27 C 204.07 162.65 204.07 162.65 204.27 161.98 C 204.47 161.33 204.73 160.72 204.99 160.09 C 205.13 159.65 205.27 159.21 205.40 158.76 C 205.54 158.31 205.68 157.86 205.83 157.41 C 205.90 157.18 205.97 156.96 206.04 156.73 C 206.22 156.21 206.22 156.21 206.32 156.10 Z" fill="url(#n_teal)"><title>N / teal ribbon</title></path>
    <path id="n-gold" d="M 208.77 1.31 C 209.04 1.31 209.31 1.31 209.59 1.31 C 209.98 1.96 209.94 2.36 209.94 3.13 C 209.94 3.40 209.94 3.68 209.94 3.97 C 209.94 4.28 209.94 4.58 209.93 4.89 C 209.93 5.22 209.93 5.54 209.93 5.87 C 209.94 6.76 209.93 7.64 209.93 8.53 C 209.93 9.47 209.93 10.41 209.93 11.35 C 209.93 12.94 209.93 14.54 209.93 16.13 C 209.92 18.13 209.92 20.13 209.92 22.14 C 209.92 29.39 209.91 36.65 209.85 43.91 C 209.85 44.16 209.85 44.41 209.85 44.67 C 209.84 45.37 209.83 46.07 209.83 46.77 C 209.83 46.97 209.82 47.17 209.82 47.38 C 209.81 48.92 209.74 50.43 209.49 51.96 C 209.37 52.75 209.26 53.54 209.18 54.33 C 209.08 55.22 208.88 56.06 208.67 56.93 C 208.65 57.06 208.65 57.06 208.54 57.72 C 208.27 59.32 207.91 60.93 207.34 62.45 C 207.24 62.93 207.14 63.40 207.03 63.88 C 206.94 64.22 206.83 64.56 206.73 64.90 C 206.67 65.12 206.61 65.33 206.55 65.55 C 206.12 67.01 205.59 68.43 205.06 69.85 C 204.89 70.31 204.73 70.76 204.57 71.22 C 203.91 73.09 203.12 74.89 202.23 76.66 C 202.04 77.05 201.86 77.44 201.67 77.82 C 200.62 80.04 199.47 82.16 198.14 84.23 C 198.05 84.37 197.96 84.51 197.87 84.65 C 195.67 88.07 195.67 88.07 194.66 89.34 C 194.44 89.63 194.22 89.91 194.01 90.20 C 193.19 91.26 192.35 92.30 191.49 93.33 C 191.34 93.52 191.19 93.71 191.03 93.90 C 190.58 94.44 190.12 94.96 189.65 95.47 C 189.58 95.55 189.58 95.55 189.21 95.97 C 187.13 98.27 187.13 98.27 186.28 98.95 C 186.11 99.15 185.94 99.35 185.77 99.56 C 185.65 99.66 185.54 99.77 185.42 99.87 C 185.00 100.23 184.62 100.60 184.23 100.99 C 183.74 101.49 183.24 101.97 182.70 102.43 C 182.50 102.61 182.30 102.79 182.10 102.98 C 181.57 103.47 181.02 103.92 180.45 104.37 C 180.31 104.50 180.16 104.63 180.02 104.76 C 179.63 105.10 179.23 105.42 178.82 105.74 C 178.22 106.22 177.65 106.71 177.08 107.23 C 176.70 107.54 176.33 107.84 175.95 108.15 C 175.78 108.31 175.61 108.46 175.44 108.62 C 174.93 109.07 174.93 109.07 174.43 109.42 C 173.83 109.84 173.32 110.32 172.78 110.81 C 172.45 111.08 172.10 111.36 171.76 111.63 C 170.99 112.25 170.26 112.90 169.53 113.58 C 169.17 113.91 168.78 114.20 168.39 114.49 C 168.03 114.82 167.67 115.15 167.32 115.48 C 167.07 115.71 166.82 115.93 166.57 116.16 C 165.21 117.35 163.93 118.62 162.66 119.90 C 162.58 119.98 162.58 119.98 162.18 120.38 C 162.03 120.53 161.88 120.68 161.72 120.84 C 161.58 120.97 161.45 121.11 161.31 121.25 C 160.19 122.41 159.18 123.67 158.16 124.92 C 157.24 126.04 157.24 126.04 156.79 126.58 C 156.24 127.27 155.72 127.98 155.20 128.70 C 155.07 128.88 154.94 129.06 154.80 129.24 C 153.39 131.20 152.12 133.18 151.02 135.33 C 150.75 135.86 150.47 136.39 150.19 136.91 C 149.52 138.17 148.94 139.47 148.35 140.77 C 148.26 140.96 148.17 141.15 148.08 141.34 C 147.83 141.90 147.60 142.47 147.38 143.04 C 147.30 143.23 147.23 143.42 147.15 143.62 C 146.11 146.40 145.28 149.29 144.77 152.22 C 144.75 152.31 144.75 152.31 144.66 152.80 C 143.42 159.67 143.07 167.04 144.45 173.92 C 144.54 174.39 144.61 174.86 144.68 175.34 C 144.77 175.94 144.77 175.94 144.93 176.39 C 145.14 177.07 145.11 177.69 145.08 178.39 C 145.03 178.44 145.03 178.44 144.77 178.70 C 143.85 178.70 143.85 178.70 143.53 178.41 C 142.86 177.44 142.30 176.45 141.76 175.41 C 141.29 174.53 140.77 173.69 140.24 172.85 C 139.96 172.36 139.96 172.36 139.73 171.80 C 139.50 171.25 139.25 170.75 138.95 170.23 C 138.50 169.42 138.10 168.60 137.71 167.76 C 137.53 167.37 137.34 166.98 137.16 166.59 C 137.06 166.39 136.97 166.19 136.87 165.98 C 136.64 165.50 136.40 165.03 136.16 164.56 C 135.80 163.83 135.51 163.11 135.24 162.34 C 134.52 160.35 134.52 160.35 134.14 159.58 C 134.06 158.83 133.99 158.07 133.92 157.32 C 133.83 156.55 133.69 155.83 133.52 155.08 C 133.46 154.52 133.42 153.97 133.38 153.41 C 133.32 152.83 133.32 152.83 133.17 152.18 C 132.97 151.19 132.89 150.21 132.81 149.20 C 132.70 147.76 132.56 146.32 132.39 144.89 C 132.17 142.97 132.11 141.05 132.06 139.11 C 132.03 137.86 131.97 136.62 131.88 135.38 C 131.76 133.59 131.75 131.80 131.76 130.01 C 131.76 129.45 131.76 128.90 131.76 128.34 C 131.76 126.76 131.76 125.19 131.94 123.62 C 132.02 122.89 132.04 122.16 132.08 121.42 C 132.17 119.61 132.37 117.82 132.60 116.02 C 132.65 115.60 132.70 115.17 132.74 114.74 C 132.93 113.18 133.23 111.64 133.52 110.09 C 133.57 109.81 133.63 109.53 133.68 109.24 C 133.94 107.86 134.23 106.53 134.65 105.19 C 134.71 104.90 134.77 104.61 134.83 104.31 C 135.08 103.14 135.48 102.02 135.87 100.89 C 135.98 100.57 136.09 100.24 136.19 99.91 C 136.47 99.10 136.78 98.31 137.10 97.52 C 137.19 97.28 137.29 97.05 137.38 96.81 C 138.46 94.14 139.58 91.54 140.99 89.03 C 141.03 88.95 141.03 88.95 141.25 88.55 C 142.55 86.17 143.99 83.85 145.59 81.67 C 145.68 81.54 145.77 81.41 145.87 81.28 C 146.06 81.02 146.25 80.76 146.45 80.50 C 146.68 80.18 146.91 79.86 147.14 79.54 C 147.82 78.62 148.54 77.75 149.27 76.87 C 149.41 76.68 149.56 76.50 149.72 76.31 C 150.23 75.69 150.77 75.10 151.31 74.51 C 151.52 74.27 151.73 74.03 151.93 73.79 C 152.45 73.18 153.00 72.62 153.56 72.06 C 153.66 71.94 153.76 71.83 153.86 71.71 C 154.45 71.05 155.08 70.43 155.70 69.80 C 155.83 69.68 155.96 69.55 156.09 69.42 C 156.69 68.81 157.30 68.22 157.96 67.66 C 158.18 67.46 158.40 67.26 158.62 67.05 C 159.11 66.60 159.60 66.16 160.11 65.72 C 160.20 65.64 160.20 65.64 160.67 65.21 C 160.99 64.92 161.31 64.63 161.63 64.35 C 161.97 64.05 162.31 63.74 162.64 63.43 C 163.04 63.08 163.44 62.73 163.85 62.39 C 164.40 61.94 164.40 61.94 164.91 61.43 C 165.43 60.91 165.98 60.46 166.55 60.00 C 166.82 59.72 167.09 59.45 167.36 59.18 C 167.74 58.84 168.13 58.51 168.52 58.18 C 169.26 57.55 169.95 56.90 170.64 56.21 C 170.91 55.97 171.18 55.73 171.45 55.50 C 171.80 55.19 172.14 54.88 172.48 54.58 C 172.56 54.50 172.56 54.50 173.01 54.10 C 173.89 53.29 174.73 52.44 175.58 51.59 C 175.74 51.43 175.90 51.26 176.07 51.10 C 176.23 50.94 176.39 50.78 176.55 50.62 C 176.70 50.47 176.84 50.33 176.98 50.18 C 177.37 49.78 177.74 49.37 178.10 48.95 C 178.36 48.67 178.62 48.40 178.89 48.12 C 179.40 47.58 179.90 47.03 180.38 46.47 C 180.94 45.81 181.51 45.19 182.09 44.56 C 182.86 43.69 183.59 42.79 184.30 41.88 C 184.60 41.50 184.90 41.12 185.22 40.76 C 185.67 40.24 186.08 39.69 186.48 39.14 C 186.85 38.65 187.22 38.17 187.59 37.69 C 188.09 37.02 188.57 36.35 189.04 35.66 C 189.35 35.25 189.65 34.84 189.96 34.43 C 190.64 33.52 191.28 32.58 191.92 31.63 C 192.26 31.13 192.61 30.65 192.96 30.16 C 193.45 29.46 193.89 28.74 194.31 28.00 C 194.63 27.47 194.97 26.96 195.32 26.45 C 195.71 25.86 196.07 25.25 196.44 24.65 C 196.67 24.27 196.91 23.90 197.15 23.53 C 198.17 21.93 199.09 20.28 199.99 18.62 C 200.28 18.09 200.57 17.56 200.87 17.03 C 201.32 16.22 201.72 15.40 202.11 14.55 C 202.45 13.83 202.85 13.15 203.25 12.45 C 203.39 12.18 203.52 11.91 203.66 11.63 C 203.82 11.33 203.98 11.02 204.15 10.72 C 204.55 9.95 204.94 9.17 205.30 8.37 C 205.50 7.95 205.71 7.54 205.92 7.12 C 206.60 5.77 207.21 4.39 207.80 2.99 C 208.41 1.67 208.41 1.67 208.77 1.31 Z M 143.09 9.65 C 143.19 9.65 143.19 9.65 143.66 9.64 C 144.85 9.65 145.95 9.78 147.12 10.00 C 147.23 10.01 147.23 10.01 147.78 10.08 C 151.97 10.84 155.72 13.16 158.78 16.03 C 158.86 16.10 158.86 16.10 159.28 16.46 C 159.71 16.86 160.06 17.29 160.41 17.77 C 160.54 17.92 160.66 18.08 160.79 18.23 C 162.58 20.49 164.02 22.85 164.81 25.64 C 164.86 25.79 164.92 25.95 164.97 26.10 C 165.18 26.79 165.30 27.49 165.42 28.20 C 165.45 28.34 165.45 28.34 165.59 29.04 C 166.08 31.80 165.90 34.59 165.22 37.30 C 165.19 37.43 165.19 37.43 165.07 38.08 C 164.75 39.59 164.17 40.93 163.48 42.31 C 163.40 42.47 163.32 42.63 163.24 42.80 C 162.25 44.74 160.96 46.62 159.39 48.13 C 159.28 48.27 159.17 48.40 159.05 48.53 C 157.61 50.14 155.75 51.40 153.87 52.43 C 153.61 52.58 153.35 52.72 153.08 52.88 C 149.68 54.66 146.12 55.31 142.32 55.31 C 142.13 55.31 141.95 55.31 141.75 55.31 C 137.62 55.32 133.70 54.27 130.15 52.12 C 129.94 52.00 129.74 51.88 129.54 51.75 C 129.00 51.39 128.50 51.00 128.00 50.59 C 127.82 50.44 127.63 50.29 127.44 50.13 C 122.83 46.31 120.15 41.07 119.41 35.15 C 119.36 33.12 119.33 31.12 119.72 29.12 C 119.76 28.85 119.80 28.59 119.85 28.31 C 120.35 25.96 121.24 23.87 122.38 21.76 C 122.50 21.53 122.62 21.30 122.74 21.06 C 123.41 19.87 124.14 18.80 125.04 17.77 C 125.09 17.70 125.09 17.70 125.38 17.37 C 126.36 16.26 127.39 15.25 128.62 14.39 C 128.83 14.24 129.04 14.09 129.25 13.93 C 130.39 13.18 131.58 12.53 132.81 11.94 C 132.95 11.87 133.08 11.80 133.23 11.73 C 136.39 10.22 139.62 9.66 143.09 9.65 Z" fill="url(#n_gold)"><title>Leaf / gold + dot</title></path>
    <path id="n-blue" d="M 208.77 83.41 C 209.08 83.41 209.38 83.41 209.69 83.41 C 209.80 83.51 209.80 83.51 209.81 83.99 C 209.80 84.53 209.80 84.53 209.69 85.15 C 209.68 85.51 209.67 85.87 209.66 86.24 C 209.66 86.46 209.65 86.68 209.65 86.91 C 209.65 87.14 209.64 87.38 209.64 87.63 C 209.63 87.88 209.63 88.13 209.62 88.38 C 209.58 90.83 209.58 93.28 209.57 95.73 C 209.57 96.21 209.57 96.68 209.57 97.16 C 209.57 98.18 209.57 99.19 209.57 100.21 C 209.57 101.82 209.57 103.43 209.57 105.04 C 209.56 109.61 209.55 114.19 209.55 118.76 C 209.55 121.30 209.55 123.83 209.54 126.37 C 209.54 127.71 209.54 129.04 209.54 130.38 C 209.54 131.63 209.53 132.89 209.53 134.15 C 209.53 134.60 209.53 135.06 209.53 135.52 C 209.54 141.98 209.26 148.62 207.39 154.85 C 207.28 155.25 207.19 155.65 207.10 156.05 C 206.91 156.94 206.63 157.78 206.34 158.64 C 206.29 158.79 206.23 158.95 206.18 159.11 C 205.31 161.69 204.41 164.27 203.25 166.74 C 203.17 166.92 203.08 167.11 202.99 167.31 C 202.43 168.50 201.82 169.67 201.18 170.82 C 200.94 171.26 200.71 171.71 200.47 172.15 C 198.46 175.88 195.98 179.36 193.23 182.58 C 193.09 182.76 192.95 182.94 192.80 183.12 C 192.25 183.78 191.67 184.40 191.07 185.03 C 190.82 185.30 190.57 185.57 190.33 185.85 C 189.90 186.33 189.46 186.78 189.01 187.24 C 188.85 187.40 188.68 187.56 188.52 187.73 C 188.03 188.20 187.52 188.61 187.00 189.03 C 186.72 189.26 186.45 189.50 186.18 189.74 C 184.81 190.95 183.36 192.05 181.88 193.12 C 181.81 193.17 181.81 193.17 181.42 193.45 C 179.45 194.80 177.40 196.07 175.24 197.10 C 175.07 197.19 174.90 197.27 174.72 197.36 C 172.85 198.30 170.86 199.15 168.80 199.56 C 168.56 199.61 168.32 199.67 168.07 199.72 C 166.15 200.06 164.19 199.77 162.56 198.64 C 162.16 198.24 161.78 197.83 161.40 197.41 C 161.03 197.00 160.63 196.64 160.21 196.28 C 159.47 195.58 158.87 194.86 158.27 194.04 C 158.12 193.85 157.97 193.67 157.81 193.49 C 154.77 189.74 153.08 185.28 151.93 180.64 C 151.86 180.40 151.80 180.15 151.73 179.90 C 151.48 178.83 151.31 177.75 151.15 176.66 C 151.12 176.46 151.09 176.26 151.05 176.05 C 150.79 174.26 150.57 172.50 150.53 170.70 C 150.53 170.53 150.53 170.36 150.52 170.18 C 150.47 167.46 150.42 164.81 150.89 162.12 C 151.09 160.94 151.26 159.75 151.42 158.56 C 151.52 157.94 151.52 157.94 151.72 157.13 C 151.75 156.94 151.77 156.76 151.79 156.57 C 152.30 153.66 153.44 150.93 154.58 148.23 C 154.62 148.15 154.62 148.15 154.79 147.75 C 156.17 144.49 158.08 141.33 160.21 138.52 C 160.35 138.32 160.49 138.13 160.64 137.92 C 161.31 137.00 162.04 136.13 162.76 135.25 C 162.90 135.07 163.04 134.90 163.18 134.72 C 164.30 133.39 165.53 132.17 166.75 130.94 C 166.87 130.82 166.99 130.70 167.11 130.58 C 167.69 130.00 168.28 129.44 168.90 128.91 C 169.14 128.66 169.39 128.41 169.63 128.17 C 170.33 127.46 171.07 126.85 171.86 126.25 C 172.17 125.98 172.48 125.70 172.78 125.43 C 172.92 125.33 173.05 125.23 173.19 125.13 C 173.60 124.82 173.60 124.82 174.07 124.39 C 174.59 123.92 175.13 123.50 175.68 123.07 C 176.05 122.77 176.41 122.47 176.77 122.16 C 177.25 121.74 177.74 121.34 178.24 120.95 C 178.61 120.66 178.98 120.37 179.33 120.06 C 179.80 119.64 180.31 119.26 180.81 118.87 C 181.32 118.46 181.81 118.01 182.29 117.56 C 182.56 117.32 182.84 117.08 183.11 116.84 C 183.27 116.69 183.44 116.55 183.60 116.39 C 183.97 116.07 184.34 115.76 184.72 115.45 C 185.17 115.08 185.50 114.72 185.87 114.29 C 186.01 114.18 186.14 114.08 186.28 113.97 C 186.86 113.51 187.37 113.01 187.88 112.48 C 188.22 112.14 188.22 112.14 188.84 111.63 C 188.93 111.51 189.03 111.40 189.14 111.28 C 189.45 110.91 189.45 110.91 189.80 110.61 C 190.20 110.26 190.53 109.88 190.88 109.48 C 191.29 109.07 191.70 108.66 192.11 108.25 C 192.24 108.08 192.38 107.92 192.52 107.74 C 192.69 107.61 192.85 107.47 193.03 107.33 C 193.34 106.96 193.65 106.59 193.95 106.21 C 194.54 105.47 195.15 104.76 195.79 104.06 C 197.64 101.98 199.38 99.77 200.87 97.42 C 201.38 96.62 201.90 95.81 202.42 95.01 C 203.00 94.12 203.54 93.22 204.07 92.30 C 204.12 92.22 204.12 92.22 204.37 91.78 C 205.17 90.38 205.92 88.96 206.65 87.52 C 206.96 86.93 207.28 86.34 207.61 85.75 C 208.02 85.03 208.35 84.28 208.67 83.51 C 208.70 83.48 208.74 83.44 208.77 83.41 Z" fill="url(#n_blue)"><title>Leaf / blue</title></path>
    <g id="n-wordmark"><path d="M 353.41 9.17 C 353.53 9.17 353.53 9.17 354.17 9.17 C 359.19 9.18 363.99 9.62 368.92 10.57 C 370.01 10.75 371.09 10.85 372.19 10.94 C 374.79 11.21 377.21 11.82 379.72 12.55 C 380.16 12.67 380.59 12.79 381.05 12.92 C 384.06 13.78 387.04 14.70 390.00 15.75 C 390.34 15.86 390.69 15.98 391.04 16.09 C 394.22 17.15 397.23 18.56 400.25 20.00 C 400.68 20.20 401.11 20.41 401.55 20.62 C 405.53 22.56 409.33 24.78 413.00 27.25 C 413.24 27.40 413.48 27.56 413.73 27.72 C 415.99 29.19 418.13 30.83 420.25 32.50 C 420.36 32.58 420.36 32.58 420.89 33.00 C 422.69 34.44 424.31 36.01 425.92 37.66 C 427.49 39.25 429.06 40.79 430.75 42.25 C 433.93 45.41 436.46 49.06 439.02 52.72 C 439.70 53.68 440.40 54.62 441.11 55.56 C 450.74 68.64 456.35 84.53 458.75 100.50 C 458.82 100.92 458.88 101.34 458.95 101.78 C 459.50 105.29 459.79 108.71 459.81 112.27 C 459.81 112.62 459.81 112.98 459.82 113.35 C 459.82 114.10 459.82 114.85 459.82 115.60 C 459.83 116.36 459.83 117.12 459.84 117.87 C 459.89 122.85 459.60 127.59 458.75 132.50 C 458.65 133.16 458.55 133.81 458.45 134.47 C 457.52 140.06 455.98 145.44 454.00 150.75 C 453.88 151.10 453.75 151.46 453.62 151.82 C 451.24 158.56 448.15 165.01 444.25 171.00 C 444.00 171.38 443.76 171.75 443.50 172.14 C 441.44 175.28 439.22 178.24 436.89 181.19 C 436.38 181.84 435.88 182.49 435.38 183.14 C 433.61 185.38 431.78 187.50 429.75 189.50 C 429.50 189.79 429.25 190.09 429.00 190.39 C 428.15 191.37 427.24 192.16 426.25 193.00 C 426.00 193.21 425.75 193.42 425.50 193.64 C 423.76 195.12 422.02 196.57 420.25 198.00 C 420.07 198.15 419.89 198.30 419.71 198.45 C 418.22 199.67 416.68 200.71 415.05 201.72 C 413.18 202.88 411.41 204.09 409.68 205.46 C 408.66 206.27 407.59 207.02 406.50 207.75 C 406.39 207.82 406.39 207.82 405.83 208.20 C 397.15 213.77 386.76 217.22 376.75 219.50 C 376.29 219.61 375.84 219.71 375.37 219.83 C 357.55 223.74 337.63 223.24 320.25 217.50 C 319.95 217.40 319.65 217.30 319.34 217.20 C 317.50 216.59 315.67 215.95 313.84 215.30 C 313.06 215.02 312.28 214.75 311.51 214.48 C 305.29 212.30 299.45 209.32 294.14 205.40 C 292.66 204.32 291.13 203.30 289.61 202.27 C 288.55 201.54 287.53 200.78 286.50 200.00 C 286.25 199.81 285.99 199.63 285.73 199.44 C 284.32 198.41 283.03 197.36 281.83 196.08 C 281.35 195.60 280.84 195.14 280.32 194.70 C 278.96 193.50 277.70 192.21 276.43 190.92 C 275.24 189.72 274.02 188.60 272.75 187.50 C 269.39 184.22 266.87 180.12 264.25 176.25 C 264.04 175.95 263.83 175.64 263.62 175.33 C 261.11 171.64 258.92 167.78 257.00 163.75 C 256.88 163.51 256.76 163.26 256.64 163.01 C 252.66 154.76 249.53 146.25 247.75 137.25 C 247.69 136.93 247.62 136.62 247.56 136.29 C 246.63 131.53 245.97 126.84 245.75 122.00 C 245.74 121.74 245.73 121.48 245.71 121.21 C 245.66 120.04 245.61 118.88 245.56 117.71 C 245.50 116.75 245.50 116.75 245.25 116.25 C 245.19 113.87 245.19 113.87 245.50 113.25 C 245.56 112.65 245.61 112.05 245.65 111.45 C 245.68 111.08 245.71 110.71 245.74 110.32 C 245.77 109.92 245.80 109.52 245.83 109.11 C 246.58 99.67 248.28 90.25 252.00 81.50 C 252.16 81.12 252.31 80.74 252.48 80.35 C 255.22 73.74 258.01 67.12 261.75 61.00 C 261.99 60.58 262.23 60.16 262.48 59.73 C 264.14 57.06 265.96 54.50 267.90 52.02 C 268.50 51.25 269.07 50.47 269.64 49.69 C 270.49 48.55 271.39 47.55 272.42 46.58 C 273.00 46.00 273.00 46.00 273.73 45.15 C 275.14 43.52 276.70 42.01 278.23 40.48 C 278.54 40.17 278.85 39.86 279.17 39.54 C 280.66 38.06 282.15 36.61 283.75 35.25 C 284.16 34.86 284.57 34.47 284.98 34.08 C 286.77 32.45 288.75 31.10 290.75 29.75 C 291.08 29.52 291.41 29.30 291.76 29.06 C 295.80 26.37 300.14 24.14 304.50 22.00 C 304.79 21.85 305.09 21.70 305.39 21.55 C 310.52 18.94 315.76 16.50 321.25 14.75 C 321.45 14.68 321.45 14.68 322.44 14.35 C 327.43 12.71 332.46 11.53 337.65 10.72 C 338.76 10.54 339.84 10.33 340.94 10.09 C 345.05 9.25 349.22 9.16 353.41 9.17 Z M 349.67 52.52 C 346.56 52.64 343.55 53.15 340.50 53.75 C 340.37 53.77 340.37 53.77 339.69 53.90 C 337.34 54.35 335.17 55.11 332.94 55.98 C 332.57 56.13 332.20 56.27 331.81 56.42 C 326.48 58.52 321.59 60.81 316.87 64.08 C 316.26 64.49 315.65 64.89 315.04 65.30 C 314.23 65.85 313.51 66.38 312.80 67.05 C 312.69 67.14 312.69 67.14 312.17 67.63 C 311.95 67.83 311.73 68.04 311.50 68.25 C 311.25 68.47 311.01 68.70 310.75 68.93 C 303.24 75.74 297.74 84.84 294.00 94.25 C 293.89 94.52 293.78 94.80 293.66 95.08 C 292.90 97.13 292.47 99.22 292.08 101.36 C 292.03 101.63 291.98 101.90 291.92 102.17 C 291.11 106.87 290.92 111.62 290.93 116.37 C 290.94 117.14 290.93 117.91 290.93 118.68 C 290.92 131.39 294.08 144.04 302.10 154.15 C 302.82 155.09 303.48 156.05 304.14 157.03 C 307.06 161.30 310.62 165.12 314.75 168.25 C 314.86 168.34 314.86 168.34 315.44 168.79 C 316.20 169.37 316.98 169.93 317.75 170.50 C 318.02 170.70 318.29 170.91 318.57 171.12 C 320.75 172.70 323.04 173.98 325.42 175.22 C 325.72 175.38 326.03 175.53 326.34 175.70 C 330.59 177.86 334.89 179.21 339.58 180.05 C 339.92 180.11 340.27 180.18 340.62 180.24 C 344.84 181.00 349.03 181.05 353.29 181.05 C 354.14 181.05 354.99 181.05 355.83 181.06 C 359.93 181.07 363.73 180.71 367.70 179.69 C 368.01 179.61 368.31 179.53 368.62 179.45 C 373.73 178.13 378.95 176.47 383.50 173.75 C 383.64 173.67 383.64 173.67 384.34 173.27 C 386.93 171.77 389.34 170.04 391.75 168.25 C 391.86 168.17 391.86 168.17 392.45 167.75 C 394.41 166.32 396.16 164.74 397.88 163.02 C 398.15 162.74 398.42 162.47 398.71 162.18 C 400.82 160.03 402.43 157.83 404.00 155.25 C 404.43 154.65 404.86 154.06 405.30 153.47 C 415.46 139.31 416.94 121.80 415.00 105.00 C 414.95 104.55 414.90 104.10 414.85 103.64 C 414.43 100.36 413.37 97.34 412.25 94.25 C 412.13 93.92 412.02 93.60 411.90 93.26 C 411.12 91.17 410.13 89.18 409.14 87.19 C 409.01 86.91 408.87 86.64 408.73 86.36 C 407.84 84.58 406.84 82.91 405.75 81.25 C 405.56 80.95 405.37 80.65 405.17 80.34 C 401.26 74.17 396.84 68.88 390.75 64.75 C 390.49 64.56 390.22 64.37 389.95 64.18 C 386.28 61.56 382.40 59.72 378.25 58.00 C 377.65 57.73 377.05 57.47 376.45 57.20 C 367.94 53.56 358.86 52.33 349.67 52.52 Z" fill="#083088"/><path d="M 1102.58 10.64 C 1103.39 10.77 1104.19 10.80 1105.02 10.83 C 1110.50 11.15 1115.73 12.82 1120.92 14.51 C 1122.52 15.03 1124.13 15.49 1125.77 15.89 C 1129.60 16.88 1133.05 18.75 1136.57 20.53 C 1137.38 20.94 1138.20 21.34 1139.02 21.74 C 1144.05 24.15 1148.87 27.14 1153.50 30.25 C 1153.78 30.43 1154.06 30.61 1154.36 30.80 C 1156.21 32.03 1157.80 33.43 1159.41 34.96 C 1160.16 35.66 1160.92 36.31 1161.72 36.95 C 1163.59 38.46 1165.19 40.17 1166.75 42.00 C 1166.86 42.13 1166.86 42.13 1167.41 42.77 C 1168.45 43.98 1169.47 45.20 1170.44 46.47 C 1171.25 47.50 1171.25 47.50 1172.11 48.36 C 1175.05 51.30 1177.49 54.87 1179.50 58.50 C 1179.80 59.02 1180.10 59.54 1180.41 60.06 C 1181.49 61.96 1182.53 63.89 1183.56 65.82 C 1184.19 66.99 1184.83 68.14 1185.52 69.27 C 1187.80 73.10 1189.41 77.20 1190.91 81.39 C 1191.42 82.79 1191.97 84.17 1192.55 85.55 C 1193.57 88.08 1194.33 90.66 1195.05 93.29 C 1195.23 93.94 1195.43 94.59 1195.62 95.23 C 1196.38 97.87 1196.71 100.43 1196.89 103.16 C 1197.17 106.51 1197.17 106.51 1198.00 107.75 C 1198.07 108.50 1198.07 108.50 1198.07 109.44 C 1198.07 109.79 1198.07 110.14 1198.08 110.50 C 1198.08 110.87 1198.08 111.25 1198.08 111.64 C 1198.08 111.84 1198.08 111.84 1198.08 112.82 C 1198.08 113.65 1198.08 114.47 1198.08 115.29 C 1198.08 116.55 1198.08 117.81 1198.09 119.07 C 1198.09 119.87 1198.09 120.67 1198.09 121.47 C 1198.09 121.85 1198.10 122.23 1198.10 122.61 C 1198.10 122.79 1198.10 122.79 1198.09 123.68 C 1198.09 123.99 1198.09 124.30 1198.09 124.62 C 1197.99 125.62 1197.67 126.35 1197.25 127.25 C 1197.09 127.99 1197.09 127.99 1196.99 128.73 C 1196.96 129.00 1196.92 129.27 1196.88 129.55 C 1196.80 130.12 1196.73 130.68 1196.66 131.24 C 1196.42 132.95 1196.04 134.54 1195.51 136.19 C 1195.17 137.26 1194.91 138.33 1194.64 139.42 C 1193.83 142.73 1192.77 145.83 1191.50 149.00 C 1191.20 149.80 1190.90 150.60 1190.61 151.41 C 1190.47 151.79 1190.33 152.18 1190.18 152.58 C 1189.89 153.37 1189.60 154.16 1189.32 154.96 C 1188.39 157.59 1187.30 160.03 1186.00 162.50 C 1185.75 163.00 1185.49 163.50 1185.24 164.00 C 1183.70 167.01 1182.10 169.92 1180.25 172.75 C 1180.02 173.11 1179.80 173.47 1179.56 173.84 C 1178.24 175.93 1176.86 177.88 1175.25 179.75 C 1175.04 180.02 1174.83 180.29 1174.61 180.56 C 1174.00 181.25 1174.00 181.25 1173.09 182.03 C 1171.70 183.26 1170.49 184.62 1169.25 186.00 C 1168.77 186.52 1168.29 187.04 1167.81 187.56 C 1166.59 188.90 1165.38 190.25 1164.21 191.64 C 1162.83 193.22 1161.35 194.51 1159.68 195.78 C 1158.71 196.53 1157.80 197.32 1156.89 198.12 C 1154.00 200.65 1150.99 202.70 1147.65 204.59 C 1145.80 205.65 1144.03 206.81 1142.27 207.99 C 1138.68 210.29 1134.74 212.02 1130.75 213.50 C 1130.59 213.58 1130.59 213.58 1129.78 213.98 C 1124.37 216.69 1118.30 217.98 1112.41 219.22 C 1111.49 219.44 1110.62 219.70 1109.72 219.99 C 1107.94 220.54 1106.16 220.87 1104.33 221.16 C 1103.99 221.21 1103.65 221.26 1103.31 221.32 C 1096.10 222.41 1089.01 222.50 1081.75 221.75 C 1081.39 221.71 1081.03 221.68 1080.66 221.64 C 1079.46 221.52 1078.26 221.39 1077.06 221.26 C 1076.68 221.23 1076.30 221.19 1075.91 221.15 C 1073.79 220.91 1071.80 220.57 1069.75 220.00 C 1068.22 219.59 1066.71 219.23 1065.14 219.01 C 1063.76 218.82 1062.48 218.46 1061.15 218.03 C 1060.24 217.75 1059.33 217.52 1058.41 217.30 C 1056.25 216.77 1054.16 216.10 1052.06 215.37 C 1051.69 215.24 1051.31 215.11 1050.92 214.98 C 1044.42 212.70 1038.44 210.02 1032.86 205.95 C 1031.39 204.88 1029.91 203.84 1028.41 202.81 C 1027.01 201.86 1025.65 200.87 1024.30 199.84 C 1023.00 198.88 1021.67 197.97 1020.34 197.05 C 1017.56 195.02 1015.14 192.72 1012.72 190.28 C 1012.39 189.96 1012.07 189.63 1011.73 189.30 C 1010.14 187.70 1008.61 186.09 1007.21 184.32 C 1006.63 183.60 1006.00 182.92 1005.36 182.25 C 1004.12 180.91 1003.04 179.50 1002.00 178.00 C 1001.82 177.75 1001.65 177.50 1001.47 177.25 C 1000.23 175.49 999.07 173.68 997.94 171.85 C 997.55 171.23 997.16 170.61 996.75 170.00 C 995.22 167.68 993.94 165.27 992.70 162.78 C 992.51 162.40 992.32 162.02 992.12 161.63 C 991.06 159.50 990.13 157.36 989.32 155.12 C 988.93 154.04 988.48 152.99 988.03 151.94 C 983.71 141.16 983.41 130.17 983.42 118.72 C 983.42 117.65 983.42 116.57 983.42 115.49 C 983.34 96.90 983.34 96.90 986.17 89.69 C 986.59 88.50 986.87 87.29 987.17 86.06 C 988.53 80.67 990.76 75.77 993.40 70.90 C 993.84 70.09 994.24 69.26 994.64 68.42 C 996.15 65.38 997.94 62.41 999.99 59.70 C 1000.65 58.80 1001.24 57.86 1001.84 56.92 C 1004.24 53.19 1006.81 49.74 1009.82 46.50 C 1010.43 45.83 1010.99 45.15 1011.55 44.44 C 1013.78 41.67 1016.38 39.10 1019.25 37.00 C 1019.55 36.78 1019.85 36.55 1020.17 36.32 C 1021.11 35.63 1022.05 34.94 1023.00 34.25 C 1024.48 33.17 1025.88 32.03 1027.27 30.84 C 1027.99 30.26 1028.73 29.76 1029.50 29.25 C 1029.84 28.96 1030.18 28.67 1030.53 28.37 C 1032.52 26.76 1034.79 25.54 1037.00 24.25 C 1037.31 24.06 1037.62 23.88 1037.94 23.68 C 1039.91 22.51 1041.94 21.62 1044.07 20.75 C 1045.84 20.00 1047.54 19.12 1049.25 18.25 C 1052.41 16.64 1055.60 15.50 1059.00 14.50 C 1059.26 14.42 1059.51 14.34 1059.78 14.27 C 1062.78 13.37 1065.73 12.58 1068.84 12.17 C 1069.80 12.03 1070.72 11.84 1071.67 11.63 C 1073.45 11.24 1075.23 11.03 1077.05 10.87 C 1077.71 10.81 1078.37 10.75 1079.03 10.69 C 1079.36 10.66 1079.69 10.63 1080.03 10.60 C 1080.94 10.51 1081.83 10.40 1082.73 10.29 C 1089.38 9.44 1095.97 9.49 1102.58 10.64 Z M 1065.25 58.00 C 1064.98 58.11 1064.71 58.23 1064.43 58.34 C 1059.45 60.44 1054.89 63.11 1050.50 66.25 C 1050.20 66.46 1049.89 66.67 1049.58 66.88 C 1046.81 68.80 1044.37 70.91 1042.28 73.57 C 1041.94 74.01 1041.59 74.43 1041.22 74.85 C 1039.57 76.72 1038.40 78.83 1037.20 81.00 C 1036.67 81.94 1036.14 82.86 1035.58 83.78 C 1031.51 90.76 1028.90 98.29 1027.75 106.25 C 1027.73 106.38 1027.73 106.38 1027.64 107.01 C 1026.22 116.51 1025.71 129.07 1029.77 137.94 C 1030.15 138.79 1030.52 139.64 1030.87 140.50 C 1033.91 147.87 1037.59 154.60 1043.00 160.50 C 1043.22 160.74 1043.44 160.99 1043.67 161.24 C 1046.73 164.60 1049.85 167.78 1053.50 170.50 C 1053.82 170.75 1054.13 171.00 1054.45 171.26 C 1057.79 173.61 1061.36 175.46 1065.19 176.85 C 1066.23 177.24 1067.22 177.69 1068.23 178.14 C 1075.19 181.00 1083.24 181.07 1090.64 181.06 C 1090.89 181.06 1091.15 181.06 1091.41 181.06 C 1095.54 181.05 1099.41 180.92 1103.44 179.98 C 1103.77 179.91 1104.11 179.83 1104.45 179.75 C 1107.69 178.99 1110.85 178.05 1114.00 177.00 C 1114.44 176.86 1114.88 176.71 1115.33 176.56 C 1123.52 173.72 1129.78 167.29 1135.75 161.25 C 1135.97 161.03 1136.18 160.82 1136.40 160.60 C 1138.66 158.34 1140.45 155.88 1142.25 153.25 C 1142.51 152.88 1142.78 152.51 1143.05 152.14 C 1147.18 146.18 1149.23 139.39 1151.01 132.43 C 1151.22 131.63 1151.44 130.84 1151.68 130.05 C 1152.03 128.61 1152.20 127.21 1152.30 125.73 C 1152.32 125.45 1152.34 125.17 1152.36 124.88 C 1152.55 121.83 1152.56 118.80 1152.50 115.75 C 1152.50 115.58 1152.50 115.58 1152.49 114.72 C 1152.47 113.64 1152.45 112.55 1152.42 111.47 C 1152.42 111.13 1152.41 110.80 1152.41 110.45 C 1152.31 107.02 1151.66 103.85 1150.60 100.60 C 1150.20 99.33 1149.87 98.05 1149.53 96.76 C 1148.87 94.32 1148.01 92.06 1147.00 89.75 C 1146.83 89.34 1146.67 88.94 1146.50 88.52 C 1145.63 86.39 1144.72 84.44 1143.50 82.50 C 1143.29 82.03 1143.07 81.55 1142.86 81.08 C 1141.85 79.02 1140.29 77.43 1138.75 75.75 C 1138.53 75.50 1138.31 75.26 1138.09 75.00 C 1135.21 71.79 1132.18 68.63 1128.75 66.00 C 1128.32 65.65 1127.90 65.30 1127.47 64.95 C 1120.02 59.03 1110.35 55.44 1101.14 53.41 C 1101.00 53.37 1101.00 53.37 1100.29 53.22 C 1088.33 50.71 1076.30 53.40 1065.25 58.00 Z" fill="#083088"/><path d="M 511.36 13.75 C 514.86 14.05 518.35 14.07 521.86 14.06 C 522.56 14.06 523.25 14.06 523.95 14.06 C 525.85 14.06 527.74 14.06 529.64 14.05 C 531.69 14.05 533.74 14.05 535.79 14.05 C 539.34 14.05 542.89 14.04 546.44 14.04 C 551.57 14.03 556.71 14.03 561.84 14.03 C 570.18 14.02 578.51 14.02 586.85 14.01 C 586.97 14.01 586.97 14.01 587.60 14.01 C 591.39 14.01 595.18 14.00 598.97 14.00 C 603.01 14.00 607.06 13.99 611.11 13.99 C 611.23 13.99 611.23 13.99 611.86 13.99 C 620.42 13.98 628.99 13.98 637.55 13.97 C 642.67 13.97 647.79 13.97 652.92 13.96 C 656.42 13.96 659.93 13.95 663.44 13.95 C 665.46 13.95 667.48 13.95 669.51 13.95 C 671.36 13.94 673.21 13.94 675.06 13.94 C 675.73 13.94 676.40 13.94 677.07 13.94 C 677.98 13.94 678.89 13.94 679.80 13.94 C 680.06 13.94 680.33 13.94 680.59 13.94 C 684.85 13.95 684.85 13.95 686.39 15.25 C 687.62 17.27 687.57 19.53 687.56 21.83 C 687.56 21.98 687.56 21.98 687.57 22.74 C 687.57 23.71 687.57 24.69 687.57 25.67 C 687.57 26.36 687.57 27.04 687.57 27.72 C 687.57 29.16 687.57 30.59 687.56 32.02 C 687.56 33.85 687.56 35.68 687.57 37.51 C 687.57 38.92 687.57 40.33 687.57 41.75 C 687.57 42.42 687.57 43.09 687.57 43.77 C 687.57 44.71 687.57 45.66 687.56 46.60 C 687.56 46.88 687.57 47.15 687.57 47.44 C 687.55 50.20 687.45 53.26 685.42 55.34 C 683.29 56.63 680.64 56.53 678.23 56.53 C 677.98 56.53 677.74 56.53 677.48 56.53 C 676.67 56.53 675.86 56.52 675.04 56.52 C 674.46 56.52 673.87 56.52 673.29 56.52 C 672.03 56.52 670.77 56.51 669.51 56.51 C 667.52 56.51 665.53 56.51 663.55 56.50 C 657.89 56.50 652.23 56.49 646.57 56.48 C 643.45 56.47 640.32 56.47 637.19 56.46 C 635.22 56.46 633.24 56.46 631.26 56.45 C 630.03 56.45 628.80 56.45 627.57 56.45 C 627.00 56.45 626.43 56.45 625.86 56.44 C 625.08 56.44 624.30 56.44 623.52 56.44 C 623.09 56.44 622.65 56.44 622.20 56.44 C 620.65 56.52 619.25 56.61 618.00 57.58 C 616.60 59.46 617.22 62.72 617.37 64.93 C 617.55 68.14 617.59 71.35 617.64 74.56 C 617.64 74.91 617.65 75.27 617.65 75.63 C 617.80 86.13 617.79 96.63 617.78 107.13 C 617.78 109.23 617.78 111.33 617.78 113.43 C 617.78 113.73 617.78 114.03 617.78 114.35 C 617.78 114.96 617.78 115.58 617.78 116.20 C 617.78 121.93 617.78 127.66 617.78 133.39 C 617.78 138.27 617.78 143.15 617.78 148.03 C 617.78 153.74 617.78 159.46 617.78 165.18 C 617.78 165.80 617.78 166.41 617.78 167.02 C 617.78 167.33 617.78 167.63 617.78 167.94 C 617.78 170.03 617.78 172.12 617.78 174.20 C 617.79 195.57 617.79 195.57 617.65 204.96 C 617.65 205.27 617.65 205.57 617.64 205.89 C 617.53 214.81 617.53 214.81 616.00 216.75 C 614.14 218.14 612.21 218.07 609.96 218.03 C 609.67 218.03 609.37 218.03 609.07 218.03 C 608.44 218.02 607.82 218.02 607.19 218.01 C 605.98 218.00 604.78 218.00 603.57 217.99 C 600.27 217.98 596.96 217.96 593.66 217.94 C 591.86 217.93 590.06 217.92 588.25 217.91 C 586.49 217.91 584.73 217.90 582.97 217.89 C 582.30 217.88 581.64 217.88 580.97 217.88 C 580.04 217.87 579.11 217.87 578.19 217.86 C 577.91 217.86 577.64 217.86 577.36 217.86 C 575.49 217.84 574.17 217.64 572.80 216.33 C 571.71 214.69 571.69 212.97 571.69 211.05 C 571.68 210.81 571.68 210.57 571.68 210.32 C 571.68 209.52 571.68 208.71 571.68 207.91 C 571.68 207.32 571.68 206.74 571.68 206.16 C 571.68 204.55 571.68 202.95 571.68 201.34 C 571.68 199.61 571.68 197.88 571.68 196.15 C 571.67 192.76 571.67 189.37 571.67 185.98 C 571.67 183.22 571.67 180.46 571.67 177.70 C 571.67 177.30 571.67 176.91 571.67 176.51 C 571.67 175.71 571.67 174.91 571.67 174.11 C 571.67 166.62 571.67 159.13 571.67 151.64 C 571.67 144.80 571.67 137.96 571.66 131.12 C 571.66 124.09 571.66 117.06 571.66 110.03 C 571.66 106.09 571.66 102.15 571.65 98.20 C 571.65 94.84 571.65 91.48 571.65 88.12 C 571.66 86.41 571.66 84.70 571.65 82.98 C 571.63 70.47 571.63 70.47 572.34 64.33 C 572.59 62.05 572.75 59.89 571.75 57.75 C 570.26 56.71 568.60 56.72 566.84 56.70 C 566.39 56.69 565.95 56.69 565.49 56.68 C 565.00 56.68 564.51 56.68 564.00 56.67 C 563.49 56.67 562.97 56.66 562.45 56.66 C 561.04 56.64 559.63 56.63 558.23 56.62 C 557.34 56.61 556.46 56.60 555.57 56.59 C 547.21 56.52 538.85 56.49 530.48 56.50 C 516.32 56.52 516.32 56.52 509.83 56.44 C 509.17 56.43 508.51 56.42 507.86 56.41 C 506.98 56.41 506.10 56.39 505.21 56.38 C 504.73 56.37 504.25 56.37 503.76 56.36 C 502.13 56.22 500.95 55.95 499.78 54.78 C 495.08 47.87 497.67 30.26 498.19 22.03 C 498.20 21.76 498.22 21.49 498.23 21.22 C 498.42 18.81 498.81 16.51 500.45 14.70 C 503.54 12.63 507.83 13.42 511.36 13.75 Z" fill="#083088"/><path d="M 887.72 13.61 C 892.19 13.77 896.65 13.79 901.11 13.78 C 902.44 13.78 903.76 13.78 905.08 13.78 C 905.94 13.78 906.79 13.78 907.64 13.78 C 908.03 13.78 908.42 13.78 908.83 13.78 C 910.98 13.78 913.10 13.69 915.25 13.50 C 919.88 13.30 919.88 13.30 921.75 14.25 C 922.90 15.54 922.87 16.64 922.87 18.33 C 922.88 18.59 922.88 18.85 922.88 19.12 C 922.88 20.00 922.88 20.88 922.87 21.76 C 922.87 22.40 922.88 23.03 922.88 23.67 C 922.88 25.42 922.88 27.17 922.87 28.92 C 922.87 30.81 922.87 32.70 922.87 34.59 C 922.88 38.30 922.87 42.02 922.87 45.73 C 922.86 50.09 922.86 54.44 922.86 58.80 C 922.86 66.62 922.86 74.45 922.85 82.27 C 922.85 89.77 922.84 97.28 922.84 104.79 C 922.84 105.24 922.84 105.70 922.84 106.17 C 922.84 106.63 922.84 107.08 922.84 107.55 C 922.84 116.17 922.84 124.79 922.84 133.41 C 922.83 135.99 922.83 138.57 922.83 141.15 C 922.83 159.35 922.77 177.55 922.54 195.75 C 922.53 197.00 922.51 198.25 922.50 199.50 C 922.47 201.44 922.45 203.39 922.42 205.33 C 922.41 206.04 922.40 206.75 922.39 207.47 C 922.38 208.44 922.37 209.41 922.35 210.39 C 922.35 210.53 922.35 210.53 922.34 211.24 C 922.27 215.26 922.27 215.26 921.22 216.75 C 919.63 217.85 917.85 217.81 915.98 217.79 C 915.48 217.79 914.99 217.78 914.48 217.78 C 914.22 217.78 913.96 217.77 913.69 217.77 C 912.30 217.76 910.91 217.75 909.52 217.75 C 909.24 217.75 908.97 217.75 908.68 217.75 C 906.19 217.74 903.72 217.80 901.23 217.87 C 897.70 217.98 894.17 218.03 890.63 218.04 C 890.10 218.04 889.58 218.05 889.05 218.05 C 881.24 218.10 881.24 218.10 879.50 216.50 C 878.78 215.06 878.88 213.63 878.84 212.05 C 878.83 211.68 878.82 211.30 878.81 210.92 C 878.78 209.63 878.75 208.35 878.72 207.06 C 878.71 206.84 878.71 206.84 878.69 205.69 C 878.46 195.32 878.44 184.95 878.44 174.57 C 878.44 173.26 878.44 171.95 878.43 170.64 C 878.42 160.81 878.50 151.00 878.96 141.18 C 879.03 139.28 879.05 137.59 878.50 135.75 C 876.13 133.97 872.45 134.69 869.63 134.87 C 867.43 135.00 865.25 135.00 863.06 134.99 C 858.69 134.98 854.33 135.08 849.96 135.21 C 843.53 135.40 837.09 135.54 830.66 135.51 C 823.77 135.49 816.88 135.51 809.99 135.56 C 808.79 135.57 807.58 135.58 806.37 135.59 C 804.93 135.59 803.50 135.60 802.06 135.61 C 801.53 135.62 801.00 135.62 800.46 135.62 C 793.91 135.64 793.91 135.64 792.22 137.23 C 791.04 139.16 791.49 141.60 791.62 143.77 C 791.77 146.34 791.79 148.91 791.80 151.48 C 791.80 151.99 791.81 152.50 791.81 153.00 C 791.82 154.37 791.82 155.74 791.83 157.11 C 791.83 158.57 791.84 160.02 791.84 161.47 C 791.86 163.92 791.87 166.36 791.88 168.81 C 791.89 171.91 791.90 175.00 791.92 178.10 C 791.93 180.80 791.94 183.51 791.95 186.22 C 791.95 187.06 791.96 187.91 791.96 188.75 C 791.98 193.16 791.98 193.16 791.99 195.17 C 791.99 195.43 791.99 195.69 791.99 195.96 C 791.99 196.48 791.99 197.01 791.99 197.53 C 792.00 199.28 792.01 201.03 792.02 202.78 C 792.03 204.02 792.04 205.27 792.04 206.51 C 792.05 207.11 792.05 207.70 792.06 208.30 C 792.07 209.13 792.07 209.95 792.07 210.78 C 792.08 211.25 792.08 211.72 792.09 212.21 C 791.98 213.75 791.77 215.17 790.72 216.34 C 788.69 217.49 786.72 217.63 784.45 217.68 C 784.13 217.69 783.81 217.70 783.48 217.71 C 782.44 217.74 781.40 217.77 780.36 217.80 C 779.63 217.82 778.91 217.84 778.19 217.86 C 772.04 218.02 765.90 218.07 759.75 218.00 C 759.28 217.99 758.81 217.99 758.32 217.98 C 756.96 217.97 755.60 217.95 754.23 217.92 C 753.83 217.92 753.43 217.91 753.01 217.90 C 752.82 217.90 752.82 217.90 751.88 217.88 C 751.56 217.87 751.24 217.86 750.90 217.86 C 749.49 217.69 748.53 217.29 747.55 216.26 C 746.10 214.24 746.21 212.28 746.20 209.88 C 746.20 209.56 746.19 209.24 746.19 208.92 C 746.18 207.86 746.18 206.80 746.17 205.74 C 746.17 204.98 746.16 204.22 746.16 203.46 C 746.14 201.85 746.13 200.23 746.12 198.62 C 746.11 196.64 746.10 194.67 746.08 192.69 C 746.01 182.36 746.00 172.02 746.00 161.69 C 746.01 152.25 745.99 142.82 745.95 133.38 C 745.94 133.08 745.94 132.77 745.94 132.46 C 745.92 127.84 745.90 123.21 745.88 118.59 C 745.63 67.94 745.63 67.94 745.87 48.30 C 745.90 45.81 745.92 43.33 745.95 40.85 C 745.95 40.58 745.95 40.31 745.96 40.04 C 745.99 36.56 746.00 33.08 745.98 29.60 C 745.98 29.21 745.98 28.83 745.98 28.44 C 745.97 26.73 745.95 25.01 745.92 23.30 C 745.92 22.73 745.92 22.15 745.91 21.57 C 745.90 21.08 745.90 20.60 745.89 20.10 C 746.06 17.98 746.65 15.99 748.25 14.50 C 750.27 13.57 752.55 13.71 754.73 13.71 C 755.06 13.71 755.38 13.71 755.71 13.71 C 756.78 13.71 757.85 13.71 758.91 13.71 C 759.66 13.71 760.40 13.71 761.15 13.70 C 762.71 13.70 764.27 13.70 765.83 13.70 C 767.82 13.70 769.82 13.70 771.81 13.69 C 773.35 13.69 774.89 13.69 776.43 13.69 C 777.16 13.69 777.90 13.69 778.63 13.69 C 788.46 13.66 788.46 13.66 790.75 15.00 C 792.32 16.57 792.77 17.85 792.81 20.03 C 792.81 20.63 792.80 21.22 792.80 21.81 C 792.80 21.95 792.80 21.95 792.80 22.68 C 792.79 24.34 792.73 26.00 792.63 27.66 C 792.45 30.90 792.42 34.15 792.38 37.41 C 792.36 38.34 792.35 39.28 792.33 40.22 C 792.33 40.80 792.32 41.37 792.31 41.95 C 792.29 43.59 792.23 45.22 792.16 46.85 C 792.00 50.38 791.98 53.90 792.00 57.43 C 792.01 58.47 792.02 59.50 792.02 60.53 C 792.03 63.46 792.04 66.39 792.06 69.32 C 792.07 71.13 792.08 72.94 792.09 74.74 C 792.09 75.42 792.09 76.10 792.10 76.78 C 792.13 80.74 791.92 84.50 791.22 88.39 C 790.91 90.29 790.74 91.81 791.75 93.50 C 794.44 95.36 798.02 95.03 801.17 95.13 C 801.50 95.14 801.83 95.15 802.18 95.16 C 806.77 95.30 811.37 95.34 815.97 95.39 C 816.45 95.39 816.92 95.40 817.42 95.41 C 824.35 95.48 831.28 95.55 838.22 95.51 C 839.44 95.50 840.66 95.49 841.88 95.49 C 844.19 95.47 846.49 95.46 848.80 95.44 C 850.09 95.43 851.39 95.42 852.68 95.41 C 858.24 95.38 863.77 95.25 869.32 94.89 C 869.80 94.86 870.28 94.83 870.77 94.80 C 876.87 94.37 876.87 94.37 878.25 93.00 C 878.85 91.56 878.72 90.42 878.53 88.89 C 877.69 80.43 878.26 71.73 878.39 63.23 C 878.48 57.52 878.55 51.81 878.60 46.09 C 878.63 42.73 878.67 39.37 878.71 36.01 C 878.73 33.76 878.75 31.51 878.77 29.26 C 878.79 27.47 878.81 25.69 878.83 23.91 C 878.84 23.29 878.85 22.67 878.85 22.05 C 878.86 21.21 878.87 20.38 878.88 19.54 C 878.89 19.09 878.89 18.63 878.90 18.17 C 879.02 16.73 879.30 15.70 880.33 14.67 C 882.60 13.25 885.16 13.50 887.72 13.61 Z" fill="#083088"/></g>
</svg>
