<svg xmlns="http://www.w3.org/2000/svg" width="1812.4" height="380.8" viewBox="0 0 1812.4 380.8">
  <g id="wordmark">
    <path d="M70 0V700H233L619 234H542V700H736V0H573L187 466H264V0Z" fill="#FFFFFF" transform="translate(50.400,330.400) scale(0.400000,-0.400000)"/>
    <path d="M423 -14Q339 -14 268.0 13.0Q197 40 144.5 89.5Q92 139 63.0 205.0Q34 271 34 350Q34 429 63.0 495.0Q92 561 144.5 610.5Q197 660 268.0 687.0Q339 714 423 714Q508 714 578.5 687.0Q649 660 701.0 610.5Q753 561 782.5 495.0Q812 429 812 350Q812 271 782.5 204.5Q753 138 701.0 89.0Q649 40 578.5 13.0Q508 -14 423 -14ZM423 150Q463 150 497.5 164.0Q532 178 557.5 204.5Q583 231 597.5 268.0Q612 305 612 350Q612 396 597.5 432.5Q583 469 557.5 495.5Q532 522 497.5 536.0Q463 550 423 550Q383 550 348.5 536.0Q314 522 288.5 495.5Q263 469 248.5 432.5Q234 396 234 350Q234 305 248.5 268.0Q263 231 288.5 204.5Q314 178 348.5 164.0Q383 150 423 150Z" fill="#FFFFFF" transform="translate(406.800,330.400) scale(0.400000,-0.400000)"/>
    <path d="M219 0V543H4V700H631V543H417V0Z" fill="#FFFFFF" transform="translate(779.200,330.400) scale(0.400000,-0.400000)"/>
    <path d="M538 0V700H736V0ZM70 0V700H268V0ZM254 273V437H552V273Z" fill="#FFFFFF" transform="translate(1067.200,330.400) scale(0.400000,-0.400000)"/>
    <path d="M423 -14Q339 -14 268.0 13.0Q197 40 144.5 89.5Q92 139 63.0 205.0Q34 271 34 350Q34 429 63.0 495.0Q92 561 144.5 610.5Q197 660 268.0 687.0Q339 714 423 714Q508 714 578.5 687.0Q649 660 701.0 610.5Q753 561 782.5 495.0Q812 429 812 350Q812 271 782.5 204.5Q753 138 701.0 89.0Q649 40 578.5 13.0Q508 -14 423 -14ZM423 150Q463 150 497.5 164.0Q532 178 557.5 204.5Q583 231 597.5 268.0Q612 305 612 350Q612 396 597.5 432.5Q583 469 557.5 495.5Q532 522 497.5 536.0Q463 550 423 550Q383 550 348.5 536.0Q314 522 288.5 495.5Q263 469 248.5 432.5Q234 396 234 350Q234 305 248.5 268.0Q263 231 288.5 204.5Q314 178 348.5 164.0Q383 150 423 150Z" fill="#FFFFFF" transform="translate(1423.600,330.400) scale(0.400000,-0.400000)"/>
  </g>
</svg>