<svg xmlns="http://www.w3.org/2000/svg" width="512" height="512" viewBox="0 0 512 512">
  <defs>
    <linearGradient id="bgGrad" x1="0" y1="0" x2="0.4" y2="1">
      <stop offset="0" stop-color="#010611"/>
      <stop offset="1" stop-color="#0A1B30"/>
    </linearGradient>
    <linearGradient id="i_teal" x1="0.15" y1="0" x2="0.55" y2="1">
      <stop offset="0"    stop-color="#5BF5EE"/>
      <stop offset="0.45" stop-color="#20D3CF"/>
      <stop offset="1"    stop-color="#007F8A"/>
    </linearGradient>
    <linearGradient id="i_tsh" x1="0.2" y1="0" x2="0.5" y2="1">
      <stop offset="0" stop-color="#0E8A90"/>
      <stop offset="1" stop-color="#053F4B"/>
    </linearGradient>
    <linearGradient id="i_blue" x1="0.75" y1="0" x2="0.25" y2="1">
      <stop offset="0"   stop-color="#4A7DFF"/>
      <stop offset="0.5" stop-color="#1F49C6"/>
      <stop offset="1"   stop-color="#0A246E"/>
    </linearGradient>
    <linearGradient id="i_gold" x1="0.25" y1="0" x2="0.6" y2="1">
      <stop offset="0"    stop-color="#FFE585"/>
      <stop offset="0.45" stop-color="#FFC847"/>
      <stop offset="1"    stop-color="#D28C0C"/>
    </linearGradient>
    <radialGradient id="i_head" cx="0.34" cy="0.28" r="0.9">
      <stop offset="0" stop-color="#FFE585"/>
      <stop offset="1" stop-color="#FFC847"/>
    </radialGradient>
  </defs>
  <rect width="512" height="512" rx="114.5" ry="114.5" fill="url(#bgGrad)"/>
  <g transform="translate(52.28,71.68) scale(0.97011)">
      <g transform="translate(-16.660,-20.626) scale(1.08969)">
        <path d="M 90.03 319.61 C 89.28 316.41 87.61 311.91 86.75 308.10 C 85.90 304.29 85.37 300.65 84.90 296.74 C 84.43 292.82 84.10 288.57 83.94 284.62 C 83.79 280.66 83.86 276.95 83.99 272.99 C 84.11 269.03 84.34 264.78 84.70 260.84 C 85.05 256.90 85.55 253.25 86.10 249.36 C 86.66 245.47 87.30 241.41 88.01 237.49 C 88.72 233.57 89.53 229.60 90.37 225.85 C 91.21 222.11 92.10 218.67 93.04 215.02 C 93.98 211.36 95.00 207.48 96.01 203.91 C 97.01 200.34 98.02 197.09 99.07 193.61 C 100.12 190.14 101.25 186.46 102.32 183.07 C 103.38 179.68 104.41 176.59 105.47 173.27 C 106.54 169.95 107.66 166.52 108.68 163.16 C 109.70 159.79 110.66 156.36 111.60 153.08 C 112.54 149.81 113.35 146.76 114.33 143.50 C 115.31 140.24 116.44 136.73 117.49 133.54 C 118.54 130.34 119.82 127.00 120.63 124.33 C 121.44 121.65 121.75 119.76 122.34 117.49 C 122.92 115.22 123.54 112.91 124.14 110.70 C 124.73 108.50 125.25 106.41 125.91 104.24 C 126.57 102.07 127.36 99.80 128.10 97.67 C 128.85 95.55 129.53 93.57 130.37 91.52 C 131.21 89.47 132.21 87.34 133.16 85.38 C 134.11 83.42 135.01 81.61 136.08 79.76 C 137.15 77.91 138.36 76.05 139.59 74.31 C 140.83 72.56 142.16 70.86 143.48 69.30 C 144.81 67.75 146.08 66.36 147.53 64.99 C 148.97 63.63 151.01 62.02 152.17 61.10 C 153.34 60.18 153.51 60.34 154.51 59.48 C 155.51 58.62 157.21 57.31 158.15 55.95 C 159.09 54.58 159.81 52.91 160.16 51.29 C 160.51 49.67 160.54 47.85 160.24 46.22 C 159.94 44.59 159.27 42.89 158.37 41.50 C 157.47 40.11 156.20 38.80 154.83 37.86 C 153.47 36.92 151.80 36.20 150.18 35.85 C 148.56 35.50 146.74 35.47 145.11 35.77 C 143.48 36.07 141.64 37.04 140.39 37.64 C 139.14 38.25 139.07 38.52 137.59 39.41 C 136.11 40.30 133.54 41.86 131.52 43.01 C 129.50 44.17 127.58 45.19 125.48 46.33 C 123.37 47.46 121.14 48.65 118.91 49.84 C 116.69 51.02 114.37 52.25 112.12 53.42 C 109.86 54.60 107.70 55.66 105.38 56.90 C 103.06 58.13 100.58 59.52 98.21 60.83 C 95.85 62.14 93.58 63.35 91.18 64.76 C 88.78 66.17 86.23 67.78 83.82 69.30 C 81.40 70.83 79.10 72.26 76.70 73.92 C 74.30 75.59 71.81 77.42 69.41 79.29 C 67.00 81.16 65.01 82.45 62.28 85.15 C 59.54 87.86 56.08 91.65 53.01 95.50 C 49.93 99.35 46.62 104.00 43.82 108.26 C 41.02 112.53 38.56 116.59 36.21 121.09 C 33.86 125.59 31.60 130.43 29.73 135.24 C 27.85 140.05 26.28 145.12 24.96 149.96 C 23.65 154.80 22.69 159.37 21.83 164.28 C 20.96 169.20 20.25 174.52 19.79 179.47 C 19.32 184.42 19.13 189.04 19.04 193.99 C 18.96 198.94 19.03 204.26 19.28 209.18 C 19.53 214.10 19.98 218.66 20.54 223.54 C 21.10 228.41 21.82 233.50 22.65 238.42 C 23.49 243.34 24.48 248.34 25.55 253.06 C 26.62 257.79 27.79 262.12 29.07 266.75 C 30.34 271.38 31.77 276.31 33.20 280.85 C 34.63 285.38 36.09 289.53 37.65 293.98 C 39.21 298.42 40.91 303.14 42.54 307.51 C 44.18 311.88 45.78 315.86 47.43 320.18 C 49.09 324.49 50.96 330.07 52.47 333.39 C 53.99 336.70 54.81 338.17 56.54 340.05 C 58.27 341.92 60.53 343.57 62.84 344.65 C 65.16 345.72 67.88 346.38 70.43 346.48 C 72.98 346.59 75.74 346.16 78.14 345.28 C 80.53 344.40 82.92 342.94 84.80 341.21 C 86.67 339.48 88.32 337.22 89.40 334.91 C 90.47 332.59 91.13 329.87 91.23 327.32 C 91.34 324.78 90.77 322.82 90.03 319.61 Z" fill="url(#i_tsh)"/>
        <path d="M 357.99 337.37 C 359.46 334.58 360.88 331.30 362.33 328.24 C 363.78 325.17 365.28 322.01 366.69 319.00 C 368.11 315.99 369.43 313.24 370.82 310.18 C 372.21 307.11 373.65 303.82 375.03 300.59 C 376.40 297.36 377.75 294.09 379.05 290.78 C 380.35 287.48 381.63 284.03 382.82 280.75 C 384.01 277.48 385.11 274.47 386.19 271.12 C 387.27 267.78 388.33 264.18 389.30 260.67 C 390.26 257.15 391.16 253.59 391.96 250.01 C 392.77 246.43 393.50 242.82 394.13 239.19 C 394.75 235.56 395.29 231.79 395.72 228.23 C 396.16 224.67 396.50 221.41 396.72 217.82 C 396.94 214.24 397.05 210.42 397.03 206.72 C 397.01 203.02 396.88 199.31 396.60 195.62 C 396.32 191.93 395.92 188.13 395.37 184.59 C 394.81 181.05 394.20 177.83 393.28 174.38 C 392.35 170.92 391.14 167.29 389.80 163.85 C 388.47 160.41 386.92 157.03 385.26 153.73 C 383.60 150.44 381.76 147.22 379.82 144.09 C 377.89 140.97 375.76 137.83 373.65 134.98 C 371.53 132.12 369.42 129.64 367.13 126.98 C 364.84 124.31 362.38 121.54 359.92 118.97 C 357.45 116.39 354.83 113.80 352.36 111.53 C 349.88 109.26 347.16 106.90 345.06 105.34 C 342.95 103.78 341.50 103.25 339.74 102.16 C 337.98 101.07 336.18 99.90 334.48 98.78 C 332.78 97.66 331.13 96.55 329.55 95.42 C 327.98 94.28 326.46 93.15 325.02 91.97 C 323.58 90.79 321.90 89.25 320.93 88.34 C 319.95 87.44 320.08 87.40 319.17 86.54 C 318.25 85.69 316.89 83.96 315.45 83.20 C 314.01 82.45 312.17 82.08 310.52 82.01 C 308.86 81.95 307.06 82.23 305.51 82.80 C 303.95 83.37 302.40 84.32 301.18 85.45 C 299.96 86.57 298.89 88.04 298.19 89.55 C 297.50 91.05 297.07 92.82 297.00 94.48 C 296.94 96.14 297.28 97.87 297.79 99.49 C 298.30 101.10 299.45 103.11 300.05 104.17 C 300.66 105.23 300.79 104.89 301.43 105.84 C 302.08 106.78 303.19 108.42 303.92 109.84 C 304.65 111.27 305.28 112.80 305.82 114.39 C 306.37 115.98 306.81 117.66 307.19 119.38 C 307.56 121.09 307.87 122.92 308.08 124.70 C 308.28 126.48 308.13 127.90 308.39 130.04 C 308.66 132.17 309.30 134.97 309.65 137.52 C 310.00 140.06 310.28 142.70 310.48 145.30 C 310.69 147.90 310.82 150.58 310.88 153.12 C 310.94 155.66 310.84 158.01 310.82 160.54 C 310.81 163.06 310.80 165.71 310.79 168.28 C 310.79 170.85 310.75 173.41 310.77 175.95 C 310.80 178.50 310.82 181.03 310.93 183.55 C 311.04 186.07 311.19 188.65 311.46 191.07 C 311.72 193.50 312.10 195.68 312.51 198.12 C 312.93 200.55 313.46 203.13 313.95 205.67 C 314.45 208.21 314.97 210.77 315.48 213.36 C 316.00 215.94 316.53 218.63 317.04 221.19 C 317.56 223.75 318.08 226.09 318.58 228.69 C 319.08 231.30 319.58 234.08 320.05 236.81 C 320.52 239.54 320.97 242.29 321.37 245.06 C 321.78 247.82 322.16 250.61 322.48 253.41 C 322.81 256.21 323.08 259.10 323.32 261.84 C 323.56 264.58 323.79 267.09 323.90 269.84 C 324.02 272.58 324.05 275.49 324.01 278.31 C 323.97 281.12 323.86 283.94 323.65 286.72 C 323.43 289.51 323.12 292.36 322.74 295.01 C 322.37 297.67 321.99 300.08 321.40 302.66 C 320.82 305.23 320.09 307.93 319.25 310.46 C 318.40 312.99 317.05 315.10 316.34 317.85 C 315.64 320.60 315.02 323.95 315.02 326.95 C 315.03 329.95 315.37 333.06 316.37 335.82 C 317.37 338.58 319.03 341.34 321.01 343.50 C 322.99 345.67 325.58 347.58 328.24 348.83 C 330.89 350.07 334.02 350.84 336.95 350.98 C 339.88 351.11 343.06 350.63 345.82 349.63 C 348.58 348.63 351.48 347.03 353.50 344.99 C 355.53 342.95 356.52 340.16 357.99 337.37 Z" fill="none" stroke="#040c18" stroke-width="26.0" stroke-linejoin="round"/><path d="M 357.99 337.37 C 359.46 334.58 360.88 331.30 362.33 328.24 C 363.78 325.17 365.28 322.01 366.69 319.00 C 368.11 315.99 369.43 313.24 370.82 310.18 C 372.21 307.11 373.65 303.82 375.03 300.59 C 376.40 297.36 377.75 294.09 379.05 290.78 C 380.35 287.48 381.63 284.03 382.82 280.75 C 384.01 277.48 385.11 274.47 386.19 271.12 C 387.27 267.78 388.33 264.18 389.30 260.67 C 390.26 257.15 391.16 253.59 391.96 250.01 C 392.77 246.43 393.50 242.82 394.13 239.19 C 394.75 235.56 395.29 231.79 395.72 228.23 C 396.16 224.67 396.50 221.41 396.72 217.82 C 396.94 214.24 397.05 210.42 397.03 206.72 C 397.01 203.02 396.88 199.31 396.60 195.62 C 396.32 191.93 395.92 188.13 395.37 184.59 C 394.81 181.05 394.20 177.83 393.28 174.38 C 392.35 170.92 391.14 167.29 389.80 163.85 C 388.47 160.41 386.92 157.03 385.26 153.73 C 383.60 150.44 381.76 147.22 379.82 144.09 C 377.89 140.97 375.76 137.83 373.65 134.98 C 371.53 132.12 369.42 129.64 367.13 126.98 C 364.84 124.31 362.38 121.54 359.92 118.97 C 357.45 116.39 354.83 113.80 352.36 111.53 C 349.88 109.26 347.16 106.90 345.06 105.34 C 342.95 103.78 341.50 103.25 339.74 102.16 C 337.98 101.07 336.18 99.90 334.48 98.78 C 332.78 97.66 331.13 96.55 329.55 95.42 C 327.98 94.28 326.46 93.15 325.02 91.97 C 323.58 90.79 321.90 89.25 320.93 88.34 C 319.95 87.44 320.08 87.40 319.17 86.54 C 318.25 85.69 316.89 83.96 315.45 83.20 C 314.01 82.45 312.17 82.08 310.52 82.01 C 308.86 81.95 307.06 82.23 305.51 82.80 C 303.95 83.37 302.40 84.32 301.18 85.45 C 299.96 86.57 298.89 88.04 298.19 89.55 C 297.50 91.05 297.07 92.82 297.00 94.48 C 296.94 96.14 297.28 97.87 297.79 99.49 C 298.30 101.10 299.45 103.11 300.05 104.17 C 300.66 105.23 300.79 104.89 301.43 105.84 C 302.08 106.78 303.19 108.42 303.92 109.84 C 304.65 111.27 305.28 112.80 305.82 114.39 C 306.37 115.98 306.81 117.66 307.19 119.38 C 307.56 121.09 307.87 122.92 308.08 124.70 C 308.28 126.48 308.13 127.90 308.39 130.04 C 308.66 132.17 309.30 134.97 309.65 137.52 C 310.00 140.06 310.28 142.70 310.48 145.30 C 310.69 147.90 310.82 150.58 310.88 153.12 C 310.94 155.66 310.84 158.01 310.82 160.54 C 310.81 163.06 310.80 165.71 310.79 168.28 C 310.79 170.85 310.75 173.41 310.77 175.95 C 310.80 178.50 310.82 181.03 310.93 183.55 C 311.04 186.07 311.19 188.65 311.46 191.07 C 311.72 193.50 312.10 195.68 312.51 198.12 C 312.93 200.55 313.46 203.13 313.95 205.67 C 314.45 208.21 314.97 210.77 315.48 213.36 C 316.00 215.94 316.53 218.63 317.04 221.19 C 317.56 223.75 318.08 226.09 318.58 228.69 C 319.08 231.30 319.58 234.08 320.05 236.81 C 320.52 239.54 320.97 242.29 321.37 245.06 C 321.78 247.82 322.16 250.61 322.48 253.41 C 322.81 256.21 323.08 259.10 323.32 261.84 C 323.56 264.58 323.79 267.09 323.90 269.84 C 324.02 272.58 324.05 275.49 324.01 278.31 C 323.97 281.12 323.86 283.94 323.65 286.72 C 323.43 289.51 323.12 292.36 322.74 295.01 C 322.37 297.67 321.99 300.08 321.40 302.66 C 320.82 305.23 320.09 307.93 319.25 310.46 C 318.40 312.99 317.05 315.10 316.34 317.85 C 315.64 320.60 315.02 323.95 315.02 326.95 C 315.03 329.95 315.37 333.06 316.37 335.82 C 317.37 338.58 319.03 341.34 321.01 343.50 C 322.99 345.67 325.58 347.58 328.24 348.83 C 330.89 350.07 334.02 350.84 336.95 350.98 C 339.88 351.11 343.06 350.63 345.82 349.63 C 348.58 348.63 351.48 347.03 353.50 344.99 C 355.53 342.95 356.52 340.16 357.99 337.37 Z" fill="url(#i_blue)"/>
        <path d="M 125.91 311.73 C 125.21 308.22 122.87 304.01 121.77 299.94 C 120.67 295.87 119.91 291.60 119.34 287.31 C 118.76 283.02 118.46 278.62 118.33 274.22 C 118.21 269.83 118.31 265.37 118.57 260.95 C 118.82 256.53 119.28 252.08 119.86 247.70 C 120.44 243.31 121.19 238.94 122.04 234.64 C 122.89 230.34 123.84 226.59 124.95 221.92 C 126.05 217.25 127.37 211.10 128.66 206.62 C 129.96 202.13 131.33 198.78 132.72 195.03 C 134.12 191.27 135.58 187.62 137.03 184.09 C 138.48 180.56 139.97 177.14 141.43 173.84 C 142.89 170.54 144.36 167.36 145.78 164.27 C 147.20 161.19 148.66 158.26 149.95 155.35 C 151.25 152.43 152.42 149.57 153.55 146.77 C 154.67 143.96 155.90 141.00 156.70 138.52 C 157.50 136.05 157.85 134.15 158.37 131.93 C 158.90 129.72 159.36 127.48 159.83 125.24 C 160.31 123.00 160.76 120.74 161.23 118.49 C 161.71 116.23 162.19 113.96 162.71 111.71 C 163.23 109.46 163.76 107.21 164.36 104.98 C 164.95 102.75 165.57 100.53 166.27 98.35 C 166.96 96.17 167.50 94.15 168.51 91.91 C 169.52 89.67 171.17 87.05 172.31 84.92 C 173.45 82.80 174.28 81.01 175.37 79.17 C 176.47 77.33 177.63 75.55 178.86 73.89 C 180.09 72.22 181.39 70.63 182.75 69.17 C 184.11 67.70 185.54 66.34 187.02 65.11 C 188.50 63.89 190.05 62.78 191.63 61.83 C 193.21 60.89 195.28 59.97 196.51 59.43 C 197.74 58.88 198.07 59.18 199.02 58.58 C 199.97 57.98 201.26 56.79 202.22 55.83 C 203.17 54.88 204.12 53.97 204.74 52.86 C 205.36 51.74 205.79 50.41 205.93 49.14 C 206.08 47.87 205.97 46.48 205.62 45.25 C 205.26 44.03 204.63 42.78 203.83 41.78 C 203.04 40.78 201.97 39.88 200.86 39.26 C 199.74 38.64 198.36 38.05 197.14 38.07 C 195.92 38.08 194.64 38.99 193.53 39.35 C 192.42 39.70 192.04 39.79 190.48 40.18 C 188.93 40.57 186.35 41.22 184.21 41.71 C 182.07 42.20 179.89 42.65 177.66 43.12 C 175.42 43.59 173.14 44.04 170.80 44.52 C 168.46 45.00 166.06 45.48 163.62 46.00 C 161.17 46.52 158.67 47.06 156.13 47.65 C 153.58 48.25 151.24 48.67 148.34 49.58 C 145.43 50.49 141.67 52.03 138.68 53.10 C 135.69 54.16 133.19 54.92 130.41 55.97 C 127.63 57.02 124.82 58.15 122.00 59.40 C 119.19 60.64 116.35 61.98 113.54 63.44 C 110.72 64.90 107.89 66.47 105.11 68.17 C 102.32 69.87 99.54 71.69 96.82 73.65 C 94.11 75.61 91.42 77.70 88.82 79.93 C 86.23 82.16 84.10 83.83 81.25 87.05 C 78.41 90.27 74.80 94.70 71.77 99.28 C 68.74 103.85 65.60 109.27 63.06 114.52 C 60.53 119.78 58.41 125.27 56.55 130.79 C 54.69 136.31 53.16 141.97 51.90 147.66 C 50.63 153.34 49.68 159.11 48.98 164.88 C 48.28 170.65 47.86 176.47 47.67 182.27 C 47.48 188.06 47.57 193.17 47.83 199.66 C 48.10 206.14 48.52 214.76 49.25 221.18 C 49.97 227.59 51.03 232.54 52.18 238.13 C 53.33 243.72 54.67 249.26 56.14 254.71 C 57.61 260.16 59.26 265.55 61.00 270.84 C 62.74 276.14 64.63 281.35 66.59 286.47 C 68.55 291.59 70.63 296.62 72.75 301.57 C 74.88 306.53 77.11 311.37 79.33 316.18 C 81.55 320.98 84.43 326.73 86.07 330.40 C 87.71 334.08 87.43 336.20 89.17 338.25 C 90.91 340.30 93.88 341.73 96.52 342.69 C 99.16 343.64 102.20 344.11 105.00 343.98 C 107.81 343.85 110.80 343.11 113.34 341.92 C 115.88 340.73 118.36 338.90 120.25 336.83 C 122.14 334.76 123.73 332.12 124.69 329.48 C 125.64 326.84 125.77 323.96 125.98 321.00 C 126.18 318.04 126.61 315.24 125.91 311.73 Z" fill="none" stroke="#040c18" stroke-width="26.0" stroke-linejoin="round"/><path d="M 125.91 311.73 C 125.21 308.22 122.87 304.01 121.77 299.94 C 120.67 295.87 119.91 291.60 119.34 287.31 C 118.76 283.02 118.46 278.62 118.33 274.22 C 118.21 269.83 118.31 265.37 118.57 260.95 C 118.82 256.53 119.28 252.08 119.86 247.70 C 120.44 243.31 121.19 238.94 122.04 234.64 C 122.89 230.34 123.84 226.59 124.95 221.92 C 126.05 217.25 127.37 211.10 128.66 206.62 C 129.96 202.13 131.33 198.78 132.72 195.03 C 134.12 191.27 135.58 187.62 137.03 184.09 C 138.48 180.56 139.97 177.14 141.43 173.84 C 142.89 170.54 144.36 167.36 145.78 164.27 C 147.20 161.19 148.66 158.26 149.95 155.35 C 151.25 152.43 152.42 149.57 153.55 146.77 C 154.67 143.96 155.90 141.00 156.70 138.52 C 157.50 136.05 157.85 134.15 158.37 131.93 C 158.90 129.72 159.36 127.48 159.83 125.24 C 160.31 123.00 160.76 120.74 161.23 118.49 C 161.71 116.23 162.19 113.96 162.71 111.71 C 163.23 109.46 163.76 107.21 164.36 104.98 C 164.95 102.75 165.57 100.53 166.27 98.35 C 166.96 96.17 167.50 94.15 168.51 91.91 C 169.52 89.67 171.17 87.05 172.31 84.92 C 173.45 82.80 174.28 81.01 175.37 79.17 C 176.47 77.33 177.63 75.55 178.86 73.89 C 180.09 72.22 181.39 70.63 182.75 69.17 C 184.11 67.70 185.54 66.34 187.02 65.11 C 188.50 63.89 190.05 62.78 191.63 61.83 C 193.21 60.89 195.28 59.97 196.51 59.43 C 197.74 58.88 198.07 59.18 199.02 58.58 C 199.97 57.98 201.26 56.79 202.22 55.83 C 203.17 54.88 204.12 53.97 204.74 52.86 C 205.36 51.74 205.79 50.41 205.93 49.14 C 206.08 47.87 205.97 46.48 205.62 45.25 C 205.26 44.03 204.63 42.78 203.83 41.78 C 203.04 40.78 201.97 39.88 200.86 39.26 C 199.74 38.64 198.36 38.05 197.14 38.07 C 195.92 38.08 194.64 38.99 193.53 39.35 C 192.42 39.70 192.04 39.79 190.48 40.18 C 188.93 40.57 186.35 41.22 184.21 41.71 C 182.07 42.20 179.89 42.65 177.66 43.12 C 175.42 43.59 173.14 44.04 170.80 44.52 C 168.46 45.00 166.06 45.48 163.62 46.00 C 161.17 46.52 158.67 47.06 156.13 47.65 C 153.58 48.25 151.24 48.67 148.34 49.58 C 145.43 50.49 141.67 52.03 138.68 53.10 C 135.69 54.16 133.19 54.92 130.41 55.97 C 127.63 57.02 124.82 58.15 122.00 59.40 C 119.19 60.64 116.35 61.98 113.54 63.44 C 110.72 64.90 107.89 66.47 105.11 68.17 C 102.32 69.87 99.54 71.69 96.82 73.65 C 94.11 75.61 91.42 77.70 88.82 79.93 C 86.23 82.16 84.10 83.83 81.25 87.05 C 78.41 90.27 74.80 94.70 71.77 99.28 C 68.74 103.85 65.60 109.27 63.06 114.52 C 60.53 119.78 58.41 125.27 56.55 130.79 C 54.69 136.31 53.16 141.97 51.90 147.66 C 50.63 153.34 49.68 159.11 48.98 164.88 C 48.28 170.65 47.86 176.47 47.67 182.27 C 47.48 188.06 47.57 193.17 47.83 199.66 C 48.10 206.14 48.52 214.76 49.25 221.18 C 49.97 227.59 51.03 232.54 52.18 238.13 C 53.33 243.72 54.67 249.26 56.14 254.71 C 57.61 260.16 59.26 265.55 61.00 270.84 C 62.74 276.14 64.63 281.35 66.59 286.47 C 68.55 291.59 70.63 296.62 72.75 301.57 C 74.88 306.53 77.11 311.37 79.33 316.18 C 81.55 320.98 84.43 326.73 86.07 330.40 C 87.71 334.08 87.43 336.20 89.17 338.25 C 90.91 340.30 93.88 341.73 96.52 342.69 C 99.16 343.64 102.20 344.11 105.00 343.98 C 107.81 343.85 110.80 343.11 113.34 341.92 C 115.88 340.73 118.36 338.90 120.25 336.83 C 122.14 334.76 123.73 332.12 124.69 329.48 C 125.64 326.84 125.77 323.96 125.98 321.00 C 126.18 318.04 126.61 315.24 125.91 311.73 Z" fill="url(#i_teal)"/>
        <path d="M 201.75 326.62 C 202.28 323.37 202.15 318.42 202.52 314.36 C 202.89 310.29 203.40 306.23 204.00 302.22 C 204.59 298.21 205.31 294.21 206.09 290.27 C 206.87 286.32 207.76 282.41 208.70 278.55 C 209.64 274.68 210.67 270.86 211.74 267.10 C 212.81 263.33 213.94 259.61 215.11 255.95 C 216.27 252.29 217.38 249.13 218.71 245.14 C 220.04 241.16 221.72 235.90 223.09 232.05 C 224.46 228.21 225.66 225.33 226.93 222.06 C 228.21 218.79 229.49 215.59 230.73 212.44 C 231.97 209.30 233.20 206.22 234.38 203.20 C 235.56 200.17 236.69 197.20 237.81 194.30 C 238.92 191.40 240.00 188.56 241.08 185.79 C 242.16 183.03 243.25 180.27 244.27 177.71 C 245.28 175.15 246.51 172.30 247.17 170.43 C 247.82 168.56 247.89 167.78 248.20 166.48 C 248.51 165.19 248.79 163.91 249.04 162.66 C 249.30 161.40 249.52 160.17 249.73 158.96 C 249.94 157.74 250.13 156.55 250.30 155.38 C 250.48 154.21 250.64 153.05 250.79 151.92 C 250.95 150.79 251.09 149.68 251.24 148.59 C 251.38 147.50 251.46 146.53 251.67 145.38 C 251.88 144.24 252.28 142.82 252.50 141.73 C 252.73 140.64 252.83 139.77 253.01 138.82 C 253.19 137.88 253.39 136.95 253.61 136.06 C 253.83 135.16 254.06 134.29 254.32 133.45 C 254.59 132.61 254.87 131.79 255.19 131.01 C 255.51 130.22 255.85 129.47 256.23 128.75 C 256.61 128.03 257.15 127.19 257.47 126.69 C 257.80 126.19 257.69 126.83 258.18 125.75 C 258.67 124.66 259.95 122.08 260.41 120.17 C 260.86 118.27 261.12 116.25 260.91 114.34 C 260.70 112.44 260.06 110.44 259.14 108.76 C 258.22 107.09 256.86 105.48 255.37 104.29 C 253.88 103.09 252.01 102.13 250.17 101.59 C 248.34 101.06 246.25 100.88 244.34 101.09 C 242.44 101.30 240.36 101.88 238.76 102.86 C 237.17 103.85 235.57 106.14 234.76 107.00 C 233.94 107.87 234.34 107.54 233.87 108.07 C 233.40 108.59 232.61 109.45 231.94 110.13 C 231.26 110.80 230.55 111.47 229.81 112.14 C 229.07 112.80 228.30 113.46 227.50 114.13 C 226.70 114.80 225.88 115.46 225.03 116.14 C 224.18 116.82 223.31 117.51 222.42 118.21 C 221.53 118.91 220.69 119.50 219.68 120.36 C 218.68 121.21 217.42 122.45 216.39 123.36 C 215.35 124.26 214.46 124.95 213.48 125.79 C 212.50 126.63 211.51 127.49 210.52 128.38 C 209.53 129.28 208.53 130.21 207.53 131.17 C 206.54 132.13 205.54 133.13 204.55 134.17 C 203.56 135.20 202.57 136.27 201.60 137.39 C 200.62 138.51 199.65 139.66 198.70 140.87 C 197.75 142.07 197.10 142.73 195.88 144.62 C 194.66 146.51 192.95 149.29 191.37 152.21 C 189.78 155.13 187.95 158.73 186.37 162.13 C 184.79 165.53 183.29 169.01 181.89 172.58 C 180.50 176.14 179.19 179.80 178.00 183.53 C 176.82 187.26 175.75 191.07 174.78 194.95 C 173.81 198.82 172.94 202.77 172.16 206.76 C 171.38 210.75 170.80 214.29 170.08 218.89 C 169.35 223.49 168.37 229.67 167.80 234.36 C 167.22 239.05 166.97 242.78 166.64 247.03 C 166.31 251.28 166.04 255.56 165.80 259.86 C 165.56 264.16 165.38 268.48 165.21 272.82 C 165.04 277.16 164.91 281.51 164.78 285.88 C 164.65 290.24 164.55 294.62 164.45 299.01 C 164.34 303.39 164.25 307.79 164.13 312.20 C 164.02 316.60 163.75 322.01 163.77 325.43 C 163.78 328.85 163.50 330.46 164.23 332.72 C 164.96 334.98 166.49 337.24 168.15 339.01 C 169.81 340.78 171.98 342.32 174.18 343.32 C 176.39 344.32 178.98 344.92 181.41 344.99 C 183.83 345.07 186.45 344.63 188.72 343.77 C 190.99 342.92 193.24 341.51 195.01 339.85 C 196.78 338.19 198.19 336.02 199.32 333.82 C 200.44 331.61 201.22 329.86 201.75 326.62 Z" fill="none" stroke="#040c18" stroke-width="26.0" stroke-linejoin="round"/><path d="M 201.75 326.62 C 202.28 323.37 202.15 318.42 202.52 314.36 C 202.89 310.29 203.40 306.23 204.00 302.22 C 204.59 298.21 205.31 294.21 206.09 290.27 C 206.87 286.32 207.76 282.41 208.70 278.55 C 209.64 274.68 210.67 270.86 211.74 267.10 C 212.81 263.33 213.94 259.61 215.11 255.95 C 216.27 252.29 217.38 249.13 218.71 245.14 C 220.04 241.16 221.72 235.90 223.09 232.05 C 224.46 228.21 225.66 225.33 226.93 222.06 C 228.21 218.79 229.49 215.59 230.73 212.44 C 231.97 209.30 233.20 206.22 234.38 203.20 C 235.56 200.17 236.69 197.20 237.81 194.30 C 238.92 191.40 240.00 188.56 241.08 185.79 C 242.16 183.03 243.25 180.27 244.27 177.71 C 245.28 175.15 246.51 172.30 247.17 170.43 C 247.82 168.56 247.89 167.78 248.20 166.48 C 248.51 165.19 248.79 163.91 249.04 162.66 C 249.30 161.40 249.52 160.17 249.73 158.96 C 249.94 157.74 250.13 156.55 250.30 155.38 C 250.48 154.21 250.64 153.05 250.79 151.92 C 250.95 150.79 251.09 149.68 251.24 148.59 C 251.38 147.50 251.46 146.53 251.67 145.38 C 251.88 144.24 252.28 142.82 252.50 141.73 C 252.73 140.64 252.83 139.77 253.01 138.82 C 253.19 137.88 253.39 136.95 253.61 136.06 C 253.83 135.16 254.06 134.29 254.32 133.45 C 254.59 132.61 254.87 131.79 255.19 131.01 C 255.51 130.22 255.85 129.47 256.23 128.75 C 256.61 128.03 257.15 127.19 257.47 126.69 C 257.80 126.19 257.69 126.83 258.18 125.75 C 258.67 124.66 259.95 122.08 260.41 120.17 C 260.86 118.27 261.12 116.25 260.91 114.34 C 260.70 112.44 260.06 110.44 259.14 108.76 C 258.22 107.09 256.86 105.48 255.37 104.29 C 253.88 103.09 252.01 102.13 250.17 101.59 C 248.34 101.06 246.25 100.88 244.34 101.09 C 242.44 101.30 240.36 101.88 238.76 102.86 C 237.17 103.85 235.57 106.14 234.76 107.00 C 233.94 107.87 234.34 107.54 233.87 108.07 C 233.40 108.59 232.61 109.45 231.94 110.13 C 231.26 110.80 230.55 111.47 229.81 112.14 C 229.07 112.80 228.30 113.46 227.50 114.13 C 226.70 114.80 225.88 115.46 225.03 116.14 C 224.18 116.82 223.31 117.51 222.42 118.21 C 221.53 118.91 220.69 119.50 219.68 120.36 C 218.68 121.21 217.42 122.45 216.39 123.36 C 215.35 124.26 214.46 124.95 213.48 125.79 C 212.50 126.63 211.51 127.49 210.52 128.38 C 209.53 129.28 208.53 130.21 207.53 131.17 C 206.54 132.13 205.54 133.13 204.55 134.17 C 203.56 135.20 202.57 136.27 201.60 137.39 C 200.62 138.51 199.65 139.66 198.70 140.87 C 197.75 142.07 197.10 142.73 195.88 144.62 C 194.66 146.51 192.95 149.29 191.37 152.21 C 189.78 155.13 187.95 158.73 186.37 162.13 C 184.79 165.53 183.29 169.01 181.89 172.58 C 180.50 176.14 179.19 179.80 178.00 183.53 C 176.82 187.26 175.75 191.07 174.78 194.95 C 173.81 198.82 172.94 202.77 172.16 206.76 C 171.38 210.75 170.80 214.29 170.08 218.89 C 169.35 223.49 168.37 229.67 167.80 234.36 C 167.22 239.05 166.97 242.78 166.64 247.03 C 166.31 251.28 166.04 255.56 165.80 259.86 C 165.56 264.16 165.38 268.48 165.21 272.82 C 165.04 277.16 164.91 281.51 164.78 285.88 C 164.65 290.24 164.55 294.62 164.45 299.01 C 164.34 303.39 164.25 307.79 164.13 312.20 C 164.02 316.60 163.75 322.01 163.77 325.43 C 163.78 328.85 163.50 330.46 164.23 332.72 C 164.96 334.98 166.49 337.24 168.15 339.01 C 169.81 340.78 171.98 342.32 174.18 343.32 C 176.39 344.32 178.98 344.92 181.41 344.99 C 183.83 345.07 186.45 344.63 188.72 343.77 C 190.99 342.92 193.24 341.51 195.01 339.85 C 196.78 338.19 198.19 336.02 199.32 333.82 C 200.44 331.61 201.22 329.86 201.75 326.62 Z" fill="url(#i_gold)"/>
        <circle cx="258" cy="76" r="32" fill="none" stroke="#040c18" stroke-width="26.0"/><circle cx="258" cy="76" r="32" fill="url(#i_head)"/>
      </g></g>
</svg>