<svg xmlns="http://www.w3.org/2000/svg" viewBox="-76.90 -76.81 1352.90 451.11" width="1353" height="451">
  <path id="teal" d="M 36.70 4.02 C 37.11 4.12 37.53 4.20 37.94 4.28 C 38.79 4.44 39.60 4.66 40.42 4.90 C 40.80 5.01 41.18 5.11 41.56 5.21 C 43.56 5.71 45.46 6.46 47.35 7.28 C 47.78 7.46 48.21 7.64 48.65 7.81 C 49.32 8.08 49.96 8.39 50.60 8.71 C 51.01 8.92 51.42 9.11 51.84 9.31 C 53.57 10.12 55.21 11.08 56.85 12.05 C 57.38 12.36 57.91 12.66 58.44 12.96 C 60.59 14.20 62.59 15.71 64.50 17.28 C 64.87 17.58 65.24 17.86 65.61 18.15 C 66.27 18.68 66.89 19.24 67.50 19.82 C 67.76 20.07 68.03 20.31 68.30 20.55 C 68.68 20.87 69.02 21.22 69.38 21.57 C 69.51 21.69 69.64 21.80 69.77 21.92 C 70.24 22.33 70.67 22.77 71.11 23.21 C 71.23 23.31 71.36 23.42 71.49 23.52 C 72.02 24.00 72.49 24.51 72.97 25.04 C 73.22 25.31 73.47 25.57 73.72 25.84 C 74.50 26.66 75.21 27.51 75.90 28.41 C 76.06 28.58 76.21 28.74 76.36 28.92 C 76.92 29.54 77.43 30.19 77.94 30.86 C 78.02 30.96 78.02 30.96 78.43 31.48 C 80.78 34.55 83.00 37.70 85.09 40.95 C 85.14 41.05 85.14 41.05 85.44 41.51 C 86.90 43.83 88.23 46.22 89.57 48.61 C 89.67 48.78 89.77 48.95 89.87 49.12 C 90.34 49.98 90.79 50.84 91.21 51.73 C 91.82 53.00 92.45 54.26 93.09 55.52 C 93.97 57.28 94.82 59.04 95.59 60.85 C 95.81 61.34 96.03 61.83 96.25 62.33 C 96.35 62.54 96.44 62.76 96.54 62.99 C 96.72 63.38 96.89 63.77 97.07 64.16 C 97.36 64.80 97.64 65.45 97.92 66.10 C 97.97 66.22 97.97 66.22 98.22 66.81 C 98.53 67.54 98.85 68.28 99.16 69.02 C 99.36 69.50 99.56 69.98 99.76 70.46 C 100.47 72.12 101.16 73.78 101.84 75.45 C 102.10 76.11 102.37 76.76 102.64 77.41 C 103.27 78.93 103.88 80.45 104.47 81.99 C 105.11 83.65 105.77 85.31 106.43 86.97 C 107.42 89.48 108.38 92.01 109.32 94.54 C 109.89 96.07 110.50 97.58 111.10 99.10 C 111.82 100.93 112.53 102.77 113.24 104.61 C 113.50 105.27 113.75 105.94 114.01 106.60 C 114.17 107.04 114.34 107.47 114.51 107.91 C 115.06 109.35 115.62 110.78 116.20 112.21 C 116.88 113.90 117.54 115.61 118.19 117.32 C 118.64 118.53 119.13 119.72 119.62 120.92 C 119.88 121.56 120.08 122.21 120.28 122.87 C 120.48 123.50 120.69 124.00 120.99 124.60 C 121.05 124.81 121.11 125.01 121.17 125.22 C 121.39 125.89 121.68 126.48 122.00 127.11 C 122.36 127.86 122.64 128.63 122.92 129.41 C 123.05 129.74 123.17 130.07 123.30 130.40 C 123.32 130.48 123.32 130.48 123.47 130.89 C 123.77 131.67 124.08 132.44 124.39 133.21 C 124.56 133.68 124.56 133.68 124.66 134.13 C 124.79 134.72 125.03 135.22 125.28 135.77 C 125.87 137.09 126.40 138.44 126.91 139.80 C 127.44 141.23 128.00 142.64 128.58 144.04 C 128.92 144.87 129.24 145.70 129.56 146.54 C 129.64 146.71 129.71 146.88 129.78 147.06 C 129.97 147.56 129.97 147.56 130.16 148.34 C 130.69 150.42 131.71 152.37 132.63 154.31 C 132.86 154.80 133.10 155.29 133.33 155.78 C 133.52 156.18 133.71 156.57 133.90 156.96 C 134.18 157.61 134.25 158.22 134.34 158.92 C 134.59 160.14 135.11 161.29 135.58 162.45 C 135.62 162.54 135.62 162.54 135.80 163.00 C 136.52 164.76 137.37 166.46 138.23 168.16 C 139.86 171.43 139.86 171.43 140.26 172.24 C 140.60 172.93 141.00 173.58 141.42 174.23 C 141.88 174.98 142.28 175.77 142.69 176.55 C 143.56 178.07 143.56 178.07 144.15 178.46 C 144.33 178.48 144.52 178.49 144.70 178.50 C 145.27 178.57 145.27 178.57 145.68 178.98 C 145.89 179.38 146.09 179.78 146.28 180.19 C 147.24 182.13 148.37 183.88 149.66 185.61 C 149.79 185.78 149.92 185.96 150.05 186.14 C 151.12 187.56 152.21 188.90 153.43 190.20 C 154.16 190.98 154.88 191.77 155.57 192.60 C 156.49 193.63 157.66 194.46 158.76 195.29 C 159.14 195.60 159.14 195.60 159.55 196.11 C 159.66 196.13 159.66 196.13 160.18 196.19 C 161.02 196.34 161.25 196.59 161.80 197.23 C 162.87 198.50 164.01 199.21 165.67 199.48 C 166.18 199.52 166.69 199.55 167.20 199.58 C 167.27 199.61 167.34 199.65 167.41 199.68 C 167.41 199.99 167.41 200.29 167.41 200.60 C 166.52 201.05 165.84 201.10 164.86 201.21 C 164.55 201.34 164.24 201.48 163.94 201.62 C 160.79 202.55 157.66 202.91 154.39 202.90 C 154.11 202.90 153.82 202.90 153.53 202.90 C 152.93 202.90 152.33 202.90 151.73 202.90 C 150.82 202.90 149.92 202.90 149.01 202.90 C 145.49 202.90 142.11 202.80 138.64 202.13 C 138.55 202.12 138.55 202.12 138.09 202.04 C 132.94 201.06 128.03 199.38 123.44 196.83 C 123.35 196.78 123.35 196.78 122.90 196.54 C 121.65 195.87 120.44 195.15 119.26 194.38 C 119.06 194.25 118.85 194.12 118.65 193.98 C 117.78 193.39 116.94 192.76 116.10 192.13 C 115.89 191.98 115.68 191.83 115.46 191.67 C 114.38 190.84 113.34 189.98 112.32 189.07 C 112.14 188.93 111.97 188.79 111.79 188.64 C 110.66 187.71 109.63 186.70 108.60 185.65 C 108.24 185.30 108.24 185.30 107.73 184.89 C 107.49 184.62 107.25 184.35 107.02 184.08 C 106.85 183.91 106.69 183.75 106.52 183.58 C 106.00 183.06 105.54 182.51 105.08 181.93 C 104.91 181.75 104.74 181.57 104.57 181.38 C 104.05 180.80 103.60 180.21 103.14 179.59 C 102.93 179.31 102.72 179.04 102.52 178.76 C 102.07 178.16 101.63 177.55 101.20 176.93 C 101.01 176.66 100.81 176.38 100.62 176.11 C 100.11 175.39 99.62 174.68 99.12 173.96 C 98.88 173.60 98.63 173.25 98.37 172.91 C 97.63 171.87 96.97 170.78 96.31 169.69 C 96.16 169.46 96.02 169.22 95.87 168.98 C 94.52 166.77 93.25 164.52 92.02 162.25 C 91.90 162.03 91.79 161.81 91.67 161.59 C 89.31 157.23 87.17 152.75 85.26 148.18 C 84.98 147.56 84.98 147.56 84.63 147.10 C 84.15 146.49 83.94 145.83 83.66 145.11 C 83.52 144.83 83.37 144.55 83.23 144.28 C 82.88 143.55 82.71 142.93 82.53 142.15 C 82.44 142.02 82.34 141.89 82.24 141.76 C 81.78 141.14 81.64 140.44 81.41 139.70 C 81.21 139.29 81.01 138.88 80.80 138.48 C 80.61 138.04 80.43 137.60 80.26 137.16 C 80.11 136.80 79.96 136.45 79.81 136.09 C 79.58 135.52 79.58 135.52 79.43 134.94 C 79.27 134.40 79.27 134.40 79.00 134.00 C 78.48 133.20 78.18 132.32 77.84 131.44 C 77.70 131.09 77.56 130.73 77.41 130.38 C 77.18 129.81 76.97 129.24 76.76 128.65 C 76.52 127.97 76.52 127.97 76.18 127.26 C 75.82 126.48 75.50 125.71 75.18 124.92 C 75.06 124.63 74.95 124.34 74.83 124.05 C 74.77 123.91 74.71 123.76 74.65 123.61 C 74.37 122.91 74.08 122.21 73.80 121.51 C 73.69 121.24 73.58 120.97 73.47 120.69 C 73.36 120.44 73.26 120.18 73.15 119.91 C 73.10 119.79 73.10 119.79 72.86 119.20 C 72.37 118.00 71.88 116.81 71.38 115.61 C 71.06 114.84 70.75 114.07 70.48 113.28 C 70.19 112.47 69.86 111.68 69.52 110.89 C 68.58 108.72 67.70 106.53 66.82 104.34 C 66.15 102.69 65.46 101.04 64.77 99.40 C 64.32 98.36 63.88 97.32 63.45 96.27 C 63.37 96.08 63.29 95.90 63.21 95.70 C 62.77 94.65 62.33 93.60 61.90 92.54 C 61.38 91.30 60.85 90.06 60.31 88.83 C 59.73 87.48 59.16 86.13 58.60 84.78 C 57.72 82.71 56.84 80.64 55.91 78.60 C 55.64 78.00 55.37 77.40 55.11 76.80 C 55.07 76.72 55.07 76.72 54.90 76.33 C 54.43 75.29 53.99 74.24 53.56 73.19 C 53.43 72.87 53.29 72.56 53.15 72.24 C 53.09 72.10 53.02 71.96 52.96 71.81 C 52.80 71.48 52.64 71.15 52.47 70.82 C 51.94 69.73 51.47 68.62 50.99 67.52 C 50.52 66.43 50.02 65.37 49.48 64.32 C 49.35 64.03 49.21 63.74 49.08 63.45 C 48.75 62.76 48.42 62.08 48.08 61.41 C 47.91 61.06 47.74 60.72 47.56 60.37 C 47.01 59.25 46.44 58.13 45.85 57.03 C 45.69 56.72 45.53 56.41 45.36 56.09 C 44.80 55.01 44.21 53.95 43.61 52.89 C 43.26 52.27 42.91 51.65 42.56 51.02 C 41.67 49.44 40.78 47.87 39.84 46.31 C 39.29 45.38 38.75 44.45 38.22 43.51 C 37.91 42.98 37.58 42.48 37.24 41.98 C 37.06 41.67 36.87 41.36 36.69 41.05 C 35.72 39.43 34.73 37.82 33.67 36.26 C 32.86 35.04 32.86 35.04 32.49 34.48 C 31.53 33.06 30.55 31.68 29.53 30.31 C 29.19 29.85 28.85 29.38 28.52 28.91 C 27.85 27.98 27.14 27.07 26.43 26.16 C 26.29 25.99 26.15 25.81 26.01 25.63 C 25.58 25.10 25.13 24.58 24.68 24.06 C 24.45 23.78 24.21 23.50 23.99 23.21 C 23.10 22.10 22.15 21.05 21.17 20.02 C 20.91 19.74 20.66 19.45 20.40 19.17 C 19.78 18.49 19.14 17.83 18.48 17.18 C 18.42 17.12 18.42 17.12 18.11 16.80 C 17.41 16.10 16.70 15.46 15.92 14.84 C 15.75 14.68 15.58 14.52 15.40 14.36 C 12.59 11.85 9.16 9.45 5.52 8.41 C 5.98 8.89 6.44 9.33 6.96 9.75 C 8.01 10.63 8.90 11.67 9.80 12.70 C 9.97 12.88 10.13 13.06 10.30 13.24 C 10.64 13.62 10.98 14.01 11.30 14.41 C 11.74 14.94 11.74 14.94 12.10 15.30 C 12.56 15.76 12.96 16.27 13.37 16.78 C 13.52 16.94 13.67 17.10 13.82 17.27 C 14.17 17.67 14.51 18.09 14.84 18.51 C 15.19 18.95 15.55 19.38 15.93 19.80 C 16.45 20.37 16.89 20.96 17.35 21.57 C 17.72 22.02 18.10 22.46 18.47 22.90 C 20.75 25.77 22.88 28.73 24.96 31.74 C 25.23 32.12 25.49 32.50 25.76 32.88 C 26.23 33.56 26.69 34.25 27.14 34.94 C 27.28 35.15 27.42 35.35 27.56 35.57 C 27.97 36.17 28.37 36.78 28.78 37.38 C 28.90 37.57 29.03 37.76 29.16 37.96 C 29.70 38.78 30.21 39.61 30.71 40.44 C 30.85 40.67 30.99 40.90 31.13 41.13 C 32.36 43.13 33.52 45.17 34.67 47.21 C 34.88 47.58 35.09 47.95 35.30 48.31 C 36.04 49.59 36.72 50.89 37.39 52.20 C 37.62 52.65 37.87 53.09 38.12 53.52 C 38.67 54.47 39.12 55.47 39.59 56.46 C 39.64 56.58 39.64 56.58 39.93 57.17 C 41.91 61.34 42.48 65.24 42.50 69.84 C 42.50 70.14 42.50 70.44 42.51 70.75 C 42.51 71.56 42.52 72.37 42.52 73.19 C 42.52 73.70 42.52 74.21 42.53 74.72 C 42.55 78.93 42.55 83.14 42.52 87.35 C 42.52 87.45 42.52 87.45 42.52 87.96 C 42.51 89.91 42.49 91.87 42.47 93.83 C 42.47 94.56 42.46 95.28 42.46 96.01 C 42.45 96.51 42.44 97.01 42.44 97.51 C 42.44 97.65 42.44 97.65 42.43 98.41 C 42.43 98.66 42.43 98.92 42.42 99.19 C 42.44 99.81 42.44 99.81 42.65 100.43 C 42.67 101.05 42.68 101.68 42.68 102.31 C 42.68 102.40 42.68 102.40 42.68 102.90 C 42.68 103.56 42.68 104.22 42.68 104.88 C 42.68 105.35 42.68 105.82 42.68 106.30 C 42.68 107.60 42.69 108.91 42.69 110.21 C 42.69 111.60 42.69 112.99 42.69 114.38 C 42.70 116.78 42.70 119.17 42.70 121.56 C 42.71 125.15 42.71 128.74 42.72 132.33 C 42.72 133.59 42.72 134.85 42.72 136.11 C 42.72 136.42 42.72 136.74 42.72 137.05 C 42.73 139.27 42.73 141.50 42.73 143.72 C 42.74 151.82 42.76 159.93 42.78 168.03 C 42.78 168.28 42.78 168.52 42.78 168.77 C 42.79 172.03 42.80 175.29 42.81 178.55 C 42.81 179.65 42.81 180.76 42.82 181.87 C 42.82 181.97 42.82 181.97 42.82 182.52 C 42.82 183.58 42.82 184.63 42.82 185.69 C 42.83 185.89 42.83 186.09 42.83 186.30 C 42.83 186.70 42.83 187.10 42.83 187.50 C 42.83 188.44 42.83 189.38 42.84 190.32 C 42.84 190.50 42.84 190.67 42.84 190.86 C 42.84 191.20 42.84 191.55 42.84 191.89 C 42.84 192.69 42.84 193.50 42.85 194.30 C 42.85 195.63 42.85 196.96 42.86 198.29 C 42.87 198.39 42.87 198.39 42.87 198.94 C 42.87 199.33 42.88 199.71 42.88 200.10 C 42.88 200.92 42.84 201.46 42.55 202.23 C 41.88 202.77 41.56 202.80 40.71 202.74 C 35.74 201.22 30.64 198.30 26.74 194.84 C 26.33 194.48 26.33 194.48 25.78 194.09 C 25.21 193.67 24.70 193.22 24.18 192.75 C 24.02 192.62 23.86 192.49 23.69 192.36 C 22.17 191.13 20.77 189.73 19.49 188.26 C 19.28 188.03 19.06 187.79 18.84 187.56 C 17.90 186.55 17.07 185.47 16.23 184.38 C 16.08 184.20 15.93 184.02 15.77 183.83 C 14.86 182.70 14.07 181.50 13.27 180.30 C 13.14 180.11 13.00 179.91 12.87 179.71 C 11.36 177.41 10.03 175.00 8.78 172.55 C 8.69 172.37 8.60 172.19 8.50 172.01 C 6.09 167.29 4.22 162.20 2.97 157.04 C 2.94 156.96 2.94 156.96 2.84 156.53 C 2.57 155.48 2.34 154.44 2.17 153.38 C 2.07 152.85 1.94 152.35 1.80 151.83 C 1.48 150.59 1.36 149.34 1.23 148.07 C 1.20 147.80 1.16 147.53 1.13 147.25 C 1.00 146.12 1.00 145.00 1.00 143.86 C 1.00 143.62 1.00 143.39 1.00 143.15 C 1.00 142.36 1.00 141.57 1.00 140.79 C 1.00 140.22 1.00 139.65 1.00 139.08 C 1.00 137.84 1.00 136.61 1.00 135.37 C 1.00 133.53 1.00 131.69 1.00 129.85 C 1.00 126.57 1.00 123.28 1.00 119.99 C 1.00 117.12 1.00 114.25 1.00 111.37 C 1.00 111.18 1.00 110.99 1.00 110.79 C 1.00 110.02 1.00 109.24 1.00 108.47 C 1.00 101.21 1.00 93.95 1.00 86.69 C 1.00 80.24 1.00 73.79 1.00 67.34 C 1.00 60.09 1.00 52.84 1.00 45.60 C 1.00 44.82 1.00 44.05 1.00 43.28 C 1.00 43.09 1.00 42.90 1.00 42.70 C 1.00 39.83 1.00 36.96 1.00 34.08 C 1.00 30.82 1.00 27.55 1.00 24.28 C 1.00 22.45 1.00 20.63 1.00 18.80 C 1.00 17.43 1.00 16.07 1.00 14.71 C 1.00 14.15 1.00 13.60 1.00 13.05 C 1.00 12.30 1.00 11.55 1.00 10.80 C 1.00 10.58 1.00 10.37 1.00 10.14 C 1.00 9.94 1.00 9.74 1.00 9.54 C 1.00 9.45 1.00 9.45 1.00 9.02 C 1.09 7.33 1.74 6.58 2.97 5.46 C 3.60 5.22 4.22 5.02 4.87 4.84 C 5.43 4.68 5.98 4.52 6.54 4.33 C 6.76 4.29 6.98 4.25 7.21 4.20 C 7.83 4.07 8.44 3.93 9.06 3.78 C 12.21 3.02 15.50 2.72 18.73 2.64 C 18.92 2.64 19.12 2.64 19.31 2.63 C 25.16 2.51 31.02 2.45 36.70 4.02 Z M 209.64 83.19 C 209.74 83.25 209.84 83.32 209.95 83.39 C 209.97 84.01 209.97 84.62 209.97 85.24 C 209.96 85.33 209.96 85.33 209.96 85.77 C 209.96 86.20 209.95 86.63 209.95 87.06 C 209.74 87.06 209.54 87.06 209.33 87.06 C 209.33 86.49 209.33 85.92 209.33 85.33 C 209.23 85.33 209.13 85.33 209.03 85.33 C 209.01 85.21 209.01 85.21 208.93 84.62 C 208.89 84.88 208.86 85.15 208.82 85.43 C 208.69 85.47 208.55 85.50 208.42 85.53 C 208.40 85.62 208.40 85.62 208.31 86.04 C 208.07 86.53 208.07 86.53 207.80 86.96 C 207.75 86.98 207.75 86.98 207.50 87.06 C 207.46 87.27 207.43 87.47 207.40 87.68 C 207.36 87.71 207.36 87.71 207.19 87.88 C 207.16 87.98 207.16 87.98 206.99 88.49 C 206.61 89.39 206.61 89.39 206.38 89.51 C 206.31 89.71 206.24 89.92 206.17 90.12 C 206.10 90.12 206.04 90.12 205.97 90.12 C 205.90 90.36 205.83 90.60 205.76 90.84 C 205.60 91.11 205.43 91.38 205.25 91.65 C 205.15 91.89 205.05 92.13 204.95 92.37 C 204.91 92.38 204.91 92.38 204.74 92.47 C 204.64 92.71 204.54 92.94 204.44 93.18 C 204.15 93.64 203.84 94.08 203.52 94.51 C 203.45 94.71 203.38 94.91 203.32 95.12 C 203.21 95.22 203.11 95.32 203.01 95.43 C 202.60 96.04 202.60 96.04 202.50 96.35 C 202.33 96.51 202.16 96.68 201.99 96.86 C 201.82 97.16 201.65 97.47 201.48 97.77 C 201.41 97.81 201.34 97.84 201.28 97.88 C 201.19 98.04 201.11 98.21 201.03 98.38 C 200.76 98.90 200.76 98.90 200.46 99.10 C 200.36 99.10 200.26 99.10 200.15 99.10 C 200.12 99.34 200.09 99.57 200.05 99.81 C 199.85 100.22 199.85 100.22 199.54 100.53 C 199.37 100.53 199.20 100.53 199.03 100.53 C 199.03 100.76 199.03 101.00 199.03 101.24 C 198.72 101.75 198.72 101.75 198.42 101.96 C 198.18 101.96 197.95 101.96 197.70 101.96 C 197.70 101.04 197.70 101.04 198.11 100.53 C 198.35 100.50 198.58 100.46 198.83 100.43 C 198.83 100.16 198.83 99.89 198.83 99.61 C 199.00 99.38 199.16 99.14 199.34 98.90 C 199.47 98.90 199.61 98.90 199.74 98.90 C 199.74 98.69 199.74 98.49 199.74 98.28 C 200.05 97.67 200.05 97.67 200.46 97.26 C 200.51 97.19 200.51 97.19 200.78 96.78 C 200.87 96.64 200.97 96.49 201.07 96.35 C 201.14 96.35 201.21 96.35 201.28 96.35 C 201.31 96.18 201.34 96.01 201.38 95.84 C 201.54 95.56 201.71 95.29 201.89 95.02 C 202.01 94.82 202.13 94.62 202.26 94.41 C 202.37 94.24 202.49 94.07 202.60 93.90 C 202.67 93.90 202.74 93.90 202.81 93.90 C 202.84 93.70 202.87 93.49 202.91 93.29 C 203.01 93.19 203.11 93.08 203.21 92.98 C 203.28 92.81 203.35 92.64 203.42 92.47 C 203.47 92.39 203.47 92.39 203.73 92.01 C 204.03 91.55 204.03 91.55 204.13 91.14 C 204.18 91.11 204.18 91.11 204.44 90.94 C 204.50 90.74 204.57 90.54 204.64 90.33 C 204.71 90.33 204.78 90.33 204.85 90.33 C 204.88 90.13 204.91 89.92 204.95 89.72 C 205.05 89.55 205.15 89.38 205.25 89.21 C 205.39 88.94 205.52 88.67 205.66 88.39 C 205.73 88.26 205.80 88.12 205.87 87.98 C 205.93 87.98 206.00 87.98 206.07 87.98 C 206.10 87.78 206.14 87.58 206.17 87.37 C 206.27 87.24 206.37 87.10 206.48 86.96 C 206.54 86.83 206.61 86.69 206.68 86.55 C 206.75 86.55 206.82 86.55 206.89 86.55 C 206.92 86.32 206.95 86.08 206.99 85.84 C 207.09 85.67 207.19 85.50 207.29 85.33 C 207.31 85.28 207.31 85.28 207.40 85.02 C 207.43 85.01 207.43 85.01 207.60 84.92 C 207.67 84.69 207.73 84.45 207.80 84.21 C 207.90 84.21 208.01 84.21 208.11 84.21 C 208.14 83.94 208.18 83.67 208.21 83.39 C 208.68 83.08 209.09 83.16 209.64 83.19 Z" fill="#083088"/>
  <path id="gold" d="M 209.54 1.17 C 209.67 1.27 209.81 1.37 209.95 1.48 C 209.99 2.11 210.00 2.72 210.00 3.35 C 210.00 3.55 210.00 3.75 210.00 3.95 C 210.00 4.62 210.00 5.29 210.00 5.96 C 210.00 6.44 210.00 6.92 210.00 7.39 C 210.00 8.69 210.00 10.00 209.99 11.30 C 209.99 12.66 209.99 14.02 209.99 15.38 C 209.99 17.67 209.99 19.96 209.99 22.25 C 209.98 24.89 209.98 27.53 209.98 30.18 C 209.98 32.99 209.98 35.81 209.98 38.62 C 209.98 39.43 209.98 40.24 209.98 41.05 C 209.98 42.33 209.98 43.61 209.98 44.88 C 209.98 45.35 209.98 45.82 209.98 46.28 C 209.98 46.92 209.97 47.56 209.97 48.20 C 209.97 48.39 209.97 48.57 209.97 48.76 C 209.97 50.49 209.84 52.20 209.54 53.91 C 209.51 54.19 209.48 54.47 209.46 54.77 C 209.36 55.68 209.16 56.55 208.95 57.45 C 208.77 58.20 208.65 58.96 208.52 59.72 C 208.28 60.83 207.98 61.89 207.63 62.97 C 207.48 63.45 207.39 63.92 207.29 64.42 C 207.17 64.81 207.05 65.20 206.93 65.59 C 206.77 66.08 206.63 66.57 206.49 67.06 C 206.25 67.86 205.97 68.64 205.65 69.42 C 205.42 70.02 205.22 70.62 205.01 71.23 C 204.26 73.41 203.34 75.49 202.30 77.56 C 202.08 78.01 201.87 78.46 201.66 78.92 C 200.50 81.36 199.12 83.70 197.60 85.94 C 197.49 86.13 197.37 86.31 197.25 86.50 C 196.26 88.06 195.19 89.53 194.04 90.96 C 193.75 91.32 193.46 91.69 193.18 92.05 C 191.74 93.89 190.22 95.65 188.63 97.37 C 188.50 97.51 188.38 97.65 188.26 97.79 C 187.64 98.49 186.99 99.12 186.28 99.71 C 186.23 99.77 186.23 99.77 185.99 100.06 C 185.64 100.46 185.26 100.79 184.85 101.14 C 184.63 101.36 184.41 101.58 184.19 101.80 C 183.71 102.28 183.23 102.74 182.71 103.18 C 182.54 103.33 182.38 103.48 182.21 103.63 C 181.71 104.08 181.19 104.50 180.67 104.92 C 180.52 105.05 180.37 105.18 180.21 105.32 C 179.73 105.75 179.23 106.15 178.73 106.55 C 178.37 106.85 178.01 107.16 177.66 107.47 C 177.35 107.74 177.03 107.99 176.72 108.25 C 176.36 108.54 176.02 108.84 175.68 109.15 C 175.12 109.64 174.53 110.08 173.94 110.53 C 173.60 110.83 173.26 111.14 172.92 111.44 C 172.56 111.72 172.21 112.00 171.85 112.27 C 171.38 112.65 170.95 113.06 170.51 113.48 C 170.14 113.81 169.76 114.12 169.37 114.43 C 168.63 115.02 167.95 115.64 167.28 116.29 C 166.89 116.66 166.49 117.01 166.08 117.36 C 164.97 118.36 163.91 119.41 162.85 120.47 C 162.67 120.65 162.50 120.82 162.31 121.00 C 161.48 121.83 160.68 122.66 159.96 123.58 C 159.59 124.03 159.21 124.47 158.84 124.91 C 158.53 125.28 158.23 125.66 157.92 126.03 C 157.81 126.16 157.70 126.29 157.59 126.43 C 156.76 127.42 156.00 128.44 155.27 129.50 C 155.10 129.73 154.94 129.96 154.76 130.19 C 153.27 132.31 151.92 134.51 150.78 136.84 C 150.65 137.08 150.52 137.31 150.39 137.56 C 149.97 138.35 149.60 139.16 149.23 139.98 C 149.17 140.12 149.17 140.12 148.87 140.79 C 148.76 141.04 148.65 141.28 148.54 141.54 C 148.45 141.73 148.36 141.93 148.26 142.13 C 146.76 145.48 145.71 149.04 145.07 152.66 C 145.03 152.84 145.00 153.03 144.97 153.22 C 143.77 160.15 143.43 167.13 144.82 174.06 C 144.91 174.53 145.00 174.99 145.07 175.46 C 145.17 176.02 145.17 176.02 145.37 176.63 C 145.40 176.99 145.41 177.35 145.41 177.71 C 145.41 177.90 145.42 178.09 145.42 178.28 C 145.37 178.77 145.37 178.77 144.97 179.18 C 143.66 179.29 143.66 179.29 142.93 178.67 C 142.23 177.68 141.68 176.61 141.12 175.54 C 140.87 175.07 140.59 174.62 140.31 174.16 C 139.84 173.41 139.44 172.64 139.05 171.83 C 138.92 171.57 138.78 171.30 138.65 171.03 C 138.51 170.76 138.37 170.48 138.23 170.20 C 138.11 169.95 137.98 169.70 137.85 169.44 C 135.60 164.95 135.60 164.95 134.87 163.06 C 134.77 162.82 134.67 162.59 134.58 162.34 C 134.47 162.08 134.37 161.82 134.27 161.56 C 134.17 161.32 134.08 161.08 133.98 160.83 C 133.73 160.07 133.62 159.37 133.54 158.57 C 133.45 157.72 133.35 156.89 133.18 156.05 C 133.03 155.22 132.95 154.41 132.88 153.57 C 132.83 153.06 132.83 153.06 132.67 152.34 C 132.50 151.44 132.44 150.56 132.38 149.65 C 132.28 148.32 132.13 147.00 131.99 145.68 C 131.78 143.83 131.68 142.00 131.65 140.14 C 131.63 139.11 131.57 138.08 131.50 137.05 C 131.36 134.87 131.37 132.68 131.37 130.50 C 131.37 129.77 131.37 129.05 131.37 128.32 C 131.37 127.85 131.37 127.39 131.37 126.92 C 131.37 126.70 131.37 126.49 131.37 126.27 C 131.37 125.02 131.45 123.81 131.60 122.56 C 131.62 122.22 131.63 121.87 131.63 121.52 C 131.76 117.93 132.22 114.25 132.93 110.73 C 132.97 110.53 133.00 110.32 133.04 110.11 C 133.26 108.92 133.50 107.75 133.81 106.57 C 133.91 106.19 134.00 105.80 134.10 105.41 C 134.93 101.88 136.11 98.42 137.62 95.12 C 137.80 94.69 137.99 94.26 138.17 93.82 C 140.01 89.47 142.43 85.40 145.17 81.56 C 145.34 81.32 145.51 81.08 145.68 80.83 C 146.59 79.58 147.52 78.35 148.51 77.16 C 148.78 76.83 149.05 76.50 149.32 76.17 C 149.82 75.56 150.35 74.99 150.88 74.41 C 151.03 74.23 151.17 74.05 151.32 73.87 C 151.81 73.28 152.33 72.75 152.88 72.22 C 153.11 71.98 153.34 71.74 153.56 71.48 C 153.93 71.06 154.32 70.66 154.72 70.26 C 154.87 70.11 155.01 69.96 155.16 69.81 C 155.31 69.66 155.46 69.51 155.62 69.36 C 155.77 69.21 155.92 69.06 156.08 68.90 C 156.22 68.75 156.37 68.61 156.52 68.46 C 156.65 68.33 156.78 68.19 156.92 68.06 C 157.31 67.68 157.71 67.32 158.12 66.97 C 158.46 66.66 158.79 66.36 159.12 66.05 C 159.70 65.52 160.28 64.99 160.87 64.47 C 161.20 64.19 161.51 63.90 161.83 63.61 C 162.20 63.28 162.57 62.96 162.96 62.64 C 163.62 62.10 164.24 61.53 164.86 60.95 C 165.98 59.92 165.98 59.92 166.48 59.48 C 166.86 59.14 167.24 58.80 167.61 58.45 C 168.11 57.98 168.62 57.52 169.14 57.07 C 169.90 56.39 170.65 55.70 171.39 55.00 C 171.79 54.63 172.20 54.27 172.61 53.91 C 173.66 52.96 174.67 51.96 175.68 50.96 C 175.74 50.90 175.74 50.90 176.04 50.60 C 176.62 50.02 177.18 49.43 177.71 48.81 C 178.19 48.28 178.68 47.75 179.17 47.23 C 179.67 46.70 180.15 46.16 180.62 45.60 C 180.98 45.16 181.34 44.75 181.73 44.34 C 182.37 43.65 182.95 42.93 183.53 42.18 C 183.94 41.67 184.36 41.16 184.78 40.65 C 185.53 39.76 186.22 38.85 186.89 37.89 C 187.20 37.49 187.50 37.08 187.81 36.67 C 188.05 36.33 188.30 35.98 188.54 35.64 C 188.87 35.19 189.20 34.74 189.54 34.29 C 190.17 33.43 190.78 32.55 191.38 31.67 C 191.53 31.45 191.69 31.23 191.85 31.00 C 192.65 29.83 193.42 28.66 194.16 27.44 C 194.52 26.84 194.91 26.26 195.29 25.67 C 195.73 24.99 196.16 24.30 196.58 23.61 C 196.67 23.47 196.76 23.33 196.85 23.18 C 197.50 22.13 198.12 21.05 198.73 19.97 C 199.06 19.38 199.40 18.79 199.74 18.21 C 200.40 17.04 200.98 15.84 201.57 14.64 C 202.02 13.73 202.49 12.85 203.01 11.98 C 203.28 11.44 203.56 10.90 203.83 10.35 C 203.96 10.09 204.09 9.83 204.22 9.57 C 204.63 8.76 205.01 7.94 205.40 7.13 C 205.60 6.72 205.80 6.30 206.01 5.90 C 206.51 4.87 206.94 3.83 207.39 2.78 C 207.94 1.58 208.23 1.09 209.54 1.17 Z M 143.01 9.61 C 143.14 9.61 143.14 9.61 143.83 9.60 C 145.17 9.60 146.41 9.64 147.72 9.94 C 147.94 9.97 148.16 10.00 148.38 10.03 C 152.44 10.74 156.10 13.20 159.04 15.96 C 159.18 16.08 159.32 16.19 159.46 16.31 C 162.51 19.11 164.97 23.50 165.57 27.59 C 165.60 27.73 165.60 27.73 165.72 28.45 C 165.77 28.74 165.83 29.03 165.88 29.33 C 165.91 29.53 165.95 29.73 165.99 29.94 C 166.32 32.48 166.17 35.23 165.47 37.69 C 165.44 37.86 165.41 38.02 165.39 38.19 C 164.97 40.32 164.05 42.23 163.02 44.12 C 162.96 44.24 162.96 44.24 162.63 44.84 C 161.79 46.23 160.77 47.43 159.65 48.61 C 159.54 48.73 159.44 48.85 159.32 48.97 C 156.71 51.85 153.06 53.85 149.35 54.93 C 149.15 55.00 148.95 55.06 148.74 55.13 C 143.31 56.39 136.94 56.20 131.91 53.71 C 131.77 53.64 131.64 53.58 131.50 53.51 C 125.95 50.79 122.09 45.95 120.02 40.19 C 119.68 39.14 119.44 38.07 119.26 36.98 C 119.22 36.81 119.19 36.64 119.15 36.47 C 119.02 35.49 119.03 34.52 119.03 33.53 C 119.03 33.34 119.03 33.14 119.03 32.94 C 119.03 31.82 119.09 30.74 119.26 29.63 C 119.28 29.46 119.31 29.30 119.33 29.12 C 120.26 23.40 123.55 17.69 128.24 14.22 C 131.34 12.10 134.89 10.36 138.64 9.84 C 138.84 9.81 139.05 9.77 139.26 9.74 C 140.50 9.56 141.75 9.61 143.01 9.61 Z" fill="#083088"/>
  <path id="blue" d="M 208.52 83.70 C 208.82 83.70 209.12 83.70 209.44 83.70 C 209.64 83.90 209.64 83.90 209.66 84.29 C 209.66 84.38 209.66 84.38 209.66 84.83 C 209.66 85.03 209.66 85.24 209.66 85.46 C 209.66 85.69 209.66 85.93 209.65 86.18 C 209.65 86.73 209.65 87.27 209.65 87.82 C 209.65 88.14 209.65 88.46 209.64 88.77 C 209.64 89.92 209.64 91.06 209.64 92.21 C 209.64 92.32 209.64 92.32 209.64 92.86 C 209.64 93.31 209.63 93.75 209.63 94.20 C 209.63 95.41 209.63 96.61 209.63 97.82 C 209.63 98.07 209.63 98.32 209.63 98.58 C 209.62 102.12 209.62 105.65 209.61 109.19 C 209.61 112.06 209.60 114.93 209.60 117.80 C 209.59 120.32 209.59 122.85 209.58 125.37 C 209.58 126.70 209.58 128.02 209.58 129.35 C 209.56 143.74 209.56 143.74 209.03 146.94 C 209.02 147.20 209.00 147.45 208.99 147.71 C 208.93 148.48 208.80 149.16 208.62 149.90 C 208.55 150.41 208.48 150.92 208.42 151.43 C 208.35 151.63 208.28 151.84 208.21 152.04 C 208.18 152.27 208.14 152.49 208.11 152.71 C 208.01 153.37 208.01 153.37 207.80 153.88 C 207.77 154.05 207.74 154.22 207.70 154.39 C 207.60 154.90 207.60 154.90 207.40 155.41 C 207.33 155.75 207.26 156.09 207.19 156.43 C 207.12 156.63 207.06 156.83 206.99 157.04 C 206.96 157.18 206.93 157.32 206.90 157.47 C 206.67 158.47 206.30 159.44 205.97 160.41 C 205.93 160.51 205.93 160.51 205.75 161.04 C 205.38 162.13 204.98 163.21 204.54 164.29 C 204.49 164.42 204.49 164.42 204.24 165.10 C 203.93 165.91 203.59 166.67 203.21 167.45 C 203.13 167.62 203.06 167.79 202.97 167.96 C 202.45 169.08 201.89 170.15 201.28 171.22 C 201.22 171.33 201.22 171.33 200.95 171.89 C 199.78 174.18 198.41 176.39 196.89 178.46 C 196.76 178.65 196.63 178.83 196.49 179.01 C 196.35 179.20 196.22 179.39 196.07 179.59 C 196.03 179.65 196.03 179.65 195.79 179.97 C 195.11 180.90 194.38 181.78 193.62 182.65 C 193.48 182.82 193.34 183.00 193.20 183.18 C 192.47 184.08 191.68 184.92 190.89 185.76 C 190.66 186.01 190.44 186.26 190.22 186.51 C 189.23 187.63 188.16 188.66 186.99 189.58 C 186.82 189.74 186.65 189.89 186.48 190.05 C 185.98 190.49 185.48 190.91 184.95 191.32 C 184.73 191.50 184.50 191.68 184.27 191.86 C 178.97 196.02 172.05 200.59 165.06 200.19 C 162.85 199.75 161.76 198.65 160.27 197.03 C 160.11 196.89 159.95 196.75 159.79 196.61 C 159.27 196.14 158.86 195.64 158.43 195.09 C 158.21 194.82 157.98 194.54 157.76 194.27 C 153.78 189.36 151.61 183.08 150.86 176.87 C 150.78 176.32 150.78 176.32 150.68 175.93 C 150.18 173.47 150.22 170.87 150.23 168.39 C 150.23 168.09 150.23 167.79 150.23 167.49 C 150.23 165.10 150.38 162.75 150.88 160.41 C 150.91 160.16 150.94 159.92 150.97 159.66 C 151.13 158.47 151.36 157.30 151.60 156.12 C 151.64 155.88 151.68 155.64 151.73 155.39 C 151.93 154.48 152.20 153.62 152.50 152.73 C 152.55 152.57 152.61 152.42 152.66 152.25 C 152.94 151.41 153.26 150.60 153.64 149.80 C 153.82 149.35 154.00 148.91 154.18 148.46 C 156.12 143.68 158.95 139.33 162.31 135.42 C 162.45 135.24 162.58 135.07 162.73 134.89 C 163.50 133.93 164.35 133.07 165.22 132.20 C 165.59 131.83 165.94 131.43 166.29 131.03 C 166.64 130.67 166.99 130.33 167.37 130.00 C 167.86 129.56 168.32 129.10 168.78 128.63 C 169.54 127.86 170.30 127.15 171.17 126.50 C 171.75 126.07 172.27 125.60 172.81 125.11 C 173.26 124.77 173.70 124.43 174.14 124.09 C 174.48 123.79 174.82 123.48 175.16 123.18 C 175.64 122.80 176.11 122.43 176.59 122.05 C 176.76 121.90 176.93 121.74 177.11 121.58 C 177.66 121.09 178.24 120.66 178.83 120.22 C 179.28 119.84 179.72 119.47 180.16 119.09 C 180.33 118.96 180.50 118.83 180.67 118.69 C 181.31 118.17 181.90 117.62 182.51 117.05 C 183.30 116.35 184.12 115.68 184.95 115.01 C 185.05 114.90 185.14 114.79 185.24 114.68 C 185.59 114.27 185.97 113.94 186.38 113.59 C 186.79 113.21 187.20 112.84 187.61 112.46 C 187.82 112.27 188.03 112.08 188.25 111.88 C 188.72 111.45 189.13 111.01 189.54 110.53 C 189.71 110.39 189.88 110.26 190.05 110.12 C 190.29 109.85 190.53 109.57 190.77 109.30 C 191.14 108.93 191.52 108.55 191.89 108.18 C 192.10 107.94 192.30 107.71 192.50 107.47 C 192.78 107.19 193.06 106.91 193.34 106.64 C 193.73 106.24 193.73 106.24 194.15 105.67 C 194.69 104.96 195.26 104.34 195.87 103.69 C 196.41 103.10 196.91 102.49 197.40 101.86 C 197.57 101.65 197.75 101.44 197.93 101.22 C 198.42 100.63 198.42 100.63 198.83 100.02 C 198.95 99.85 199.07 99.68 199.20 99.50 C 199.97 98.44 200.70 97.36 201.41 96.26 C 202.31 94.86 202.31 94.86 202.81 94.20 C 202.88 94.06 202.96 93.92 203.04 93.78 C 203.31 93.29 203.62 92.83 203.93 92.37 C 203.98 92.27 203.98 92.27 204.23 91.76 C 204.83 90.63 205.44 89.50 206.07 88.39 C 206.20 88.13 206.32 87.88 206.45 87.62 C 206.93 86.66 207.46 85.74 208.01 84.82 C 208.08 84.82 208.14 84.82 208.21 84.82 C 208.21 84.58 208.21 84.35 208.21 84.11 C 208.26 84.04 208.26 84.04 208.52 83.70 Z" fill="#083088"/>
  <g id="wordmark"><path d="M 353.41 9.17 C 353.53 9.17 353.53 9.17 354.17 9.17 C 359.19 9.18 363.99 9.62 368.92 10.57 C 370.01 10.75 371.09 10.85 372.19 10.94 C 374.79 11.21 377.21 11.82 379.72 12.55 C 380.16 12.67 380.59 12.79 381.05 12.92 C 384.06 13.78 387.04 14.70 390.00 15.75 C 390.34 15.86 390.69 15.98 391.04 16.09 C 394.22 17.15 397.23 18.56 400.25 20.00 C 400.68 20.20 401.11 20.41 401.55 20.62 C 405.53 22.56 409.33 24.78 413.00 27.25 C 413.24 27.40 413.48 27.56 413.73 27.72 C 415.99 29.19 418.13 30.83 420.25 32.50 C 420.36 32.58 420.36 32.58 420.89 33.00 C 422.69 34.44 424.31 36.01 425.92 37.66 C 427.49 39.25 429.06 40.79 430.75 42.25 C 433.93 45.41 436.46 49.06 439.02 52.72 C 439.70 53.68 440.40 54.62 441.11 55.56 C 450.74 68.64 456.35 84.53 458.75 100.50 C 458.82 100.92 458.88 101.34 458.95 101.78 C 459.50 105.29 459.79 108.71 459.81 112.27 C 459.81 112.62 459.81 112.98 459.82 113.35 C 459.82 114.10 459.82 114.85 459.82 115.60 C 459.83 116.36 459.83 117.12 459.84 117.87 C 459.89 122.85 459.60 127.59 458.75 132.50 C 458.65 133.16 458.55 133.81 458.45 134.47 C 457.52 140.06 455.98 145.44 454.00 150.75 C 453.88 151.10 453.75 151.46 453.62 151.82 C 451.24 158.56 448.15 165.01 444.25 171.00 C 444.00 171.38 443.76 171.75 443.50 172.14 C 441.44 175.28 439.22 178.24 436.89 181.19 C 436.38 181.84 435.88 182.49 435.38 183.14 C 433.61 185.38 431.78 187.50 429.75 189.50 C 429.50 189.79 429.25 190.09 429.00 190.39 C 428.15 191.37 427.24 192.16 426.25 193.00 C 426.00 193.21 425.75 193.42 425.50 193.64 C 423.76 195.12 422.02 196.57 420.25 198.00 C 420.07 198.15 419.89 198.30 419.71 198.45 C 418.22 199.67 416.68 200.71 415.05 201.72 C 413.18 202.88 411.41 204.09 409.68 205.46 C 408.66 206.27 407.59 207.02 406.50 207.75 C 406.39 207.82 406.39 207.82 405.83 208.20 C 397.15 213.77 386.76 217.22 376.75 219.50 C 376.29 219.61 375.84 219.71 375.37 219.83 C 357.55 223.74 337.63 223.24 320.25 217.50 C 319.95 217.40 319.65 217.30 319.34 217.20 C 317.50 216.59 315.67 215.95 313.84 215.30 C 313.06 215.02 312.28 214.75 311.51 214.48 C 305.29 212.30 299.45 209.32 294.14 205.40 C 292.66 204.32 291.13 203.30 289.61 202.27 C 288.55 201.54 287.53 200.78 286.50 200.00 C 286.25 199.81 285.99 199.63 285.73 199.44 C 284.32 198.41 283.03 197.36 281.83 196.08 C 281.35 195.60 280.84 195.14 280.32 194.70 C 278.96 193.50 277.70 192.21 276.43 190.92 C 275.24 189.72 274.02 188.60 272.75 187.50 C 269.39 184.22 266.87 180.12 264.25 176.25 C 264.04 175.95 263.83 175.64 263.62 175.33 C 261.11 171.64 258.92 167.78 257.00 163.75 C 256.88 163.51 256.76 163.26 256.64 163.01 C 252.66 154.76 249.53 146.25 247.75 137.25 C 247.69 136.93 247.62 136.62 247.56 136.29 C 246.63 131.53 245.97 126.84 245.75 122.00 C 245.74 121.74 245.73 121.48 245.71 121.21 C 245.66 120.04 245.61 118.88 245.56 117.71 C 245.50 116.75 245.50 116.75 245.25 116.25 C 245.19 113.87 245.19 113.87 245.50 113.25 C 245.56 112.65 245.61 112.05 245.65 111.45 C 245.68 111.08 245.71 110.71 245.74 110.32 C 245.77 109.92 245.80 109.52 245.83 109.11 C 246.58 99.67 248.28 90.25 252.00 81.50 C 252.16 81.12 252.31 80.74 252.48 80.35 C 255.22 73.74 258.01 67.12 261.75 61.00 C 261.99 60.58 262.23 60.16 262.48 59.73 C 264.14 57.06 265.96 54.50 267.90 52.02 C 268.50 51.25 269.07 50.47 269.64 49.69 C 270.49 48.55 271.39 47.55 272.42 46.58 C 273.00 46.00 273.00 46.00 273.73 45.15 C 275.14 43.52 276.70 42.01 278.23 40.48 C 278.54 40.17 278.85 39.86 279.17 39.54 C 280.66 38.06 282.15 36.61 283.75 35.25 C 284.16 34.86 284.57 34.47 284.98 34.08 C 286.77 32.45 288.75 31.10 290.75 29.75 C 291.08 29.52 291.41 29.30 291.76 29.06 C 295.80 26.37 300.14 24.14 304.50 22.00 C 304.79 21.85 305.09 21.70 305.39 21.55 C 310.52 18.94 315.76 16.50 321.25 14.75 C 321.45 14.68 321.45 14.68 322.44 14.35 C 327.43 12.71 332.46 11.53 337.65 10.72 C 338.76 10.54 339.84 10.33 340.94 10.09 C 345.05 9.25 349.22 9.16 353.41 9.17 Z M 349.67 52.52 C 346.56 52.64 343.55 53.15 340.50 53.75 C 340.37 53.77 340.37 53.77 339.69 53.90 C 337.34 54.35 335.17 55.11 332.94 55.98 C 332.57 56.13 332.20 56.27 331.81 56.42 C 326.48 58.52 321.59 60.81 316.87 64.08 C 316.26 64.49 315.65 64.89 315.04 65.30 C 314.23 65.85 313.51 66.38 312.80 67.05 C 312.69 67.14 312.69 67.14 312.17 67.63 C 311.95 67.83 311.73 68.04 311.50 68.25 C 311.25 68.47 311.01 68.70 310.75 68.93 C 303.24 75.74 297.74 84.84 294.00 94.25 C 293.89 94.52 293.78 94.80 293.66 95.08 C 292.90 97.13 292.47 99.22 292.08 101.36 C 292.03 101.63 291.98 101.90 291.92 102.17 C 291.11 106.87 290.92 111.62 290.93 116.37 C 290.94 117.14 290.93 117.91 290.93 118.68 C 290.92 131.39 294.08 144.04 302.10 154.15 C 302.82 155.09 303.48 156.05 304.14 157.03 C 307.06 161.30 310.62 165.12 314.75 168.25 C 314.86 168.34 314.86 168.34 315.44 168.79 C 316.20 169.37 316.98 169.93 317.75 170.50 C 318.02 170.70 318.29 170.91 318.57 171.12 C 320.75 172.70 323.04 173.98 325.42 175.22 C 325.72 175.38 326.03 175.53 326.34 175.70 C 330.59 177.86 334.89 179.21 339.58 180.05 C 339.92 180.11 340.27 180.18 340.62 180.24 C 344.84 181.00 349.03 181.05 353.29 181.05 C 354.14 181.05 354.99 181.05 355.83 181.06 C 359.93 181.07 363.73 180.71 367.70 179.69 C 368.01 179.61 368.31 179.53 368.62 179.45 C 373.73 178.13 378.95 176.47 383.50 173.75 C 383.64 173.67 383.64 173.67 384.34 173.27 C 386.93 171.77 389.34 170.04 391.75 168.25 C 391.86 168.17 391.86 168.17 392.45 167.75 C 394.41 166.32 396.16 164.74 397.88 163.02 C 398.15 162.74 398.42 162.47 398.71 162.18 C 400.82 160.03 402.43 157.83 404.00 155.25 C 404.43 154.65 404.86 154.06 405.30 153.47 C 415.46 139.31 416.94 121.80 415.00 105.00 C 414.95 104.55 414.90 104.10 414.85 103.64 C 414.43 100.36 413.37 97.34 412.25 94.25 C 412.13 93.92 412.02 93.60 411.90 93.26 C 411.12 91.17 410.13 89.18 409.14 87.19 C 409.01 86.91 408.87 86.64 408.73 86.36 C 407.84 84.58 406.84 82.91 405.75 81.25 C 405.56 80.95 405.37 80.65 405.17 80.34 C 401.26 74.17 396.84 68.88 390.75 64.75 C 390.49 64.56 390.22 64.37 389.95 64.18 C 386.28 61.56 382.40 59.72 378.25 58.00 C 377.65 57.73 377.05 57.47 376.45 57.20 C 367.94 53.56 358.86 52.33 349.67 52.52 Z" fill="#083088"/><path d="M 1102.58 10.64 C 1103.39 10.77 1104.19 10.80 1105.02 10.83 C 1110.50 11.15 1115.73 12.82 1120.92 14.51 C 1122.52 15.03 1124.13 15.49 1125.77 15.89 C 1129.60 16.88 1133.05 18.75 1136.57 20.53 C 1137.38 20.94 1138.20 21.34 1139.02 21.74 C 1144.05 24.15 1148.87 27.14 1153.50 30.25 C 1153.78 30.43 1154.06 30.61 1154.36 30.80 C 1156.21 32.03 1157.80 33.43 1159.41 34.96 C 1160.16 35.66 1160.92 36.31 1161.72 36.95 C 1163.59 38.46 1165.19 40.17 1166.75 42.00 C 1166.86 42.13 1166.86 42.13 1167.41 42.77 C 1168.45 43.98 1169.47 45.20 1170.44 46.47 C 1171.25 47.50 1171.25 47.50 1172.11 48.36 C 1175.05 51.30 1177.49 54.87 1179.50 58.50 C 1179.80 59.02 1180.10 59.54 1180.41 60.06 C 1181.49 61.96 1182.53 63.89 1183.56 65.82 C 1184.19 66.99 1184.83 68.14 1185.52 69.27 C 1187.80 73.10 1189.41 77.20 1190.91 81.39 C 1191.42 82.79 1191.97 84.17 1192.55 85.55 C 1193.57 88.08 1194.33 90.66 1195.05 93.29 C 1195.23 93.94 1195.43 94.59 1195.62 95.23 C 1196.38 97.87 1196.71 100.43 1196.89 103.16 C 1197.17 106.51 1197.17 106.51 1198.00 107.75 C 1198.07 108.50 1198.07 108.50 1198.07 109.44 C 1198.07 109.79 1198.07 110.14 1198.08 110.50 C 1198.08 110.87 1198.08 111.25 1198.08 111.64 C 1198.08 111.84 1198.08 111.84 1198.08 112.82 C 1198.08 113.65 1198.08 114.47 1198.08 115.29 C 1198.08 116.55 1198.08 117.81 1198.09 119.07 C 1198.09 119.87 1198.09 120.67 1198.09 121.47 C 1198.09 121.85 1198.10 122.23 1198.10 122.61 C 1198.10 122.79 1198.10 122.79 1198.09 123.68 C 1198.09 123.99 1198.09 124.30 1198.09 124.62 C 1197.99 125.62 1197.67 126.35 1197.25 127.25 C 1197.09 127.99 1197.09 127.99 1196.99 128.73 C 1196.96 129.00 1196.92 129.27 1196.88 129.55 C 1196.80 130.12 1196.73 130.68 1196.66 131.24 C 1196.42 132.95 1196.04 134.54 1195.51 136.19 C 1195.17 137.26 1194.91 138.33 1194.64 139.42 C 1193.83 142.73 1192.77 145.83 1191.50 149.00 C 1191.20 149.80 1190.90 150.60 1190.61 151.41 C 1190.47 151.79 1190.33 152.18 1190.18 152.58 C 1189.89 153.37 1189.60 154.16 1189.32 154.96 C 1188.39 157.59 1187.30 160.03 1186.00 162.50 C 1185.75 163.00 1185.49 163.50 1185.24 164.00 C 1183.70 167.01 1182.10 169.92 1180.25 172.75 C 1180.02 173.11 1179.80 173.47 1179.56 173.84 C 1178.24 175.93 1176.86 177.88 1175.25 179.75 C 1175.04 180.02 1174.83 180.29 1174.61 180.56 C 1174.00 181.25 1174.00 181.25 1173.09 182.03 C 1171.70 183.26 1170.49 184.62 1169.25 186.00 C 1168.77 186.52 1168.29 187.04 1167.81 187.56 C 1166.59 188.90 1165.38 190.25 1164.21 191.64 C 1162.83 193.22 1161.35 194.51 1159.68 195.78 C 1158.71 196.53 1157.80 197.32 1156.89 198.12 C 1154.00 200.65 1150.99 202.70 1147.65 204.59 C 1145.80 205.65 1144.03 206.81 1142.27 207.99 C 1138.68 210.29 1134.74 212.02 1130.75 213.50 C 1130.59 213.58 1130.59 213.58 1129.78 213.98 C 1124.37 216.69 1118.30 217.98 1112.41 219.22 C 1111.49 219.44 1110.62 219.70 1109.72 219.99 C 1107.94 220.54 1106.16 220.87 1104.33 221.16 C 1103.99 221.21 1103.65 221.26 1103.31 221.32 C 1096.10 222.41 1089.01 222.50 1081.75 221.75 C 1081.39 221.71 1081.03 221.68 1080.66 221.64 C 1079.46 221.52 1078.26 221.39 1077.06 221.26 C 1076.68 221.23 1076.30 221.19 1075.91 221.15 C 1073.79 220.91 1071.80 220.57 1069.75 220.00 C 1068.22 219.59 1066.71 219.23 1065.14 219.01 C 1063.76 218.82 1062.48 218.46 1061.15 218.03 C 1060.24 217.75 1059.33 217.52 1058.41 217.30 C 1056.25 216.77 1054.16 216.10 1052.06 215.37 C 1051.69 215.24 1051.31 215.11 1050.92 214.98 C 1044.42 212.70 1038.44 210.02 1032.86 205.95 C 1031.39 204.88 1029.91 203.84 1028.41 202.81 C 1027.01 201.86 1025.65 200.87 1024.30 199.84 C 1023.00 198.88 1021.67 197.97 1020.34 197.05 C 1017.56 195.02 1015.14 192.72 1012.72 190.28 C 1012.39 189.96 1012.07 189.63 1011.73 189.30 C 1010.14 187.70 1008.61 186.09 1007.21 184.32 C 1006.63 183.60 1006.00 182.92 1005.36 182.25 C 1004.12 180.91 1003.04 179.50 1002.00 178.00 C 1001.82 177.75 1001.65 177.50 1001.47 177.25 C 1000.23 175.49 999.07 173.68 997.94 171.85 C 997.55 171.23 997.16 170.61 996.75 170.00 C 995.22 167.68 993.94 165.27 992.70 162.78 C 992.51 162.40 992.32 162.02 992.12 161.63 C 991.06 159.50 990.13 157.36 989.32 155.12 C 988.93 154.04 988.48 152.99 988.03 151.94 C 983.71 141.16 983.41 130.17 983.42 118.72 C 983.42 117.65 983.42 116.57 983.42 115.49 C 983.34 96.90 983.34 96.90 986.17 89.69 C 986.59 88.50 986.87 87.29 987.17 86.06 C 988.53 80.67 990.76 75.77 993.40 70.90 C 993.84 70.09 994.24 69.26 994.64 68.42 C 996.15 65.38 997.94 62.41 999.99 59.70 C 1000.65 58.80 1001.24 57.86 1001.84 56.92 C 1004.24 53.19 1006.81 49.74 1009.82 46.50 C 1010.43 45.83 1010.99 45.15 1011.55 44.44 C 1013.78 41.67 1016.38 39.10 1019.25 37.00 C 1019.55 36.78 1019.85 36.55 1020.17 36.32 C 1021.11 35.63 1022.05 34.94 1023.00 34.25 C 1024.48 33.17 1025.88 32.03 1027.27 30.84 C 1027.99 30.26 1028.73 29.76 1029.50 29.25 C 1029.84 28.96 1030.18 28.67 1030.53 28.37 C 1032.52 26.76 1034.79 25.54 1037.00 24.25 C 1037.31 24.06 1037.62 23.88 1037.94 23.68 C 1039.91 22.51 1041.94 21.62 1044.07 20.75 C 1045.84 20.00 1047.54 19.12 1049.25 18.25 C 1052.41 16.64 1055.60 15.50 1059.00 14.50 C 1059.26 14.42 1059.51 14.34 1059.78 14.27 C 1062.78 13.37 1065.73 12.58 1068.84 12.17 C 1069.80 12.03 1070.72 11.84 1071.67 11.63 C 1073.45 11.24 1075.23 11.03 1077.05 10.87 C 1077.71 10.81 1078.37 10.75 1079.03 10.69 C 1079.36 10.66 1079.69 10.63 1080.03 10.60 C 1080.94 10.51 1081.83 10.40 1082.73 10.29 C 1089.38 9.44 1095.97 9.49 1102.58 10.64 Z M 1065.25 58.00 C 1064.98 58.11 1064.71 58.23 1064.43 58.34 C 1059.45 60.44 1054.89 63.11 1050.50 66.25 C 1050.20 66.46 1049.89 66.67 1049.58 66.88 C 1046.81 68.80 1044.37 70.91 1042.28 73.57 C 1041.94 74.01 1041.59 74.43 1041.22 74.85 C 1039.57 76.72 1038.40 78.83 1037.20 81.00 C 1036.67 81.94 1036.14 82.86 1035.58 83.78 C 1031.51 90.76 1028.90 98.29 1027.75 106.25 C 1027.73 106.38 1027.73 106.38 1027.64 107.01 C 1026.22 116.51 1025.71 129.07 1029.77 137.94 C 1030.15 138.79 1030.52 139.64 1030.87 140.50 C 1033.91 147.87 1037.59 154.60 1043.00 160.50 C 1043.22 160.74 1043.44 160.99 1043.67 161.24 C 1046.73 164.60 1049.85 167.78 1053.50 170.50 C 1053.82 170.75 1054.13 171.00 1054.45 171.26 C 1057.79 173.61 1061.36 175.46 1065.19 176.85 C 1066.23 177.24 1067.22 177.69 1068.23 178.14 C 1075.19 181.00 1083.24 181.07 1090.64 181.06 C 1090.89 181.06 1091.15 181.06 1091.41 181.06 C 1095.54 181.05 1099.41 180.92 1103.44 179.98 C 1103.77 179.91 1104.11 179.83 1104.45 179.75 C 1107.69 178.99 1110.85 178.05 1114.00 177.00 C 1114.44 176.86 1114.88 176.71 1115.33 176.56 C 1123.52 173.72 1129.78 167.29 1135.75 161.25 C 1135.97 161.03 1136.18 160.82 1136.40 160.60 C 1138.66 158.34 1140.45 155.88 1142.25 153.25 C 1142.51 152.88 1142.78 152.51 1143.05 152.14 C 1147.18 146.18 1149.23 139.39 1151.01 132.43 C 1151.22 131.63 1151.44 130.84 1151.68 130.05 C 1152.03 128.61 1152.20 127.21 1152.30 125.73 C 1152.32 125.45 1152.34 125.17 1152.36 124.88 C 1152.55 121.83 1152.56 118.80 1152.50 115.75 C 1152.50 115.58 1152.50 115.58 1152.49 114.72 C 1152.47 113.64 1152.45 112.55 1152.42 111.47 C 1152.42 111.13 1152.41 110.80 1152.41 110.45 C 1152.31 107.02 1151.66 103.85 1150.60 100.60 C 1150.20 99.33 1149.87 98.05 1149.53 96.76 C 1148.87 94.32 1148.01 92.06 1147.00 89.75 C 1146.83 89.34 1146.67 88.94 1146.50 88.52 C 1145.63 86.39 1144.72 84.44 1143.50 82.50 C 1143.29 82.03 1143.07 81.55 1142.86 81.08 C 1141.85 79.02 1140.29 77.43 1138.75 75.75 C 1138.53 75.50 1138.31 75.26 1138.09 75.00 C 1135.21 71.79 1132.18 68.63 1128.75 66.00 C 1128.32 65.65 1127.90 65.30 1127.47 64.95 C 1120.02 59.03 1110.35 55.44 1101.14 53.41 C 1101.00 53.37 1101.00 53.37 1100.29 53.22 C 1088.33 50.71 1076.30 53.40 1065.25 58.00 Z" fill="#083088"/><path d="M 511.36 13.75 C 514.86 14.05 518.35 14.07 521.86 14.06 C 522.56 14.06 523.25 14.06 523.95 14.06 C 525.85 14.06 527.74 14.06 529.64 14.05 C 531.69 14.05 533.74 14.05 535.79 14.05 C 539.34 14.05 542.89 14.04 546.44 14.04 C 551.57 14.03 556.71 14.03 561.84 14.03 C 570.18 14.02 578.51 14.02 586.85 14.01 C 586.97 14.01 586.97 14.01 587.60 14.01 C 591.39 14.01 595.18 14.00 598.97 14.00 C 603.01 14.00 607.06 13.99 611.11 13.99 C 611.23 13.99 611.23 13.99 611.86 13.99 C 620.42 13.98 628.99 13.98 637.55 13.97 C 642.67 13.97 647.79 13.97 652.92 13.96 C 656.42 13.96 659.93 13.95 663.44 13.95 C 665.46 13.95 667.48 13.95 669.51 13.95 C 671.36 13.94 673.21 13.94 675.06 13.94 C 675.73 13.94 676.40 13.94 677.07 13.94 C 677.98 13.94 678.89 13.94 679.80 13.94 C 680.06 13.94 680.33 13.94 680.59 13.94 C 684.85 13.95 684.85 13.95 686.39 15.25 C 687.62 17.27 687.57 19.53 687.56 21.83 C 687.56 21.98 687.56 21.98 687.57 22.74 C 687.57 23.71 687.57 24.69 687.57 25.67 C 687.57 26.36 687.57 27.04 687.57 27.72 C 687.57 29.16 687.57 30.59 687.56 32.02 C 687.56 33.85 687.56 35.68 687.57 37.51 C 687.57 38.92 687.57 40.33 687.57 41.75 C 687.57 42.42 687.57 43.09 687.57 43.77 C 687.57 44.71 687.57 45.66 687.56 46.60 C 687.56 46.88 687.57 47.15 687.57 47.44 C 687.55 50.20 687.45 53.26 685.42 55.34 C 683.29 56.63 680.64 56.53 678.23 56.53 C 677.98 56.53 677.74 56.53 677.48 56.53 C 676.67 56.53 675.86 56.52 675.04 56.52 C 674.46 56.52 673.87 56.52 673.29 56.52 C 672.03 56.52 670.77 56.51 669.51 56.51 C 667.52 56.51 665.53 56.51 663.55 56.50 C 657.89 56.50 652.23 56.49 646.57 56.48 C 643.45 56.47 640.32 56.47 637.19 56.46 C 635.22 56.46 633.24 56.46 631.26 56.45 C 630.03 56.45 628.80 56.45 627.57 56.45 C 627.00 56.45 626.43 56.45 625.86 56.44 C 625.08 56.44 624.30 56.44 623.52 56.44 C 623.09 56.44 622.65 56.44 622.20 56.44 C 620.65 56.52 619.25 56.61 618.00 57.58 C 616.60 59.46 617.22 62.72 617.37 64.93 C 617.55 68.14 617.59 71.35 617.64 74.56 C 617.64 74.91 617.65 75.27 617.65 75.63 C 617.80 86.13 617.79 96.63 617.78 107.13 C 617.78 109.23 617.78 111.33 617.78 113.43 C 617.78 113.73 617.78 114.03 617.78 114.35 C 617.78 114.96 617.78 115.58 617.78 116.20 C 617.78 121.93 617.78 127.66 617.78 133.39 C 617.78 138.27 617.78 143.15 617.78 148.03 C 617.78 153.74 617.78 159.46 617.78 165.18 C 617.78 165.80 617.78 166.41 617.78 167.02 C 617.78 167.33 617.78 167.63 617.78 167.94 C 617.78 170.03 617.78 172.12 617.78 174.20 C 617.79 195.57 617.79 195.57 617.65 204.96 C 617.65 205.27 617.65 205.57 617.64 205.89 C 617.53 214.81 617.53 214.81 616.00 216.75 C 614.14 218.14 612.21 218.07 609.96 218.03 C 609.67 218.03 609.37 218.03 609.07 218.03 C 608.44 218.02 607.82 218.02 607.19 218.01 C 605.98 218.00 604.78 218.00 603.57 217.99 C 600.27 217.98 596.96 217.96 593.66 217.94 C 591.86 217.93 590.06 217.92 588.25 217.91 C 586.49 217.91 584.73 217.90 582.97 217.89 C 582.30 217.88 581.64 217.88 580.97 217.88 C 580.04 217.87 579.11 217.87 578.19 217.86 C 577.91 217.86 577.64 217.86 577.36 217.86 C 575.49 217.84 574.17 217.64 572.80 216.33 C 571.71 214.69 571.69 212.97 571.69 211.05 C 571.68 210.81 571.68 210.57 571.68 210.32 C 571.68 209.52 571.68 208.71 571.68 207.91 C 571.68 207.32 571.68 206.74 571.68 206.16 C 571.68 204.55 571.68 202.95 571.68 201.34 C 571.68 199.61 571.68 197.88 571.68 196.15 C 571.67 192.76 571.67 189.37 571.67 185.98 C 571.67 183.22 571.67 180.46 571.67 177.70 C 571.67 177.30 571.67 176.91 571.67 176.51 C 571.67 175.71 571.67 174.91 571.67 174.11 C 571.67 166.62 571.67 159.13 571.67 151.64 C 571.67 144.80 571.67 137.96 571.66 131.12 C 571.66 124.09 571.66 117.06 571.66 110.03 C 571.66 106.09 571.66 102.15 571.65 98.20 C 571.65 94.84 571.65 91.48 571.65 88.12 C 571.66 86.41 571.66 84.70 571.65 82.98 C 571.63 70.47 571.63 70.47 572.34 64.33 C 572.59 62.05 572.75 59.89 571.75 57.75 C 570.26 56.71 568.60 56.72 566.84 56.70 C 566.39 56.69 565.95 56.69 565.49 56.68 C 565.00 56.68 564.51 56.68 564.00 56.67 C 563.49 56.67 562.97 56.66 562.45 56.66 C 561.04 56.64 559.63 56.63 558.23 56.62 C 557.34 56.61 556.46 56.60 555.57 56.59 C 547.21 56.52 538.85 56.49 530.48 56.50 C 516.32 56.52 516.32 56.52 509.83 56.44 C 509.17 56.43 508.51 56.42 507.86 56.41 C 506.98 56.41 506.10 56.39 505.21 56.38 C 504.73 56.37 504.25 56.37 503.76 56.36 C 502.13 56.22 500.95 55.95 499.78 54.78 C 495.08 47.87 497.67 30.26 498.19 22.03 C 498.20 21.76 498.22 21.49 498.23 21.22 C 498.42 18.81 498.81 16.51 500.45 14.70 C 503.54 12.63 507.83 13.42 511.36 13.75 Z" fill="#083088"/><path d="M 887.72 13.61 C 892.19 13.77 896.65 13.79 901.11 13.78 C 902.44 13.78 903.76 13.78 905.08 13.78 C 905.94 13.78 906.79 13.78 907.64 13.78 C 908.03 13.78 908.42 13.78 908.83 13.78 C 910.98 13.78 913.10 13.69 915.25 13.50 C 919.88 13.30 919.88 13.30 921.75 14.25 C 922.90 15.54 922.87 16.64 922.87 18.33 C 922.88 18.59 922.88 18.85 922.88 19.12 C 922.88 20.00 922.88 20.88 922.87 21.76 C 922.87 22.40 922.88 23.03 922.88 23.67 C 922.88 25.42 922.88 27.17 922.87 28.92 C 922.87 30.81 922.87 32.70 922.87 34.59 C 922.88 38.30 922.87 42.02 922.87 45.73 C 922.86 50.09 922.86 54.44 922.86 58.80 C 922.86 66.62 922.86 74.45 922.85 82.27 C 922.85 89.77 922.84 97.28 922.84 104.79 C 922.84 105.24 922.84 105.70 922.84 106.17 C 922.84 106.63 922.84 107.08 922.84 107.55 C 922.84 116.17 922.84 124.79 922.84 133.41 C 922.83 135.99 922.83 138.57 922.83 141.15 C 922.83 159.35 922.77 177.55 922.54 195.75 C 922.53 197.00 922.51 198.25 922.50 199.50 C 922.47 201.44 922.45 203.39 922.42 205.33 C 922.41 206.04 922.40 206.75 922.39 207.47 C 922.38 208.44 922.37 209.41 922.35 210.39 C 922.35 210.53 922.35 210.53 922.34 211.24 C 922.27 215.26 922.27 215.26 921.22 216.75 C 919.63 217.85 917.85 217.81 915.98 217.79 C 915.48 217.79 914.99 217.78 914.48 217.78 C 914.22 217.78 913.96 217.77 913.69 217.77 C 912.30 217.76 910.91 217.75 909.52 217.75 C 909.24 217.75 908.97 217.75 908.68 217.75 C 906.19 217.74 903.72 217.80 901.23 217.87 C 897.70 217.98 894.17 218.03 890.63 218.04 C 890.10 218.04 889.58 218.05 889.05 218.05 C 881.24 218.10 881.24 218.10 879.50 216.50 C 878.78 215.06 878.88 213.63 878.84 212.05 C 878.83 211.68 878.82 211.30 878.81 210.92 C 878.78 209.63 878.75 208.35 878.72 207.06 C 878.71 206.84 878.71 206.84 878.69 205.69 C 878.46 195.32 878.44 184.95 878.44 174.57 C 878.44 173.26 878.44 171.95 878.43 170.64 C 878.42 160.81 878.50 151.00 878.96 141.18 C 879.03 139.28 879.05 137.59 878.50 135.75 C 876.13 133.97 872.45 134.69 869.63 134.87 C 867.43 135.00 865.25 135.00 863.06 134.99 C 858.69 134.98 854.33 135.08 849.96 135.21 C 843.53 135.40 837.09 135.54 830.66 135.51 C 823.77 135.49 816.88 135.51 809.99 135.56 C 808.79 135.57 807.58 135.58 806.37 135.59 C 804.93 135.59 803.50 135.60 802.06 135.61 C 801.53 135.62 801.00 135.62 800.46 135.62 C 793.91 135.64 793.91 135.64 792.22 137.23 C 791.04 139.16 791.49 141.60 791.62 143.77 C 791.77 146.34 791.79 148.91 791.80 151.48 C 791.80 151.99 791.81 152.50 791.81 153.00 C 791.82 154.37 791.82 155.74 791.83 157.11 C 791.83 158.57 791.84 160.02 791.84 161.47 C 791.86 163.92 791.87 166.36 791.88 168.81 C 791.89 171.91 791.90 175.00 791.92 178.10 C 791.93 180.80 791.94 183.51 791.95 186.22 C 791.95 187.06 791.96 187.91 791.96 188.75 C 791.98 193.16 791.98 193.16 791.99 195.17 C 791.99 195.43 791.99 195.69 791.99 195.96 C 791.99 196.48 791.99 197.01 791.99 197.53 C 792.00 199.28 792.01 201.03 792.02 202.78 C 792.03 204.02 792.04 205.27 792.04 206.51 C 792.05 207.11 792.05 207.70 792.06 208.30 C 792.07 209.13 792.07 209.95 792.07 210.78 C 792.08 211.25 792.08 211.72 792.09 212.21 C 791.98 213.75 791.77 215.17 790.72 216.34 C 788.69 217.49 786.72 217.63 784.45 217.68 C 784.13 217.69 783.81 217.70 783.48 217.71 C 782.44 217.74 781.40 217.77 780.36 217.80 C 779.63 217.82 778.91 217.84 778.19 217.86 C 772.04 218.02 765.90 218.07 759.75 218.00 C 759.28 217.99 758.81 217.99 758.32 217.98 C 756.96 217.97 755.60 217.95 754.23 217.92 C 753.83 217.92 753.43 217.91 753.01 217.90 C 752.82 217.90 752.82 217.90 751.88 217.88 C 751.56 217.87 751.24 217.86 750.90 217.86 C 749.49 217.69 748.53 217.29 747.55 216.26 C 746.10 214.24 746.21 212.28 746.20 209.88 C 746.20 209.56 746.19 209.24 746.19 208.92 C 746.18 207.86 746.18 206.80 746.17 205.74 C 746.17 204.98 746.16 204.22 746.16 203.46 C 746.14 201.85 746.13 200.23 746.12 198.62 C 746.11 196.64 746.10 194.67 746.08 192.69 C 746.01 182.36 746.00 172.02 746.00 161.69 C 746.01 152.25 745.99 142.82 745.95 133.38 C 745.94 133.08 745.94 132.77 745.94 132.46 C 745.92 127.84 745.90 123.21 745.88 118.59 C 745.63 67.94 745.63 67.94 745.87 48.30 C 745.90 45.81 745.92 43.33 745.95 40.85 C 745.95 40.58 745.95 40.31 745.96 40.04 C 745.99 36.56 746.00 33.08 745.98 29.60 C 745.98 29.21 745.98 28.83 745.98 28.44 C 745.97 26.73 745.95 25.01 745.92 23.30 C 745.92 22.73 745.92 22.15 745.91 21.57 C 745.90 21.08 745.90 20.60 745.89 20.10 C 746.06 17.98 746.65 15.99 748.25 14.50 C 750.27 13.57 752.55 13.71 754.73 13.71 C 755.06 13.71 755.38 13.71 755.71 13.71 C 756.78 13.71 757.85 13.71 758.91 13.71 C 759.66 13.71 760.40 13.71 761.15 13.70 C 762.71 13.70 764.27 13.70 765.83 13.70 C 767.82 13.70 769.82 13.70 771.81 13.69 C 773.35 13.69 774.89 13.69 776.43 13.69 C 777.16 13.69 777.90 13.69 778.63 13.69 C 788.46 13.66 788.46 13.66 790.75 15.00 C 792.32 16.57 792.77 17.85 792.81 20.03 C 792.81 20.63 792.80 21.22 792.80 21.81 C 792.80 21.95 792.80 21.95 792.80 22.68 C 792.79 24.34 792.73 26.00 792.63 27.66 C 792.45 30.90 792.42 34.15 792.38 37.41 C 792.36 38.34 792.35 39.28 792.33 40.22 C 792.33 40.80 792.32 41.37 792.31 41.95 C 792.29 43.59 792.23 45.22 792.16 46.85 C 792.00 50.38 791.98 53.90 792.00 57.43 C 792.01 58.47 792.02 59.50 792.02 60.53 C 792.03 63.46 792.04 66.39 792.06 69.32 C 792.07 71.13 792.08 72.94 792.09 74.74 C 792.09 75.42 792.09 76.10 792.10 76.78 C 792.13 80.74 791.92 84.50 791.22 88.39 C 790.91 90.29 790.74 91.81 791.75 93.50 C 794.44 95.36 798.02 95.03 801.17 95.13 C 801.50 95.14 801.83 95.15 802.18 95.16 C 806.77 95.30 811.37 95.34 815.97 95.39 C 816.45 95.39 816.92 95.40 817.42 95.41 C 824.35 95.48 831.28 95.55 838.22 95.51 C 839.44 95.50 840.66 95.49 841.88 95.49 C 844.19 95.47 846.49 95.46 848.80 95.44 C 850.09 95.43 851.39 95.42 852.68 95.41 C 858.24 95.38 863.77 95.25 869.32 94.89 C 869.80 94.86 870.28 94.83 870.77 94.80 C 876.87 94.37 876.87 94.37 878.25 93.00 C 878.85 91.56 878.72 90.42 878.53 88.89 C 877.69 80.43 878.26 71.73 878.39 63.23 C 878.48 57.52 878.55 51.81 878.60 46.09 C 878.63 42.73 878.67 39.37 878.71 36.01 C 878.73 33.76 878.75 31.51 878.77 29.26 C 878.79 27.47 878.81 25.69 878.83 23.91 C 878.84 23.29 878.85 22.67 878.85 22.05 C 878.86 21.21 878.87 20.38 878.88 19.54 C 878.89 19.09 878.89 18.63 878.90 18.17 C 879.02 16.73 879.30 15.70 880.33 14.67 C 882.60 13.25 885.16 13.50 887.72 13.61 Z" fill="#083088"/></g>
  <g id="tagline"><path d="M 20.47 263.58 C 21.50 263.75 21.50 263.75 22.25 264.50 C 22.63 265.66 22.52 266.84 22.51 268.04 C 22.49 271.63 22.54 275.22 22.59 278.81 C 22.61 279.86 22.62 280.92 22.64 281.97 C 22.65 282.64 22.66 283.32 22.67 283.99 C 22.68 284.30 22.68 284.62 22.68 284.94 C 22.70 286.09 22.72 287.14 23.00 288.25 C 24.72 288.57 26.42 288.52 28.16 288.50 C 30.44 288.49 32.73 288.49 35.02 288.56 C 35.22 288.57 35.22 288.57 36.26 288.60 C 37.25 288.75 37.25 288.75 38.25 289.75 C 38.42 290.52 38.42 290.52 38.47 291.36 C 38.48 291.50 38.48 291.50 38.53 292.20 C 38.48 293.44 38.12 294.13 37.25 295.00 C 36.44 295.02 36.44 295.02 35.45 294.92 C 33.40 294.75 31.39 294.73 29.34 294.76 C 28.62 294.77 27.89 294.77 27.17 294.78 C 26.05 294.79 24.92 294.80 23.80 294.81 C 22.70 294.83 21.61 294.83 20.51 294.84 C 20.34 294.84 20.34 294.84 19.49 294.86 C 19.18 294.86 18.86 294.86 18.54 294.86 C 18.27 294.86 17.99 294.87 17.71 294.87 C 17.00 294.75 17.00 294.75 16.00 293.75 C 14.63 291.01 15.46 285.99 15.46 282.96 C 15.46 282.72 15.46 282.72 15.46 281.49 C 15.45 280.48 15.45 279.47 15.45 278.46 C 15.45 277.17 15.45 275.88 15.45 274.59 C 15.44 273.35 15.44 272.10 15.44 270.86 C 15.44 270.63 15.44 270.63 15.44 269.46 C 15.44 269.03 15.44 268.60 15.44 268.16 C 15.44 267.79 15.44 267.41 15.44 267.02 C 15.50 266.01 15.63 265.20 16.00 264.25 C 17.47 263.15 18.69 263.46 20.47 263.58 Z" fill="#083088"/><path d="M 63.14 263.46 C 63.54 263.46 63.94 263.45 64.35 263.45 C 64.78 263.45 65.22 263.45 65.67 263.45 C 66.11 263.45 66.56 263.45 67.02 263.44 C 67.96 263.44 68.90 263.44 69.84 263.44 C 71.29 263.44 72.73 263.43 74.17 263.42 C 75.09 263.42 76.00 263.42 76.92 263.42 C 77.35 263.41 77.78 263.41 78.23 263.41 C 78.63 263.41 79.04 263.41 79.45 263.41 C 79.81 263.41 80.16 263.41 80.53 263.41 C 81.58 263.51 82.32 263.75 83.25 264.25 C 83.95 265.30 83.83 266.00 83.75 267.25 C 83.49 268.34 83.49 268.34 83.00 269.25 C 81.45 270.19 79.86 270.08 78.10 270.03 C 77.48 270.02 76.86 270.01 76.25 270.00 C 75.28 269.99 74.31 269.97 73.34 269.95 C 72.40 269.93 71.46 269.91 70.52 269.90 C 70.23 269.89 69.94 269.89 69.64 269.88 C 68.82 269.87 68.82 269.87 67.50 270.00 C 66.48 271.70 66.60 272.97 66.97 274.89 C 67.06 275.17 67.16 275.46 67.25 275.75 C 68.15 276.20 69.21 276.05 70.20 276.06 C 70.70 276.07 71.21 276.08 71.71 276.09 C 72.50 276.10 73.30 276.11 74.09 276.12 C 74.86 276.13 75.62 276.14 76.39 276.15 C 76.85 276.16 77.30 276.17 77.78 276.17 C 78.86 276.24 79.74 276.37 80.75 276.75 C 81.15 277.54 81.06 278.34 81.08 279.22 C 81.08 279.40 81.08 279.40 81.11 280.29 C 81.00 281.25 81.00 281.25 80.00 282.25 C 79.06 282.35 78.18 282.39 77.24 282.38 C 76.97 282.39 76.70 282.39 76.43 282.39 C 75.56 282.40 74.70 282.40 73.84 282.41 C 72.98 282.41 72.12 282.41 71.26 282.42 C 70.72 282.43 70.19 282.43 69.65 282.43 C 67.81 282.44 67.81 282.44 67.25 283.00 C 67.21 283.88 67.21 284.77 67.22 285.66 C 67.22 286.14 67.23 286.62 67.23 287.12 C 67.24 287.49 67.24 287.86 67.25 288.25 C 68.62 288.52 69.90 288.53 71.29 288.51 C 71.56 288.51 71.83 288.51 72.11 288.51 C 73.26 288.51 74.42 288.50 75.58 288.49 C 76.42 288.49 77.27 288.49 78.12 288.48 C 78.24 288.48 78.24 288.48 78.90 288.48 C 81.67 288.47 81.67 288.47 83.00 288.75 C 84.13 289.88 84.15 290.08 84.16 291.61 C 84.17 291.93 84.17 292.26 84.18 292.59 C 84.00 293.50 84.00 293.50 83.46 294.17 C 81.99 295.06 80.60 294.91 78.91 294.88 C 78.56 294.88 78.21 294.88 77.84 294.88 C 76.71 294.87 75.58 294.86 74.45 294.84 C 73.71 294.84 72.96 294.84 72.21 294.83 C 70.14 294.82 68.07 294.79 66.00 294.75 C 65.87 294.75 65.87 294.75 65.19 294.74 C 64.51 294.72 63.84 294.70 63.16 294.68 C 62.81 294.67 62.45 294.66 62.09 294.65 C 61.25 294.50 61.25 294.50 60.25 293.50 C 59.78 292.56 59.96 291.42 59.96 290.39 C 59.96 290.12 59.96 289.85 59.96 289.57 C 59.95 288.67 59.95 287.77 59.95 286.87 C 59.95 286.25 59.95 285.62 59.95 285.00 C 59.94 283.69 59.94 282.38 59.94 281.07 C 59.94 279.39 59.93 277.71 59.93 276.03 C 59.92 274.74 59.92 273.45 59.92 272.16 C 59.92 271.54 59.92 270.92 59.91 270.30 C 59.91 269.44 59.91 268.57 59.91 267.70 C 59.91 267.21 59.91 266.72 59.91 266.21 C 60.00 265.00 60.00 265.00 60.75 263.75 C 61.53 263.36 62.27 263.46 63.14 263.46 Z" fill="#083088"/><path d="M 121.33 263.42 C 121.53 263.42 121.53 263.42 122.58 263.41 C 123.77 263.50 124.49 263.62 125.50 264.25 C 126.07 265.11 126.07 265.11 126.53 266.14 C 126.70 266.50 126.87 266.86 127.04 267.23 C 127.11 267.40 127.11 267.40 127.50 268.25 C 127.73 268.70 127.97 269.15 128.20 269.59 C 128.77 270.79 129.12 271.98 129.50 273.25 C 129.91 274.09 130.32 274.92 130.75 275.75 C 131.30 276.98 131.78 278.24 132.25 279.50 C 132.81 280.82 133.40 282.13 133.98 283.44 C 134.54 284.67 135.05 285.88 135.50 287.16 C 136.07 288.69 136.80 290.10 137.57 291.55 C 138.00 292.50 138.23 293.21 138.25 294.25 C 137.50 295.00 137.50 295.00 136.61 295.10 C 136.26 295.10 135.91 295.10 135.55 295.09 C 135.37 295.09 135.37 295.09 134.50 295.10 C 133.45 294.99 132.86 294.85 132.00 294.25 C 131.51 293.49 131.51 293.49 131.09 292.59 C 130.95 292.28 130.80 291.97 130.65 291.65 C 130.33 290.92 130.04 290.18 129.77 289.44 C 129.25 288.50 129.25 288.50 128.35 288.19 C 127.26 288.00 126.27 287.94 125.17 287.94 C 124.79 287.94 124.40 287.94 124.00 287.94 C 123.60 287.95 123.20 287.95 122.78 287.95 C 122.38 287.95 121.98 287.95 121.57 287.95 C 116.14 287.97 116.14 287.97 115.06 288.73 C 114.12 290.02 113.29 291.37 112.63 292.83 C 112.07 293.82 111.27 294.49 110.25 295.00 C 106.67 295.26 106.67 295.26 105.50 294.25 C 105.17 293.10 105.21 292.59 105.69 291.49 C 105.90 291.14 106.10 290.78 106.31 290.42 C 107.18 288.87 107.75 287.46 108.25 285.75 C 108.72 284.75 109.22 283.77 109.72 282.79 C 111.78 278.75 111.78 278.75 112.36 276.77 C 112.83 275.23 113.53 273.88 114.27 272.46 C 114.91 271.18 115.44 269.97 115.81 268.59 C 116.35 266.96 117.03 265.43 118.00 264.00 C 119.20 263.40 119.99 263.42 121.33 263.42 Z M 120.98 273.95 C 119.18 276.02 117.96 278.55 118.02 281.35 C 118.06 281.45 118.06 281.45 118.25 282.00 C 120.47 282.89 122.46 282.86 124.75 282.25 C 125.25 281.75 125.25 281.75 125.33 280.99 C 125.23 279.77 124.88 278.78 124.45 277.62 C 124.31 277.22 124.16 276.81 124.01 276.40 C 123.52 275.30 123.03 274.42 122.25 273.50 C 121.50 273.50 121.50 273.50 120.98 273.95 Z" fill="#083088"/><path d="M 162.88 263.35 C 163.22 263.35 163.55 263.34 163.89 263.33 C 164.07 263.33 164.07 263.33 164.98 263.33 C 165.35 263.33 165.72 263.32 166.11 263.32 C 166.90 263.32 167.69 263.31 168.48 263.31 C 169.67 263.31 170.87 263.29 172.07 263.27 C 176.58 263.24 179.96 263.35 183.53 266.37 C 186.33 269.78 186.62 271.96 186.25 276.25 C 185.92 279.14 184.34 280.82 182.25 282.75 C 182.09 282.83 182.09 282.83 181.25 283.25 C 180.94 284.81 181.20 285.15 182.00 286.50 C 182.64 287.35 183.32 288.18 184.00 289.00 C 185.01 290.28 185.88 291.49 186.50 293.00 C 186.25 294.25 186.25 294.25 185.69 294.70 C 183.99 295.24 182.27 295.18 180.55 294.78 C 179.35 293.98 178.59 292.89 177.75 291.75 C 177.33 291.21 176.91 290.68 176.48 290.14 C 175.69 289.11 174.96 288.07 174.28 286.97 C 173.50 285.75 173.50 285.75 172.50 285.00 C 171.44 284.90 171.44 284.90 170.23 284.91 C 169.83 284.90 169.43 284.90 169.02 284.90 C 168.00 285.00 168.00 285.00 167.25 285.75 C 167.15 286.50 167.15 286.50 167.15 287.42 C 167.14 287.75 167.14 288.08 167.13 288.42 C 167.13 288.77 167.13 289.11 167.13 289.47 C 167.12 290.15 167.11 290.83 167.10 291.51 C 167.10 291.82 167.10 292.12 167.10 292.43 C 167.00 293.25 167.00 293.25 166.25 294.50 C 165.26 295.16 164.69 295.03 163.52 294.97 C 163.16 294.95 162.81 294.94 162.45 294.92 C 161.50 294.75 161.50 294.75 160.50 293.75 C 160.23 292.40 160.21 291.18 160.21 289.80 C 160.20 289.53 160.20 289.26 160.20 288.98 C 160.20 288.08 160.19 287.18 160.19 286.29 C 160.19 285.98 160.19 285.67 160.19 285.36 C 160.18 283.74 160.18 282.12 160.18 280.50 C 160.17 278.82 160.17 277.14 160.16 275.47 C 160.15 274.18 160.15 272.89 160.15 271.61 C 160.14 270.99 160.14 270.37 160.14 269.75 C 160.13 268.89 160.13 268.03 160.13 267.16 C 160.13 266.67 160.13 266.18 160.13 265.67 C 160.32 263.80 161.14 263.38 162.88 263.35 Z M 167.00 271.00 C 166.91 272.06 166.87 273.05 166.89 274.11 C 166.89 274.39 166.89 274.67 166.89 274.97 C 166.90 276.45 166.97 277.20 167.75 278.50 C 168.48 278.66 168.48 278.66 169.37 278.66 C 169.69 278.66 170.01 278.66 170.35 278.66 C 170.69 278.65 171.03 278.65 171.38 278.64 C 171.71 278.64 172.04 278.65 172.38 278.65 C 174.75 278.63 177.00 278.47 178.78 276.73 C 179.63 275.41 179.58 274.31 179.50 272.75 C 179.06 271.44 178.45 270.91 177.25 270.25 C 175.57 269.83 173.85 269.93 172.13 269.92 C 171.74 269.91 171.36 269.91 170.97 269.90 C 170.61 269.90 170.24 269.89 169.87 269.89 C 169.70 269.89 169.70 269.89 168.86 269.88 C 168.00 270.00 168.00 270.00 167.00 271.00 Z" fill="#083088"/><path d="M 212.94 263.33 C 214.53 263.37 215.31 263.39 216.69 264.20 C 217.49 265.23 218.27 266.26 219.01 267.33 C 219.50 268.00 219.50 268.00 220.39 269.02 C 221.17 269.91 221.83 270.83 222.50 271.81 C 223.08 272.61 223.72 273.34 224.38 274.08 C 225.51 275.40 226.31 276.71 227.09 278.26 C 227.69 279.34 228.37 280.14 229.25 281.00 C 229.41 281.04 229.41 281.04 230.25 281.25 C 230.50 281.00 230.50 281.00 230.52 279.62 C 230.52 279.00 230.51 278.37 230.51 277.75 C 230.50 277.07 230.50 276.40 230.50 275.72 C 230.49 274.65 230.49 273.58 230.47 272.51 C 230.47 271.48 230.47 270.45 230.46 269.42 C 230.46 269.26 230.46 269.26 230.45 268.45 C 230.45 268.15 230.45 267.85 230.45 267.54 C 230.44 267.28 230.44 267.02 230.44 266.75 C 230.55 265.43 230.81 264.69 231.75 263.75 C 233.40 263.20 235.13 263.44 236.75 264.00 C 237.73 265.31 237.60 266.03 237.60 267.66 C 237.60 267.93 237.60 268.20 237.60 268.48 C 237.61 269.38 237.61 270.27 237.61 271.17 C 237.61 271.79 237.61 272.42 237.61 273.04 C 237.62 274.34 237.62 275.65 237.61 276.96 C 237.61 278.63 237.61 280.30 237.62 281.98 C 237.62 283.26 237.62 284.55 237.62 285.84 C 237.62 286.45 237.62 287.07 237.63 287.69 C 237.63 288.55 237.63 289.41 237.62 290.28 C 237.62 290.77 237.62 291.26 237.62 291.76 C 237.50 293.02 237.32 293.57 236.50 294.50 C 235.44 295.03 234.16 294.87 233.00 294.75 C 230.98 293.90 229.81 292.18 228.50 290.50 C 228.26 290.21 228.03 289.91 227.78 289.61 C 226.79 288.36 225.83 287.13 224.95 285.80 C 224.28 284.79 223.55 283.95 222.74 283.06 C 221.98 282.19 221.38 281.21 220.75 280.25 C 220.18 279.58 219.59 278.91 219.00 278.25 C 218.82 278.01 218.65 277.77 218.47 277.52 C 218.00 277.00 218.00 277.00 216.75 276.75 C 216.50 278.61 216.48 280.42 216.50 282.29 C 216.51 282.93 216.51 283.57 216.51 284.20 C 216.52 285.20 216.53 286.20 216.54 287.19 C 216.55 288.16 216.56 289.12 216.56 290.09 C 216.57 290.39 216.57 290.69 216.58 290.99 C 216.58 292.48 216.53 293.19 215.75 294.50 C 214.90 294.93 213.97 294.81 213.03 294.83 C 212.63 294.84 212.23 294.85 211.81 294.86 C 210.75 294.75 210.75 294.75 209.75 293.75 C 209.60 292.87 209.60 292.87 209.56 291.80 C 209.55 291.40 209.54 290.99 209.53 290.58 C 209.52 290.14 209.51 289.70 209.50 289.25 C 209.49 288.80 209.48 288.36 209.47 287.90 C 209.46 286.41 209.44 284.92 209.44 283.43 C 209.44 283.16 209.44 282.90 209.44 282.62 C 209.43 281.21 209.43 279.80 209.43 278.39 C 209.42 276.94 209.41 275.48 209.41 274.03 C 209.40 272.91 209.40 271.78 209.40 270.66 C 209.40 270.13 209.39 269.59 209.39 269.05 C 209.38 268.31 209.38 267.56 209.38 266.81 C 209.38 266.39 209.38 265.97 209.38 265.53 C 209.64 263.32 211.05 263.35 212.94 263.33 Z" fill="#083088"/><path d="M 482.17 265.27 C 483.45 266.13 484.47 267.11 485.55 268.20 C 485.74 268.39 485.94 268.59 486.14 268.78 C 487.98 270.64 489.00 272.10 489.25 274.75 C 489.42 275.15 489.59 275.54 489.77 275.95 C 490.70 278.46 490.28 280.48 489.50 282.95 C 489.25 283.75 489.25 283.75 489.03 284.80 C 488.11 287.93 486.11 290.11 483.50 292.00 C 483.00 292.26 482.50 292.51 482.00 292.75 C 481.81 292.91 481.63 293.06 481.43 293.23 C 478.71 295.31 475.25 295.16 472.00 295.00 C 471.51 294.98 471.02 294.97 470.52 294.95 C 468.31 294.60 466.48 293.90 464.75 292.50 C 464.51 292.39 464.27 292.27 464.02 292.16 C 461.88 291.02 460.15 288.58 459.00 286.50 C 458.75 286.09 458.50 285.67 458.25 285.25 C 458.07 284.28 457.93 283.34 457.81 282.36 C 457.78 282.10 457.74 281.85 457.71 281.58 C 457.48 279.75 457.56 278.08 457.75 276.25 C 457.76 275.78 457.78 275.31 457.80 274.83 C 458.03 273.28 458.56 272.49 459.50 271.25 C 459.67 270.98 459.85 270.71 460.03 270.44 C 460.49 269.76 460.98 269.13 461.50 268.50 C 461.59 268.38 461.59 268.38 462.03 267.80 C 464.13 265.46 466.57 263.89 469.77 263.68 C 470.42 263.68 471.06 263.70 471.70 263.73 C 479.80 263.93 479.80 263.93 482.17 265.27 Z M 470.75 269.50 C 470.51 269.52 470.28 269.54 470.03 269.56 C 467.92 270.07 466.13 272.52 465.00 274.25 C 463.68 276.79 463.67 279.19 464.00 282.00 C 464.71 283.92 465.64 285.26 467.25 286.50 C 467.33 286.62 467.33 286.62 467.77 287.23 C 469.74 289.30 472.45 289.50 475.17 289.58 C 476.59 289.47 477.26 289.01 478.25 288.00 C 478.50 287.89 478.74 287.77 479.00 287.66 C 481.35 286.38 482.56 284.17 483.50 281.75 C 483.71 280.69 483.74 279.95 483.62 278.87 C 483.50 277.75 483.50 277.75 483.73 276.91 C 483.77 275.06 482.23 273.75 481.02 272.49 C 478.72 270.28 476.55 269.37 473.33 269.20 C 472.45 269.25 471.61 269.36 470.75 269.50 Z" fill="#083088"/><path d="M 376.24 263.51 C 379.52 263.56 382.42 263.64 385.33 265.34 C 385.57 265.49 385.82 265.63 386.08 265.77 C 386.80 266.28 387.26 266.77 387.75 267.50 C 387.96 268.71 387.77 269.22 387.19 270.31 C 386.50 271.25 386.50 271.25 385.50 272.00 C 383.80 272.03 382.65 271.12 381.25 270.25 C 379.61 269.48 378.32 269.43 376.52 269.53 C 376.05 269.55 375.58 269.57 375.10 269.60 C 372.42 269.90 370.78 270.77 369.00 272.75 C 368.39 273.78 368.39 273.78 368.00 274.75 C 367.86 275.02 367.71 275.29 367.56 275.56 C 367.12 276.90 367.22 278.09 367.25 279.50 C 367.17 279.91 367.09 280.33 367.00 280.75 C 366.82 282.27 366.86 282.81 367.80 284.06 C 368.11 284.37 368.43 284.68 368.75 285.00 C 368.96 285.22 369.16 285.43 369.38 285.66 C 372.12 288.26 374.05 289.10 377.79 289.07 C 379.66 288.93 381.60 288.29 383.00 287.00 C 383.47 285.53 383.09 284.22 382.75 282.75 C 381.25 282.46 379.80 282.51 378.28 282.56 C 377.50 282.50 377.50 282.50 376.75 281.75 C 376.35 280.56 376.42 279.50 376.50 278.25 C 376.94 277.45 376.94 277.45 377.75 277.00 C 378.77 276.91 379.73 276.96 380.75 277.00 C 381.08 276.92 381.41 276.84 381.75 276.75 C 382.87 276.68 384.00 276.68 385.13 276.67 C 385.43 276.67 385.74 276.66 386.06 276.65 C 386.21 276.65 386.21 276.65 386.96 276.64 C 387.23 276.64 387.50 276.64 387.78 276.63 C 388.50 276.75 388.50 276.75 389.50 277.75 C 389.70 279.37 389.68 281.00 389.67 282.63 C 389.67 283.43 389.69 284.23 389.70 285.04 C 389.70 285.55 389.71 286.06 389.71 286.57 C 389.71 286.81 389.71 286.81 389.71 287.98 C 389.38 289.96 388.25 290.86 386.72 292.05 C 385.50 292.75 384.32 293.25 383.00 293.73 C 382.25 294.00 382.25 294.00 381.31 294.44 C 377.86 295.76 373.39 295.26 370.00 294.00 C 369.67 293.88 369.34 293.76 369.00 293.64 C 368.13 293.19 367.48 292.66 366.75 292.00 C 366.41 291.71 366.07 291.42 365.72 291.13 C 364.96 290.44 364.37 289.81 363.75 289.00 C 363.55 288.81 363.35 288.63 363.14 288.44 C 360.63 285.75 360.65 282.34 360.71 278.86 C 360.99 271.91 360.99 271.91 363.53 269.52 C 363.77 269.35 364.01 269.18 364.25 269.00 C 364.42 268.79 364.58 268.58 364.75 268.36 C 365.33 267.65 365.99 267.26 366.75 266.75 C 366.90 266.55 367.05 266.36 367.20 266.15 C 368.44 264.68 370.35 263.91 372.21 263.57 C 373.56 263.48 374.89 263.49 376.24 263.51 Z" fill="#083088"/><path d="M 414.22 263.63 C 414.36 263.63 414.36 263.63 415.02 263.64 C 415.30 263.65 415.58 263.65 415.86 263.65 C 416.75 263.65 417.63 263.66 418.52 263.67 C 419.10 263.68 419.68 263.68 420.26 263.68 C 421.67 263.69 423.07 263.71 424.48 263.74 C 425.20 263.75 425.93 263.76 426.65 263.77 C 428.81 263.83 430.42 263.90 432.23 265.19 C 432.39 265.30 432.39 265.30 433.19 265.84 C 434.24 266.70 434.88 267.33 435.25 268.64 C 435.50 269.50 435.50 269.50 436.50 270.50 C 437.23 273.53 437.25 276.27 435.72 279.05 C 434.56 280.79 433.13 282.08 431.25 283.00 C 431.38 285.07 431.86 286.02 433.20 287.55 C 434.01 288.52 434.67 289.51 435.32 290.59 C 435.75 291.25 435.75 291.25 436.29 291.91 C 436.85 292.63 436.98 293.10 437.00 294.00 C 436.00 295.00 435.47 294.87 434.08 294.89 C 432.61 294.86 431.87 294.82 430.56 294.13 C 429.71 293.21 428.97 292.28 428.25 291.25 C 428.02 290.95 427.80 290.65 427.56 290.34 C 426.63 289.09 425.74 287.82 424.84 286.54 C 423.59 284.86 423.59 284.86 422.50 284.50 C 421.83 284.46 421.17 284.43 420.50 284.42 C 420.14 284.41 419.79 284.40 419.42 284.39 C 419.12 284.43 418.81 284.46 418.50 284.50 C 417.66 285.62 417.67 285.87 417.72 287.20 C 417.75 288.43 417.69 289.54 417.50 290.75 C 417.53 291.13 417.56 291.50 417.59 291.89 C 417.50 293.00 417.50 293.00 416.78 293.89 C 415.49 294.65 414.73 294.69 413.25 294.50 C 412.50 294.16 412.50 294.16 412.00 293.50 C 411.38 291.35 411.39 289.25 411.64 287.03 C 411.75 286.00 411.75 286.00 411.50 284.75 C 411.50 284.21 411.51 283.68 411.54 283.14 C 411.55 282.84 411.57 282.53 411.58 282.21 C 411.59 281.89 411.59 281.89 411.67 280.29 C 411.68 279.98 411.70 279.68 411.71 279.36 C 411.72 279.08 411.74 278.80 411.75 278.52 C 411.75 277.75 411.75 277.75 411.50 276.50 C 411.47 275.48 411.45 274.52 411.63 273.52 C 412.03 271.01 411.57 268.46 411.26 265.96 C 411.26 265.56 411.25 265.16 411.25 264.75 C 412.37 263.63 412.71 263.64 414.22 263.63 Z M 417.00 270.50 C 417.00 271.42 417.03 272.32 417.06 273.24 C 417.07 273.49 417.08 273.74 417.08 274.00 C 417.15 275.69 417.37 277.18 418.00 278.75 C 420.39 279.71 423.30 279.48 425.75 278.75 C 426.00 278.68 426.26 278.61 426.52 278.53 C 428.29 277.99 429.23 277.53 430.31 275.91 C 430.75 275.00 430.75 275.00 430.75 273.50 C 429.31 270.75 429.31 270.75 428.00 270.00 C 426.19 269.62 424.33 269.63 422.48 269.56 C 422.30 269.55 422.30 269.55 421.38 269.51 C 421.03 269.50 420.68 269.49 420.32 269.47 C 420.16 269.47 420.16 269.47 419.35 269.43 C 418.38 269.51 417.73 269.78 417.00 270.50 Z" fill="#083088"/><path d="M 509.25 263.75 C 510.00 263.81 510.74 263.87 511.49 263.95 C 512.25 264.00 512.25 264.00 513.25 263.83 C 513.50 263.80 513.75 263.78 514.00 263.75 C 515.10 264.85 515.18 265.28 515.50 266.75 C 515.74 267.42 516.00 268.09 516.25 268.75 C 517.08 270.93 517.74 273.09 518.25 275.38 C 518.50 276.25 518.50 276.25 519.25 277.50 C 519.42 278.41 519.59 279.33 519.75 280.25 C 520.16 281.30 520.16 281.30 520.50 282.00 C 521.20 281.95 521.20 281.95 522.00 281.75 C 522.70 280.59 522.84 280.23 522.95 278.97 C 523.15 277.47 523.62 276.45 524.38 275.16 C 524.94 274.16 525.20 273.09 525.50 272.00 C 525.66 271.67 525.83 271.34 526.00 271.00 C 526.12 270.50 526.23 270.00 526.33 269.50 C 527.27 265.30 527.27 265.30 529.00 264.00 C 529.99 263.88 529.99 263.88 531.12 263.88 C 531.50 263.87 531.87 263.86 532.26 263.85 C 533.25 264.00 533.25 264.00 533.83 264.51 C 534.32 265.38 534.67 266.23 535.00 267.17 C 535.41 268.32 535.83 269.44 536.30 270.56 C 536.65 271.49 536.90 272.32 537.12 273.28 C 537.34 274.21 537.57 274.88 538.00 275.75 C 538.52 276.79 538.79 277.81 539.06 278.94 C 539.26 279.81 539.49 280.67 539.74 281.53 C 539.81 281.80 539.88 282.07 539.96 282.34 C 540.25 283.00 540.25 283.00 541.25 283.50 C 542.17 282.58 542.23 282.51 542.33 281.22 C 542.50 280.00 542.50 280.00 542.99 279.08 C 543.48 278.05 543.61 277.40 543.74 276.28 C 543.93 274.63 544.50 273.48 545.25 272.00 C 545.41 271.16 545.51 270.32 545.62 269.48 C 545.78 268.56 546.23 268.01 546.75 267.25 C 546.84 266.42 546.93 265.59 547.00 264.75 C 547.75 264.00 547.75 264.00 548.57 263.94 C 548.74 263.94 548.74 263.94 549.55 263.97 C 550.64 263.99 551.60 263.98 552.69 263.83 C 552.95 263.80 553.22 263.78 553.50 263.75 C 553.75 264.00 554.00 264.24 554.25 264.50 C 553.71 265.59 553.15 266.20 552.25 267.00 C 551.84 267.08 551.43 267.16 551.00 267.25 C 550.92 267.50 550.83 267.75 550.75 268.00 C 551.16 268.08 551.57 268.16 552.00 268.25 C 552.08 268.33 552.17 268.41 552.25 268.50 C 552.13 270.47 551.59 272.12 550.88 273.95 C 550.21 275.71 549.63 277.40 549.25 279.25 C 549.00 279.83 548.75 280.42 548.50 281.00 C 548.47 281.17 548.47 281.17 548.30 282.05 C 548.04 283.09 547.75 283.78 547.25 284.72 C 546.51 286.12 546.26 287.43 546.00 289.00 C 545.67 289.67 545.33 290.33 545.00 291.00 C 544.96 291.39 544.92 291.78 544.88 292.19 C 544.75 293.25 544.75 293.25 543.75 294.25 C 542.30 294.83 541.04 294.92 539.50 294.75 C 538.35 294.19 538.08 293.91 537.50 292.75 C 537.47 292.60 537.47 292.60 537.30 291.83 C 537.00 290.75 537.00 290.75 536.36 289.66 C 535.68 288.37 535.63 287.43 535.50 286.00 C 535.19 285.33 534.85 284.66 534.50 284.00 C 534.23 283.24 533.98 282.47 533.74 281.70 C 533.50 281.00 533.50 281.00 533.10 280.09 C 532.65 279.01 532.48 277.90 532.25 276.75 C 532.08 276.59 531.92 276.42 531.75 276.25 C 531.34 276.33 530.93 276.41 530.50 276.50 C 529.88 277.64 529.50 278.76 529.12 280.00 C 528.76 281.23 528.27 282.33 527.75 283.50 C 527.64 283.86 527.53 284.23 527.42 284.61 C 526.64 287.20 525.78 289.76 524.25 292.00 C 524.18 292.30 524.10 292.60 524.03 292.91 C 523.75 293.75 523.75 293.75 523.14 294.36 C 521.55 295.06 520.09 294.95 518.47 294.41 C 517.13 293.50 517.04 292.69 516.67 291.14 C 516.31 289.65 516.04 288.57 515.25 287.25 C 514.99 286.34 514.74 285.42 514.50 284.50 C 514.38 284.17 514.25 283.85 514.12 283.52 C 513.81 282.67 513.59 281.88 513.39 281.00 C 513.09 279.72 512.60 278.67 512.00 277.50 C 511.83 276.84 511.66 276.17 511.50 275.50 C 511.44 275.39 511.44 275.39 511.12 274.81 C 510.68 273.84 510.56 272.88 510.40 271.82 C 510.19 270.68 509.84 269.61 509.49 268.51 C 509.04 267.07 508.75 265.76 508.75 264.25 C 508.91 264.09 509.08 263.92 509.25 263.75 Z M 548.50 267.25 C 548.50 267.50 548.50 267.75 548.50 268.00 C 548.75 267.92 549.00 267.84 549.25 267.75 C 549.17 267.59 549.08 267.42 549.00 267.25 C 548.83 267.25 548.67 267.25 548.50 267.25 Z" fill="#083088"/><path d="M 302.27 273.79 C 303.50 274.43 304.51 275.07 305.25 276.25 C 305.43 276.51 305.61 276.77 305.80 277.03 C 306.53 278.19 306.52 278.98 306.45 280.33 C 306.44 280.65 306.42 280.98 306.41 281.31 C 306.14 282.88 305.44 283.59 304.22 284.58 C 302.88 285.51 302.14 285.61 300.50 285.75 C 300.23 285.78 299.97 285.80 299.70 285.83 C 298.15 285.92 297.46 285.89 296.14 284.98 C 295.85 284.66 295.55 284.33 295.25 284.00 C 294.97 283.69 294.68 283.38 294.39 283.06 C 293.38 281.78 293.38 280.86 293.50 279.25 C 294.09 277.13 294.94 275.82 296.75 274.50 C 297.02 274.30 297.29 274.10 297.56 273.89 C 299.16 273.23 300.67 273.18 302.27 273.79 Z" fill="#083088"/><path d="M 619.17 274.27 C 621.13 275.60 622.02 277.27 622.75 279.50 C 623.06 281.26 622.23 282.33 621.25 283.75 C 620.02 285.05 618.32 285.67 616.56 285.84 C 614.42 285.88 613.14 285.70 611.44 284.36 C 610.10 282.69 610.09 280.57 610.25 278.50 C 610.84 276.64 611.68 275.65 613.25 274.50 C 615.47 273.38 616.89 273.26 619.17 274.27 Z" fill="#083088"/><path d="M 732.95 263.34 C 733.79 264.34 733.78 264.83 733.77 266.12 C 733.77 266.29 733.77 266.29 733.76 267.15 C 733.76 267.33 733.76 267.33 733.75 268.27 C 733.74 269.05 733.74 269.84 733.74 270.62 C 733.73 271.85 733.72 273.09 733.71 274.32 C 733.70 275.52 733.69 276.71 733.69 277.90 C 733.68 278.26 733.68 278.63 733.67 279.00 C 733.67 281.48 733.73 284.43 735.25 286.50 C 737.22 287.82 738.63 288.46 741.00 288.25 C 742.57 287.65 743.74 287.10 744.75 285.75 C 746.27 282.18 746.01 278.29 746.04 274.47 C 746.05 274.19 746.05 273.91 746.05 273.62 C 746.07 272.46 746.08 271.30 746.08 270.14 C 746.09 269.28 746.10 268.42 746.11 267.56 C 746.11 267.30 746.11 267.04 746.11 266.77 C 746.13 265.31 746.26 264.36 747.25 263.25 C 748.16 262.80 749.20 262.94 750.20 262.92 C 750.65 262.91 751.09 262.90 751.55 262.89 C 752.77 263.00 753.19 263.11 754.00 264.00 C 754.56 265.12 754.29 266.69 754.28 267.93 C 754.28 268.28 754.28 268.62 754.28 268.98 C 754.28 269.72 754.28 270.46 754.28 271.21 C 754.28 272.32 754.28 273.44 754.28 274.56 C 754.29 288.46 754.29 288.46 751.17 291.67 C 747.77 294.89 744.66 295.79 740.08 295.81 C 739.75 295.82 739.42 295.82 739.08 295.83 C 737.15 295.84 735.58 295.67 733.75 295.00 C 733.33 294.86 732.92 294.71 732.48 294.56 C 729.90 293.38 727.50 291.34 726.25 288.75 C 724.64 284.32 724.81 279.70 724.84 275.05 C 724.84 273.74 724.84 272.42 724.83 271.11 C 724.83 270.27 724.83 269.43 724.83 268.59 C 724.83 268.20 724.83 267.81 724.83 267.40 C 724.83 267.04 724.83 266.68 724.84 266.30 C 724.84 265.98 724.84 265.66 724.84 265.34 C 725.04 264.27 725.41 263.91 726.25 263.25 C 728.32 262.56 731.04 262.15 732.95 263.34 Z" fill="#083088"/><path d="M 926.64 262.78 C 927.05 262.79 927.47 262.80 927.89 262.81 C 929.15 263.02 929.51 263.24 930.25 264.25 C 930.61 265.16 930.95 266.07 931.25 267.00 C 931.38 267.31 931.51 267.62 931.64 267.94 C 931.96 268.88 932.13 269.73 932.30 270.70 C 932.79 273.31 933.77 276.03 935.25 278.25 C 935.58 278.25 935.91 278.25 936.25 278.25 C 936.77 277.43 936.77 277.43 937.28 276.34 C 937.45 275.99 937.62 275.64 937.80 275.27 C 938.35 274.04 938.72 272.92 938.97 271.59 C 939.23 270.34 939.58 269.18 940.00 267.97 C 940.22 267.34 940.41 266.69 940.59 266.05 C 941.06 264.84 941.55 264.13 942.50 263.25 C 944.40 262.47 947.00 262.34 948.91 263.13 C 950.23 264.51 950.64 266.16 950.99 268.00 C 951.34 269.70 951.79 270.80 952.75 272.25 C 953.64 274.54 954.15 276.80 954.39 279.25 C 954.50 280.00 954.50 280.00 955.00 280.75 C 955.33 280.59 955.66 280.42 956.00 280.25 C 956.18 279.34 956.34 278.42 956.50 277.50 C 956.66 277.19 956.82 276.88 956.99 276.56 C 957.55 275.39 957.76 274.38 957.97 273.11 C 958.49 270.35 959.30 267.91 960.75 265.50 C 960.87 265.20 960.99 264.90 961.11 264.59 C 961.50 263.75 961.50 263.75 962.50 263.00 C 964.59 262.63 966.72 262.61 968.75 263.25 C 969.53 263.81 969.53 263.81 970.00 264.50 C 970.00 266.18 969.49 267.06 968.69 268.47 C 967.47 270.69 966.75 272.76 966.25 275.25 C 966.01 276.09 965.76 276.92 965.50 277.75 C 965.44 277.97 965.44 277.97 965.13 279.06 C 964.75 280.25 964.75 280.25 964.38 280.98 C 964.01 281.74 963.76 282.45 963.53 283.27 C 962.91 285.34 962.20 287.36 961.22 289.30 C 960.75 290.25 960.75 290.25 960.39 291.48 C 959.79 293.42 959.26 294.69 957.50 295.75 C 956.44 295.81 956.44 295.81 955.25 295.75 C 954.86 295.73 954.47 295.72 954.06 295.70 C 952.85 295.47 952.49 295.21 951.75 294.25 C 951.31 293.51 950.90 292.76 950.50 292.00 C 950.38 291.77 950.25 291.53 950.13 291.29 C 949.17 289.29 948.55 287.15 948.14 284.98 C 947.77 283.15 947.19 281.38 946.25 279.75 C 946.09 279.67 946.09 279.67 945.25 279.25 C 944.24 281.35 943.30 283.44 942.49 285.62 C 942.25 286.25 942.25 286.25 942.00 286.75 C 941.98 286.98 941.98 286.98 941.86 288.13 C 941.51 290.50 940.62 293.41 938.87 295.12 C 937.72 295.83 936.60 295.80 935.28 295.81 C 935.11 295.82 935.11 295.82 934.24 295.83 C 933.20 295.75 932.62 295.56 931.75 295.00 C 930.22 292.96 929.62 290.20 929.09 287.72 C 928.82 286.44 928.36 285.42 927.75 284.25 C 927.48 283.49 927.23 282.73 926.98 281.96 C 926.77 281.30 926.51 280.65 926.25 280.00 C 926.13 279.48 926.01 278.96 925.91 278.44 C 925.59 277.03 925.10 275.82 924.50 274.50 C 924.24 273.59 923.99 272.67 923.75 271.75 C 923.51 271.00 923.26 270.25 923.00 269.50 C 922.88 269.11 922.75 268.73 922.63 268.33 C 922.25 267.25 922.25 267.25 921.83 266.45 C 921.50 265.75 921.50 265.75 921.50 264.25 C 922.07 263.49 922.46 263.07 923.40 262.84 C 924.49 262.73 925.54 262.74 926.64 262.78 Z" fill="#083088"/><path d="M 990.62 262.70 C 991.05 262.70 991.48 262.70 991.93 262.70 C 992.16 262.70 992.16 262.70 993.34 262.71 C 993.58 262.71 993.58 262.71 994.78 262.72 C 995.80 262.73 996.81 262.74 997.82 262.75 C 999.11 262.76 1000.41 262.77 1001.70 262.77 C 1002.94 262.78 1004.18 262.79 1005.41 262.81 C 1005.65 262.81 1005.65 262.81 1006.82 262.81 C 1007.04 262.81 1007.04 262.81 1008.13 262.83 C 1008.32 262.83 1008.32 262.83 1009.28 262.84 C 1010.43 263.03 1010.79 263.35 1011.50 264.25 C 1012.20 265.64 1011.79 267.59 1011.42 269.03 C 1011.00 270.00 1011.00 270.00 1010.25 270.50 C 1009.17 270.55 1008.11 270.58 1007.03 270.58 C 1006.38 270.58 1005.72 270.59 1005.07 270.60 C 1004.03 270.60 1003.00 270.61 1001.96 270.61 C 1000.96 270.62 999.97 270.63 998.97 270.64 C 998.66 270.64 998.35 270.64 998.03 270.64 C 995.83 270.67 995.83 270.67 995.00 271.50 C 994.91 272.32 994.91 272.32 994.92 273.27 C 994.92 273.42 994.92 273.42 994.92 274.21 C 995.00 275.00 995.00 275.00 995.50 275.50 C 996.46 275.55 997.39 275.56 998.35 275.56 C 998.93 275.56 999.52 275.57 1000.10 275.57 C 1001.03 275.58 1001.95 275.58 1002.88 275.58 C 1003.77 275.58 1004.66 275.58 1005.55 275.59 C 1005.69 275.59 1005.69 275.59 1006.39 275.58 C 1007.59 275.60 1008.32 275.62 1009.29 276.35 C 1010.27 277.73 1010.11 279.10 1010.00 280.75 C 1009.57 282.25 1009.39 282.42 1008.00 283.25 C 1006.50 283.53 1005.03 283.53 1003.51 283.52 C 1003.04 283.52 1002.57 283.52 1002.09 283.52 C 1001.61 283.52 1001.12 283.52 1000.63 283.52 C 1000.13 283.51 999.64 283.51 999.13 283.51 C 997.92 283.51 996.71 283.50 995.50 283.50 C 995.50 284.98 995.50 286.47 995.50 288.00 C 996.87 288.22 998.14 288.24 999.52 288.14 C 1001.73 287.99 1003.95 287.94 1006.17 287.92 C 1006.35 287.92 1006.35 287.92 1007.24 287.90 C 1007.57 287.90 1007.91 287.90 1008.25 287.89 C 1008.40 287.89 1008.40 287.89 1009.16 287.88 C 1010.18 288.03 1010.71 288.35 1011.50 289.00 C 1012.31 290.61 1012.16 292.16 1011.69 293.87 C 1011.25 294.75 1011.25 294.75 1010.25 295.50 C 1009.19 295.75 1008.17 295.78 1007.08 295.78 C 1006.75 295.78 1006.42 295.78 1006.08 295.78 C 1005.73 295.78 1005.38 295.78 1005.02 295.78 C 1004.65 295.78 1004.28 295.78 1003.91 295.78 C 1003.13 295.78 1002.36 295.78 1001.58 295.78 C 1000.40 295.78 999.23 295.78 998.05 295.78 C 997.29 295.78 996.54 295.78 995.78 295.78 C 995.43 295.78 995.09 295.78 994.73 295.78 C 993.74 295.78 992.74 295.77 991.75 295.75 C 991.41 295.75 991.06 295.74 990.71 295.74 C 990.54 295.73 990.54 295.73 989.70 295.70 C 989.55 295.70 989.55 295.70 988.80 295.68 C 987.78 295.45 987.40 295.05 986.75 294.25 C 986.37 293.11 986.46 291.96 986.46 290.77 C 986.46 290.49 986.46 290.21 986.46 289.92 C 986.45 288.99 986.45 288.06 986.45 287.13 C 986.45 286.48 986.45 285.83 986.44 285.19 C 986.44 283.83 986.44 282.48 986.44 281.12 C 986.44 279.38 986.43 277.65 986.43 275.91 C 986.42 274.57 986.42 273.24 986.42 271.90 C 986.42 271.26 986.42 270.62 986.41 269.98 C 986.41 269.08 986.41 268.19 986.41 267.29 C 986.41 267.16 986.41 267.16 986.40 266.49 C 986.41 265.08 986.50 264.49 987.25 263.25 C 988.53 262.74 989.26 262.69 990.62 262.70 Z" fill="#083088"/><path d="M 681.93 262.94 C 682.11 262.94 682.11 262.94 682.97 262.93 C 683.34 262.93 683.71 262.93 684.10 262.93 C 684.48 262.93 684.86 262.93 685.25 262.93 C 686.06 262.93 686.87 262.93 687.68 262.94 C 688.91 262.94 690.15 262.94 691.38 262.93 C 692.17 262.93 692.95 262.93 693.74 262.93 C 693.92 262.93 693.92 262.93 694.85 262.93 C 698.03 262.95 700.19 263.22 702.50 265.50 C 704.90 268.19 705.05 270.69 705.09 274.21 C 704.97 275.58 704.59 276.38 703.67 277.39 C 703.53 277.59 703.39 277.79 703.25 278.00 C 703.75 279.25 704.34 279.92 705.28 280.86 C 706.44 282.45 706.32 284.39 706.33 286.28 C 706.33 286.76 706.34 287.23 706.34 287.72 C 706.18 289.94 705.06 291.22 703.50 292.75 C 699.86 295.62 695.78 295.78 691.34 295.80 C 691.05 295.80 690.76 295.80 690.47 295.81 C 689.87 295.81 689.27 295.81 688.68 295.81 C 687.76 295.81 686.85 295.82 685.93 295.83 C 685.35 295.83 684.76 295.83 684.18 295.83 C 683.91 295.84 683.64 295.84 683.36 295.84 C 681.45 295.84 680.43 295.63 679.04 294.34 C 678.34 293.26 678.33 292.55 678.31 291.25 C 678.31 290.79 678.30 290.33 678.29 289.85 C 678.29 289.34 678.28 288.83 678.28 288.31 C 678.27 287.78 678.27 287.25 678.26 286.72 C 678.24 284.89 678.24 283.07 678.25 281.25 C 678.25 280.90 678.25 280.55 678.25 280.18 C 678.26 277.93 678.28 275.68 678.30 273.43 C 678.31 272.69 678.32 271.94 678.32 271.20 C 678.33 270.15 678.35 269.10 678.36 268.05 C 678.37 267.74 678.37 267.42 678.37 267.10 C 678.40 265.59 678.46 264.82 679.25 263.50 C 680.30 262.97 680.78 262.94 681.93 262.94 Z M 687.00 271.25 C 686.89 272.05 686.89 272.05 686.89 272.99 C 686.89 273.29 686.88 273.60 686.88 273.91 C 687.00 274.75 687.00 274.75 688.00 275.75 C 688.71 275.88 688.71 275.88 689.52 275.88 C 689.82 275.89 690.11 275.89 690.41 275.89 C 690.57 275.89 690.57 275.89 691.34 275.88 C 691.50 275.88 691.50 275.88 692.27 275.89 C 695.10 275.88 695.10 275.88 696.25 274.75 C 697.00 273.50 697.00 273.50 697.00 272.00 C 695.93 270.88 695.08 270.55 693.52 270.46 C 692.67 270.45 691.82 270.44 690.97 270.44 C 690.82 270.44 690.82 270.44 690.06 270.42 C 687.84 270.41 687.84 270.41 687.00 271.25 Z M 687.25 284.00 C 686.90 284.71 686.95 285.32 686.94 286.11 C 686.93 286.40 686.92 286.69 686.92 286.98 C 687.00 287.75 687.00 287.75 687.75 288.50 C 689.25 288.63 690.75 288.55 692.25 288.50 C 692.55 288.50 692.86 288.50 693.17 288.50 C 695.23 288.43 696.52 287.87 698.25 286.75 C 698.75 286.00 698.75 286.00 698.72 285.13 C 698.50 284.25 698.50 284.25 697.50 283.50 C 695.64 282.85 693.76 282.91 691.81 282.91 C 691.48 282.90 691.16 282.89 690.82 282.89 C 690.50 282.89 690.19 282.89 689.86 282.89 C 689.58 282.88 689.29 282.88 689.00 282.88 C 688.25 283.00 688.25 283.00 687.25 284.00 Z" fill="#083088"/><path d="M 780.09 262.92 C 780.51 262.92 780.93 262.91 781.37 262.91 C 782.50 263.00 782.50 263.00 783.75 263.75 C 784.37 264.99 784.31 265.81 784.31 267.20 C 784.31 267.45 784.31 267.70 784.31 267.95 C 784.31 268.77 784.31 269.60 784.31 270.42 C 784.31 270.99 784.31 271.57 784.31 272.14 C 784.31 273.35 784.30 274.55 784.30 275.75 C 784.30 277.29 784.30 278.83 784.30 280.36 C 784.30 281.55 784.29 282.74 784.29 283.92 C 784.29 284.49 784.29 285.06 784.29 285.62 C 784.29 293.52 784.29 293.52 783.25 295.25 C 782.40 295.67 781.50 295.63 780.56 295.70 C 780.17 295.74 779.77 295.77 779.36 295.80 C 778.12 295.74 777.66 295.58 776.75 294.75 C 775.84 293.38 775.90 292.12 775.90 290.51 C 775.90 290.24 775.90 289.96 775.89 289.68 C 775.89 288.78 775.89 287.88 775.89 286.98 C 775.89 286.35 775.89 285.72 775.89 285.09 C 775.89 283.78 775.89 282.46 775.89 281.15 C 775.89 279.46 775.89 277.78 775.88 276.09 C 775.87 274.80 775.87 273.50 775.88 272.21 C 775.88 271.59 775.87 270.97 775.87 270.34 C 775.87 269.48 775.87 268.61 775.87 267.74 C 775.87 267.25 775.87 266.75 775.87 266.24 C 776.00 264.98 776.17 264.44 777.00 263.50 C 778.05 262.80 778.84 262.92 780.09 262.92 Z" fill="#083088"/><path d="M 808.98 262.88 C 809.42 262.87 809.86 262.86 810.32 262.85 C 811.50 263.00 811.50 263.00 812.27 263.59 C 813.13 264.77 813.03 265.74 813.01 267.18 C 813.01 267.63 813.01 268.08 813.01 268.55 C 813.01 269.04 813.00 269.53 813.00 270.03 C 812.99 274.03 813.00 278.03 813.08 282.03 C 813.08 282.25 813.08 282.25 813.09 283.36 C 813.10 283.76 813.11 284.16 813.12 284.58 C 813.13 284.94 813.13 285.29 813.14 285.65 C 813.25 286.50 813.25 286.50 814.00 287.25 C 814.97 287.36 814.97 287.36 816.20 287.37 C 816.65 287.38 817.09 287.39 817.55 287.39 C 818.02 287.40 818.49 287.40 818.97 287.41 C 820.73 287.43 822.49 287.46 824.25 287.50 C 824.42 287.50 824.42 287.50 825.26 287.51 C 826.51 287.55 827.31 287.60 828.31 288.38 C 828.84 289.42 828.95 290.21 829.00 291.38 C 829.02 291.74 829.04 292.10 829.06 292.48 C 829.00 293.54 828.83 294.11 828.25 295.00 C 827.10 295.77 825.86 295.62 824.51 295.66 C 824.20 295.66 823.88 295.67 823.56 295.68 C 820.37 295.76 817.18 295.79 814.00 295.81 C 813.41 295.81 812.81 295.81 812.22 295.82 C 811.38 295.83 810.54 295.83 809.70 295.83 C 809.46 295.83 809.46 295.83 808.22 295.84 C 807.00 295.75 807.00 295.75 805.75 295.00 C 805.12 293.75 805.13 292.63 805.10 291.25 C 805.09 290.96 805.08 290.67 805.07 290.37 C 804.95 286.14 804.95 281.90 804.95 277.66 C 804.95 276.19 804.95 274.71 804.94 273.24 C 804.94 272.30 804.94 271.35 804.94 270.41 C 804.94 269.97 804.94 269.53 804.94 269.08 C 804.94 268.67 804.94 268.27 804.94 267.84 C 804.94 267.49 804.94 267.13 804.94 266.76 C 805.00 265.69 805.16 264.77 805.50 263.75 C 806.76 262.80 807.43 262.88 808.98 262.88 Z" fill="#083088"/><path d="M 860.84 262.83 C 861.22 262.84 861.59 262.85 861.97 262.85 C 867.15 263.01 871.16 264.80 874.92 268.38 C 878.04 272.62 879.04 276.97 878.38 282.17 C 877.99 284.12 877.19 285.77 876.25 287.50 C 876.13 287.76 876.00 288.01 875.88 288.28 C 874.48 290.96 871.90 292.51 869.25 293.75 C 869.03 293.87 868.80 293.99 868.57 294.12 C 865.07 295.75 860.96 295.69 857.17 295.74 C 856.29 295.75 855.40 295.77 854.52 295.80 C 853.96 295.81 853.39 295.82 852.82 295.83 C 852.56 295.84 852.30 295.84 852.03 295.85 C 850.56 295.86 849.58 295.80 848.50 294.75 C 847.77 293.40 847.94 291.86 847.97 290.36 C 847.97 289.73 847.98 289.09 847.98 288.46 C 847.98 288.11 847.99 287.76 847.99 287.40 C 848.00 286.15 848.00 284.91 848.01 283.66 C 848.01 281.27 848.02 278.89 848.04 276.50 C 848.04 275.50 848.05 274.50 848.05 273.50 C 848.05 272.05 848.06 270.59 848.07 269.13 C 848.07 268.69 848.07 268.24 848.07 267.78 C 848.07 267.57 848.07 267.57 848.09 266.53 C 848.09 266.17 848.09 265.80 848.09 265.43 C 848.28 264.31 848.61 263.94 849.50 263.25 C 852.84 262.14 857.37 262.74 860.84 262.83 Z M 855.75 271.50 C 855.63 272.20 855.63 272.20 855.64 273.02 C 855.64 273.32 855.64 273.63 855.64 273.95 C 855.65 274.28 855.66 274.61 855.66 274.94 C 855.67 275.28 855.67 275.62 855.68 275.97 C 855.69 276.69 855.70 277.41 855.71 278.13 C 855.73 279.23 855.74 280.33 855.75 281.43 C 855.76 282.13 855.78 282.83 855.79 283.52 C 855.79 283.85 855.79 284.18 855.79 284.52 C 855.85 286.79 855.85 286.79 856.58 287.83 C 858.17 288.83 860.40 288.44 862.16 288.05 C 862.95 287.81 863.72 287.53 864.50 287.25 C 864.70 287.20 864.70 287.20 865.70 286.95 C 867.98 285.97 869.04 283.92 870.00 281.75 C 870.77 278.68 869.95 276.46 868.50 273.75 C 867.31 272.02 865.80 271.01 863.75 270.50 C 862.58 270.43 861.42 270.43 860.25 270.42 C 860.09 270.42 860.09 270.42 859.28 270.40 C 858.97 270.40 858.66 270.40 858.34 270.39 C 858.06 270.39 857.78 270.39 857.49 270.38 C 856.75 270.50 856.75 270.50 855.75 271.50 Z" fill="#083088"/><path d="M 1045.95 262.94 C 1046.35 262.93 1046.74 262.93 1047.15 262.92 C 1048.58 263.03 1049.37 263.40 1050.42 264.36 C 1051.05 265.32 1051.23 266.18 1051.46 267.30 C 1051.98 269.03 1052.85 270.62 1053.66 272.24 C 1054.20 273.39 1054.61 274.54 1055.00 275.75 C 1055.16 275.98 1055.31 276.21 1055.47 276.45 C 1056.48 277.97 1057.09 279.68 1057.58 281.44 C 1058.07 282.96 1058.75 284.30 1059.48 285.72 C 1060.11 286.96 1060.64 288.22 1061.17 289.50 C 1061.50 290.25 1061.50 290.25 1062.25 291.50 C 1062.56 293.11 1062.62 293.55 1061.75 295.00 C 1060.35 295.84 1059.84 295.83 1058.25 295.75 C 1057.86 295.73 1057.47 295.72 1057.06 295.70 C 1055.81 295.46 1055.51 295.26 1054.75 294.25 C 1054.06 293.15 1053.40 292.06 1052.84 290.89 C 1052.35 289.97 1051.73 289.58 1050.75 289.25 C 1049.01 289.18 1047.27 289.19 1045.53 289.19 C 1045.04 289.18 1044.56 289.18 1044.06 289.17 C 1043.59 289.17 1043.12 289.17 1042.64 289.17 C 1042.43 289.17 1042.43 289.17 1041.34 289.16 C 1040.25 289.25 1040.25 289.25 1039.00 290.00 C 1038.47 290.85 1038.47 290.85 1037.97 291.84 C 1036.44 294.86 1036.44 294.86 1035.25 295.75 C 1033.48 296.09 1031.52 296.40 1029.88 295.55 C 1029.25 295.00 1029.25 295.00 1028.75 294.25 C 1028.97 292.38 1029.61 290.81 1030.38 289.11 C 1030.75 288.25 1030.75 288.25 1031.20 286.92 C 1031.78 285.28 1032.64 283.78 1033.47 282.25 C 1034.15 280.97 1034.69 279.66 1035.22 278.31 C 1035.78 276.93 1036.37 275.57 1036.97 274.20 C 1037.70 272.54 1038.41 270.88 1039.06 269.19 C 1039.99 266.84 1040.88 264.77 1043.00 263.25 C 1044.00 262.92 1044.90 262.95 1045.95 262.94 Z M 1045.50 275.00 C 1044.10 276.40 1043.57 278.50 1043.39 280.44 C 1043.50 281.25 1043.50 281.25 1044.00 281.75 C 1046.13 281.89 1046.13 281.89 1047.00 281.75 C 1047.33 281.42 1047.66 281.09 1048.00 280.75 C 1048.00 279.13 1047.63 278.22 1047.00 276.75 C 1046.84 276.34 1046.67 275.93 1046.50 275.50 C 1046.17 275.34 1045.84 275.17 1045.50 275.00 Z" fill="#083088"/><path d="M 1084.06 262.92 C 1084.27 262.92 1084.27 262.92 1085.33 262.89 C 1086.56 263.00 1087.08 263.21 1088.00 264.00 C 1088.41 264.82 1088.28 265.67 1088.28 266.58 C 1088.28 267.02 1088.28 267.46 1088.29 267.92 C 1088.29 268.40 1088.29 268.88 1088.29 269.37 C 1088.29 270.12 1088.29 270.87 1088.30 271.62 C 1088.31 273.47 1088.31 275.32 1088.31 277.18 C 1088.31 278.21 1088.31 279.25 1088.32 280.29 C 1088.33 281.27 1088.33 282.25 1088.33 283.23 C 1088.33 283.67 1088.33 284.12 1088.34 284.57 C 1088.34 284.77 1088.34 284.77 1088.34 285.76 C 1088.53 286.93 1088.81 287.30 1089.75 288.00 C 1090.50 288.13 1090.50 288.13 1091.33 288.09 C 1091.64 288.08 1091.94 288.07 1092.26 288.06 C 1092.59 288.04 1092.92 288.02 1093.25 288.00 C 1093.57 287.98 1093.90 287.96 1094.24 287.94 C 1095.59 287.86 1096.94 287.76 1098.29 287.66 C 1098.45 287.64 1098.45 287.64 1099.28 287.58 C 1099.57 287.56 1099.87 287.54 1100.18 287.52 C 1101.61 287.49 1102.30 287.59 1103.45 288.48 C 1104.67 289.65 1104.63 290.55 1104.75 292.20 C 1104.75 293.18 1104.60 293.72 1104.00 294.50 C 1102.36 296.01 1100.74 295.78 1098.61 295.77 C 1098.26 295.76 1097.93 295.76 1097.57 295.76 C 1096.12 295.76 1094.66 295.75 1093.20 295.74 C 1092.14 295.74 1091.07 295.74 1090.01 295.73 C 1089.69 295.73 1089.36 295.73 1089.03 295.73 C 1087.17 295.72 1085.34 295.80 1083.49 295.97 C 1082.48 296.01 1081.83 295.81 1081.00 295.25 C 1080.13 293.81 1080.14 292.79 1080.15 291.17 C 1080.15 290.88 1080.14 290.60 1080.14 290.30 C 1080.14 289.36 1080.14 288.41 1080.14 287.47 C 1080.14 286.81 1080.14 286.15 1080.14 285.50 C 1080.13 284.12 1080.13 282.75 1080.14 281.37 C 1080.14 279.61 1080.14 277.84 1080.13 276.08 C 1080.12 274.72 1080.12 273.36 1080.12 272.01 C 1080.12 271.36 1080.12 270.71 1080.12 270.06 C 1080.12 269.15 1080.12 268.24 1080.12 267.33 C 1080.12 267.06 1080.12 266.79 1080.12 266.51 C 1080.13 265.42 1080.15 264.66 1080.73 263.71 C 1081.77 262.79 1082.69 262.94 1084.06 262.92 Z" fill="#083088"/><path d="M 1119.84 262.95 C 1120.33 262.95 1120.82 262.94 1121.33 262.94 C 1121.86 262.94 1122.40 262.93 1122.94 262.93 C 1123.21 262.93 1123.48 262.93 1123.76 262.93 C 1125.20 262.92 1126.63 262.92 1128.06 262.91 C 1129.54 262.91 1131.02 262.90 1132.50 262.88 C 1133.64 262.88 1134.78 262.87 1135.92 262.87 C 1136.46 262.87 1137.01 262.87 1137.56 262.86 C 1138.32 262.85 1139.08 262.85 1139.85 262.85 C 1140.28 262.85 1140.72 262.85 1141.16 262.85 C 1142.40 263.02 1142.76 263.27 1143.50 264.25 C 1144.22 265.70 1143.47 268.25 1143.00 269.75 C 1141.81 270.46 1141.48 270.60 1140.18 270.66 C 1139.88 270.67 1139.58 270.69 1139.28 270.71 C 1138.65 270.74 1138.03 270.76 1137.40 270.79 C 1137.11 270.81 1136.81 270.83 1136.50 270.84 C 1136.23 270.86 1135.96 270.87 1135.68 270.88 C 1135.00 271.00 1135.00 271.00 1134.25 271.75 C 1132.47 275.30 1133.67 282.54 1133.63 286.49 C 1133.62 287.45 1133.61 288.40 1133.59 289.36 C 1133.59 289.65 1133.59 289.94 1133.59 290.24 C 1133.54 293.65 1133.54 293.65 1132.37 294.95 C 1130.84 295.91 1129.04 296.17 1127.25 296.00 C 1126.09 295.56 1125.76 295.27 1125.00 294.25 C 1124.89 293.37 1124.89 293.37 1124.87 292.29 C 1124.87 292.09 1124.87 292.09 1124.84 291.06 C 1124.84 290.62 1124.83 290.17 1124.83 289.72 C 1124.82 289.26 1124.81 288.80 1124.80 288.33 C 1124.76 285.65 1124.75 282.97 1124.75 280.29 C 1124.75 280.00 1124.75 279.72 1124.75 279.43 C 1124.76 278.02 1124.77 276.61 1124.78 275.21 C 1124.78 274.69 1124.79 274.18 1124.79 273.66 C 1124.79 273.21 1124.80 272.76 1124.80 272.29 C 1124.75 271.25 1124.75 271.25 1124.25 270.75 C 1122.99 270.68 1121.75 270.65 1120.49 270.63 C 1119.07 270.59 1117.94 270.56 1116.75 269.75 C 1115.43 268.29 1115.40 267.28 1115.41 265.34 C 1115.50 264.50 1115.50 264.50 1116.08 263.67 C 1117.33 262.89 1118.38 262.96 1119.84 262.95 Z" fill="#083088"/><path d="M 1168.17 263.22 C 1168.86 263.86 1168.98 264.04 1169.05 264.97 C 1169.06 265.28 1169.07 265.58 1169.08 265.90 C 1169.09 266.23 1169.10 266.57 1169.11 266.91 C 1169.12 267.27 1169.13 267.62 1169.14 267.98 C 1169.15 268.33 1169.16 268.67 1169.17 269.03 C 1169.22 270.55 1169.25 272.06 1169.21 273.58 C 1169.25 274.75 1169.25 274.75 1170.00 275.50 C 1173.25 275.80 1176.79 275.59 1180.00 275.00 C 1180.84 274.16 1180.99 273.85 1181.02 272.68 C 1181.01 272.35 1181.00 272.02 1181.00 271.67 C 1180.99 271.31 1180.99 270.95 1180.98 270.57 C 1180.97 269.81 1180.96 269.04 1180.95 268.28 C 1180.94 267.91 1180.94 267.55 1180.93 267.17 C 1180.93 266.84 1180.92 266.51 1180.92 266.17 C 1181.01 265.16 1181.19 264.59 1181.75 263.75 C 1183.65 262.61 1185.60 262.56 1187.75 263.00 C 1188.83 263.71 1189.18 263.99 1189.50 265.25 C 1189.52 266.13 1189.53 267.01 1189.54 267.88 C 1189.54 268.15 1189.54 268.42 1189.54 268.70 C 1189.54 269.58 1189.54 270.47 1189.54 271.36 C 1189.54 271.97 1189.54 272.59 1189.54 273.21 C 1189.55 274.50 1189.55 275.79 1189.55 277.09 C 1189.55 278.74 1189.55 280.40 1189.55 282.05 C 1189.56 283.33 1189.56 284.60 1189.56 285.87 C 1189.56 286.49 1189.56 287.10 1189.56 287.71 C 1189.56 288.56 1189.56 289.42 1189.56 290.27 C 1189.56 290.76 1189.56 291.24 1189.56 291.74 C 1189.48 293.34 1189.40 294.35 1188.25 295.50 C 1186.53 296.18 1184.65 296.30 1182.89 295.72 C 1181.90 294.99 1181.38 294.15 1181.00 293.00 C 1180.98 292.30 1180.97 291.60 1180.97 290.90 C 1180.98 290.70 1180.98 290.70 1180.98 289.65 C 1180.98 289.43 1180.98 289.43 1180.98 288.33 C 1180.98 287.89 1180.99 287.45 1180.99 287.00 C 1180.99 285.92 1180.99 284.83 1181.00 283.75 C 1178.93 283.50 1176.89 283.45 1174.81 283.45 C 1174.49 283.45 1174.17 283.45 1173.84 283.44 C 1173.53 283.44 1173.21 283.44 1172.89 283.44 C 1172.61 283.44 1172.33 283.44 1172.05 283.44 C 1171.18 283.51 1170.53 283.62 1169.75 284.00 C 1169.29 285.14 1169.18 285.70 1169.16 286.88 C 1169.16 287.04 1169.16 287.04 1169.14 287.83 C 1169.14 288.15 1169.13 288.48 1169.12 288.81 C 1169.03 294.22 1169.03 294.22 1167.75 295.50 C 1166.56 295.61 1166.56 295.61 1165.14 295.61 C 1164.67 295.61 1164.20 295.62 1163.72 295.62 C 1162.50 295.50 1162.50 295.50 1161.50 294.50 C 1161.12 293.37 1161.21 292.21 1161.21 291.03 C 1161.20 290.75 1161.20 290.47 1161.20 290.18 C 1161.20 289.25 1161.19 288.32 1161.19 287.39 C 1161.19 287.07 1161.19 286.75 1161.19 286.42 C 1161.18 284.74 1161.18 283.07 1161.18 281.39 C 1161.17 279.65 1161.16 277.91 1161.15 276.18 C 1161.15 274.84 1161.15 273.51 1161.14 272.18 C 1161.14 271.54 1161.14 270.90 1161.14 270.26 C 1161.13 269.36 1161.13 268.47 1161.13 267.57 C 1161.13 267.44 1161.13 267.44 1161.12 266.77 C 1161.13 265.30 1161.24 264.35 1162.25 263.25 C 1164.07 262.54 1166.41 262.32 1168.17 263.22 Z" fill="#083088"/></g>
</svg>
