<svg xmlns="http://www.w3.org/2000/svg" viewBox="-76.90 -76.81 1352.90 378.45" width="1353" height="378">
  <path id="teal" d="M 36.70 4.02 C 37.11 4.12 37.53 4.20 37.94 4.28 C 38.79 4.44 39.60 4.66 40.42 4.90 C 40.80 5.01 41.18 5.11 41.56 5.21 C 43.56 5.71 45.46 6.46 47.35 7.28 C 47.78 7.46 48.21 7.64 48.65 7.81 C 49.32 8.08 49.96 8.39 50.60 8.71 C 51.01 8.92 51.42 9.11 51.84 9.31 C 53.57 10.12 55.21 11.08 56.85 12.05 C 57.38 12.36 57.91 12.66 58.44 12.96 C 60.59 14.20 62.59 15.71 64.50 17.28 C 64.87 17.58 65.24 17.86 65.61 18.15 C 66.27 18.68 66.89 19.24 67.50 19.82 C 67.76 20.07 68.03 20.31 68.30 20.55 C 68.68 20.87 69.02 21.22 69.38 21.57 C 69.51 21.69 69.64 21.80 69.77 21.92 C 70.24 22.33 70.67 22.77 71.11 23.21 C 71.23 23.31 71.36 23.42 71.49 23.52 C 72.02 24.00 72.49 24.51 72.97 25.04 C 73.22 25.31 73.47 25.57 73.72 25.84 C 74.50 26.66 75.21 27.51 75.90 28.41 C 76.06 28.58 76.21 28.74 76.36 28.92 C 76.92 29.54 77.43 30.19 77.94 30.86 C 78.02 30.96 78.02 30.96 78.43 31.48 C 80.78 34.55 83.00 37.70 85.09 40.95 C 85.14 41.05 85.14 41.05 85.44 41.51 C 86.90 43.83 88.23 46.22 89.57 48.61 C 89.67 48.78 89.77 48.95 89.87 49.12 C 90.34 49.98 90.79 50.84 91.21 51.73 C 91.82 53.00 92.45 54.26 93.09 55.52 C 93.97 57.28 94.82 59.04 95.59 60.85 C 95.81 61.34 96.03 61.83 96.25 62.33 C 96.35 62.54 96.44 62.76 96.54 62.99 C 96.72 63.38 96.89 63.77 97.07 64.16 C 97.36 64.80 97.64 65.45 97.92 66.10 C 97.97 66.22 97.97 66.22 98.22 66.81 C 98.53 67.54 98.85 68.28 99.16 69.02 C 99.36 69.50 99.56 69.98 99.76 70.46 C 100.47 72.12 101.16 73.78 101.84 75.45 C 102.10 76.11 102.37 76.76 102.64 77.41 C 103.27 78.93 103.88 80.45 104.47 81.99 C 105.11 83.65 105.77 85.31 106.43 86.97 C 107.42 89.48 108.38 92.01 109.32 94.54 C 109.89 96.07 110.50 97.58 111.10 99.10 C 111.82 100.93 112.53 102.77 113.24 104.61 C 113.50 105.27 113.75 105.94 114.01 106.60 C 114.17 107.04 114.34 107.47 114.51 107.91 C 115.06 109.35 115.62 110.78 116.20 112.21 C 116.88 113.90 117.54 115.61 118.19 117.32 C 118.64 118.53 119.13 119.72 119.62 120.92 C 119.88 121.56 120.08 122.21 120.28 122.87 C 120.48 123.50 120.69 124.00 120.99 124.60 C 121.05 124.81 121.11 125.01 121.17 125.22 C 121.39 125.89 121.68 126.48 122.00 127.11 C 122.36 127.86 122.64 128.63 122.92 129.41 C 123.05 129.74 123.17 130.07 123.30 130.40 C 123.32 130.48 123.32 130.48 123.47 130.89 C 123.77 131.67 124.08 132.44 124.39 133.21 C 124.56 133.68 124.56 133.68 124.66 134.13 C 124.79 134.72 125.03 135.22 125.28 135.77 C 125.87 137.09 126.40 138.44 126.91 139.80 C 127.44 141.23 128.00 142.64 128.58 144.04 C 128.92 144.87 129.24 145.70 129.56 146.54 C 129.64 146.71 129.71 146.88 129.78 147.06 C 129.97 147.56 129.97 147.56 130.16 148.34 C 130.69 150.42 131.71 152.37 132.63 154.31 C 132.86 154.80 133.10 155.29 133.33 155.78 C 133.52 156.18 133.71 156.57 133.90 156.96 C 134.18 157.61 134.25 158.22 134.34 158.92 C 134.59 160.14 135.11 161.29 135.58 162.45 C 135.62 162.54 135.62 162.54 135.80 163.00 C 136.52 164.76 137.37 166.46 138.23 168.16 C 139.86 171.43 139.86 171.43 140.26 172.24 C 140.60 172.93 141.00 173.58 141.42 174.23 C 141.88 174.98 142.28 175.77 142.69 176.55 C 143.56 178.07 143.56 178.07 144.15 178.46 C 144.33 178.48 144.52 178.49 144.70 178.50 C 145.27 178.57 145.27 178.57 145.68 178.98 C 145.89 179.38 146.09 179.78 146.28 180.19 C 147.24 182.13 148.37 183.88 149.66 185.61 C 149.79 185.78 149.92 185.96 150.05 186.14 C 151.12 187.56 152.21 188.90 153.43 190.20 C 154.16 190.98 154.88 191.77 155.57 192.60 C 156.49 193.63 157.66 194.46 158.76 195.29 C 159.14 195.60 159.14 195.60 159.55 196.11 C 159.66 196.13 159.66 196.13 160.18 196.19 C 161.02 196.34 161.25 196.59 161.80 197.23 C 162.87 198.50 164.01 199.21 165.67 199.48 C 166.18 199.52 166.69 199.55 167.20 199.58 C 167.27 199.61 167.34 199.65 167.41 199.68 C 167.41 199.99 167.41 200.29 167.41 200.60 C 166.52 201.05 165.84 201.10 164.86 201.21 C 164.55 201.34 164.24 201.48 163.94 201.62 C 160.79 202.55 157.66 202.91 154.39 202.90 C 154.11 202.90 153.82 202.90 153.53 202.90 C 152.93 202.90 152.33 202.90 151.73 202.90 C 150.82 202.90 149.92 202.90 149.01 202.90 C 145.49 202.90 142.11 202.80 138.64 202.13 C 138.55 202.12 138.55 202.12 138.09 202.04 C 132.94 201.06 128.03 199.38 123.44 196.83 C 123.35 196.78 123.35 196.78 122.90 196.54 C 121.65 195.87 120.44 195.15 119.26 194.38 C 119.06 194.25 118.85 194.12 118.65 193.98 C 117.78 193.39 116.94 192.76 116.10 192.13 C 115.89 191.98 115.68 191.83 115.46 191.67 C 114.38 190.84 113.34 189.98 112.32 189.07 C 112.14 188.93 111.97 188.79 111.79 188.64 C 110.66 187.71 109.63 186.70 108.60 185.65 C 108.24 185.30 108.24 185.30 107.73 184.89 C 107.49 184.62 107.25 184.35 107.02 184.08 C 106.85 183.91 106.69 183.75 106.52 183.58 C 106.00 183.06 105.54 182.51 105.08 181.93 C 104.91 181.75 104.74 181.57 104.57 181.38 C 104.05 180.80 103.60 180.21 103.14 179.59 C 102.93 179.31 102.72 179.04 102.52 178.76 C 102.07 178.16 101.63 177.55 101.20 176.93 C 101.01 176.66 100.81 176.38 100.62 176.11 C 100.11 175.39 99.62 174.68 99.12 173.96 C 98.88 173.60 98.63 173.25 98.37 172.91 C 97.63 171.87 96.97 170.78 96.31 169.69 C 96.16 169.46 96.02 169.22 95.87 168.98 C 94.52 166.77 93.25 164.52 92.02 162.25 C 91.90 162.03 91.79 161.81 91.67 161.59 C 89.31 157.23 87.17 152.75 85.26 148.18 C 84.98 147.56 84.98 147.56 84.63 147.10 C 84.15 146.49 83.94 145.83 83.66 145.11 C 83.52 144.83 83.37 144.55 83.23 144.28 C 82.88 143.55 82.71 142.93 82.53 142.15 C 82.44 142.02 82.34 141.89 82.24 141.76 C 81.78 141.14 81.64 140.44 81.41 139.70 C 81.21 139.29 81.01 138.88 80.80 138.48 C 80.61 138.04 80.43 137.60 80.26 137.16 C 80.11 136.80 79.96 136.45 79.81 136.09 C 79.58 135.52 79.58 135.52 79.43 134.94 C 79.27 134.40 79.27 134.40 79.00 134.00 C 78.48 133.20 78.18 132.32 77.84 131.44 C 77.70 131.09 77.56 130.73 77.41 130.38 C 77.18 129.81 76.97 129.24 76.76 128.65 C 76.52 127.97 76.52 127.97 76.18 127.26 C 75.82 126.48 75.50 125.71 75.18 124.92 C 75.06 124.63 74.95 124.34 74.83 124.05 C 74.77 123.91 74.71 123.76 74.65 123.61 C 74.37 122.91 74.08 122.21 73.80 121.51 C 73.69 121.24 73.58 120.97 73.47 120.69 C 73.36 120.44 73.26 120.18 73.15 119.91 C 73.10 119.79 73.10 119.79 72.86 119.20 C 72.37 118.00 71.88 116.81 71.38 115.61 C 71.06 114.84 70.75 114.07 70.48 113.28 C 70.19 112.47 69.86 111.68 69.52 110.89 C 68.58 108.72 67.70 106.53 66.82 104.34 C 66.15 102.69 65.46 101.04 64.77 99.40 C 64.32 98.36 63.88 97.32 63.45 96.27 C 63.37 96.08 63.29 95.90 63.21 95.70 C 62.77 94.65 62.33 93.60 61.90 92.54 C 61.38 91.30 60.85 90.06 60.31 88.83 C 59.73 87.48 59.16 86.13 58.60 84.78 C 57.72 82.71 56.84 80.64 55.91 78.60 C 55.64 78.00 55.37 77.40 55.11 76.80 C 55.07 76.72 55.07 76.72 54.90 76.33 C 54.43 75.29 53.99 74.24 53.56 73.19 C 53.43 72.87 53.29 72.56 53.15 72.24 C 53.09 72.10 53.02 71.96 52.96 71.81 C 52.80 71.48 52.64 71.15 52.47 70.82 C 51.94 69.73 51.47 68.62 50.99 67.52 C 50.52 66.43 50.02 65.37 49.48 64.32 C 49.35 64.03 49.21 63.74 49.08 63.45 C 48.75 62.76 48.42 62.08 48.08 61.41 C 47.91 61.06 47.74 60.72 47.56 60.37 C 47.01 59.25 46.44 58.13 45.85 57.03 C 45.69 56.72 45.53 56.41 45.36 56.09 C 44.80 55.01 44.21 53.95 43.61 52.89 C 43.26 52.27 42.91 51.65 42.56 51.02 C 41.67 49.44 40.78 47.87 39.84 46.31 C 39.29 45.38 38.75 44.45 38.22 43.51 C 37.91 42.98 37.58 42.48 37.24 41.98 C 37.06 41.67 36.87 41.36 36.69 41.05 C 35.72 39.43 34.73 37.82 33.67 36.26 C 32.86 35.04 32.86 35.04 32.49 34.48 C 31.53 33.06 30.55 31.68 29.53 30.31 C 29.19 29.85 28.85 29.38 28.52 28.91 C 27.85 27.98 27.14 27.07 26.43 26.16 C 26.29 25.99 26.15 25.81 26.01 25.63 C 25.58 25.10 25.13 24.58 24.68 24.06 C 24.45 23.78 24.21 23.50 23.99 23.21 C 23.10 22.10 22.15 21.05 21.17 20.02 C 20.91 19.74 20.66 19.45 20.40 19.17 C 19.78 18.49 19.14 17.83 18.48 17.18 C 18.42 17.12 18.42 17.12 18.11 16.80 C 17.41 16.10 16.70 15.46 15.92 14.84 C 15.75 14.68 15.58 14.52 15.40 14.36 C 12.59 11.85 9.16 9.45 5.52 8.41 C 5.98 8.89 6.44 9.33 6.96 9.75 C 8.01 10.63 8.90 11.67 9.80 12.70 C 9.97 12.88 10.13 13.06 10.30 13.24 C 10.64 13.62 10.98 14.01 11.30 14.41 C 11.74 14.94 11.74 14.94 12.10 15.30 C 12.56 15.76 12.96 16.27 13.37 16.78 C 13.52 16.94 13.67 17.10 13.82 17.27 C 14.17 17.67 14.51 18.09 14.84 18.51 C 15.19 18.95 15.55 19.38 15.93 19.80 C 16.45 20.37 16.89 20.96 17.35 21.57 C 17.72 22.02 18.10 22.46 18.47 22.90 C 20.75 25.77 22.88 28.73 24.96 31.74 C 25.23 32.12 25.49 32.50 25.76 32.88 C 26.23 33.56 26.69 34.25 27.14 34.94 C 27.28 35.15 27.42 35.35 27.56 35.57 C 27.97 36.17 28.37 36.78 28.78 37.38 C 28.90 37.57 29.03 37.76 29.16 37.96 C 29.70 38.78 30.21 39.61 30.71 40.44 C 30.85 40.67 30.99 40.90 31.13 41.13 C 32.36 43.13 33.52 45.17 34.67 47.21 C 34.88 47.58 35.09 47.95 35.30 48.31 C 36.04 49.59 36.72 50.89 37.39 52.20 C 37.62 52.65 37.87 53.09 38.12 53.52 C 38.67 54.47 39.12 55.47 39.59 56.46 C 39.64 56.58 39.64 56.58 39.93 57.17 C 41.91 61.34 42.48 65.24 42.50 69.84 C 42.50 70.14 42.50 70.44 42.51 70.75 C 42.51 71.56 42.52 72.37 42.52 73.19 C 42.52 73.70 42.52 74.21 42.53 74.72 C 42.55 78.93 42.55 83.14 42.52 87.35 C 42.52 87.45 42.52 87.45 42.52 87.96 C 42.51 89.91 42.49 91.87 42.47 93.83 C 42.47 94.56 42.46 95.28 42.46 96.01 C 42.45 96.51 42.44 97.01 42.44 97.51 C 42.44 97.65 42.44 97.65 42.43 98.41 C 42.43 98.66 42.43 98.92 42.42 99.19 C 42.44 99.81 42.44 99.81 42.65 100.43 C 42.67 101.05 42.68 101.68 42.68 102.31 C 42.68 102.40 42.68 102.40 42.68 102.90 C 42.68 103.56 42.68 104.22 42.68 104.88 C 42.68 105.35 42.68 105.82 42.68 106.30 C 42.68 107.60 42.69 108.91 42.69 110.21 C 42.69 111.60 42.69 112.99 42.69 114.38 C 42.70 116.78 42.70 119.17 42.70 121.56 C 42.71 125.15 42.71 128.74 42.72 132.33 C 42.72 133.59 42.72 134.85 42.72 136.11 C 42.72 136.42 42.72 136.74 42.72 137.05 C 42.73 139.27 42.73 141.50 42.73 143.72 C 42.74 151.82 42.76 159.93 42.78 168.03 C 42.78 168.28 42.78 168.52 42.78 168.77 C 42.79 172.03 42.80 175.29 42.81 178.55 C 42.81 179.65 42.81 180.76 42.82 181.87 C 42.82 181.97 42.82 181.97 42.82 182.52 C 42.82 183.58 42.82 184.63 42.82 185.69 C 42.83 185.89 42.83 186.09 42.83 186.30 C 42.83 186.70 42.83 187.10 42.83 187.50 C 42.83 188.44 42.83 189.38 42.84 190.32 C 42.84 190.50 42.84 190.67 42.84 190.86 C 42.84 191.20 42.84 191.55 42.84 191.89 C 42.84 192.69 42.84 193.50 42.85 194.30 C 42.85 195.63 42.85 196.96 42.86 198.29 C 42.87 198.39 42.87 198.39 42.87 198.94 C 42.87 199.33 42.88 199.71 42.88 200.10 C 42.88 200.92 42.84 201.46 42.55 202.23 C 41.88 202.77 41.56 202.80 40.71 202.74 C 35.74 201.22 30.64 198.30 26.74 194.84 C 26.33 194.48 26.33 194.48 25.78 194.09 C 25.21 193.67 24.70 193.22 24.18 192.75 C 24.02 192.62 23.86 192.49 23.69 192.36 C 22.17 191.13 20.77 189.73 19.49 188.26 C 19.28 188.03 19.06 187.79 18.84 187.56 C 17.90 186.55 17.07 185.47 16.23 184.38 C 16.08 184.20 15.93 184.02 15.77 183.83 C 14.86 182.70 14.07 181.50 13.27 180.30 C 13.14 180.11 13.00 179.91 12.87 179.71 C 11.36 177.41 10.03 175.00 8.78 172.55 C 8.69 172.37 8.60 172.19 8.50 172.01 C 6.09 167.29 4.22 162.20 2.97 157.04 C 2.94 156.96 2.94 156.96 2.84 156.53 C 2.57 155.48 2.34 154.44 2.17 153.38 C 2.07 152.85 1.94 152.35 1.80 151.83 C 1.48 150.59 1.36 149.34 1.23 148.07 C 1.20 147.80 1.16 147.53 1.13 147.25 C 1.00 146.12 1.00 145.00 1.00 143.86 C 1.00 143.62 1.00 143.39 1.00 143.15 C 1.00 142.36 1.00 141.57 1.00 140.79 C 1.00 140.22 1.00 139.65 1.00 139.08 C 1.00 137.84 1.00 136.61 1.00 135.37 C 1.00 133.53 1.00 131.69 1.00 129.85 C 1.00 126.57 1.00 123.28 1.00 119.99 C 1.00 117.12 1.00 114.25 1.00 111.37 C 1.00 111.18 1.00 110.99 1.00 110.79 C 1.00 110.02 1.00 109.24 1.00 108.47 C 1.00 101.21 1.00 93.95 1.00 86.69 C 1.00 80.24 1.00 73.79 1.00 67.34 C 1.00 60.09 1.00 52.84 1.00 45.60 C 1.00 44.82 1.00 44.05 1.00 43.28 C 1.00 43.09 1.00 42.90 1.00 42.70 C 1.00 39.83 1.00 36.96 1.00 34.08 C 1.00 30.82 1.00 27.55 1.00 24.28 C 1.00 22.45 1.00 20.63 1.00 18.80 C 1.00 17.43 1.00 16.07 1.00 14.71 C 1.00 14.15 1.00 13.60 1.00 13.05 C 1.00 12.30 1.00 11.55 1.00 10.80 C 1.00 10.58 1.00 10.37 1.00 10.14 C 1.00 9.94 1.00 9.74 1.00 9.54 C 1.00 9.45 1.00 9.45 1.00 9.02 C 1.09 7.33 1.74 6.58 2.97 5.46 C 3.60 5.22 4.22 5.02 4.87 4.84 C 5.43 4.68 5.98 4.52 6.54 4.33 C 6.76 4.29 6.98 4.25 7.21 4.20 C 7.83 4.07 8.44 3.93 9.06 3.78 C 12.21 3.02 15.50 2.72 18.73 2.64 C 18.92 2.64 19.12 2.64 19.31 2.63 C 25.16 2.51 31.02 2.45 36.70 4.02 Z M 209.64 83.19 C 209.74 83.25 209.84 83.32 209.95 83.39 C 209.97 84.01 209.97 84.62 209.97 85.24 C 209.96 85.33 209.96 85.33 209.96 85.77 C 209.96 86.20 209.95 86.63 209.95 87.06 C 209.74 87.06 209.54 87.06 209.33 87.06 C 209.33 86.49 209.33 85.92 209.33 85.33 C 209.23 85.33 209.13 85.33 209.03 85.33 C 209.01 85.21 209.01 85.21 208.93 84.62 C 208.89 84.88 208.86 85.15 208.82 85.43 C 208.69 85.47 208.55 85.50 208.42 85.53 C 208.40 85.62 208.40 85.62 208.31 86.04 C 208.07 86.53 208.07 86.53 207.80 86.96 C 207.75 86.98 207.75 86.98 207.50 87.06 C 207.46 87.27 207.43 87.47 207.40 87.68 C 207.36 87.71 207.36 87.71 207.19 87.88 C 207.16 87.98 207.16 87.98 206.99 88.49 C 206.61 89.39 206.61 89.39 206.38 89.51 C 206.31 89.71 206.24 89.92 206.17 90.12 C 206.10 90.12 206.04 90.12 205.97 90.12 C 205.90 90.36 205.83 90.60 205.76 90.84 C 205.60 91.11 205.43 91.38 205.25 91.65 C 205.15 91.89 205.05 92.13 204.95 92.37 C 204.91 92.38 204.91 92.38 204.74 92.47 C 204.64 92.71 204.54 92.94 204.44 93.18 C 204.15 93.64 203.84 94.08 203.52 94.51 C 203.45 94.71 203.38 94.91 203.32 95.12 C 203.21 95.22 203.11 95.32 203.01 95.43 C 202.60 96.04 202.60 96.04 202.50 96.35 C 202.33 96.51 202.16 96.68 201.99 96.86 C 201.82 97.16 201.65 97.47 201.48 97.77 C 201.41 97.81 201.34 97.84 201.28 97.88 C 201.19 98.04 201.11 98.21 201.03 98.38 C 200.76 98.90 200.76 98.90 200.46 99.10 C 200.36 99.10 200.26 99.10 200.15 99.10 C 200.12 99.34 200.09 99.57 200.05 99.81 C 199.85 100.22 199.85 100.22 199.54 100.53 C 199.37 100.53 199.20 100.53 199.03 100.53 C 199.03 100.76 199.03 101.00 199.03 101.24 C 198.72 101.75 198.72 101.75 198.42 101.96 C 198.18 101.96 197.95 101.96 197.70 101.96 C 197.70 101.04 197.70 101.04 198.11 100.53 C 198.35 100.50 198.58 100.46 198.83 100.43 C 198.83 100.16 198.83 99.89 198.83 99.61 C 199.00 99.38 199.16 99.14 199.34 98.90 C 199.47 98.90 199.61 98.90 199.74 98.90 C 199.74 98.69 199.74 98.49 199.74 98.28 C 200.05 97.67 200.05 97.67 200.46 97.26 C 200.51 97.19 200.51 97.19 200.78 96.78 C 200.87 96.64 200.97 96.49 201.07 96.35 C 201.14 96.35 201.21 96.35 201.28 96.35 C 201.31 96.18 201.34 96.01 201.38 95.84 C 201.54 95.56 201.71 95.29 201.89 95.02 C 202.01 94.82 202.13 94.62 202.26 94.41 C 202.37 94.24 202.49 94.07 202.60 93.90 C 202.67 93.90 202.74 93.90 202.81 93.90 C 202.84 93.70 202.87 93.49 202.91 93.29 C 203.01 93.19 203.11 93.08 203.21 92.98 C 203.28 92.81 203.35 92.64 203.42 92.47 C 203.47 92.39 203.47 92.39 203.73 92.01 C 204.03 91.55 204.03 91.55 204.13 91.14 C 204.18 91.11 204.18 91.11 204.44 90.94 C 204.50 90.74 204.57 90.54 204.64 90.33 C 204.71 90.33 204.78 90.33 204.85 90.33 C 204.88 90.13 204.91 89.92 204.95 89.72 C 205.05 89.55 205.15 89.38 205.25 89.21 C 205.39 88.94 205.52 88.67 205.66 88.39 C 205.73 88.26 205.80 88.12 205.87 87.98 C 205.93 87.98 206.00 87.98 206.07 87.98 C 206.10 87.78 206.14 87.58 206.17 87.37 C 206.27 87.24 206.37 87.10 206.48 86.96 C 206.54 86.83 206.61 86.69 206.68 86.55 C 206.75 86.55 206.82 86.55 206.89 86.55 C 206.92 86.32 206.95 86.08 206.99 85.84 C 207.09 85.67 207.19 85.50 207.29 85.33 C 207.31 85.28 207.31 85.28 207.40 85.02 C 207.43 85.01 207.43 85.01 207.60 84.92 C 207.67 84.69 207.73 84.45 207.80 84.21 C 207.90 84.21 208.01 84.21 208.11 84.21 C 208.14 83.94 208.18 83.67 208.21 83.39 C 208.68 83.08 209.09 83.16 209.64 83.19 Z" fill="#17A8B0"/>
  <path id="gold" d="M 209.54 1.17 C 209.67 1.27 209.81 1.37 209.95 1.48 C 209.99 2.11 210.00 2.72 210.00 3.35 C 210.00 3.55 210.00 3.75 210.00 3.95 C 210.00 4.62 210.00 5.29 210.00 5.96 C 210.00 6.44 210.00 6.92 210.00 7.39 C 210.00 8.69 210.00 10.00 209.99 11.30 C 209.99 12.66 209.99 14.02 209.99 15.38 C 209.99 17.67 209.99 19.96 209.99 22.25 C 209.98 24.89 209.98 27.53 209.98 30.18 C 209.98 32.99 209.98 35.81 209.98 38.62 C 209.98 39.43 209.98 40.24 209.98 41.05 C 209.98 42.33 209.98 43.61 209.98 44.88 C 209.98 45.35 209.98 45.82 209.98 46.28 C 209.98 46.92 209.97 47.56 209.97 48.20 C 209.97 48.39 209.97 48.57 209.97 48.76 C 209.97 50.49 209.84 52.20 209.54 53.91 C 209.51 54.19 209.48 54.47 209.46 54.77 C 209.36 55.68 209.16 56.55 208.95 57.45 C 208.77 58.20 208.65 58.96 208.52 59.72 C 208.28 60.83 207.98 61.89 207.63 62.97 C 207.48 63.45 207.39 63.92 207.29 64.42 C 207.17 64.81 207.05 65.20 206.93 65.59 C 206.77 66.08 206.63 66.57 206.49 67.06 C 206.25 67.86 205.97 68.64 205.65 69.42 C 205.42 70.02 205.22 70.62 205.01 71.23 C 204.26 73.41 203.34 75.49 202.30 77.56 C 202.08 78.01 201.87 78.46 201.66 78.92 C 200.50 81.36 199.12 83.70 197.60 85.94 C 197.49 86.13 197.37 86.31 197.25 86.50 C 196.26 88.06 195.19 89.53 194.04 90.96 C 193.75 91.32 193.46 91.69 193.18 92.05 C 191.74 93.89 190.22 95.65 188.63 97.37 C 188.50 97.51 188.38 97.65 188.26 97.79 C 187.64 98.49 186.99 99.12 186.28 99.71 C 186.23 99.77 186.23 99.77 185.99 100.06 C 185.64 100.46 185.26 100.79 184.85 101.14 C 184.63 101.36 184.41 101.58 184.19 101.80 C 183.71 102.28 183.23 102.74 182.71 103.18 C 182.54 103.33 182.38 103.48 182.21 103.63 C 181.71 104.08 181.19 104.50 180.67 104.92 C 180.52 105.05 180.37 105.18 180.21 105.32 C 179.73 105.75 179.23 106.15 178.73 106.55 C 178.37 106.85 178.01 107.16 177.66 107.47 C 177.35 107.74 177.03 107.99 176.72 108.25 C 176.36 108.54 176.02 108.84 175.68 109.15 C 175.12 109.64 174.53 110.08 173.94 110.53 C 173.60 110.83 173.26 111.14 172.92 111.44 C 172.56 111.72 172.21 112.00 171.85 112.27 C 171.38 112.65 170.95 113.06 170.51 113.48 C 170.14 113.81 169.76 114.12 169.37 114.43 C 168.63 115.02 167.95 115.64 167.28 116.29 C 166.89 116.66 166.49 117.01 166.08 117.36 C 164.97 118.36 163.91 119.41 162.85 120.47 C 162.67 120.65 162.50 120.82 162.31 121.00 C 161.48 121.83 160.68 122.66 159.96 123.58 C 159.59 124.03 159.21 124.47 158.84 124.91 C 158.53 125.28 158.23 125.66 157.92 126.03 C 157.81 126.16 157.70 126.29 157.59 126.43 C 156.76 127.42 156.00 128.44 155.27 129.50 C 155.10 129.73 154.94 129.96 154.76 130.19 C 153.27 132.31 151.92 134.51 150.78 136.84 C 150.65 137.08 150.52 137.31 150.39 137.56 C 149.97 138.35 149.60 139.16 149.23 139.98 C 149.17 140.12 149.17 140.12 148.87 140.79 C 148.76 141.04 148.65 141.28 148.54 141.54 C 148.45 141.73 148.36 141.93 148.26 142.13 C 146.76 145.48 145.71 149.04 145.07 152.66 C 145.03 152.84 145.00 153.03 144.97 153.22 C 143.77 160.15 143.43 167.13 144.82 174.06 C 144.91 174.53 145.00 174.99 145.07 175.46 C 145.17 176.02 145.17 176.02 145.37 176.63 C 145.40 176.99 145.41 177.35 145.41 177.71 C 145.41 177.90 145.42 178.09 145.42 178.28 C 145.37 178.77 145.37 178.77 144.97 179.18 C 143.66 179.29 143.66 179.29 142.93 178.67 C 142.23 177.68 141.68 176.61 141.12 175.54 C 140.87 175.07 140.59 174.62 140.31 174.16 C 139.84 173.41 139.44 172.64 139.05 171.83 C 138.92 171.57 138.78 171.30 138.65 171.03 C 138.51 170.76 138.37 170.48 138.23 170.20 C 138.11 169.95 137.98 169.70 137.85 169.44 C 135.60 164.95 135.60 164.95 134.87 163.06 C 134.77 162.82 134.67 162.59 134.58 162.34 C 134.47 162.08 134.37 161.82 134.27 161.56 C 134.17 161.32 134.08 161.08 133.98 160.83 C 133.73 160.07 133.62 159.37 133.54 158.57 C 133.45 157.72 133.35 156.89 133.18 156.05 C 133.03 155.22 132.95 154.41 132.88 153.57 C 132.83 153.06 132.83 153.06 132.67 152.34 C 132.50 151.44 132.44 150.56 132.38 149.65 C 132.28 148.32 132.13 147.00 131.99 145.68 C 131.78 143.83 131.68 142.00 131.65 140.14 C 131.63 139.11 131.57 138.08 131.50 137.05 C 131.36 134.87 131.37 132.68 131.37 130.50 C 131.37 129.77 131.37 129.05 131.37 128.32 C 131.37 127.85 131.37 127.39 131.37 126.92 C 131.37 126.70 131.37 126.49 131.37 126.27 C 131.37 125.02 131.45 123.81 131.60 122.56 C 131.62 122.22 131.63 121.87 131.63 121.52 C 131.76 117.93 132.22 114.25 132.93 110.73 C 132.97 110.53 133.00 110.32 133.04 110.11 C 133.26 108.92 133.50 107.75 133.81 106.57 C 133.91 106.19 134.00 105.80 134.10 105.41 C 134.93 101.88 136.11 98.42 137.62 95.12 C 137.80 94.69 137.99 94.26 138.17 93.82 C 140.01 89.47 142.43 85.40 145.17 81.56 C 145.34 81.32 145.51 81.08 145.68 80.83 C 146.59 79.58 147.52 78.35 148.51 77.16 C 148.78 76.83 149.05 76.50 149.32 76.17 C 149.82 75.56 150.35 74.99 150.88 74.41 C 151.03 74.23 151.17 74.05 151.32 73.87 C 151.81 73.28 152.33 72.75 152.88 72.22 C 153.11 71.98 153.34 71.74 153.56 71.48 C 153.93 71.06 154.32 70.66 154.72 70.26 C 154.87 70.11 155.01 69.96 155.16 69.81 C 155.31 69.66 155.46 69.51 155.62 69.36 C 155.77 69.21 155.92 69.06 156.08 68.90 C 156.22 68.75 156.37 68.61 156.52 68.46 C 156.65 68.33 156.78 68.19 156.92 68.06 C 157.31 67.68 157.71 67.32 158.12 66.97 C 158.46 66.66 158.79 66.36 159.12 66.05 C 159.70 65.52 160.28 64.99 160.87 64.47 C 161.20 64.19 161.51 63.90 161.83 63.61 C 162.20 63.28 162.57 62.96 162.96 62.64 C 163.62 62.10 164.24 61.53 164.86 60.95 C 165.98 59.92 165.98 59.92 166.48 59.48 C 166.86 59.14 167.24 58.80 167.61 58.45 C 168.11 57.98 168.62 57.52 169.14 57.07 C 169.90 56.39 170.65 55.70 171.39 55.00 C 171.79 54.63 172.20 54.27 172.61 53.91 C 173.66 52.96 174.67 51.96 175.68 50.96 C 175.74 50.90 175.74 50.90 176.04 50.60 C 176.62 50.02 177.18 49.43 177.71 48.81 C 178.19 48.28 178.68 47.75 179.17 47.23 C 179.67 46.70 180.15 46.16 180.62 45.60 C 180.98 45.16 181.34 44.75 181.73 44.34 C 182.37 43.65 182.95 42.93 183.53 42.18 C 183.94 41.67 184.36 41.16 184.78 40.65 C 185.53 39.76 186.22 38.85 186.89 37.89 C 187.20 37.49 187.50 37.08 187.81 36.67 C 188.05 36.33 188.30 35.98 188.54 35.64 C 188.87 35.19 189.20 34.74 189.54 34.29 C 190.17 33.43 190.78 32.55 191.38 31.67 C 191.53 31.45 191.69 31.23 191.85 31.00 C 192.65 29.83 193.42 28.66 194.16 27.44 C 194.52 26.84 194.91 26.26 195.29 25.67 C 195.73 24.99 196.16 24.30 196.58 23.61 C 196.67 23.47 196.76 23.33 196.85 23.18 C 197.50 22.13 198.12 21.05 198.73 19.97 C 199.06 19.38 199.40 18.79 199.74 18.21 C 200.40 17.04 200.98 15.84 201.57 14.64 C 202.02 13.73 202.49 12.85 203.01 11.98 C 203.28 11.44 203.56 10.90 203.83 10.35 C 203.96 10.09 204.09 9.83 204.22 9.57 C 204.63 8.76 205.01 7.94 205.40 7.13 C 205.60 6.72 205.80 6.30 206.01 5.90 C 206.51 4.87 206.94 3.83 207.39 2.78 C 207.94 1.58 208.23 1.09 209.54 1.17 Z M 143.01 9.61 C 143.14 9.61 143.14 9.61 143.83 9.60 C 145.17 9.60 146.41 9.64 147.72 9.94 C 147.94 9.97 148.16 10.00 148.38 10.03 C 152.44 10.74 156.10 13.20 159.04 15.96 C 159.18 16.08 159.32 16.19 159.46 16.31 C 162.51 19.11 164.97 23.50 165.57 27.59 C 165.60 27.73 165.60 27.73 165.72 28.45 C 165.77 28.74 165.83 29.03 165.88 29.33 C 165.91 29.53 165.95 29.73 165.99 29.94 C 166.32 32.48 166.17 35.23 165.47 37.69 C 165.44 37.86 165.41 38.02 165.39 38.19 C 164.97 40.32 164.05 42.23 163.02 44.12 C 162.96 44.24 162.96 44.24 162.63 44.84 C 161.79 46.23 160.77 47.43 159.65 48.61 C 159.54 48.73 159.44 48.85 159.32 48.97 C 156.71 51.85 153.06 53.85 149.35 54.93 C 149.15 55.00 148.95 55.06 148.74 55.13 C 143.31 56.39 136.94 56.20 131.91 53.71 C 131.77 53.64 131.64 53.58 131.50 53.51 C 125.95 50.79 122.09 45.95 120.02 40.19 C 119.68 39.14 119.44 38.07 119.26 36.98 C 119.22 36.81 119.19 36.64 119.15 36.47 C 119.02 35.49 119.03 34.52 119.03 33.53 C 119.03 33.34 119.03 33.14 119.03 32.94 C 119.03 31.82 119.09 30.74 119.26 29.63 C 119.28 29.46 119.31 29.30 119.33 29.12 C 120.26 23.40 123.55 17.69 128.24 14.22 C 131.34 12.10 134.89 10.36 138.64 9.84 C 138.84 9.81 139.05 9.77 139.26 9.74 C 140.50 9.56 141.75 9.61 143.01 9.61 Z" fill="#F0B849"/>
  <path id="blue" d="M 208.52 83.70 C 208.82 83.70 209.12 83.70 209.44 83.70 C 209.64 83.90 209.64 83.90 209.66 84.29 C 209.66 84.38 209.66 84.38 209.66 84.83 C 209.66 85.03 209.66 85.24 209.66 85.46 C 209.66 85.69 209.66 85.93 209.65 86.18 C 209.65 86.73 209.65 87.27 209.65 87.82 C 209.65 88.14 209.65 88.46 209.64 88.77 C 209.64 89.92 209.64 91.06 209.64 92.21 C 209.64 92.32 209.64 92.32 209.64 92.86 C 209.64 93.31 209.63 93.75 209.63 94.20 C 209.63 95.41 209.63 96.61 209.63 97.82 C 209.63 98.07 209.63 98.32 209.63 98.58 C 209.62 102.12 209.62 105.65 209.61 109.19 C 209.61 112.06 209.60 114.93 209.60 117.80 C 209.59 120.32 209.59 122.85 209.58 125.37 C 209.58 126.70 209.58 128.02 209.58 129.35 C 209.56 143.74 209.56 143.74 209.03 146.94 C 209.02 147.20 209.00 147.45 208.99 147.71 C 208.93 148.48 208.80 149.16 208.62 149.90 C 208.55 150.41 208.48 150.92 208.42 151.43 C 208.35 151.63 208.28 151.84 208.21 152.04 C 208.18 152.27 208.14 152.49 208.11 152.71 C 208.01 153.37 208.01 153.37 207.80 153.88 C 207.77 154.05 207.74 154.22 207.70 154.39 C 207.60 154.90 207.60 154.90 207.40 155.41 C 207.33 155.75 207.26 156.09 207.19 156.43 C 207.12 156.63 207.06 156.83 206.99 157.04 C 206.96 157.18 206.93 157.32 206.90 157.47 C 206.67 158.47 206.30 159.44 205.97 160.41 C 205.93 160.51 205.93 160.51 205.75 161.04 C 205.38 162.13 204.98 163.21 204.54 164.29 C 204.49 164.42 204.49 164.42 204.24 165.10 C 203.93 165.91 203.59 166.67 203.21 167.45 C 203.13 167.62 203.06 167.79 202.97 167.96 C 202.45 169.08 201.89 170.15 201.28 171.22 C 201.22 171.33 201.22 171.33 200.95 171.89 C 199.78 174.18 198.41 176.39 196.89 178.46 C 196.76 178.65 196.63 178.83 196.49 179.01 C 196.35 179.20 196.22 179.39 196.07 179.59 C 196.03 179.65 196.03 179.65 195.79 179.97 C 195.11 180.90 194.38 181.78 193.62 182.65 C 193.48 182.82 193.34 183.00 193.20 183.18 C 192.47 184.08 191.68 184.92 190.89 185.76 C 190.66 186.01 190.44 186.26 190.22 186.51 C 189.23 187.63 188.16 188.66 186.99 189.58 C 186.82 189.74 186.65 189.89 186.48 190.05 C 185.98 190.49 185.48 190.91 184.95 191.32 C 184.73 191.50 184.50 191.68 184.27 191.86 C 178.97 196.02 172.05 200.59 165.06 200.19 C 162.85 199.75 161.76 198.65 160.27 197.03 C 160.11 196.89 159.95 196.75 159.79 196.61 C 159.27 196.14 158.86 195.64 158.43 195.09 C 158.21 194.82 157.98 194.54 157.76 194.27 C 153.78 189.36 151.61 183.08 150.86 176.87 C 150.78 176.32 150.78 176.32 150.68 175.93 C 150.18 173.47 150.22 170.87 150.23 168.39 C 150.23 168.09 150.23 167.79 150.23 167.49 C 150.23 165.10 150.38 162.75 150.88 160.41 C 150.91 160.16 150.94 159.92 150.97 159.66 C 151.13 158.47 151.36 157.30 151.60 156.12 C 151.64 155.88 151.68 155.64 151.73 155.39 C 151.93 154.48 152.20 153.62 152.50 152.73 C 152.55 152.57 152.61 152.42 152.66 152.25 C 152.94 151.41 153.26 150.60 153.64 149.80 C 153.82 149.35 154.00 148.91 154.18 148.46 C 156.12 143.68 158.95 139.33 162.31 135.42 C 162.45 135.24 162.58 135.07 162.73 134.89 C 163.50 133.93 164.35 133.07 165.22 132.20 C 165.59 131.83 165.94 131.43 166.29 131.03 C 166.64 130.67 166.99 130.33 167.37 130.00 C 167.86 129.56 168.32 129.10 168.78 128.63 C 169.54 127.86 170.30 127.15 171.17 126.50 C 171.75 126.07 172.27 125.60 172.81 125.11 C 173.26 124.77 173.70 124.43 174.14 124.09 C 174.48 123.79 174.82 123.48 175.16 123.18 C 175.64 122.80 176.11 122.43 176.59 122.05 C 176.76 121.90 176.93 121.74 177.11 121.58 C 177.66 121.09 178.24 120.66 178.83 120.22 C 179.28 119.84 179.72 119.47 180.16 119.09 C 180.33 118.96 180.50 118.83 180.67 118.69 C 181.31 118.17 181.90 117.62 182.51 117.05 C 183.30 116.35 184.12 115.68 184.95 115.01 C 185.05 114.90 185.14 114.79 185.24 114.68 C 185.59 114.27 185.97 113.94 186.38 113.59 C 186.79 113.21 187.20 112.84 187.61 112.46 C 187.82 112.27 188.03 112.08 188.25 111.88 C 188.72 111.45 189.13 111.01 189.54 110.53 C 189.71 110.39 189.88 110.26 190.05 110.12 C 190.29 109.85 190.53 109.57 190.77 109.30 C 191.14 108.93 191.52 108.55 191.89 108.18 C 192.10 107.94 192.30 107.71 192.50 107.47 C 192.78 107.19 193.06 106.91 193.34 106.64 C 193.73 106.24 193.73 106.24 194.15 105.67 C 194.69 104.96 195.26 104.34 195.87 103.69 C 196.41 103.10 196.91 102.49 197.40 101.86 C 197.57 101.65 197.75 101.44 197.93 101.22 C 198.42 100.63 198.42 100.63 198.83 100.02 C 198.95 99.85 199.07 99.68 199.20 99.50 C 199.97 98.44 200.70 97.36 201.41 96.26 C 202.31 94.86 202.31 94.86 202.81 94.20 C 202.88 94.06 202.96 93.92 203.04 93.78 C 203.31 93.29 203.62 92.83 203.93 92.37 C 203.98 92.27 203.98 92.27 204.23 91.76 C 204.83 90.63 205.44 89.50 206.07 88.39 C 206.20 88.13 206.32 87.88 206.45 87.62 C 206.93 86.66 207.46 85.74 208.01 84.82 C 208.08 84.82 208.14 84.82 208.21 84.82 C 208.21 84.58 208.21 84.35 208.21 84.11 C 208.26 84.04 208.26 84.04 208.52 83.70 Z" fill="#2B58B4"/>
  <g id="wordmark"><path d="M 353.41 9.17 C 353.53 9.17 353.53 9.17 354.17 9.17 C 359.19 9.18 363.99 9.62 368.92 10.57 C 370.01 10.75 371.09 10.85 372.19 10.94 C 374.79 11.21 377.21 11.82 379.72 12.55 C 380.16 12.67 380.59 12.79 381.05 12.92 C 384.06 13.78 387.04 14.70 390.00 15.75 C 390.34 15.86 390.69 15.98 391.04 16.09 C 394.22 17.15 397.23 18.56 400.25 20.00 C 400.68 20.20 401.11 20.41 401.55 20.62 C 405.53 22.56 409.33 24.78 413.00 27.25 C 413.24 27.40 413.48 27.56 413.73 27.72 C 415.99 29.19 418.13 30.83 420.25 32.50 C 420.36 32.58 420.36 32.58 420.89 33.00 C 422.69 34.44 424.31 36.01 425.92 37.66 C 427.49 39.25 429.06 40.79 430.75 42.25 C 433.93 45.41 436.46 49.06 439.02 52.72 C 439.70 53.68 440.40 54.62 441.11 55.56 C 450.74 68.64 456.35 84.53 458.75 100.50 C 458.82 100.92 458.88 101.34 458.95 101.78 C 459.50 105.29 459.79 108.71 459.81 112.27 C 459.81 112.62 459.81 112.98 459.82 113.35 C 459.82 114.10 459.82 114.85 459.82 115.60 C 459.83 116.36 459.83 117.12 459.84 117.87 C 459.89 122.85 459.60 127.59 458.75 132.50 C 458.65 133.16 458.55 133.81 458.45 134.47 C 457.52 140.06 455.98 145.44 454.00 150.75 C 453.88 151.10 453.75 151.46 453.62 151.82 C 451.24 158.56 448.15 165.01 444.25 171.00 C 444.00 171.38 443.76 171.75 443.50 172.14 C 441.44 175.28 439.22 178.24 436.89 181.19 C 436.38 181.84 435.88 182.49 435.38 183.14 C 433.61 185.38 431.78 187.50 429.75 189.50 C 429.50 189.79 429.25 190.09 429.00 190.39 C 428.15 191.37 427.24 192.16 426.25 193.00 C 426.00 193.21 425.75 193.42 425.50 193.64 C 423.76 195.12 422.02 196.57 420.25 198.00 C 420.07 198.15 419.89 198.30 419.71 198.45 C 418.22 199.67 416.68 200.71 415.05 201.72 C 413.18 202.88 411.41 204.09 409.68 205.46 C 408.66 206.27 407.59 207.02 406.50 207.75 C 406.39 207.82 406.39 207.82 405.83 208.20 C 397.15 213.77 386.76 217.22 376.75 219.50 C 376.29 219.61 375.84 219.71 375.37 219.83 C 357.55 223.74 337.63 223.24 320.25 217.50 C 319.95 217.40 319.65 217.30 319.34 217.20 C 317.50 216.59 315.67 215.95 313.84 215.30 C 313.06 215.02 312.28 214.75 311.51 214.48 C 305.29 212.30 299.45 209.32 294.14 205.40 C 292.66 204.32 291.13 203.30 289.61 202.27 C 288.55 201.54 287.53 200.78 286.50 200.00 C 286.25 199.81 285.99 199.63 285.73 199.44 C 284.32 198.41 283.03 197.36 281.83 196.08 C 281.35 195.60 280.84 195.14 280.32 194.70 C 278.96 193.50 277.70 192.21 276.43 190.92 C 275.24 189.72 274.02 188.60 272.75 187.50 C 269.39 184.22 266.87 180.12 264.25 176.25 C 264.04 175.95 263.83 175.64 263.62 175.33 C 261.11 171.64 258.92 167.78 257.00 163.75 C 256.88 163.51 256.76 163.26 256.64 163.01 C 252.66 154.76 249.53 146.25 247.75 137.25 C 247.69 136.93 247.62 136.62 247.56 136.29 C 246.63 131.53 245.97 126.84 245.75 122.00 C 245.74 121.74 245.73 121.48 245.71 121.21 C 245.66 120.04 245.61 118.88 245.56 117.71 C 245.50 116.75 245.50 116.75 245.25 116.25 C 245.19 113.87 245.19 113.87 245.50 113.25 C 245.56 112.65 245.61 112.05 245.65 111.45 C 245.68 111.08 245.71 110.71 245.74 110.32 C 245.77 109.92 245.80 109.52 245.83 109.11 C 246.58 99.67 248.28 90.25 252.00 81.50 C 252.16 81.12 252.31 80.74 252.48 80.35 C 255.22 73.74 258.01 67.12 261.75 61.00 C 261.99 60.58 262.23 60.16 262.48 59.73 C 264.14 57.06 265.96 54.50 267.90 52.02 C 268.50 51.25 269.07 50.47 269.64 49.69 C 270.49 48.55 271.39 47.55 272.42 46.58 C 273.00 46.00 273.00 46.00 273.73 45.15 C 275.14 43.52 276.70 42.01 278.23 40.48 C 278.54 40.17 278.85 39.86 279.17 39.54 C 280.66 38.06 282.15 36.61 283.75 35.25 C 284.16 34.86 284.57 34.47 284.98 34.08 C 286.77 32.45 288.75 31.10 290.75 29.75 C 291.08 29.52 291.41 29.30 291.76 29.06 C 295.80 26.37 300.14 24.14 304.50 22.00 C 304.79 21.85 305.09 21.70 305.39 21.55 C 310.52 18.94 315.76 16.50 321.25 14.75 C 321.45 14.68 321.45 14.68 322.44 14.35 C 327.43 12.71 332.46 11.53 337.65 10.72 C 338.76 10.54 339.84 10.33 340.94 10.09 C 345.05 9.25 349.22 9.16 353.41 9.17 Z M 349.67 52.52 C 346.56 52.64 343.55 53.15 340.50 53.75 C 340.37 53.77 340.37 53.77 339.69 53.90 C 337.34 54.35 335.17 55.11 332.94 55.98 C 332.57 56.13 332.20 56.27 331.81 56.42 C 326.48 58.52 321.59 60.81 316.87 64.08 C 316.26 64.49 315.65 64.89 315.04 65.30 C 314.23 65.85 313.51 66.38 312.80 67.05 C 312.69 67.14 312.69 67.14 312.17 67.63 C 311.95 67.83 311.73 68.04 311.50 68.25 C 311.25 68.47 311.01 68.70 310.75 68.93 C 303.24 75.74 297.74 84.84 294.00 94.25 C 293.89 94.52 293.78 94.80 293.66 95.08 C 292.90 97.13 292.47 99.22 292.08 101.36 C 292.03 101.63 291.98 101.90 291.92 102.17 C 291.11 106.87 290.92 111.62 290.93 116.37 C 290.94 117.14 290.93 117.91 290.93 118.68 C 290.92 131.39 294.08 144.04 302.10 154.15 C 302.82 155.09 303.48 156.05 304.14 157.03 C 307.06 161.30 310.62 165.12 314.75 168.25 C 314.86 168.34 314.86 168.34 315.44 168.79 C 316.20 169.37 316.98 169.93 317.75 170.50 C 318.02 170.70 318.29 170.91 318.57 171.12 C 320.75 172.70 323.04 173.98 325.42 175.22 C 325.72 175.38 326.03 175.53 326.34 175.70 C 330.59 177.86 334.89 179.21 339.58 180.05 C 339.92 180.11 340.27 180.18 340.62 180.24 C 344.84 181.00 349.03 181.05 353.29 181.05 C 354.14 181.05 354.99 181.05 355.83 181.06 C 359.93 181.07 363.73 180.71 367.70 179.69 C 368.01 179.61 368.31 179.53 368.62 179.45 C 373.73 178.13 378.95 176.47 383.50 173.75 C 383.64 173.67 383.64 173.67 384.34 173.27 C 386.93 171.77 389.34 170.04 391.75 168.25 C 391.86 168.17 391.86 168.17 392.45 167.75 C 394.41 166.32 396.16 164.74 397.88 163.02 C 398.15 162.74 398.42 162.47 398.71 162.18 C 400.82 160.03 402.43 157.83 404.00 155.25 C 404.43 154.65 404.86 154.06 405.30 153.47 C 415.46 139.31 416.94 121.80 415.00 105.00 C 414.95 104.55 414.90 104.10 414.85 103.64 C 414.43 100.36 413.37 97.34 412.25 94.25 C 412.13 93.92 412.02 93.60 411.90 93.26 C 411.12 91.17 410.13 89.18 409.14 87.19 C 409.01 86.91 408.87 86.64 408.73 86.36 C 407.84 84.58 406.84 82.91 405.75 81.25 C 405.56 80.95 405.37 80.65 405.17 80.34 C 401.26 74.17 396.84 68.88 390.75 64.75 C 390.49 64.56 390.22 64.37 389.95 64.18 C 386.28 61.56 382.40 59.72 378.25 58.00 C 377.65 57.73 377.05 57.47 376.45 57.20 C 367.94 53.56 358.86 52.33 349.67 52.52 Z" fill="#FFFFFF"/><path d="M 1102.58 10.64 C 1103.39 10.77 1104.19 10.80 1105.02 10.83 C 1110.50 11.15 1115.73 12.82 1120.92 14.51 C 1122.52 15.03 1124.13 15.49 1125.77 15.89 C 1129.60 16.88 1133.05 18.75 1136.57 20.53 C 1137.38 20.94 1138.20 21.34 1139.02 21.74 C 1144.05 24.15 1148.87 27.14 1153.50 30.25 C 1153.78 30.43 1154.06 30.61 1154.36 30.80 C 1156.21 32.03 1157.80 33.43 1159.41 34.96 C 1160.16 35.66 1160.92 36.31 1161.72 36.95 C 1163.59 38.46 1165.19 40.17 1166.75 42.00 C 1166.86 42.13 1166.86 42.13 1167.41 42.77 C 1168.45 43.98 1169.47 45.20 1170.44 46.47 C 1171.25 47.50 1171.25 47.50 1172.11 48.36 C 1175.05 51.30 1177.49 54.87 1179.50 58.50 C 1179.80 59.02 1180.10 59.54 1180.41 60.06 C 1181.49 61.96 1182.53 63.89 1183.56 65.82 C 1184.19 66.99 1184.83 68.14 1185.52 69.27 C 1187.80 73.10 1189.41 77.20 1190.91 81.39 C 1191.42 82.79 1191.97 84.17 1192.55 85.55 C 1193.57 88.08 1194.33 90.66 1195.05 93.29 C 1195.23 93.94 1195.43 94.59 1195.62 95.23 C 1196.38 97.87 1196.71 100.43 1196.89 103.16 C 1197.17 106.51 1197.17 106.51 1198.00 107.75 C 1198.07 108.50 1198.07 108.50 1198.07 109.44 C 1198.07 109.79 1198.07 110.14 1198.08 110.50 C 1198.08 110.87 1198.08 111.25 1198.08 111.64 C 1198.08 111.84 1198.08 111.84 1198.08 112.82 C 1198.08 113.65 1198.08 114.47 1198.08 115.29 C 1198.08 116.55 1198.08 117.81 1198.09 119.07 C 1198.09 119.87 1198.09 120.67 1198.09 121.47 C 1198.09 121.85 1198.10 122.23 1198.10 122.61 C 1198.10 122.79 1198.10 122.79 1198.09 123.68 C 1198.09 123.99 1198.09 124.30 1198.09 124.62 C 1197.99 125.62 1197.67 126.35 1197.25 127.25 C 1197.09 127.99 1197.09 127.99 1196.99 128.73 C 1196.96 129.00 1196.92 129.27 1196.88 129.55 C 1196.80 130.12 1196.73 130.68 1196.66 131.24 C 1196.42 132.95 1196.04 134.54 1195.51 136.19 C 1195.17 137.26 1194.91 138.33 1194.64 139.42 C 1193.83 142.73 1192.77 145.83 1191.50 149.00 C 1191.20 149.80 1190.90 150.60 1190.61 151.41 C 1190.47 151.79 1190.33 152.18 1190.18 152.58 C 1189.89 153.37 1189.60 154.16 1189.32 154.96 C 1188.39 157.59 1187.30 160.03 1186.00 162.50 C 1185.75 163.00 1185.49 163.50 1185.24 164.00 C 1183.70 167.01 1182.10 169.92 1180.25 172.75 C 1180.02 173.11 1179.80 173.47 1179.56 173.84 C 1178.24 175.93 1176.86 177.88 1175.25 179.75 C 1175.04 180.02 1174.83 180.29 1174.61 180.56 C 1174.00 181.25 1174.00 181.25 1173.09 182.03 C 1171.70 183.26 1170.49 184.62 1169.25 186.00 C 1168.77 186.52 1168.29 187.04 1167.81 187.56 C 1166.59 188.90 1165.38 190.25 1164.21 191.64 C 1162.83 193.22 1161.35 194.51 1159.68 195.78 C 1158.71 196.53 1157.80 197.32 1156.89 198.12 C 1154.00 200.65 1150.99 202.70 1147.65 204.59 C 1145.80 205.65 1144.03 206.81 1142.27 207.99 C 1138.68 210.29 1134.74 212.02 1130.75 213.50 C 1130.59 213.58 1130.59 213.58 1129.78 213.98 C 1124.37 216.69 1118.30 217.98 1112.41 219.22 C 1111.49 219.44 1110.62 219.70 1109.72 219.99 C 1107.94 220.54 1106.16 220.87 1104.33 221.16 C 1103.99 221.21 1103.65 221.26 1103.31 221.32 C 1096.10 222.41 1089.01 222.50 1081.75 221.75 C 1081.39 221.71 1081.03 221.68 1080.66 221.64 C 1079.46 221.52 1078.26 221.39 1077.06 221.26 C 1076.68 221.23 1076.30 221.19 1075.91 221.15 C 1073.79 220.91 1071.80 220.57 1069.75 220.00 C 1068.22 219.59 1066.71 219.23 1065.14 219.01 C 1063.76 218.82 1062.48 218.46 1061.15 218.03 C 1060.24 217.75 1059.33 217.52 1058.41 217.30 C 1056.25 216.77 1054.16 216.10 1052.06 215.37 C 1051.69 215.24 1051.31 215.11 1050.92 214.98 C 1044.42 212.70 1038.44 210.02 1032.86 205.95 C 1031.39 204.88 1029.91 203.84 1028.41 202.81 C 1027.01 201.86 1025.65 200.87 1024.30 199.84 C 1023.00 198.88 1021.67 197.97 1020.34 197.05 C 1017.56 195.02 1015.14 192.72 1012.72 190.28 C 1012.39 189.96 1012.07 189.63 1011.73 189.30 C 1010.14 187.70 1008.61 186.09 1007.21 184.32 C 1006.63 183.60 1006.00 182.92 1005.36 182.25 C 1004.12 180.91 1003.04 179.50 1002.00 178.00 C 1001.82 177.75 1001.65 177.50 1001.47 177.25 C 1000.23 175.49 999.07 173.68 997.94 171.85 C 997.55 171.23 997.16 170.61 996.75 170.00 C 995.22 167.68 993.94 165.27 992.70 162.78 C 992.51 162.40 992.32 162.02 992.12 161.63 C 991.06 159.50 990.13 157.36 989.32 155.12 C 988.93 154.04 988.48 152.99 988.03 151.94 C 983.71 141.16 983.41 130.17 983.42 118.72 C 983.42 117.65 983.42 116.57 983.42 115.49 C 983.34 96.90 983.34 96.90 986.17 89.69 C 986.59 88.50 986.87 87.29 987.17 86.06 C 988.53 80.67 990.76 75.77 993.40 70.90 C 993.84 70.09 994.24 69.26 994.64 68.42 C 996.15 65.38 997.94 62.41 999.99 59.70 C 1000.65 58.80 1001.24 57.86 1001.84 56.92 C 1004.24 53.19 1006.81 49.74 1009.82 46.50 C 1010.43 45.83 1010.99 45.15 1011.55 44.44 C 1013.78 41.67 1016.38 39.10 1019.25 37.00 C 1019.55 36.78 1019.85 36.55 1020.17 36.32 C 1021.11 35.63 1022.05 34.94 1023.00 34.25 C 1024.48 33.17 1025.88 32.03 1027.27 30.84 C 1027.99 30.26 1028.73 29.76 1029.50 29.25 C 1029.84 28.96 1030.18 28.67 1030.53 28.37 C 1032.52 26.76 1034.79 25.54 1037.00 24.25 C 1037.31 24.06 1037.62 23.88 1037.94 23.68 C 1039.91 22.51 1041.94 21.62 1044.07 20.75 C 1045.84 20.00 1047.54 19.12 1049.25 18.25 C 1052.41 16.64 1055.60 15.50 1059.00 14.50 C 1059.26 14.42 1059.51 14.34 1059.78 14.27 C 1062.78 13.37 1065.73 12.58 1068.84 12.17 C 1069.80 12.03 1070.72 11.84 1071.67 11.63 C 1073.45 11.24 1075.23 11.03 1077.05 10.87 C 1077.71 10.81 1078.37 10.75 1079.03 10.69 C 1079.36 10.66 1079.69 10.63 1080.03 10.60 C 1080.94 10.51 1081.83 10.40 1082.73 10.29 C 1089.38 9.44 1095.97 9.49 1102.58 10.64 Z M 1065.25 58.00 C 1064.98 58.11 1064.71 58.23 1064.43 58.34 C 1059.45 60.44 1054.89 63.11 1050.50 66.25 C 1050.20 66.46 1049.89 66.67 1049.58 66.88 C 1046.81 68.80 1044.37 70.91 1042.28 73.57 C 1041.94 74.01 1041.59 74.43 1041.22 74.85 C 1039.57 76.72 1038.40 78.83 1037.20 81.00 C 1036.67 81.94 1036.14 82.86 1035.58 83.78 C 1031.51 90.76 1028.90 98.29 1027.75 106.25 C 1027.73 106.38 1027.73 106.38 1027.64 107.01 C 1026.22 116.51 1025.71 129.07 1029.77 137.94 C 1030.15 138.79 1030.52 139.64 1030.87 140.50 C 1033.91 147.87 1037.59 154.60 1043.00 160.50 C 1043.22 160.74 1043.44 160.99 1043.67 161.24 C 1046.73 164.60 1049.85 167.78 1053.50 170.50 C 1053.82 170.75 1054.13 171.00 1054.45 171.26 C 1057.79 173.61 1061.36 175.46 1065.19 176.85 C 1066.23 177.24 1067.22 177.69 1068.23 178.14 C 1075.19 181.00 1083.24 181.07 1090.64 181.06 C 1090.89 181.06 1091.15 181.06 1091.41 181.06 C 1095.54 181.05 1099.41 180.92 1103.44 179.98 C 1103.77 179.91 1104.11 179.83 1104.45 179.75 C 1107.69 178.99 1110.85 178.05 1114.00 177.00 C 1114.44 176.86 1114.88 176.71 1115.33 176.56 C 1123.52 173.72 1129.78 167.29 1135.75 161.25 C 1135.97 161.03 1136.18 160.82 1136.40 160.60 C 1138.66 158.34 1140.45 155.88 1142.25 153.25 C 1142.51 152.88 1142.78 152.51 1143.05 152.14 C 1147.18 146.18 1149.23 139.39 1151.01 132.43 C 1151.22 131.63 1151.44 130.84 1151.68 130.05 C 1152.03 128.61 1152.20 127.21 1152.30 125.73 C 1152.32 125.45 1152.34 125.17 1152.36 124.88 C 1152.55 121.83 1152.56 118.80 1152.50 115.75 C 1152.50 115.58 1152.50 115.58 1152.49 114.72 C 1152.47 113.64 1152.45 112.55 1152.42 111.47 C 1152.42 111.13 1152.41 110.80 1152.41 110.45 C 1152.31 107.02 1151.66 103.85 1150.60 100.60 C 1150.20 99.33 1149.87 98.05 1149.53 96.76 C 1148.87 94.32 1148.01 92.06 1147.00 89.75 C 1146.83 89.34 1146.67 88.94 1146.50 88.52 C 1145.63 86.39 1144.72 84.44 1143.50 82.50 C 1143.29 82.03 1143.07 81.55 1142.86 81.08 C 1141.85 79.02 1140.29 77.43 1138.75 75.75 C 1138.53 75.50 1138.31 75.26 1138.09 75.00 C 1135.21 71.79 1132.18 68.63 1128.75 66.00 C 1128.32 65.65 1127.90 65.30 1127.47 64.95 C 1120.02 59.03 1110.35 55.44 1101.14 53.41 C 1101.00 53.37 1101.00 53.37 1100.29 53.22 C 1088.33 50.71 1076.30 53.40 1065.25 58.00 Z" fill="#FFFFFF"/><path d="M 511.36 13.75 C 514.86 14.05 518.35 14.07 521.86 14.06 C 522.56 14.06 523.25 14.06 523.95 14.06 C 525.85 14.06 527.74 14.06 529.64 14.05 C 531.69 14.05 533.74 14.05 535.79 14.05 C 539.34 14.05 542.89 14.04 546.44 14.04 C 551.57 14.03 556.71 14.03 561.84 14.03 C 570.18 14.02 578.51 14.02 586.85 14.01 C 586.97 14.01 586.97 14.01 587.60 14.01 C 591.39 14.01 595.18 14.00 598.97 14.00 C 603.01 14.00 607.06 13.99 611.11 13.99 C 611.23 13.99 611.23 13.99 611.86 13.99 C 620.42 13.98 628.99 13.98 637.55 13.97 C 642.67 13.97 647.79 13.97 652.92 13.96 C 656.42 13.96 659.93 13.95 663.44 13.95 C 665.46 13.95 667.48 13.95 669.51 13.95 C 671.36 13.94 673.21 13.94 675.06 13.94 C 675.73 13.94 676.40 13.94 677.07 13.94 C 677.98 13.94 678.89 13.94 679.80 13.94 C 680.06 13.94 680.33 13.94 680.59 13.94 C 684.85 13.95 684.85 13.95 686.39 15.25 C 687.62 17.27 687.57 19.53 687.56 21.83 C 687.56 21.98 687.56 21.98 687.57 22.74 C 687.57 23.71 687.57 24.69 687.57 25.67 C 687.57 26.36 687.57 27.04 687.57 27.72 C 687.57 29.16 687.57 30.59 687.56 32.02 C 687.56 33.85 687.56 35.68 687.57 37.51 C 687.57 38.92 687.57 40.33 687.57 41.75 C 687.57 42.42 687.57 43.09 687.57 43.77 C 687.57 44.71 687.57 45.66 687.56 46.60 C 687.56 46.88 687.57 47.15 687.57 47.44 C 687.55 50.20 687.45 53.26 685.42 55.34 C 683.29 56.63 680.64 56.53 678.23 56.53 C 677.98 56.53 677.74 56.53 677.48 56.53 C 676.67 56.53 675.86 56.52 675.04 56.52 C 674.46 56.52 673.87 56.52 673.29 56.52 C 672.03 56.52 670.77 56.51 669.51 56.51 C 667.52 56.51 665.53 56.51 663.55 56.50 C 657.89 56.50 652.23 56.49 646.57 56.48 C 643.45 56.47 640.32 56.47 637.19 56.46 C 635.22 56.46 633.24 56.46 631.26 56.45 C 630.03 56.45 628.80 56.45 627.57 56.45 C 627.00 56.45 626.43 56.45 625.86 56.44 C 625.08 56.44 624.30 56.44 623.52 56.44 C 623.09 56.44 622.65 56.44 622.20 56.44 C 620.65 56.52 619.25 56.61 618.00 57.58 C 616.60 59.46 617.22 62.72 617.37 64.93 C 617.55 68.14 617.59 71.35 617.64 74.56 C 617.64 74.91 617.65 75.27 617.65 75.63 C 617.80 86.13 617.79 96.63 617.78 107.13 C 617.78 109.23 617.78 111.33 617.78 113.43 C 617.78 113.73 617.78 114.03 617.78 114.35 C 617.78 114.96 617.78 115.58 617.78 116.20 C 617.78 121.93 617.78 127.66 617.78 133.39 C 617.78 138.27 617.78 143.15 617.78 148.03 C 617.78 153.74 617.78 159.46 617.78 165.18 C 617.78 165.80 617.78 166.41 617.78 167.02 C 617.78 167.33 617.78 167.63 617.78 167.94 C 617.78 170.03 617.78 172.12 617.78 174.20 C 617.79 195.57 617.79 195.57 617.65 204.96 C 617.65 205.27 617.65 205.57 617.64 205.89 C 617.53 214.81 617.53 214.81 616.00 216.75 C 614.14 218.14 612.21 218.07 609.96 218.03 C 609.67 218.03 609.37 218.03 609.07 218.03 C 608.44 218.02 607.82 218.02 607.19 218.01 C 605.98 218.00 604.78 218.00 603.57 217.99 C 600.27 217.98 596.96 217.96 593.66 217.94 C 591.86 217.93 590.06 217.92 588.25 217.91 C 586.49 217.91 584.73 217.90 582.97 217.89 C 582.30 217.88 581.64 217.88 580.97 217.88 C 580.04 217.87 579.11 217.87 578.19 217.86 C 577.91 217.86 577.64 217.86 577.36 217.86 C 575.49 217.84 574.17 217.64 572.80 216.33 C 571.71 214.69 571.69 212.97 571.69 211.05 C 571.68 210.81 571.68 210.57 571.68 210.32 C 571.68 209.52 571.68 208.71 571.68 207.91 C 571.68 207.32 571.68 206.74 571.68 206.16 C 571.68 204.55 571.68 202.95 571.68 201.34 C 571.68 199.61 571.68 197.88 571.68 196.15 C 571.67 192.76 571.67 189.37 571.67 185.98 C 571.67 183.22 571.67 180.46 571.67 177.70 C 571.67 177.30 571.67 176.91 571.67 176.51 C 571.67 175.71 571.67 174.91 571.67 174.11 C 571.67 166.62 571.67 159.13 571.67 151.64 C 571.67 144.80 571.67 137.96 571.66 131.12 C 571.66 124.09 571.66 117.06 571.66 110.03 C 571.66 106.09 571.66 102.15 571.65 98.20 C 571.65 94.84 571.65 91.48 571.65 88.12 C 571.66 86.41 571.66 84.70 571.65 82.98 C 571.63 70.47 571.63 70.47 572.34 64.33 C 572.59 62.05 572.75 59.89 571.75 57.75 C 570.26 56.71 568.60 56.72 566.84 56.70 C 566.39 56.69 565.95 56.69 565.49 56.68 C 565.00 56.68 564.51 56.68 564.00 56.67 C 563.49 56.67 562.97 56.66 562.45 56.66 C 561.04 56.64 559.63 56.63 558.23 56.62 C 557.34 56.61 556.46 56.60 555.57 56.59 C 547.21 56.52 538.85 56.49 530.48 56.50 C 516.32 56.52 516.32 56.52 509.83 56.44 C 509.17 56.43 508.51 56.42 507.86 56.41 C 506.98 56.41 506.10 56.39 505.21 56.38 C 504.73 56.37 504.25 56.37 503.76 56.36 C 502.13 56.22 500.95 55.95 499.78 54.78 C 495.08 47.87 497.67 30.26 498.19 22.03 C 498.20 21.76 498.22 21.49 498.23 21.22 C 498.42 18.81 498.81 16.51 500.45 14.70 C 503.54 12.63 507.83 13.42 511.36 13.75 Z" fill="#FFFFFF"/><path d="M 887.72 13.61 C 892.19 13.77 896.65 13.79 901.11 13.78 C 902.44 13.78 903.76 13.78 905.08 13.78 C 905.94 13.78 906.79 13.78 907.64 13.78 C 908.03 13.78 908.42 13.78 908.83 13.78 C 910.98 13.78 913.10 13.69 915.25 13.50 C 919.88 13.30 919.88 13.30 921.75 14.25 C 922.90 15.54 922.87 16.64 922.87 18.33 C 922.88 18.59 922.88 18.85 922.88 19.12 C 922.88 20.00 922.88 20.88 922.87 21.76 C 922.87 22.40 922.88 23.03 922.88 23.67 C 922.88 25.42 922.88 27.17 922.87 28.92 C 922.87 30.81 922.87 32.70 922.87 34.59 C 922.88 38.30 922.87 42.02 922.87 45.73 C 922.86 50.09 922.86 54.44 922.86 58.80 C 922.86 66.62 922.86 74.45 922.85 82.27 C 922.85 89.77 922.84 97.28 922.84 104.79 C 922.84 105.24 922.84 105.70 922.84 106.17 C 922.84 106.63 922.84 107.08 922.84 107.55 C 922.84 116.17 922.84 124.79 922.84 133.41 C 922.83 135.99 922.83 138.57 922.83 141.15 C 922.83 159.35 922.77 177.55 922.54 195.75 C 922.53 197.00 922.51 198.25 922.50 199.50 C 922.47 201.44 922.45 203.39 922.42 205.33 C 922.41 206.04 922.40 206.75 922.39 207.47 C 922.38 208.44 922.37 209.41 922.35 210.39 C 922.35 210.53 922.35 210.53 922.34 211.24 C 922.27 215.26 922.27 215.26 921.22 216.75 C 919.63 217.85 917.85 217.81 915.98 217.79 C 915.48 217.79 914.99 217.78 914.48 217.78 C 914.22 217.78 913.96 217.77 913.69 217.77 C 912.30 217.76 910.91 217.75 909.52 217.75 C 909.24 217.75 908.97 217.75 908.68 217.75 C 906.19 217.74 903.72 217.80 901.23 217.87 C 897.70 217.98 894.17 218.03 890.63 218.04 C 890.10 218.04 889.58 218.05 889.05 218.05 C 881.24 218.10 881.24 218.10 879.50 216.50 C 878.78 215.06 878.88 213.63 878.84 212.05 C 878.83 211.68 878.82 211.30 878.81 210.92 C 878.78 209.63 878.75 208.35 878.72 207.06 C 878.71 206.84 878.71 206.84 878.69 205.69 C 878.46 195.32 878.44 184.95 878.44 174.57 C 878.44 173.26 878.44 171.95 878.43 170.64 C 878.42 160.81 878.50 151.00 878.96 141.18 C 879.03 139.28 879.05 137.59 878.50 135.75 C 876.13 133.97 872.45 134.69 869.63 134.87 C 867.43 135.00 865.25 135.00 863.06 134.99 C 858.69 134.98 854.33 135.08 849.96 135.21 C 843.53 135.40 837.09 135.54 830.66 135.51 C 823.77 135.49 816.88 135.51 809.99 135.56 C 808.79 135.57 807.58 135.58 806.37 135.59 C 804.93 135.59 803.50 135.60 802.06 135.61 C 801.53 135.62 801.00 135.62 800.46 135.62 C 793.91 135.64 793.91 135.64 792.22 137.23 C 791.04 139.16 791.49 141.60 791.62 143.77 C 791.77 146.34 791.79 148.91 791.80 151.48 C 791.80 151.99 791.81 152.50 791.81 153.00 C 791.82 154.37 791.82 155.74 791.83 157.11 C 791.83 158.57 791.84 160.02 791.84 161.47 C 791.86 163.92 791.87 166.36 791.88 168.81 C 791.89 171.91 791.90 175.00 791.92 178.10 C 791.93 180.80 791.94 183.51 791.95 186.22 C 791.95 187.06 791.96 187.91 791.96 188.75 C 791.98 193.16 791.98 193.16 791.99 195.17 C 791.99 195.43 791.99 195.69 791.99 195.96 C 791.99 196.48 791.99 197.01 791.99 197.53 C 792.00 199.28 792.01 201.03 792.02 202.78 C 792.03 204.02 792.04 205.27 792.04 206.51 C 792.05 207.11 792.05 207.70 792.06 208.30 C 792.07 209.13 792.07 209.95 792.07 210.78 C 792.08 211.25 792.08 211.72 792.09 212.21 C 791.98 213.75 791.77 215.17 790.72 216.34 C 788.69 217.49 786.72 217.63 784.45 217.68 C 784.13 217.69 783.81 217.70 783.48 217.71 C 782.44 217.74 781.40 217.77 780.36 217.80 C 779.63 217.82 778.91 217.84 778.19 217.86 C 772.04 218.02 765.90 218.07 759.75 218.00 C 759.28 217.99 758.81 217.99 758.32 217.98 C 756.96 217.97 755.60 217.95 754.23 217.92 C 753.83 217.92 753.43 217.91 753.01 217.90 C 752.82 217.90 752.82 217.90 751.88 217.88 C 751.56 217.87 751.24 217.86 750.90 217.86 C 749.49 217.69 748.53 217.29 747.55 216.26 C 746.10 214.24 746.21 212.28 746.20 209.88 C 746.20 209.56 746.19 209.24 746.19 208.92 C 746.18 207.86 746.18 206.80 746.17 205.74 C 746.17 204.98 746.16 204.22 746.16 203.46 C 746.14 201.85 746.13 200.23 746.12 198.62 C 746.11 196.64 746.10 194.67 746.08 192.69 C 746.01 182.36 746.00 172.02 746.00 161.69 C 746.01 152.25 745.99 142.82 745.95 133.38 C 745.94 133.08 745.94 132.77 745.94 132.46 C 745.92 127.84 745.90 123.21 745.88 118.59 C 745.63 67.94 745.63 67.94 745.87 48.30 C 745.90 45.81 745.92 43.33 745.95 40.85 C 745.95 40.58 745.95 40.31 745.96 40.04 C 745.99 36.56 746.00 33.08 745.98 29.60 C 745.98 29.21 745.98 28.83 745.98 28.44 C 745.97 26.73 745.95 25.01 745.92 23.30 C 745.92 22.73 745.92 22.15 745.91 21.57 C 745.90 21.08 745.90 20.60 745.89 20.10 C 746.06 17.98 746.65 15.99 748.25 14.50 C 750.27 13.57 752.55 13.71 754.73 13.71 C 755.06 13.71 755.38 13.71 755.71 13.71 C 756.78 13.71 757.85 13.71 758.91 13.71 C 759.66 13.71 760.40 13.71 761.15 13.70 C 762.71 13.70 764.27 13.70 765.83 13.70 C 767.82 13.70 769.82 13.70 771.81 13.69 C 773.35 13.69 774.89 13.69 776.43 13.69 C 777.16 13.69 777.90 13.69 778.63 13.69 C 788.46 13.66 788.46 13.66 790.75 15.00 C 792.32 16.57 792.77 17.85 792.81 20.03 C 792.81 20.63 792.80 21.22 792.80 21.81 C 792.80 21.95 792.80 21.95 792.80 22.68 C 792.79 24.34 792.73 26.00 792.63 27.66 C 792.45 30.90 792.42 34.15 792.38 37.41 C 792.36 38.34 792.35 39.28 792.33 40.22 C 792.33 40.80 792.32 41.37 792.31 41.95 C 792.29 43.59 792.23 45.22 792.16 46.85 C 792.00 50.38 791.98 53.90 792.00 57.43 C 792.01 58.47 792.02 59.50 792.02 60.53 C 792.03 63.46 792.04 66.39 792.06 69.32 C 792.07 71.13 792.08 72.94 792.09 74.74 C 792.09 75.42 792.09 76.10 792.10 76.78 C 792.13 80.74 791.92 84.50 791.22 88.39 C 790.91 90.29 790.74 91.81 791.75 93.50 C 794.44 95.36 798.02 95.03 801.17 95.13 C 801.50 95.14 801.83 95.15 802.18 95.16 C 806.77 95.30 811.37 95.34 815.97 95.39 C 816.45 95.39 816.92 95.40 817.42 95.41 C 824.35 95.48 831.28 95.55 838.22 95.51 C 839.44 95.50 840.66 95.49 841.88 95.49 C 844.19 95.47 846.49 95.46 848.80 95.44 C 850.09 95.43 851.39 95.42 852.68 95.41 C 858.24 95.38 863.77 95.25 869.32 94.89 C 869.80 94.86 870.28 94.83 870.77 94.80 C 876.87 94.37 876.87 94.37 878.25 93.00 C 878.85 91.56 878.72 90.42 878.53 88.89 C 877.69 80.43 878.26 71.73 878.39 63.23 C 878.48 57.52 878.55 51.81 878.60 46.09 C 878.63 42.73 878.67 39.37 878.71 36.01 C 878.73 33.76 878.75 31.51 878.77 29.26 C 878.79 27.47 878.81 25.69 878.83 23.91 C 878.84 23.29 878.85 22.67 878.85 22.05 C 878.86 21.21 878.87 20.38 878.88 19.54 C 878.89 19.09 878.89 18.63 878.90 18.17 C 879.02 16.73 879.30 15.70 880.33 14.67 C 882.60 13.25 885.16 13.50 887.72 13.61 Z" fill="#FFFFFF"/></g>
</svg>
