<svg xmlns="http://www.w3.org/2000/svg" viewBox="-19.50 -19.41 250.00 242.82" width="250" height="243">
  <path id="teal" d="M 36.70 4.02 C 37.11 4.12 37.53 4.20 37.94 4.28 C 38.79 4.44 39.60 4.66 40.42 4.90 C 40.80 5.01 41.18 5.11 41.56 5.21 C 43.56 5.71 45.46 6.46 47.35 7.28 C 47.78 7.46 48.21 7.64 48.65 7.81 C 49.32 8.08 49.96 8.39 50.60 8.71 C 51.01 8.92 51.42 9.11 51.84 9.31 C 53.57 10.12 55.21 11.08 56.85 12.05 C 57.38 12.36 57.91 12.66 58.44 12.96 C 60.59 14.20 62.59 15.71 64.50 17.28 C 64.87 17.58 65.24 17.86 65.61 18.15 C 66.27 18.68 66.89 19.24 67.50 19.82 C 67.76 20.07 68.03 20.31 68.30 20.55 C 68.68 20.87 69.02 21.22 69.38 21.57 C 69.51 21.69 69.64 21.80 69.77 21.92 C 70.24 22.33 70.67 22.77 71.11 23.21 C 71.23 23.31 71.36 23.42 71.49 23.52 C 72.02 24.00 72.49 24.51 72.97 25.04 C 73.22 25.31 73.47 25.57 73.72 25.84 C 74.50 26.66 75.21 27.51 75.90 28.41 C 76.06 28.58 76.21 28.74 76.36 28.92 C 76.92 29.54 77.43 30.19 77.94 30.86 C 78.02 30.96 78.02 30.96 78.43 31.48 C 80.78 34.55 83.00 37.70 85.09 40.95 C 85.14 41.05 85.14 41.05 85.44 41.51 C 86.90 43.83 88.23 46.22 89.57 48.61 C 89.67 48.78 89.77 48.95 89.87 49.12 C 90.34 49.98 90.79 50.84 91.21 51.73 C 91.82 53.00 92.45 54.26 93.09 55.52 C 93.97 57.28 94.82 59.04 95.59 60.85 C 95.81 61.34 96.03 61.83 96.25 62.33 C 96.35 62.54 96.44 62.76 96.54 62.99 C 96.72 63.38 96.89 63.77 97.07 64.16 C 97.36 64.80 97.64 65.45 97.92 66.10 C 97.97 66.22 97.97 66.22 98.22 66.81 C 98.53 67.54 98.85 68.28 99.16 69.02 C 99.36 69.50 99.56 69.98 99.76 70.46 C 100.47 72.12 101.16 73.78 101.84 75.45 C 102.10 76.11 102.37 76.76 102.64 77.41 C 103.27 78.93 103.88 80.45 104.47 81.99 C 105.11 83.65 105.77 85.31 106.43 86.97 C 107.42 89.48 108.38 92.01 109.32 94.54 C 109.89 96.07 110.50 97.58 111.10 99.10 C 111.82 100.93 112.53 102.77 113.24 104.61 C 113.50 105.27 113.75 105.94 114.01 106.60 C 114.17 107.04 114.34 107.47 114.51 107.91 C 115.06 109.35 115.62 110.78 116.20 112.21 C 116.88 113.90 117.54 115.61 118.19 117.32 C 118.64 118.53 119.13 119.72 119.62 120.92 C 119.88 121.56 120.08 122.21 120.28 122.87 C 120.48 123.50 120.69 124.00 120.99 124.60 C 121.05 124.81 121.11 125.01 121.17 125.22 C 121.39 125.89 121.68 126.48 122.00 127.11 C 122.36 127.86 122.64 128.63 122.92 129.41 C 123.05 129.74 123.17 130.07 123.30 130.40 C 123.32 130.48 123.32 130.48 123.47 130.89 C 123.77 131.67 124.08 132.44 124.39 133.21 C 124.56 133.68 124.56 133.68 124.66 134.13 C 124.79 134.72 125.03 135.22 125.28 135.77 C 125.87 137.09 126.40 138.44 126.91 139.80 C 127.44 141.23 128.00 142.64 128.58 144.04 C 128.92 144.87 129.24 145.70 129.56 146.54 C 129.64 146.71 129.71 146.88 129.78 147.06 C 129.97 147.56 129.97 147.56 130.16 148.34 C 130.69 150.42 131.71 152.37 132.63 154.31 C 132.86 154.80 133.10 155.29 133.33 155.78 C 133.52 156.18 133.71 156.57 133.90 156.96 C 134.18 157.61 134.25 158.22 134.34 158.92 C 134.59 160.14 135.11 161.29 135.58 162.45 C 135.62 162.54 135.62 162.54 135.80 163.00 C 136.52 164.76 137.37 166.46 138.23 168.16 C 139.86 171.43 139.86 171.43 140.26 172.24 C 140.60 172.93 141.00 173.58 141.42 174.23 C 141.88 174.98 142.28 175.77 142.69 176.55 C 143.56 178.07 143.56 178.07 144.15 178.46 C 144.33 178.48 144.52 178.49 144.70 178.50 C 145.27 178.57 145.27 178.57 145.68 178.98 C 145.89 179.38 146.09 179.78 146.28 180.19 C 147.24 182.13 148.37 183.88 149.66 185.61 C 149.79 185.78 149.92 185.96 150.05 186.14 C 151.12 187.56 152.21 188.90 153.43 190.20 C 154.16 190.98 154.88 191.77 155.57 192.60 C 156.49 193.63 157.66 194.46 158.76 195.29 C 159.14 195.60 159.14 195.60 159.55 196.11 C 159.66 196.13 159.66 196.13 160.18 196.19 C 161.02 196.34 161.25 196.59 161.80 197.23 C 162.87 198.50 164.01 199.21 165.67 199.48 C 166.18 199.52 166.69 199.55 167.20 199.58 C 167.27 199.61 167.34 199.65 167.41 199.68 C 167.41 199.99 167.41 200.29 167.41 200.60 C 166.52 201.05 165.84 201.10 164.86 201.21 C 164.55 201.34 164.24 201.48 163.94 201.62 C 160.79 202.55 157.66 202.91 154.39 202.90 C 154.11 202.90 153.82 202.90 153.53 202.90 C 152.93 202.90 152.33 202.90 151.73 202.90 C 150.82 202.90 149.92 202.90 149.01 202.90 C 145.49 202.90 142.11 202.80 138.64 202.13 C 138.55 202.12 138.55 202.12 138.09 202.04 C 132.94 201.06 128.03 199.38 123.44 196.83 C 123.35 196.78 123.35 196.78 122.90 196.54 C 121.65 195.87 120.44 195.15 119.26 194.38 C 119.06 194.25 118.85 194.12 118.65 193.98 C 117.78 193.39 116.94 192.76 116.10 192.13 C 115.89 191.98 115.68 191.83 115.46 191.67 C 114.38 190.84 113.34 189.98 112.32 189.07 C 112.14 188.93 111.97 188.79 111.79 188.64 C 110.66 187.71 109.63 186.70 108.60 185.65 C 108.24 185.30 108.24 185.30 107.73 184.89 C 107.49 184.62 107.25 184.35 107.02 184.08 C 106.85 183.91 106.69 183.75 106.52 183.58 C 106.00 183.06 105.54 182.51 105.08 181.93 C 104.91 181.75 104.74 181.57 104.57 181.38 C 104.05 180.80 103.60 180.21 103.14 179.59 C 102.93 179.31 102.72 179.04 102.52 178.76 C 102.07 178.16 101.63 177.55 101.20 176.93 C 101.01 176.66 100.81 176.38 100.62 176.11 C 100.11 175.39 99.62 174.68 99.12 173.96 C 98.88 173.60 98.63 173.25 98.37 172.91 C 97.63 171.87 96.97 170.78 96.31 169.69 C 96.16 169.46 96.02 169.22 95.87 168.98 C 94.52 166.77 93.25 164.52 92.02 162.25 C 91.90 162.03 91.79 161.81 91.67 161.59 C 89.31 157.23 87.17 152.75 85.26 148.18 C 84.98 147.56 84.98 147.56 84.63 147.10 C 84.15 146.49 83.94 145.83 83.66 145.11 C 83.52 144.83 83.37 144.55 83.23 144.28 C 82.88 143.55 82.71 142.93 82.53 142.15 C 82.44 142.02 82.34 141.89 82.24 141.76 C 81.78 141.14 81.64 140.44 81.41 139.70 C 81.21 139.29 81.01 138.88 80.80 138.48 C 80.61 138.04 80.43 137.60 80.26 137.16 C 80.11 136.80 79.96 136.45 79.81 136.09 C 79.58 135.52 79.58 135.52 79.43 134.94 C 79.27 134.40 79.27 134.40 79.00 134.00 C 78.48 133.20 78.18 132.32 77.84 131.44 C 77.70 131.09 77.56 130.73 77.41 130.38 C 77.18 129.81 76.97 129.24 76.76 128.65 C 76.52 127.97 76.52 127.97 76.18 127.26 C 75.82 126.48 75.50 125.71 75.18 124.92 C 75.06 124.63 74.95 124.34 74.83 124.05 C 74.77 123.91 74.71 123.76 74.65 123.61 C 74.37 122.91 74.08 122.21 73.80 121.51 C 73.69 121.24 73.58 120.97 73.47 120.69 C 73.36 120.44 73.26 120.18 73.15 119.91 C 73.10 119.79 73.10 119.79 72.86 119.20 C 72.37 118.00 71.88 116.81 71.38 115.61 C 71.06 114.84 70.75 114.07 70.48 113.28 C 70.19 112.47 69.86 111.68 69.52 110.89 C 68.58 108.72 67.70 106.53 66.82 104.34 C 66.15 102.69 65.46 101.04 64.77 99.40 C 64.32 98.36 63.88 97.32 63.45 96.27 C 63.37 96.08 63.29 95.90 63.21 95.70 C 62.77 94.65 62.33 93.60 61.90 92.54 C 61.38 91.30 60.85 90.06 60.31 88.83 C 59.73 87.48 59.16 86.13 58.60 84.78 C 57.72 82.71 56.84 80.64 55.91 78.60 C 55.64 78.00 55.37 77.40 55.11 76.80 C 55.07 76.72 55.07 76.72 54.90 76.33 C 54.43 75.29 53.99 74.24 53.56 73.19 C 53.43 72.87 53.29 72.56 53.15 72.24 C 53.09 72.10 53.02 71.96 52.96 71.81 C 52.80 71.48 52.64 71.15 52.47 70.82 C 51.94 69.73 51.47 68.62 50.99 67.52 C 50.52 66.43 50.02 65.37 49.48 64.32 C 49.35 64.03 49.21 63.74 49.08 63.45 C 48.75 62.76 48.42 62.08 48.08 61.41 C 47.91 61.06 47.74 60.72 47.56 60.37 C 47.01 59.25 46.44 58.13 45.85 57.03 C 45.69 56.72 45.53 56.41 45.36 56.09 C 44.80 55.01 44.21 53.95 43.61 52.89 C 43.26 52.27 42.91 51.65 42.56 51.02 C 41.67 49.44 40.78 47.87 39.84 46.31 C 39.29 45.38 38.75 44.45 38.22 43.51 C 37.91 42.98 37.58 42.48 37.24 41.98 C 37.06 41.67 36.87 41.36 36.69 41.05 C 35.72 39.43 34.73 37.82 33.67 36.26 C 32.86 35.04 32.86 35.04 32.49 34.48 C 31.53 33.06 30.55 31.68 29.53 30.31 C 29.19 29.85 28.85 29.38 28.52 28.91 C 27.85 27.98 27.14 27.07 26.43 26.16 C 26.29 25.99 26.15 25.81 26.01 25.63 C 25.58 25.10 25.13 24.58 24.68 24.06 C 24.45 23.78 24.21 23.50 23.99 23.21 C 23.10 22.10 22.15 21.05 21.17 20.02 C 20.91 19.74 20.66 19.45 20.40 19.17 C 19.78 18.49 19.14 17.83 18.48 17.18 C 18.42 17.12 18.42 17.12 18.11 16.80 C 17.41 16.10 16.70 15.46 15.92 14.84 C 15.75 14.68 15.58 14.52 15.40 14.36 C 12.59 11.85 9.16 9.45 5.52 8.41 C 5.98 8.89 6.44 9.33 6.96 9.75 C 8.01 10.63 8.90 11.67 9.80 12.70 C 9.97 12.88 10.13 13.06 10.30 13.24 C 10.64 13.62 10.98 14.01 11.30 14.41 C 11.74 14.94 11.74 14.94 12.10 15.30 C 12.56 15.76 12.96 16.27 13.37 16.78 C 13.52 16.94 13.67 17.10 13.82 17.27 C 14.17 17.67 14.51 18.09 14.84 18.51 C 15.19 18.95 15.55 19.38 15.93 19.80 C 16.45 20.37 16.89 20.96 17.35 21.57 C 17.72 22.02 18.10 22.46 18.47 22.90 C 20.75 25.77 22.88 28.73 24.96 31.74 C 25.23 32.12 25.49 32.50 25.76 32.88 C 26.23 33.56 26.69 34.25 27.14 34.94 C 27.28 35.15 27.42 35.35 27.56 35.57 C 27.97 36.17 28.37 36.78 28.78 37.38 C 28.90 37.57 29.03 37.76 29.16 37.96 C 29.70 38.78 30.21 39.61 30.71 40.44 C 30.85 40.67 30.99 40.90 31.13 41.13 C 32.36 43.13 33.52 45.17 34.67 47.21 C 34.88 47.58 35.09 47.95 35.30 48.31 C 36.04 49.59 36.72 50.89 37.39 52.20 C 37.62 52.65 37.87 53.09 38.12 53.52 C 38.67 54.47 39.12 55.47 39.59 56.46 C 39.64 56.58 39.64 56.58 39.93 57.17 C 41.91 61.34 42.48 65.24 42.50 69.84 C 42.50 70.14 42.50 70.44 42.51 70.75 C 42.51 71.56 42.52 72.37 42.52 73.19 C 42.52 73.70 42.52 74.21 42.53 74.72 C 42.55 78.93 42.55 83.14 42.52 87.35 C 42.52 87.45 42.52 87.45 42.52 87.96 C 42.51 89.91 42.49 91.87 42.47 93.83 C 42.47 94.56 42.46 95.28 42.46 96.01 C 42.45 96.51 42.44 97.01 42.44 97.51 C 42.44 97.65 42.44 97.65 42.43 98.41 C 42.43 98.66 42.43 98.92 42.42 99.19 C 42.44 99.81 42.44 99.81 42.65 100.43 C 42.67 101.05 42.68 101.68 42.68 102.31 C 42.68 102.40 42.68 102.40 42.68 102.90 C 42.68 103.56 42.68 104.22 42.68 104.88 C 42.68 105.35 42.68 105.82 42.68 106.30 C 42.68 107.60 42.69 108.91 42.69 110.21 C 42.69 111.60 42.69 112.99 42.69 114.38 C 42.70 116.78 42.70 119.17 42.70 121.56 C 42.71 125.15 42.71 128.74 42.72 132.33 C 42.72 133.59 42.72 134.85 42.72 136.11 C 42.72 136.42 42.72 136.74 42.72 137.05 C 42.73 139.27 42.73 141.50 42.73 143.72 C 42.74 151.82 42.76 159.93 42.78 168.03 C 42.78 168.28 42.78 168.52 42.78 168.77 C 42.79 172.03 42.80 175.29 42.81 178.55 C 42.81 179.65 42.81 180.76 42.82 181.87 C 42.82 181.97 42.82 181.97 42.82 182.52 C 42.82 183.58 42.82 184.63 42.82 185.69 C 42.83 185.89 42.83 186.09 42.83 186.30 C 42.83 186.70 42.83 187.10 42.83 187.50 C 42.83 188.44 42.83 189.38 42.84 190.32 C 42.84 190.50 42.84 190.67 42.84 190.86 C 42.84 191.20 42.84 191.55 42.84 191.89 C 42.84 192.69 42.84 193.50 42.85 194.30 C 42.85 195.63 42.85 196.96 42.86 198.29 C 42.87 198.39 42.87 198.39 42.87 198.94 C 42.87 199.33 42.88 199.71 42.88 200.10 C 42.88 200.92 42.84 201.46 42.55 202.23 C 41.88 202.77 41.56 202.80 40.71 202.74 C 35.74 201.22 30.64 198.30 26.74 194.84 C 26.33 194.48 26.33 194.48 25.78 194.09 C 25.21 193.67 24.70 193.22 24.18 192.75 C 24.02 192.62 23.86 192.49 23.69 192.36 C 22.17 191.13 20.77 189.73 19.49 188.26 C 19.28 188.03 19.06 187.79 18.84 187.56 C 17.90 186.55 17.07 185.47 16.23 184.38 C 16.08 184.20 15.93 184.02 15.77 183.83 C 14.86 182.70 14.07 181.50 13.27 180.30 C 13.14 180.11 13.00 179.91 12.87 179.71 C 11.36 177.41 10.03 175.00 8.78 172.55 C 8.69 172.37 8.60 172.19 8.50 172.01 C 6.09 167.29 4.22 162.20 2.97 157.04 C 2.94 156.96 2.94 156.96 2.84 156.53 C 2.57 155.48 2.34 154.44 2.17 153.38 C 2.07 152.85 1.94 152.35 1.80 151.83 C 1.48 150.59 1.36 149.34 1.23 148.07 C 1.20 147.80 1.16 147.53 1.13 147.25 C 1.00 146.12 1.00 145.00 1.00 143.86 C 1.00 143.62 1.00 143.39 1.00 143.15 C 1.00 142.36 1.00 141.57 1.00 140.79 C 1.00 140.22 1.00 139.65 1.00 139.08 C 1.00 137.84 1.00 136.61 1.00 135.37 C 1.00 133.53 1.00 131.69 1.00 129.85 C 1.00 126.57 1.00 123.28 1.00 119.99 C 1.00 117.12 1.00 114.25 1.00 111.37 C 1.00 111.18 1.00 110.99 1.00 110.79 C 1.00 110.02 1.00 109.24 1.00 108.47 C 1.00 101.21 1.00 93.95 1.00 86.69 C 1.00 80.24 1.00 73.79 1.00 67.34 C 1.00 60.09 1.00 52.84 1.00 45.60 C 1.00 44.82 1.00 44.05 1.00 43.28 C 1.00 43.09 1.00 42.90 1.00 42.70 C 1.00 39.83 1.00 36.96 1.00 34.08 C 1.00 30.82 1.00 27.55 1.00 24.28 C 1.00 22.45 1.00 20.63 1.00 18.80 C 1.00 17.43 1.00 16.07 1.00 14.71 C 1.00 14.15 1.00 13.60 1.00 13.05 C 1.00 12.30 1.00 11.55 1.00 10.80 C 1.00 10.58 1.00 10.37 1.00 10.14 C 1.00 9.94 1.00 9.74 1.00 9.54 C 1.00 9.45 1.00 9.45 1.00 9.02 C 1.09 7.33 1.74 6.58 2.97 5.46 C 3.60 5.22 4.22 5.02 4.87 4.84 C 5.43 4.68 5.98 4.52 6.54 4.33 C 6.76 4.29 6.98 4.25 7.21 4.20 C 7.83 4.07 8.44 3.93 9.06 3.78 C 12.21 3.02 15.50 2.72 18.73 2.64 C 18.92 2.64 19.12 2.64 19.31 2.63 C 25.16 2.51 31.02 2.45 36.70 4.02 Z M 209.64 83.19 C 209.74 83.25 209.84 83.32 209.95 83.39 C 209.97 84.01 209.97 84.62 209.97 85.24 C 209.96 85.33 209.96 85.33 209.96 85.77 C 209.96 86.20 209.95 86.63 209.95 87.06 C 209.74 87.06 209.54 87.06 209.33 87.06 C 209.33 86.49 209.33 85.92 209.33 85.33 C 209.23 85.33 209.13 85.33 209.03 85.33 C 209.01 85.21 209.01 85.21 208.93 84.62 C 208.89 84.88 208.86 85.15 208.82 85.43 C 208.69 85.47 208.55 85.50 208.42 85.53 C 208.40 85.62 208.40 85.62 208.31 86.04 C 208.07 86.53 208.07 86.53 207.80 86.96 C 207.75 86.98 207.75 86.98 207.50 87.06 C 207.46 87.27 207.43 87.47 207.40 87.68 C 207.36 87.71 207.36 87.71 207.19 87.88 C 207.16 87.98 207.16 87.98 206.99 88.49 C 206.61 89.39 206.61 89.39 206.38 89.51 C 206.31 89.71 206.24 89.92 206.17 90.12 C 206.10 90.12 206.04 90.12 205.97 90.12 C 205.90 90.36 205.83 90.60 205.76 90.84 C 205.60 91.11 205.43 91.38 205.25 91.65 C 205.15 91.89 205.05 92.13 204.95 92.37 C 204.91 92.38 204.91 92.38 204.74 92.47 C 204.64 92.71 204.54 92.94 204.44 93.18 C 204.15 93.64 203.84 94.08 203.52 94.51 C 203.45 94.71 203.38 94.91 203.32 95.12 C 203.21 95.22 203.11 95.32 203.01 95.43 C 202.60 96.04 202.60 96.04 202.50 96.35 C 202.33 96.51 202.16 96.68 201.99 96.86 C 201.82 97.16 201.65 97.47 201.48 97.77 C 201.41 97.81 201.34 97.84 201.28 97.88 C 201.19 98.04 201.11 98.21 201.03 98.38 C 200.76 98.90 200.76 98.90 200.46 99.10 C 200.36 99.10 200.26 99.10 200.15 99.10 C 200.12 99.34 200.09 99.57 200.05 99.81 C 199.85 100.22 199.85 100.22 199.54 100.53 C 199.37 100.53 199.20 100.53 199.03 100.53 C 199.03 100.76 199.03 101.00 199.03 101.24 C 198.72 101.75 198.72 101.75 198.42 101.96 C 198.18 101.96 197.95 101.96 197.70 101.96 C 197.70 101.04 197.70 101.04 198.11 100.53 C 198.35 100.50 198.58 100.46 198.83 100.43 C 198.83 100.16 198.83 99.89 198.83 99.61 C 199.00 99.38 199.16 99.14 199.34 98.90 C 199.47 98.90 199.61 98.90 199.74 98.90 C 199.74 98.69 199.74 98.49 199.74 98.28 C 200.05 97.67 200.05 97.67 200.46 97.26 C 200.51 97.19 200.51 97.19 200.78 96.78 C 200.87 96.64 200.97 96.49 201.07 96.35 C 201.14 96.35 201.21 96.35 201.28 96.35 C 201.31 96.18 201.34 96.01 201.38 95.84 C 201.54 95.56 201.71 95.29 201.89 95.02 C 202.01 94.82 202.13 94.62 202.26 94.41 C 202.37 94.24 202.49 94.07 202.60 93.90 C 202.67 93.90 202.74 93.90 202.81 93.90 C 202.84 93.70 202.87 93.49 202.91 93.29 C 203.01 93.19 203.11 93.08 203.21 92.98 C 203.28 92.81 203.35 92.64 203.42 92.47 C 203.47 92.39 203.47 92.39 203.73 92.01 C 204.03 91.55 204.03 91.55 204.13 91.14 C 204.18 91.11 204.18 91.11 204.44 90.94 C 204.50 90.74 204.57 90.54 204.64 90.33 C 204.71 90.33 204.78 90.33 204.85 90.33 C 204.88 90.13 204.91 89.92 204.95 89.72 C 205.05 89.55 205.15 89.38 205.25 89.21 C 205.39 88.94 205.52 88.67 205.66 88.39 C 205.73 88.26 205.80 88.12 205.87 87.98 C 205.93 87.98 206.00 87.98 206.07 87.98 C 206.10 87.78 206.14 87.58 206.17 87.37 C 206.27 87.24 206.37 87.10 206.48 86.96 C 206.54 86.83 206.61 86.69 206.68 86.55 C 206.75 86.55 206.82 86.55 206.89 86.55 C 206.92 86.32 206.95 86.08 206.99 85.84 C 207.09 85.67 207.19 85.50 207.29 85.33 C 207.31 85.28 207.31 85.28 207.40 85.02 C 207.43 85.01 207.43 85.01 207.60 84.92 C 207.67 84.69 207.73 84.45 207.80 84.21 C 207.90 84.21 208.01 84.21 208.11 84.21 C 208.14 83.94 208.18 83.67 208.21 83.39 C 208.68 83.08 209.09 83.16 209.64 83.19 Z" fill="#17A8B0"/>
  <path id="gold" d="M 209.54 1.17 C 209.67 1.27 209.81 1.37 209.95 1.48 C 209.99 2.11 210.00 2.72 210.00 3.35 C 210.00 3.55 210.00 3.75 210.00 3.95 C 210.00 4.62 210.00 5.29 210.00 5.96 C 210.00 6.44 210.00 6.92 210.00 7.39 C 210.00 8.69 210.00 10.00 209.99 11.30 C 209.99 12.66 209.99 14.02 209.99 15.38 C 209.99 17.67 209.99 19.96 209.99 22.25 C 209.98 24.89 209.98 27.53 209.98 30.18 C 209.98 32.99 209.98 35.81 209.98 38.62 C 209.98 39.43 209.98 40.24 209.98 41.05 C 209.98 42.33 209.98 43.61 209.98 44.88 C 209.98 45.35 209.98 45.82 209.98 46.28 C 209.98 46.92 209.97 47.56 209.97 48.20 C 209.97 48.39 209.97 48.57 209.97 48.76 C 209.97 50.49 209.84 52.20 209.54 53.91 C 209.51 54.19 209.48 54.47 209.46 54.77 C 209.36 55.68 209.16 56.55 208.95 57.45 C 208.77 58.20 208.65 58.96 208.52 59.72 C 208.28 60.83 207.98 61.89 207.63 62.97 C 207.48 63.45 207.39 63.92 207.29 64.42 C 207.17 64.81 207.05 65.20 206.93 65.59 C 206.77 66.08 206.63 66.57 206.49 67.06 C 206.25 67.86 205.97 68.64 205.65 69.42 C 205.42 70.02 205.22 70.62 205.01 71.23 C 204.26 73.41 203.34 75.49 202.30 77.56 C 202.08 78.01 201.87 78.46 201.66 78.92 C 200.50 81.36 199.12 83.70 197.60 85.94 C 197.49 86.13 197.37 86.31 197.25 86.50 C 196.26 88.06 195.19 89.53 194.04 90.96 C 193.75 91.32 193.46 91.69 193.18 92.05 C 191.74 93.89 190.22 95.65 188.63 97.37 C 188.50 97.51 188.38 97.65 188.26 97.79 C 187.64 98.49 186.99 99.12 186.28 99.71 C 186.23 99.77 186.23 99.77 185.99 100.06 C 185.64 100.46 185.26 100.79 184.85 101.14 C 184.63 101.36 184.41 101.58 184.19 101.80 C 183.71 102.28 183.23 102.74 182.71 103.18 C 182.54 103.33 182.38 103.48 182.21 103.63 C 181.71 104.08 181.19 104.50 180.67 104.92 C 180.52 105.05 180.37 105.18 180.21 105.32 C 179.73 105.75 179.23 106.15 178.73 106.55 C 178.37 106.85 178.01 107.16 177.66 107.47 C 177.35 107.74 177.03 107.99 176.72 108.25 C 176.36 108.54 176.02 108.84 175.68 109.15 C 175.12 109.64 174.53 110.08 173.94 110.53 C 173.60 110.83 173.26 111.14 172.92 111.44 C 172.56 111.72 172.21 112.00 171.85 112.27 C 171.38 112.65 170.95 113.06 170.51 113.48 C 170.14 113.81 169.76 114.12 169.37 114.43 C 168.63 115.02 167.95 115.64 167.28 116.29 C 166.89 116.66 166.49 117.01 166.08 117.36 C 164.97 118.36 163.91 119.41 162.85 120.47 C 162.67 120.65 162.50 120.82 162.31 121.00 C 161.48 121.83 160.68 122.66 159.96 123.58 C 159.59 124.03 159.21 124.47 158.84 124.91 C 158.53 125.28 158.23 125.66 157.92 126.03 C 157.81 126.16 157.70 126.29 157.59 126.43 C 156.76 127.42 156.00 128.44 155.27 129.50 C 155.10 129.73 154.94 129.96 154.76 130.19 C 153.27 132.31 151.92 134.51 150.78 136.84 C 150.65 137.08 150.52 137.31 150.39 137.56 C 149.97 138.35 149.60 139.16 149.23 139.98 C 149.17 140.12 149.17 140.12 148.87 140.79 C 148.76 141.04 148.65 141.28 148.54 141.54 C 148.45 141.73 148.36 141.93 148.26 142.13 C 146.76 145.48 145.71 149.04 145.07 152.66 C 145.03 152.84 145.00 153.03 144.97 153.22 C 143.77 160.15 143.43 167.13 144.82 174.06 C 144.91 174.53 145.00 174.99 145.07 175.46 C 145.17 176.02 145.17 176.02 145.37 176.63 C 145.40 176.99 145.41 177.35 145.41 177.71 C 145.41 177.90 145.42 178.09 145.42 178.28 C 145.37 178.77 145.37 178.77 144.97 179.18 C 143.66 179.29 143.66 179.29 142.93 178.67 C 142.23 177.68 141.68 176.61 141.12 175.54 C 140.87 175.07 140.59 174.62 140.31 174.16 C 139.84 173.41 139.44 172.64 139.05 171.83 C 138.92 171.57 138.78 171.30 138.65 171.03 C 138.51 170.76 138.37 170.48 138.23 170.20 C 138.11 169.95 137.98 169.70 137.85 169.44 C 135.60 164.95 135.60 164.95 134.87 163.06 C 134.77 162.82 134.67 162.59 134.58 162.34 C 134.47 162.08 134.37 161.82 134.27 161.56 C 134.17 161.32 134.08 161.08 133.98 160.83 C 133.73 160.07 133.62 159.37 133.54 158.57 C 133.45 157.72 133.35 156.89 133.18 156.05 C 133.03 155.22 132.95 154.41 132.88 153.57 C 132.83 153.06 132.83 153.06 132.67 152.34 C 132.50 151.44 132.44 150.56 132.38 149.65 C 132.28 148.32 132.13 147.00 131.99 145.68 C 131.78 143.83 131.68 142.00 131.65 140.14 C 131.63 139.11 131.57 138.08 131.50 137.05 C 131.36 134.87 131.37 132.68 131.37 130.50 C 131.37 129.77 131.37 129.05 131.37 128.32 C 131.37 127.85 131.37 127.39 131.37 126.92 C 131.37 126.70 131.37 126.49 131.37 126.27 C 131.37 125.02 131.45 123.81 131.60 122.56 C 131.62 122.22 131.63 121.87 131.63 121.52 C 131.76 117.93 132.22 114.25 132.93 110.73 C 132.97 110.53 133.00 110.32 133.04 110.11 C 133.26 108.92 133.50 107.75 133.81 106.57 C 133.91 106.19 134.00 105.80 134.10 105.41 C 134.93 101.88 136.11 98.42 137.62 95.12 C 137.80 94.69 137.99 94.26 138.17 93.82 C 140.01 89.47 142.43 85.40 145.17 81.56 C 145.34 81.32 145.51 81.08 145.68 80.83 C 146.59 79.58 147.52 78.35 148.51 77.16 C 148.78 76.83 149.05 76.50 149.32 76.17 C 149.82 75.56 150.35 74.99 150.88 74.41 C 151.03 74.23 151.17 74.05 151.32 73.87 C 151.81 73.28 152.33 72.75 152.88 72.22 C 153.11 71.98 153.34 71.74 153.56 71.48 C 153.93 71.06 154.32 70.66 154.72 70.26 C 154.87 70.11 155.01 69.96 155.16 69.81 C 155.31 69.66 155.46 69.51 155.62 69.36 C 155.77 69.21 155.92 69.06 156.08 68.90 C 156.22 68.75 156.37 68.61 156.52 68.46 C 156.65 68.33 156.78 68.19 156.92 68.06 C 157.31 67.68 157.71 67.32 158.12 66.97 C 158.46 66.66 158.79 66.36 159.12 66.05 C 159.70 65.52 160.28 64.99 160.87 64.47 C 161.20 64.19 161.51 63.90 161.83 63.61 C 162.20 63.28 162.57 62.96 162.96 62.64 C 163.62 62.10 164.24 61.53 164.86 60.95 C 165.98 59.92 165.98 59.92 166.48 59.48 C 166.86 59.14 167.24 58.80 167.61 58.45 C 168.11 57.98 168.62 57.52 169.14 57.07 C 169.90 56.39 170.65 55.70 171.39 55.00 C 171.79 54.63 172.20 54.27 172.61 53.91 C 173.66 52.96 174.67 51.96 175.68 50.96 C 175.74 50.90 175.74 50.90 176.04 50.60 C 176.62 50.02 177.18 49.43 177.71 48.81 C 178.19 48.28 178.68 47.75 179.17 47.23 C 179.67 46.70 180.15 46.16 180.62 45.60 C 180.98 45.16 181.34 44.75 181.73 44.34 C 182.37 43.65 182.95 42.93 183.53 42.18 C 183.94 41.67 184.36 41.16 184.78 40.65 C 185.53 39.76 186.22 38.85 186.89 37.89 C 187.20 37.49 187.50 37.08 187.81 36.67 C 188.05 36.33 188.30 35.98 188.54 35.64 C 188.87 35.19 189.20 34.74 189.54 34.29 C 190.17 33.43 190.78 32.55 191.38 31.67 C 191.53 31.45 191.69 31.23 191.85 31.00 C 192.65 29.83 193.42 28.66 194.16 27.44 C 194.52 26.84 194.91 26.26 195.29 25.67 C 195.73 24.99 196.16 24.30 196.58 23.61 C 196.67 23.47 196.76 23.33 196.85 23.18 C 197.50 22.13 198.12 21.05 198.73 19.97 C 199.06 19.38 199.40 18.79 199.74 18.21 C 200.40 17.04 200.98 15.84 201.57 14.64 C 202.02 13.73 202.49 12.85 203.01 11.98 C 203.28 11.44 203.56 10.90 203.83 10.35 C 203.96 10.09 204.09 9.83 204.22 9.57 C 204.63 8.76 205.01 7.94 205.40 7.13 C 205.60 6.72 205.80 6.30 206.01 5.90 C 206.51 4.87 206.94 3.83 207.39 2.78 C 207.94 1.58 208.23 1.09 209.54 1.17 Z M 143.01 9.61 C 143.14 9.61 143.14 9.61 143.83 9.60 C 145.17 9.60 146.41 9.64 147.72 9.94 C 147.94 9.97 148.16 10.00 148.38 10.03 C 152.44 10.74 156.10 13.20 159.04 15.96 C 159.18 16.08 159.32 16.19 159.46 16.31 C 162.51 19.11 164.97 23.50 165.57 27.59 C 165.60 27.73 165.60 27.73 165.72 28.45 C 165.77 28.74 165.83 29.03 165.88 29.33 C 165.91 29.53 165.95 29.73 165.99 29.94 C 166.32 32.48 166.17 35.23 165.47 37.69 C 165.44 37.86 165.41 38.02 165.39 38.19 C 164.97 40.32 164.05 42.23 163.02 44.12 C 162.96 44.24 162.96 44.24 162.63 44.84 C 161.79 46.23 160.77 47.43 159.65 48.61 C 159.54 48.73 159.44 48.85 159.32 48.97 C 156.71 51.85 153.06 53.85 149.35 54.93 C 149.15 55.00 148.95 55.06 148.74 55.13 C 143.31 56.39 136.94 56.20 131.91 53.71 C 131.77 53.64 131.64 53.58 131.50 53.51 C 125.95 50.79 122.09 45.95 120.02 40.19 C 119.68 39.14 119.44 38.07 119.26 36.98 C 119.22 36.81 119.19 36.64 119.15 36.47 C 119.02 35.49 119.03 34.52 119.03 33.53 C 119.03 33.34 119.03 33.14 119.03 32.94 C 119.03 31.82 119.09 30.74 119.26 29.63 C 119.28 29.46 119.31 29.30 119.33 29.12 C 120.26 23.40 123.55 17.69 128.24 14.22 C 131.34 12.10 134.89 10.36 138.64 9.84 C 138.84 9.81 139.05 9.77 139.26 9.74 C 140.50 9.56 141.75 9.61 143.01 9.61 Z" fill="#F0B849"/>
  <path id="blue" d="M 208.52 83.70 C 208.82 83.70 209.12 83.70 209.44 83.70 C 209.64 83.90 209.64 83.90 209.66 84.29 C 209.66 84.38 209.66 84.38 209.66 84.83 C 209.66 85.03 209.66 85.24 209.66 85.46 C 209.66 85.69 209.66 85.93 209.65 86.18 C 209.65 86.73 209.65 87.27 209.65 87.82 C 209.65 88.14 209.65 88.46 209.64 88.77 C 209.64 89.92 209.64 91.06 209.64 92.21 C 209.64 92.32 209.64 92.32 209.64 92.86 C 209.64 93.31 209.63 93.75 209.63 94.20 C 209.63 95.41 209.63 96.61 209.63 97.82 C 209.63 98.07 209.63 98.32 209.63 98.58 C 209.62 102.12 209.62 105.65 209.61 109.19 C 209.61 112.06 209.60 114.93 209.60 117.80 C 209.59 120.32 209.59 122.85 209.58 125.37 C 209.58 126.70 209.58 128.02 209.58 129.35 C 209.56 143.74 209.56 143.74 209.03 146.94 C 209.02 147.20 209.00 147.45 208.99 147.71 C 208.93 148.48 208.80 149.16 208.62 149.90 C 208.55 150.41 208.48 150.92 208.42 151.43 C 208.35 151.63 208.28 151.84 208.21 152.04 C 208.18 152.27 208.14 152.49 208.11 152.71 C 208.01 153.37 208.01 153.37 207.80 153.88 C 207.77 154.05 207.74 154.22 207.70 154.39 C 207.60 154.90 207.60 154.90 207.40 155.41 C 207.33 155.75 207.26 156.09 207.19 156.43 C 207.12 156.63 207.06 156.83 206.99 157.04 C 206.96 157.18 206.93 157.32 206.90 157.47 C 206.67 158.47 206.30 159.44 205.97 160.41 C 205.93 160.51 205.93 160.51 205.75 161.04 C 205.38 162.13 204.98 163.21 204.54 164.29 C 204.49 164.42 204.49 164.42 204.24 165.10 C 203.93 165.91 203.59 166.67 203.21 167.45 C 203.13 167.62 203.06 167.79 202.97 167.96 C 202.45 169.08 201.89 170.15 201.28 171.22 C 201.22 171.33 201.22 171.33 200.95 171.89 C 199.78 174.18 198.41 176.39 196.89 178.46 C 196.76 178.65 196.63 178.83 196.49 179.01 C 196.35 179.20 196.22 179.39 196.07 179.59 C 196.03 179.65 196.03 179.65 195.79 179.97 C 195.11 180.90 194.38 181.78 193.62 182.65 C 193.48 182.82 193.34 183.00 193.20 183.18 C 192.47 184.08 191.68 184.92 190.89 185.76 C 190.66 186.01 190.44 186.26 190.22 186.51 C 189.23 187.63 188.16 188.66 186.99 189.58 C 186.82 189.74 186.65 189.89 186.48 190.05 C 185.98 190.49 185.48 190.91 184.95 191.32 C 184.73 191.50 184.50 191.68 184.27 191.86 C 178.97 196.02 172.05 200.59 165.06 200.19 C 162.85 199.75 161.76 198.65 160.27 197.03 C 160.11 196.89 159.95 196.75 159.79 196.61 C 159.27 196.14 158.86 195.64 158.43 195.09 C 158.21 194.82 157.98 194.54 157.76 194.27 C 153.78 189.36 151.61 183.08 150.86 176.87 C 150.78 176.32 150.78 176.32 150.68 175.93 C 150.18 173.47 150.22 170.87 150.23 168.39 C 150.23 168.09 150.23 167.79 150.23 167.49 C 150.23 165.10 150.38 162.75 150.88 160.41 C 150.91 160.16 150.94 159.92 150.97 159.66 C 151.13 158.47 151.36 157.30 151.60 156.12 C 151.64 155.88 151.68 155.64 151.73 155.39 C 151.93 154.48 152.20 153.62 152.50 152.73 C 152.55 152.57 152.61 152.42 152.66 152.25 C 152.94 151.41 153.26 150.60 153.64 149.80 C 153.82 149.35 154.00 148.91 154.18 148.46 C 156.12 143.68 158.95 139.33 162.31 135.42 C 162.45 135.24 162.58 135.07 162.73 134.89 C 163.50 133.93 164.35 133.07 165.22 132.20 C 165.59 131.83 165.94 131.43 166.29 131.03 C 166.64 130.67 166.99 130.33 167.37 130.00 C 167.86 129.56 168.32 129.10 168.78 128.63 C 169.54 127.86 170.30 127.15 171.17 126.50 C 171.75 126.07 172.27 125.60 172.81 125.11 C 173.26 124.77 173.70 124.43 174.14 124.09 C 174.48 123.79 174.82 123.48 175.16 123.18 C 175.64 122.80 176.11 122.43 176.59 122.05 C 176.76 121.90 176.93 121.74 177.11 121.58 C 177.66 121.09 178.24 120.66 178.83 120.22 C 179.28 119.84 179.72 119.47 180.16 119.09 C 180.33 118.96 180.50 118.83 180.67 118.69 C 181.31 118.17 181.90 117.62 182.51 117.05 C 183.30 116.35 184.12 115.68 184.95 115.01 C 185.05 114.90 185.14 114.79 185.24 114.68 C 185.59 114.27 185.97 113.94 186.38 113.59 C 186.79 113.21 187.20 112.84 187.61 112.46 C 187.82 112.27 188.03 112.08 188.25 111.88 C 188.72 111.45 189.13 111.01 189.54 110.53 C 189.71 110.39 189.88 110.26 190.05 110.12 C 190.29 109.85 190.53 109.57 190.77 109.30 C 191.14 108.93 191.52 108.55 191.89 108.18 C 192.10 107.94 192.30 107.71 192.50 107.47 C 192.78 107.19 193.06 106.91 193.34 106.64 C 193.73 106.24 193.73 106.24 194.15 105.67 C 194.69 104.96 195.26 104.34 195.87 103.69 C 196.41 103.10 196.91 102.49 197.40 101.86 C 197.57 101.65 197.75 101.44 197.93 101.22 C 198.42 100.63 198.42 100.63 198.83 100.02 C 198.95 99.85 199.07 99.68 199.20 99.50 C 199.97 98.44 200.70 97.36 201.41 96.26 C 202.31 94.86 202.31 94.86 202.81 94.20 C 202.88 94.06 202.96 93.92 203.04 93.78 C 203.31 93.29 203.62 92.83 203.93 92.37 C 203.98 92.27 203.98 92.27 204.23 91.76 C 204.83 90.63 205.44 89.50 206.07 88.39 C 206.20 88.13 206.32 87.88 206.45 87.62 C 206.93 86.66 207.46 85.74 208.01 84.82 C 208.08 84.82 208.14 84.82 208.21 84.82 C 208.21 84.58 208.21 84.35 208.21 84.11 C 208.26 84.04 208.26 84.04 208.52 83.70 Z" fill="#2B58B4"/>
</svg>
